<?xml version="1.0" encoding="utf-8"?>
<svg xmlns="http://www.w3.org/2000/svg" xmlns:xlink="http://www.w3.org/1999/xlink" width="1600" height="900" viewBox="0 0 6400 3600">
<defs>
  <clipPath id="clip400">
    <rect x="0" y="0" width="6400" height="3600"/>
  </clipPath>
</defs>
<path clip-path="url(#clip400)" d="M0 3600 L6400 3600 L6400 0 L0 0  Z" fill="#ffffff" fill-rule="evenodd" fill-opacity="1"/>
<defs>
  <clipPath id="clip401">
    <rect x="1280" y="0" width="4481" height="3600"/>
  </clipPath>
</defs>
<path clip-path="url(#clip400)" d="M521.393 3225.79 L6006.73 3225.79 L6006.73 175.496 L521.393 175.496  Z" fill="#ffffff" fill-rule="evenodd" fill-opacity="1"/>
<defs>
  <clipPath id="clip402">
    <rect x="521" y="175" width="5486" height="3051"/>
  </clipPath>
</defs>
<polyline clip-path="url(#clip402)" style="stroke:#000000; stroke-linecap:round; stroke-linejoin:round; stroke-width:2; stroke-opacity:0.1; fill:none" points="1011.93,3225.79 1011.93,175.496 "/>
<polyline clip-path="url(#clip402)" style="stroke:#000000; stroke-linecap:round; stroke-linejoin:round; stroke-width:2; stroke-opacity:0.1; fill:none" points="2138,3225.79 2138,175.496 "/>
<polyline clip-path="url(#clip402)" style="stroke:#000000; stroke-linecap:round; stroke-linejoin:round; stroke-width:2; stroke-opacity:0.1; fill:none" points="3264.06,3225.79 3264.06,175.496 "/>
<polyline clip-path="url(#clip402)" style="stroke:#000000; stroke-linecap:round; stroke-linejoin:round; stroke-width:2; stroke-opacity:0.1; fill:none" points="4390.13,3225.79 4390.13,175.496 "/>
<polyline clip-path="url(#clip402)" style="stroke:#000000; stroke-linecap:round; stroke-linejoin:round; stroke-width:2; stroke-opacity:0.1; fill:none" points="5516.2,3225.79 5516.2,175.496 "/>
<polyline clip-path="url(#clip400)" style="stroke:#000000; stroke-linecap:round; stroke-linejoin:round; stroke-width:4; stroke-opacity:1; fill:none" points="521.393,3225.79 6006.73,3225.79 "/>
<polyline clip-path="url(#clip400)" style="stroke:#000000; stroke-linecap:round; stroke-linejoin:round; stroke-width:4; stroke-opacity:1; fill:none" points="1011.93,3225.79 1011.93,3206.89 "/>
<polyline clip-path="url(#clip400)" style="stroke:#000000; stroke-linecap:round; stroke-linejoin:round; stroke-width:4; stroke-opacity:1; fill:none" points="2138,3225.79 2138,3206.89 "/>
<polyline clip-path="url(#clip400)" style="stroke:#000000; stroke-linecap:round; stroke-linejoin:round; stroke-width:4; stroke-opacity:1; fill:none" points="3264.06,3225.79 3264.06,3206.89 "/>
<polyline clip-path="url(#clip400)" style="stroke:#000000; stroke-linecap:round; stroke-linejoin:round; stroke-width:4; stroke-opacity:1; fill:none" points="4390.13,3225.79 4390.13,3206.89 "/>
<polyline clip-path="url(#clip400)" style="stroke:#000000; stroke-linecap:round; stroke-linejoin:round; stroke-width:4; stroke-opacity:1; fill:none" points="5516.2,3225.79 5516.2,3206.89 "/>
<path clip-path="url(#clip400)" d="M857.267 3344.34 Q857.267 3333.93 852.944 3328.2 Q848.674 3322.47 840.913 3322.47 Q833.205 3322.47 828.882 3328.2 Q824.611 3333.93 824.611 3344.34 Q824.611 3354.71 828.882 3360.44 Q833.205 3366.17 840.913 3366.17 Q848.674 3366.17 852.944 3360.44 Q857.267 3354.71 857.267 3344.34 M866.851 3366.95 Q866.851 3381.84 860.236 3389.08 Q853.621 3396.38 839.976 3396.38 Q834.924 3396.38 830.444 3395.59 Q825.965 3394.86 821.747 3393.3 L821.747 3383.98 Q825.965 3386.27 830.08 3387.36 Q834.194 3388.46 838.465 3388.46 Q847.892 3388.46 852.58 3383.51 Q857.267 3378.61 857.267 3368.67 L857.267 3363.93 Q854.299 3369.08 849.663 3371.64 Q845.028 3374.19 838.569 3374.19 Q827.84 3374.19 821.278 3366.01 Q814.715 3357.83 814.715 3344.34 Q814.715 3330.8 821.278 3322.63 Q827.84 3314.45 838.569 3314.45 Q845.028 3314.45 849.663 3317 Q854.299 3319.55 857.267 3324.71 L857.267 3315.85 L866.851 3315.85 L866.851 3366.95 Z" fill="#000000" fill-rule="nonzero" fill-opacity="1" /><path clip-path="url(#clip400)" d="M936.486 3342.63 L936.486 3347.31 L892.423 3347.31 Q893.048 3357.21 898.361 3362.42 Q903.725 3367.57 913.257 3367.57 Q918.777 3367.57 923.934 3366.22 Q929.142 3364.87 934.246 3362.16 L934.246 3371.22 Q929.09 3373.41 923.673 3374.55 Q918.257 3375.7 912.684 3375.7 Q898.725 3375.7 890.548 3367.57 Q882.423 3359.45 882.423 3345.59 Q882.423 3331.27 890.132 3322.89 Q897.892 3314.45 911.017 3314.45 Q922.788 3314.45 929.611 3322.05 Q936.486 3329.6 936.486 3342.63 M926.902 3339.81 Q926.798 3331.95 922.475 3327.26 Q918.204 3322.57 911.121 3322.57 Q903.1 3322.57 898.257 3327.1 Q893.465 3331.64 892.736 3339.87 L926.902 3339.81 Z" fill="#000000" fill-rule="nonzero" fill-opacity="1" /><path clip-path="url(#clip400)" d="M961.694 3299.29 L961.694 3315.85 L981.433 3315.85 L981.433 3323.3 L961.694 3323.3 L961.694 3354.97 Q961.694 3362.1 963.621 3364.14 Q965.6 3366.17 971.59 3366.17 L981.433 3366.17 L981.433 3374.19 L971.59 3374.19 Q960.496 3374.19 956.277 3370.07 Q952.058 3365.91 952.058 3354.97 L952.058 3323.3 L945.027 3323.3 L945.027 3315.85 L952.058 3315.85 L952.058 3299.29 L961.694 3299.29 Z" fill="#000000" fill-rule="nonzero" fill-opacity="1" /><path clip-path="url(#clip400)" d="M1016.64 3322.57 Q1008.93 3322.57 1004.45 3328.62 Q999.975 3334.6 999.975 3345.07 Q999.975 3355.54 1004.4 3361.58 Q1008.88 3367.57 1016.64 3367.57 Q1024.3 3367.57 1028.78 3361.53 Q1033.26 3355.49 1033.26 3345.07 Q1033.26 3334.71 1028.78 3328.67 Q1024.3 3322.57 1016.64 3322.57 M1016.64 3314.45 Q1029.14 3314.45 1036.28 3322.57 Q1043.41 3330.7 1043.41 3345.07 Q1043.41 3359.4 1036.28 3367.57 Q1029.14 3375.7 1016.64 3375.7 Q1004.09 3375.7 996.954 3367.57 Q989.871 3359.4 989.871 3345.07 Q989.871 3330.7 996.954 3322.57 Q1004.09 3314.45 1016.64 3314.45 Z" fill="#000000" fill-rule="nonzero" fill-opacity="1" /><path clip-path="url(#clip400)" d="M1068.57 3365.44 L1068.57 3396.38 L1058.93 3396.38 L1058.93 3315.85 L1068.57 3315.85 L1068.57 3324.71 Q1071.59 3319.5 1076.17 3317 Q1080.81 3314.45 1087.21 3314.45 Q1097.84 3314.45 1104.45 3322.89 Q1111.12 3331.32 1111.12 3345.07 Q1111.12 3358.82 1104.45 3367.26 Q1097.84 3375.7 1087.21 3375.7 Q1080.81 3375.7 1076.17 3373.2 Q1071.59 3370.65 1068.57 3365.44 M1101.17 3345.07 Q1101.17 3334.5 1096.8 3328.51 Q1092.47 3322.47 1084.87 3322.47 Q1077.27 3322.47 1072.89 3328.51 Q1068.57 3334.5 1068.57 3345.07 Q1068.57 3355.65 1072.89 3361.69 Q1077.27 3367.68 1084.87 3367.68 Q1092.47 3367.68 1096.8 3361.69 Q1101.17 3355.65 1101.17 3345.07 Z" fill="#000000" fill-rule="nonzero" fill-opacity="1" /><path clip-path="url(#clip400)" d="M1136.48 3299.29 L1136.48 3315.85 L1156.22 3315.85 L1156.22 3323.3 L1136.48 3323.3 L1136.48 3354.97 Q1136.48 3362.1 1138.41 3364.14 Q1140.39 3366.17 1146.38 3366.17 L1156.22 3366.17 L1156.22 3374.19 L1146.38 3374.19 Q1135.29 3374.19 1131.07 3370.07 Q1126.85 3365.91 1126.85 3354.97 L1126.85 3323.3 L1119.82 3323.3 L1119.82 3315.85 L1126.85 3315.85 L1126.85 3299.29 L1136.48 3299.29 Z" fill="#000000" fill-rule="nonzero" fill-opacity="1" /><path clip-path="url(#clip400)" d="M1206.02 3317.57 L1206.02 3326.64 Q1201.95 3324.55 1197.58 3323.51 Q1193.2 3322.47 1188.52 3322.47 Q1181.38 3322.47 1177.79 3324.66 Q1174.24 3326.84 1174.24 3331.22 Q1174.24 3334.55 1176.8 3336.48 Q1179.35 3338.35 1187.06 3340.07 L1190.34 3340.8 Q1200.55 3342.99 1204.82 3347 Q1209.14 3350.96 1209.14 3358.09 Q1209.14 3366.22 1202.68 3370.96 Q1196.28 3375.7 1185.03 3375.7 Q1180.34 3375.7 1175.23 3374.76 Q1170.18 3373.88 1164.56 3372.05 L1164.56 3362.16 Q1169.87 3364.92 1175.03 3366.32 Q1180.18 3367.68 1185.23 3367.68 Q1192.01 3367.68 1195.65 3365.39 Q1199.3 3363.04 1199.3 3358.82 Q1199.3 3354.92 1196.64 3352.83 Q1194.04 3350.75 1185.13 3348.82 L1181.8 3348.04 Q1172.89 3346.17 1168.93 3342.31 Q1164.97 3338.41 1164.97 3331.64 Q1164.97 3323.41 1170.81 3318.93 Q1176.64 3314.45 1187.37 3314.45 Q1192.68 3314.45 1197.37 3315.23 Q1202.06 3316.01 1206.02 3317.57 Z" fill="#000000" fill-rule="nonzero" fill-opacity="1" /><path clip-path="url(#clip400)" d="M2009.79 3344.34 Q2009.79 3333.93 2005.47 3328.2 Q2001.2 3322.47 1993.44 3322.47 Q1985.73 3322.47 1981.41 3328.2 Q1977.14 3333.93 1977.14 3344.34 Q1977.14 3354.71 1981.41 3360.44 Q1985.73 3366.17 1993.44 3366.17 Q2001.2 3366.17 2005.47 3360.44 Q2009.79 3354.71 2009.79 3344.34 M2019.38 3366.95 Q2019.38 3381.84 2012.76 3389.08 Q2006.15 3396.38 1992.5 3396.38 Q1987.45 3396.38 1982.97 3395.59 Q1978.49 3394.86 1974.27 3393.3 L1974.27 3383.98 Q1978.49 3386.27 1982.61 3387.36 Q1986.72 3388.46 1990.99 3388.46 Q2000.42 3388.46 2005.11 3383.51 Q2009.79 3378.61 2009.79 3368.67 L2009.79 3363.93 Q2006.82 3369.08 2002.19 3371.64 Q1997.55 3374.19 1991.09 3374.19 Q1980.37 3374.19 1973.8 3366.01 Q1967.24 3357.83 1967.24 3344.34 Q1967.24 3330.8 1973.8 3322.63 Q1980.37 3314.45 1991.09 3314.45 Q1997.55 3314.45 2002.19 3317 Q2006.82 3319.55 2009.79 3324.71 L2009.79 3315.85 L2019.38 3315.85 L2019.38 3366.95 Z" fill="#000000" fill-rule="nonzero" fill-opacity="1" /><path clip-path="url(#clip400)" d="M2089.01 3342.63 L2089.01 3347.31 L2044.95 3347.31 Q2045.57 3357.21 2050.89 3362.42 Q2056.25 3367.57 2065.78 3367.57 Q2071.3 3367.57 2076.46 3366.22 Q2081.67 3364.87 2086.77 3362.16 L2086.77 3371.22 Q2081.62 3373.41 2076.2 3374.55 Q2070.78 3375.7 2065.21 3375.7 Q2051.25 3375.7 2043.07 3367.57 Q2034.95 3359.45 2034.95 3345.59 Q2034.95 3331.27 2042.66 3322.89 Q2050.42 3314.45 2063.54 3314.45 Q2075.31 3314.45 2082.14 3322.05 Q2089.01 3329.6 2089.01 3342.63 M2079.43 3339.81 Q2079.32 3331.95 2075 3327.26 Q2070.73 3322.57 2063.65 3322.57 Q2055.63 3322.57 2050.78 3327.1 Q2045.99 3331.64 2045.26 3339.87 L2079.43 3339.81 Z" fill="#000000" fill-rule="nonzero" fill-opacity="1" /><path clip-path="url(#clip400)" d="M2114.22 3299.29 L2114.22 3315.85 L2133.96 3315.85 L2133.96 3323.3 L2114.22 3323.3 L2114.22 3354.97 Q2114.22 3362.1 2116.15 3364.14 Q2118.13 3366.17 2124.11 3366.17 L2133.96 3366.17 L2133.96 3374.19 L2124.11 3374.19 Q2113.02 3374.19 2108.8 3370.07 Q2104.58 3365.91 2104.58 3354.97 L2104.58 3323.3 L2097.55 3323.3 L2097.55 3315.85 L2104.58 3315.85 L2104.58 3299.29 L2114.22 3299.29 Z" fill="#000000" fill-rule="nonzero" fill-opacity="1" /><path clip-path="url(#clip400)" d="M2169.17 3322.57 Q2161.46 3322.57 2156.98 3328.62 Q2152.5 3334.6 2152.5 3345.07 Q2152.5 3355.54 2156.93 3361.58 Q2161.41 3367.57 2169.17 3367.57 Q2176.82 3367.57 2181.3 3361.53 Q2185.78 3355.49 2185.78 3345.07 Q2185.78 3334.71 2181.3 3328.67 Q2176.82 3322.57 2169.17 3322.57 M2169.17 3314.45 Q2181.67 3314.45 2188.8 3322.57 Q2195.94 3330.7 2195.94 3345.07 Q2195.94 3359.4 2188.8 3367.57 Q2181.67 3375.7 2169.17 3375.7 Q2156.61 3375.7 2149.48 3367.57 Q2142.4 3359.4 2142.4 3345.07 Q2142.4 3330.7 2149.48 3322.57 Q2156.61 3314.45 2169.17 3314.45 Z" fill="#000000" fill-rule="nonzero" fill-opacity="1" /><path clip-path="url(#clip400)" d="M2221.09 3365.44 L2221.09 3396.38 L2211.46 3396.38 L2211.46 3315.85 L2221.09 3315.85 L2221.09 3324.71 Q2224.11 3319.5 2228.7 3317 Q2233.33 3314.45 2239.74 3314.45 Q2250.36 3314.45 2256.98 3322.89 Q2263.65 3331.32 2263.65 3345.07 Q2263.65 3358.82 2256.98 3367.26 Q2250.36 3375.7 2239.74 3375.7 Q2233.33 3375.7 2228.7 3373.2 Q2224.11 3370.65 2221.09 3365.44 M2253.7 3345.07 Q2253.7 3334.5 2249.32 3328.51 Q2245 3322.47 2237.4 3322.47 Q2229.79 3322.47 2225.42 3328.51 Q2221.09 3334.5 2221.09 3345.07 Q2221.09 3355.65 2225.42 3361.69 Q2229.79 3367.68 2237.4 3367.68 Q2245 3367.68 2249.32 3361.69 Q2253.7 3355.65 2253.7 3345.07 Z" fill="#000000" fill-rule="nonzero" fill-opacity="1" /><path clip-path="url(#clip400)" d="M2289.01 3299.29 L2289.01 3315.85 L2308.75 3315.85 L2308.75 3323.3 L2289.01 3323.3 L2289.01 3354.97 Q2289.01 3362.1 2290.94 3364.14 Q2292.92 3366.17 2298.91 3366.17 L2308.75 3366.17 L2308.75 3374.19 L2298.91 3374.19 Q2287.81 3374.19 2283.59 3370.07 Q2279.37 3365.91 2279.37 3354.97 L2279.37 3323.3 L2272.34 3323.3 L2272.34 3315.85 L2279.37 3315.85 L2279.37 3299.29 L2289.01 3299.29 Z" fill="#000000" fill-rule="nonzero" fill-opacity="1" /><path clip-path="url(#clip400)" d="M3109.61 3317.57 L3109.61 3326.64 Q3105.55 3324.55 3101.17 3323.51 Q3096.8 3322.47 3092.11 3322.47 Q3084.97 3322.47 3081.38 3324.66 Q3077.84 3326.84 3077.84 3331.22 Q3077.84 3334.55 3080.39 3336.48 Q3082.94 3338.35 3090.65 3340.07 L3093.93 3340.8 Q3104.14 3342.99 3108.41 3347 Q3112.73 3350.96 3112.73 3358.09 Q3112.73 3366.22 3106.28 3370.96 Q3099.87 3375.7 3088.62 3375.7 Q3083.93 3375.7 3078.83 3374.76 Q3073.78 3373.88 3068.15 3372.05 L3068.15 3362.16 Q3073.46 3364.92 3078.62 3366.32 Q3083.78 3367.68 3088.83 3367.68 Q3095.6 3367.68 3099.25 3365.39 Q3102.89 3363.04 3102.89 3358.82 Q3102.89 3354.92 3100.23 3352.83 Q3097.63 3350.75 3088.72 3348.82 L3085.39 3348.04 Q3076.49 3346.17 3072.53 3342.31 Q3068.57 3338.41 3068.57 3331.64 Q3068.57 3323.41 3074.4 3318.93 Q3080.24 3314.45 3090.96 3314.45 Q3096.28 3314.45 3100.96 3315.23 Q3105.65 3316.01 3109.61 3317.57 Z" fill="#000000" fill-rule="nonzero" fill-opacity="1" /><path clip-path="url(#clip400)" d="M3176.48 3338.98 L3176.48 3374.19 L3166.9 3374.19 L3166.9 3339.29 Q3166.9 3331.01 3163.67 3326.9 Q3160.44 3322.78 3153.98 3322.78 Q3146.22 3322.78 3141.75 3327.73 Q3137.27 3332.68 3137.27 3341.22 L3137.27 3374.19 L3127.63 3374.19 L3127.63 3293.15 L3137.27 3293.15 L3137.27 3324.92 Q3140.7 3319.66 3145.34 3317.05 Q3150.03 3314.45 3156.12 3314.45 Q3166.17 3314.45 3171.33 3320.7 Q3176.48 3326.9 3176.48 3338.98 Z" fill="#000000" fill-rule="nonzero" fill-opacity="1" /><path clip-path="url(#clip400)" d="M3196.02 3296.43 L3240.7 3296.43 L3240.7 3305.28 L3206.54 3305.28 L3206.54 3328.2 L3237.37 3328.2 L3237.37 3337.05 L3206.54 3337.05 L3206.54 3374.19 L3196.02 3374.19 L3196.02 3296.43 Z" fill="#000000" fill-rule="nonzero" fill-opacity="1" /><path clip-path="url(#clip400)" d="M3256.95 3293.15 L3266.54 3293.15 L3266.54 3374.19 L3256.95 3374.19 L3256.95 3293.15 Z" fill="#000000" fill-rule="nonzero" fill-opacity="1" /><path clip-path="url(#clip400)" d="M3313.1 3344.87 Q3301.48 3344.87 3297 3347.52 Q3292.53 3350.18 3292.53 3356.58 Q3292.53 3361.69 3295.86 3364.71 Q3299.24 3367.68 3305.03 3367.68 Q3312.99 3367.68 3317.79 3362.05 Q3322.63 3356.38 3322.63 3347 L3322.63 3344.87 L3313.1 3344.87 M3332.21 3340.91 L3332.21 3374.19 L3322.63 3374.19 L3322.63 3365.33 Q3319.35 3370.65 3314.45 3373.2 Q3309.56 3375.7 3302.47 3375.7 Q3293.52 3375.7 3288.2 3370.7 Q3282.94 3365.65 3282.94 3357.21 Q3282.94 3347.37 3289.5 3342.37 Q3296.12 3337.37 3309.19 3337.37 L3322.63 3337.37 L3322.63 3336.43 Q3322.63 3329.81 3318.25 3326.22 Q3313.93 3322.57 3306.07 3322.57 Q3301.07 3322.57 3296.33 3323.77 Q3291.59 3324.97 3287.21 3327.37 L3287.21 3318.51 Q3292.47 3316.48 3297.42 3315.49 Q3302.37 3314.45 3307.06 3314.45 Q3319.71 3314.45 3325.96 3321.01 Q3332.21 3327.57 3332.21 3340.91 Z" fill="#000000" fill-rule="nonzero" fill-opacity="1" /><path clip-path="url(#clip400)" d="M3390.34 3344.34 Q3390.34 3333.93 3386.01 3328.2 Q3381.74 3322.47 3373.98 3322.47 Q3366.28 3322.47 3361.95 3328.2 Q3357.68 3333.93 3357.68 3344.34 Q3357.68 3354.71 3361.95 3360.44 Q3366.28 3366.17 3373.98 3366.17 Q3381.74 3366.17 3386.01 3360.44 Q3390.34 3354.71 3390.34 3344.34 M3399.92 3366.95 Q3399.92 3381.84 3393.31 3389.08 Q3386.69 3396.38 3373.05 3396.38 Q3367.99 3396.38 3363.51 3395.59 Q3359.04 3394.86 3354.82 3393.3 L3354.82 3383.98 Q3359.04 3386.27 3363.15 3387.36 Q3367.26 3388.46 3371.54 3388.46 Q3380.96 3388.46 3385.65 3383.51 Q3390.34 3378.61 3390.34 3368.67 L3390.34 3363.93 Q3387.37 3369.08 3382.73 3371.64 Q3378.1 3374.19 3371.64 3374.19 Q3360.91 3374.19 3354.35 3366.01 Q3347.79 3357.83 3347.79 3344.34 Q3347.79 3330.8 3354.35 3322.63 Q3360.91 3314.45 3371.64 3314.45 Q3378.1 3314.45 3382.73 3317 Q3387.37 3319.55 3390.34 3324.71 L3390.34 3315.85 L3399.92 3315.85 L3399.92 3366.95 Z" fill="#000000" fill-rule="nonzero" fill-opacity="1" /><path clip-path="url(#clip400)" d="M3456.85 3317.57 L3456.85 3326.64 Q3452.79 3324.55 3448.41 3323.51 Q3444.04 3322.47 3439.35 3322.47 Q3432.21 3322.47 3428.62 3324.66 Q3425.08 3326.84 3425.08 3331.22 Q3425.08 3334.55 3427.63 3336.48 Q3430.18 3338.35 3437.89 3340.07 L3441.17 3340.8 Q3451.38 3342.99 3455.65 3347 Q3459.97 3350.96 3459.97 3358.09 Q3459.97 3366.22 3453.51 3370.96 Q3447.11 3375.7 3435.86 3375.7 Q3431.17 3375.7 3426.07 3374.76 Q3421.01 3373.88 3415.39 3372.05 L3415.39 3362.16 Q3420.7 3364.92 3425.86 3366.32 Q3431.01 3367.68 3436.07 3367.68 Q3442.84 3367.68 3446.48 3365.39 Q3450.13 3363.04 3450.13 3358.82 Q3450.13 3354.92 3447.47 3352.83 Q3444.87 3350.75 3435.96 3348.82 L3432.63 3348.04 Q3423.72 3346.17 3419.76 3342.31 Q3415.81 3338.41 3415.81 3331.64 Q3415.81 3323.41 3421.64 3318.93 Q3427.47 3314.45 3438.2 3314.45 Q3443.51 3314.45 3448.2 3315.23 Q3452.89 3316.01 3456.85 3317.57 Z" fill="#000000" fill-rule="nonzero" fill-opacity="1" /><path clip-path="url(#clip400)" d="M4227.24 3324.71 L4227.24 3293.15 L4236.82 3293.15 L4236.82 3374.19 L4227.24 3374.19 L4227.24 3365.44 Q4224.22 3370.65 4219.58 3373.2 Q4215 3375.7 4208.54 3375.7 Q4197.97 3375.7 4191.3 3367.26 Q4184.69 3358.82 4184.69 3345.07 Q4184.69 3331.32 4191.3 3322.89 Q4197.97 3314.45 4208.54 3314.45 Q4215 3314.45 4219.58 3317 Q4224.22 3319.5 4227.24 3324.71 M4194.58 3345.07 Q4194.58 3355.65 4198.91 3361.69 Q4203.28 3367.68 4210.89 3367.68 Q4218.49 3367.68 4222.86 3361.69 Q4227.24 3355.65 4227.24 3345.07 Q4227.24 3334.5 4222.86 3328.51 Q4218.49 3322.47 4210.89 3322.47 Q4203.28 3322.47 4198.91 3328.51 Q4194.58 3334.5 4194.58 3345.07 Z" fill="#000000" fill-rule="nonzero" fill-opacity="1" /><path clip-path="url(#clip400)" d="M4279.17 3322.57 Q4271.46 3322.57 4266.98 3328.62 Q4262.5 3334.6 4262.5 3345.07 Q4262.5 3355.54 4266.93 3361.58 Q4271.41 3367.57 4279.17 3367.57 Q4286.82 3367.57 4291.3 3361.53 Q4295.78 3355.49 4295.78 3345.07 Q4295.78 3334.71 4291.3 3328.67 Q4286.82 3322.57 4279.17 3322.57 M4279.17 3314.45 Q4291.67 3314.45 4298.8 3322.57 Q4305.94 3330.7 4305.94 3345.07 Q4305.94 3359.4 4298.8 3367.57 Q4291.67 3375.7 4279.17 3375.7 Q4266.61 3375.7 4259.48 3367.57 Q4252.4 3359.4 4252.4 3345.07 Q4252.4 3330.7 4259.48 3322.57 Q4266.61 3314.45 4279.17 3314.45 Z" fill="#000000" fill-rule="nonzero" fill-opacity="1" /><path clip-path="url(#clip400)" d="M4363.8 3318.09 L4363.8 3327.05 Q4359.74 3324.81 4355.62 3323.72 Q4351.56 3322.57 4347.4 3322.57 Q4338.07 3322.57 4332.92 3328.51 Q4327.76 3334.4 4327.76 3345.07 Q4327.76 3355.75 4332.92 3361.69 Q4338.07 3367.57 4347.4 3367.57 Q4351.56 3367.57 4355.62 3366.48 Q4359.74 3365.33 4363.8 3363.09 L4363.8 3371.95 Q4359.79 3373.82 4355.47 3374.76 Q4351.2 3375.7 4346.35 3375.7 Q4333.18 3375.7 4325.42 3367.42 Q4317.66 3359.14 4317.66 3345.07 Q4317.66 3330.8 4325.47 3322.63 Q4333.33 3314.45 4346.98 3314.45 Q4351.41 3314.45 4355.62 3315.39 Q4359.84 3316.27 4363.8 3318.09 Z" fill="#000000" fill-rule="nonzero" fill-opacity="1" /><path clip-path="url(#clip400)" d="M4403.07 3322.57 Q4395.36 3322.57 4390.88 3328.62 Q4386.41 3334.6 4386.41 3345.07 Q4386.41 3355.54 4390.83 3361.58 Q4395.31 3367.57 4403.07 3367.57 Q4410.73 3367.57 4415.21 3361.53 Q4419.69 3355.49 4419.69 3345.07 Q4419.69 3334.71 4415.21 3328.67 Q4410.73 3322.57 4403.07 3322.57 M4403.07 3314.45 Q4415.57 3314.45 4422.71 3322.57 Q4429.84 3330.7 4429.84 3345.07 Q4429.84 3359.4 4422.71 3367.57 Q4415.57 3375.7 4403.07 3375.7 Q4390.52 3375.7 4383.38 3367.57 Q4376.3 3359.4 4376.3 3345.07 Q4376.3 3330.7 4383.38 3322.57 Q4390.52 3314.45 4403.07 3314.45 Z" fill="#000000" fill-rule="nonzero" fill-opacity="1" /><path clip-path="url(#clip400)" d="M4455 3365.44 L4455 3396.38 L4445.36 3396.38 L4445.36 3315.85 L4455 3315.85 L4455 3324.71 Q4458.02 3319.5 4462.6 3317 Q4467.24 3314.45 4473.64 3314.45 Q4484.27 3314.45 4490.88 3322.89 Q4497.55 3331.32 4497.55 3345.07 Q4497.55 3358.82 4490.88 3367.26 Q4484.27 3375.7 4473.64 3375.7 Q4467.24 3375.7 4462.6 3373.2 Q4458.02 3370.65 4455 3365.44 M4487.6 3345.07 Q4487.6 3334.5 4483.23 3328.51 Q4478.9 3322.47 4471.3 3322.47 Q4463.7 3322.47 4459.32 3328.51 Q4455 3334.5 4455 3345.07 Q4455 3355.65 4459.32 3361.69 Q4463.7 3367.68 4471.3 3367.68 Q4478.9 3367.68 4483.23 3361.69 Q4487.6 3355.65 4487.6 3345.07 Z" fill="#000000" fill-rule="nonzero" fill-opacity="1" /><path clip-path="url(#clip400)" d="M4522.92 3299.29 L4522.92 3315.85 L4542.65 3315.85 L4542.65 3323.3 L4522.92 3323.3 L4522.92 3354.97 Q4522.92 3362.1 4524.84 3364.14 Q4526.82 3366.17 4532.81 3366.17 L4542.65 3366.17 L4542.65 3374.19 L4532.81 3374.19 Q4521.72 3374.19 4517.5 3370.07 Q4513.28 3365.91 4513.28 3354.97 L4513.28 3323.3 L4506.25 3323.3 L4506.25 3315.85 L4513.28 3315.85 L4513.28 3299.29 L4522.92 3299.29 Z" fill="#000000" fill-rule="nonzero" fill-opacity="1" /><path clip-path="url(#clip400)" d="M4592.45 3317.57 L4592.45 3326.64 Q4588.38 3324.55 4584.01 3323.51 Q4579.63 3322.47 4574.95 3322.47 Q4567.81 3322.47 4564.22 3324.66 Q4560.68 3326.84 4560.68 3331.22 Q4560.68 3334.55 4563.23 3336.48 Q4565.78 3338.35 4573.49 3340.07 L4576.77 3340.8 Q4586.98 3342.99 4591.25 3347 Q4595.57 3350.96 4595.57 3358.09 Q4595.57 3366.22 4589.11 3370.96 Q4582.71 3375.7 4571.46 3375.7 Q4566.77 3375.7 4561.66 3374.76 Q4556.61 3373.88 4550.99 3372.05 L4550.99 3362.16 Q4556.3 3364.92 4561.46 3366.32 Q4566.61 3367.68 4571.66 3367.68 Q4578.44 3367.68 4582.08 3365.39 Q4585.73 3363.04 4585.73 3358.82 Q4585.73 3354.92 4583.07 3352.83 Q4580.47 3350.75 4571.56 3348.82 L4568.23 3348.04 Q4559.32 3346.17 4555.36 3342.31 Q4551.4 3338.41 4551.4 3331.64 Q4551.4 3323.41 4557.24 3318.93 Q4563.07 3314.45 4573.8 3314.45 Q4579.11 3314.45 4583.8 3315.23 Q4588.49 3316.01 4592.45 3317.57 Z" fill="#000000" fill-rule="nonzero" fill-opacity="1" /><path clip-path="url(#clip400)" d="M5160.39 3298.98 L5160.39 3309.24 Q5154.4 3306.38 5149.09 3304.97 Q5143.78 3303.56 5138.83 3303.56 Q5130.23 3303.56 5125.55 3306.9 Q5120.91 3310.23 5120.91 3316.38 Q5120.91 3321.53 5123.98 3324.19 Q5127.11 3326.79 5135.76 3328.41 L5142.11 3329.71 Q5153.88 3331.95 5159.45 3337.63 Q5165.08 3343.25 5165.08 3352.73 Q5165.08 3364.03 5157.47 3369.86 Q5149.92 3375.7 5135.29 3375.7 Q5129.77 3375.7 5123.52 3374.45 Q5117.32 3373.2 5110.65 3370.75 L5110.65 3359.92 Q5117.06 3363.51 5123.2 3365.33 Q5129.35 3367.16 5135.29 3367.16 Q5144.3 3367.16 5149.19 3363.62 Q5154.09 3360.07 5154.09 3353.51 Q5154.09 3347.78 5150.55 3344.55 Q5147.06 3341.32 5139.04 3339.71 L5132.63 3338.46 Q5120.86 3336.12 5115.6 3331.12 Q5110.34 3326.12 5110.34 3317.21 Q5110.34 3306.9 5117.58 3300.96 Q5124.87 3295.02 5137.63 3295.02 Q5143.1 3295.02 5148.78 3296.01 Q5154.45 3297 5160.39 3298.98 Z" fill="#000000" fill-rule="nonzero" fill-opacity="1" /><path clip-path="url(#clip400)" d="M5229.56 3338.98 L5229.56 3374.19 L5219.97 3374.19 L5219.97 3339.29 Q5219.97 3331.01 5216.74 3326.9 Q5213.52 3322.78 5207.06 3322.78 Q5199.3 3322.78 5194.82 3327.73 Q5190.34 3332.68 5190.34 3341.22 L5190.34 3374.19 L5180.7 3374.19 L5180.7 3293.15 L5190.34 3293.15 L5190.34 3324.92 Q5193.78 3319.66 5198.41 3317.05 Q5203.1 3314.45 5209.19 3314.45 Q5219.24 3314.45 5224.4 3320.7 Q5229.56 3326.9 5229.56 3338.98 Z" fill="#000000" fill-rule="nonzero" fill-opacity="1" /><path clip-path="url(#clip400)" d="M5298.57 3342.63 L5298.57 3347.31 L5254.51 3347.31 Q5255.13 3357.21 5260.44 3362.42 Q5265.81 3367.57 5275.34 3367.57 Q5280.86 3367.57 5286.02 3366.22 Q5291.22 3364.87 5296.33 3362.16 L5296.33 3371.22 Q5291.17 3373.41 5285.75 3374.55 Q5280.34 3375.7 5274.77 3375.7 Q5260.81 3375.7 5252.63 3367.57 Q5244.51 3359.45 5244.51 3345.59 Q5244.51 3331.27 5252.21 3322.89 Q5259.97 3314.45 5273.1 3314.45 Q5284.87 3314.45 5291.69 3322.05 Q5298.57 3329.6 5298.57 3342.63 M5288.98 3339.81 Q5288.88 3331.95 5284.56 3327.26 Q5280.29 3322.57 5273.2 3322.57 Q5265.18 3322.57 5260.34 3327.1 Q5255.55 3331.64 5254.82 3339.87 L5288.98 3339.81 Z" fill="#000000" fill-rule="nonzero" fill-opacity="1" /><path clip-path="url(#clip400)" d="M5314.3 3293.15 L5323.88 3293.15 L5323.88 3374.19 L5314.3 3374.19 L5314.3 3293.15 Z" fill="#000000" fill-rule="nonzero" fill-opacity="1" /><path clip-path="url(#clip400)" d="M5343.93 3293.15 L5353.52 3293.15 L5353.52 3374.19 L5343.93 3374.19 L5343.93 3293.15 Z" fill="#000000" fill-rule="nonzero" fill-opacity="1" /><path clip-path="url(#clip400)" d="M5433.88 3306.79 L5419.61 3345.49 L5448.2 3345.49 L5433.88 3306.79 M5427.94 3296.43 L5439.87 3296.43 L5469.5 3374.19 L5458.57 3374.19 L5451.48 3354.24 L5416.43 3354.24 L5409.35 3374.19 L5398.25 3374.19 L5427.94 3296.43 Z" fill="#000000" fill-rule="nonzero" fill-opacity="1" /><path clip-path="url(#clip400)" d="M5514.24 3324.81 Q5512.63 3323.88 5510.7 3323.46 Q5508.83 3322.99 5506.54 3322.99 Q5498.41 3322.99 5494.04 3328.3 Q5489.71 3333.56 5489.71 3343.46 L5489.71 3374.19 L5480.08 3374.19 L5480.08 3315.85 L5489.71 3315.85 L5489.71 3324.92 Q5492.73 3319.6 5497.58 3317.05 Q5502.42 3314.45 5509.35 3314.45 Q5510.34 3314.45 5511.53 3314.6 Q5512.73 3314.71 5514.19 3314.97 L5514.24 3324.81 Z" fill="#000000" fill-rule="nonzero" fill-opacity="1" /><path clip-path="url(#clip400)" d="M5560.81 3344.34 Q5560.81 3333.93 5556.48 3328.2 Q5552.21 3322.47 5544.45 3322.47 Q5536.74 3322.47 5532.42 3328.2 Q5528.15 3333.93 5528.15 3344.34 Q5528.15 3354.71 5532.42 3360.44 Q5536.74 3366.17 5544.45 3366.17 Q5552.21 3366.17 5556.48 3360.44 Q5560.81 3354.71 5560.81 3344.34 M5570.39 3366.95 Q5570.39 3381.84 5563.77 3389.08 Q5557.16 3396.38 5543.51 3396.38 Q5538.46 3396.38 5533.98 3395.59 Q5529.5 3394.86 5525.28 3393.3 L5525.28 3383.98 Q5529.5 3386.27 5533.62 3387.36 Q5537.73 3388.46 5542 3388.46 Q5551.43 3388.46 5556.12 3383.51 Q5560.81 3378.61 5560.81 3368.67 L5560.81 3363.93 Q5557.84 3369.08 5553.2 3371.64 Q5548.57 3374.19 5542.11 3374.19 Q5531.38 3374.19 5524.82 3366.01 Q5518.25 3357.83 5518.25 3344.34 Q5518.25 3330.8 5524.82 3322.63 Q5531.38 3314.45 5542.11 3314.45 Q5548.57 3314.45 5553.2 3317 Q5557.84 3319.55 5560.81 3324.71 L5560.81 3315.85 L5570.39 3315.85 L5570.39 3366.95 Z" fill="#000000" fill-rule="nonzero" fill-opacity="1" /><path clip-path="url(#clip400)" d="M5599.4 3365.44 L5599.4 3396.38 L5589.76 3396.38 L5589.76 3315.85 L5599.4 3315.85 L5599.4 3324.71 Q5602.42 3319.5 5607 3317 Q5611.64 3314.45 5618.04 3314.45 Q5628.67 3314.45 5635.28 3322.89 Q5641.95 3331.32 5641.95 3345.07 Q5641.95 3358.82 5635.28 3367.26 Q5628.67 3375.7 5618.04 3375.7 Q5611.64 3375.7 5607 3373.2 Q5602.42 3370.65 5599.4 3365.44 M5632 3345.07 Q5632 3334.5 5627.63 3328.51 Q5623.31 3322.47 5615.7 3322.47 Q5608.1 3322.47 5603.72 3328.51 Q5599.4 3334.5 5599.4 3345.07 Q5599.4 3355.65 5603.72 3361.69 Q5608.1 3367.68 5615.7 3367.68 Q5623.31 3367.68 5627.63 3361.69 Q5632 3355.65 5632 3345.07 Z" fill="#000000" fill-rule="nonzero" fill-opacity="1" /><path clip-path="url(#clip400)" d="M5684.35 3344.87 Q5672.73 3344.87 5668.25 3347.52 Q5663.77 3350.18 5663.77 3356.58 Q5663.77 3361.69 5667.11 3364.71 Q5670.49 3367.68 5676.27 3367.68 Q5684.24 3367.68 5689.03 3362.05 Q5693.88 3356.38 5693.88 3347 L5693.88 3344.87 L5684.35 3344.87 M5703.46 3340.91 L5703.46 3374.19 L5693.88 3374.19 L5693.88 3365.33 Q5690.6 3370.65 5685.7 3373.2 Q5680.8 3375.7 5673.72 3375.7 Q5664.76 3375.7 5659.45 3370.7 Q5654.19 3365.65 5654.19 3357.21 Q5654.19 3347.37 5660.75 3342.37 Q5667.37 3337.37 5680.44 3337.37 L5693.88 3337.37 L5693.88 3336.43 Q5693.88 3329.81 5689.5 3326.22 Q5685.18 3322.57 5677.32 3322.57 Q5672.32 3322.57 5667.58 3323.77 Q5662.84 3324.97 5658.46 3327.37 L5658.46 3318.51 Q5663.72 3316.48 5668.67 3315.49 Q5673.62 3314.45 5678.3 3314.45 Q5690.96 3314.45 5697.21 3321.01 Q5703.46 3327.57 5703.46 3340.91 Z" fill="#000000" fill-rule="nonzero" fill-opacity="1" /><path clip-path="url(#clip400)" d="M5757 3324.81 Q5755.39 3323.88 5753.46 3323.46 Q5751.59 3322.99 5749.29 3322.99 Q5741.17 3322.99 5736.79 3328.3 Q5732.47 3333.56 5732.47 3343.46 L5732.47 3374.19 L5722.84 3374.19 L5722.84 3315.85 L5732.47 3315.85 L5732.47 3324.92 Q5735.49 3319.6 5740.34 3317.05 Q5745.18 3314.45 5752.11 3314.45 Q5753.1 3314.45 5754.29 3314.6 Q5755.49 3314.71 5756.95 3314.97 L5757 3324.81 Z" fill="#000000" fill-rule="nonzero" fill-opacity="1" /><path clip-path="url(#clip400)" d="M5804.24 3317.57 L5804.24 3326.64 Q5800.18 3324.55 5795.8 3323.51 Q5791.43 3322.47 5786.74 3322.47 Q5779.61 3322.47 5776.01 3324.66 Q5772.47 3326.84 5772.47 3331.22 Q5772.47 3334.55 5775.02 3336.48 Q5777.58 3338.35 5785.28 3340.07 L5788.56 3340.8 Q5798.77 3342.99 5803.04 3347 Q5807.37 3350.96 5807.37 3358.09 Q5807.37 3366.22 5800.91 3370.96 Q5794.5 3375.7 5783.25 3375.7 Q5778.56 3375.7 5773.46 3374.76 Q5768.41 3373.88 5762.78 3372.05 L5762.78 3362.16 Q5768.1 3364.92 5773.25 3366.32 Q5778.41 3367.68 5783.46 3367.68 Q5790.23 3367.68 5793.88 3365.39 Q5797.52 3363.04 5797.52 3358.82 Q5797.52 3354.92 5794.87 3352.83 Q5792.26 3350.75 5783.36 3348.82 L5780.02 3348.04 Q5771.12 3346.17 5767.16 3342.31 Q5763.2 3338.41 5763.2 3331.64 Q5763.2 3323.41 5769.03 3318.93 Q5774.87 3314.45 5785.6 3314.45 Q5790.91 3314.45 5795.6 3315.23 Q5800.28 3316.01 5804.24 3317.57 Z" fill="#000000" fill-rule="nonzero" fill-opacity="1" /><path clip-path="url(#clip400)" d="M5872.52 3342.63 L5872.52 3347.31 L5828.46 3347.31 Q5829.09 3357.21 5834.4 3362.42 Q5839.76 3367.57 5849.29 3367.57 Q5854.81 3367.57 5859.97 3366.22 Q5865.18 3364.87 5870.28 3362.16 L5870.28 3371.22 Q5865.13 3373.41 5859.71 3374.55 Q5854.29 3375.7 5848.72 3375.7 Q5834.76 3375.7 5826.59 3367.57 Q5818.46 3359.45 5818.46 3345.59 Q5818.46 3331.27 5826.17 3322.89 Q5833.93 3314.45 5847.05 3314.45 Q5858.82 3314.45 5865.65 3322.05 Q5872.52 3329.6 5872.52 3342.63 M5862.94 3339.81 Q5862.84 3331.95 5858.51 3327.26 Q5854.24 3322.57 5847.16 3322.57 Q5839.14 3322.57 5834.29 3327.1 Q5829.5 3331.64 5828.77 3339.87 L5862.94 3339.81 Z" fill="#000000" fill-rule="nonzero" fill-opacity="1" /><path clip-path="url(#clip400)" d="M5922.05 3324.81 Q5920.44 3323.88 5918.51 3323.46 Q5916.64 3322.99 5914.35 3322.99 Q5906.22 3322.99 5901.85 3328.3 Q5897.52 3333.56 5897.52 3343.46 L5897.52 3374.19 L5887.89 3374.19 L5887.89 3315.85 L5897.52 3315.85 L5897.52 3324.92 Q5900.54 3319.6 5905.39 3317.05 Q5910.23 3314.45 5917.16 3314.45 Q5918.15 3314.45 5919.35 3314.6 Q5920.54 3314.71 5922 3314.97 L5922.05 3324.81 Z" fill="#000000" fill-rule="nonzero" fill-opacity="1" /><path clip-path="url(#clip400)" d="M2752.22 3459.97 L2752.22 3471.06 Q2746.9 3466.12 2740.86 3463.67 Q2734.87 3461.22 2728.1 3461.22 Q2714.77 3461.22 2707.68 3469.4 Q2700.6 3477.52 2700.6 3492.94 Q2700.6 3508.3 2707.68 3516.48 Q2714.77 3524.6 2728.1 3524.6 Q2734.87 3524.6 2740.86 3522.16 Q2746.9 3519.71 2752.22 3514.76 L2752.22 3525.75 Q2746.7 3529.5 2740.5 3531.38 Q2734.35 3533.25 2727.48 3533.25 Q2709.82 3533.25 2699.66 3522.47 Q2689.51 3511.64 2689.51 3492.94 Q2689.51 3474.19 2699.66 3463.41 Q2709.82 3452.57 2727.48 3452.57 Q2734.46 3452.57 2740.6 3454.45 Q2746.8 3456.27 2752.22 3459.97 Z" fill="#000000" fill-rule="nonzero" fill-opacity="1" /><path clip-path="url(#clip400)" d="M2790.65 3480.13 Q2782.94 3480.13 2778.47 3486.17 Q2773.99 3492.16 2773.99 3502.63 Q2773.99 3513.09 2778.41 3519.14 Q2782.89 3525.13 2790.65 3525.13 Q2798.31 3525.13 2802.79 3519.08 Q2807.27 3513.04 2807.27 3502.63 Q2807.27 3492.26 2802.79 3486.22 Q2798.31 3480.13 2790.65 3480.13 M2790.65 3472 Q2803.15 3472 2810.29 3480.13 Q2817.42 3488.25 2817.42 3502.63 Q2817.42 3516.95 2810.29 3525.13 Q2803.15 3533.25 2790.65 3533.25 Q2778.1 3533.25 2770.97 3525.13 Q2763.88 3516.95 2763.88 3502.63 Q2763.88 3488.25 2770.97 3480.13 Q2778.1 3472 2790.65 3472 Z" fill="#000000" fill-rule="nonzero" fill-opacity="1" /><path clip-path="url(#clip400)" d="M2878.73 3484.6 Q2882.32 3478.15 2887.32 3475.07 Q2892.32 3472 2899.09 3472 Q2908.2 3472 2913.15 3478.41 Q2918.1 3484.76 2918.1 3496.53 L2918.1 3531.74 L2908.47 3531.74 L2908.47 3496.84 Q2908.47 3488.46 2905.5 3484.4 Q2902.53 3480.33 2896.43 3480.33 Q2888.99 3480.33 2884.66 3485.28 Q2880.34 3490.23 2880.34 3498.77 L2880.34 3531.74 L2870.7 3531.74 L2870.7 3496.84 Q2870.7 3488.41 2867.74 3484.4 Q2864.77 3480.33 2858.57 3480.33 Q2851.23 3480.33 2846.9 3485.33 Q2842.58 3490.28 2842.58 3498.77 L2842.58 3531.74 L2832.94 3531.74 L2832.94 3473.41 L2842.58 3473.41 L2842.58 3482.47 Q2845.86 3477.1 2850.44 3474.55 Q2855.03 3472 2861.33 3472 Q2867.68 3472 2872.11 3475.23 Q2876.59 3478.46 2878.73 3484.6 Z" fill="#000000" fill-rule="nonzero" fill-opacity="1" /><path clip-path="url(#clip400)" d="M2982.63 3484.6 Q2986.23 3478.15 2991.23 3475.07 Q2996.23 3472 3003 3472 Q3012.11 3472 3017.06 3478.41 Q3022.01 3484.76 3022.01 3496.53 L3022.01 3531.74 L3012.37 3531.74 L3012.37 3496.84 Q3012.37 3488.46 3009.4 3484.4 Q3006.43 3480.33 3000.34 3480.33 Q2992.89 3480.33 2988.57 3485.28 Q2984.25 3490.23 2984.25 3498.77 L2984.25 3531.74 L2974.61 3531.74 L2974.61 3496.84 Q2974.61 3488.41 2971.64 3484.4 Q2968.67 3480.33 2962.48 3480.33 Q2955.13 3480.33 2950.81 3485.33 Q2946.49 3490.28 2946.49 3498.77 L2946.49 3531.74 L2936.85 3531.74 L2936.85 3473.41 L2946.49 3473.41 L2946.49 3482.47 Q2949.77 3477.1 2954.35 3474.55 Q2958.93 3472 2965.24 3472 Q2971.59 3472 2976.02 3475.23 Q2980.5 3478.46 2982.63 3484.6 Z" fill="#000000" fill-rule="nonzero" fill-opacity="1" /><path clip-path="url(#clip400)" d="M3067.63 3502.42 Q3056.02 3502.42 3051.54 3505.07 Q3047.06 3507.73 3047.06 3514.14 Q3047.06 3519.24 3050.39 3522.26 Q3053.78 3525.23 3059.56 3525.23 Q3067.53 3525.23 3072.32 3519.6 Q3077.16 3513.93 3077.16 3504.55 L3077.16 3502.42 L3067.63 3502.42 M3086.75 3498.46 L3086.75 3531.74 L3077.16 3531.74 L3077.16 3522.89 Q3073.88 3528.2 3068.99 3530.75 Q3064.09 3533.25 3057.01 3533.25 Q3048.05 3533.25 3042.74 3528.25 Q3037.47 3523.2 3037.47 3514.76 Q3037.47 3504.92 3044.04 3499.92 Q3050.65 3494.92 3063.72 3494.92 L3077.16 3494.92 L3077.16 3493.98 Q3077.16 3487.37 3072.79 3483.77 Q3068.46 3480.13 3060.6 3480.13 Q3055.6 3480.13 3050.86 3481.32 Q3046.12 3482.52 3041.75 3484.92 L3041.75 3476.06 Q3047.01 3474.03 3051.95 3473.04 Q3056.9 3472 3061.59 3472 Q3074.25 3472 3080.5 3478.56 Q3086.75 3485.13 3086.75 3498.46 Z" fill="#000000" fill-rule="nonzero" fill-opacity="1" /><path clip-path="url(#clip400)" d="M3154.97 3496.53 L3154.97 3531.74 L3145.39 3531.74 L3145.39 3496.84 Q3145.39 3488.56 3142.16 3484.45 Q3138.93 3480.33 3132.47 3480.33 Q3124.71 3480.33 3120.23 3485.28 Q3115.76 3490.23 3115.76 3498.77 L3115.76 3531.74 L3106.12 3531.74 L3106.12 3473.41 L3115.76 3473.41 L3115.76 3482.47 Q3119.19 3477.21 3123.83 3474.6 Q3128.52 3472 3134.61 3472 Q3144.66 3472 3149.82 3478.25 Q3154.97 3484.45 3154.97 3496.53 Z" fill="#000000" fill-rule="nonzero" fill-opacity="1" /><path clip-path="url(#clip400)" d="M3212.47 3482.26 L3212.47 3450.7 L3222.06 3450.7 L3222.06 3531.74 L3212.47 3531.74 L3212.47 3522.99 Q3209.45 3528.2 3204.82 3530.75 Q3200.23 3533.25 3193.78 3533.25 Q3183.2 3533.25 3176.54 3524.81 Q3169.92 3516.38 3169.92 3502.63 Q3169.92 3488.88 3176.54 3480.44 Q3183.2 3472 3193.78 3472 Q3200.23 3472 3204.82 3474.55 Q3209.45 3477.05 3212.47 3482.26 M3179.82 3502.63 Q3179.82 3513.2 3184.14 3519.24 Q3188.52 3525.23 3196.12 3525.23 Q3203.72 3525.23 3208.1 3519.24 Q3212.47 3513.2 3212.47 3502.63 Q3212.47 3492.05 3208.1 3486.06 Q3203.72 3480.02 3196.12 3480.02 Q3188.52 3480.02 3184.14 3486.06 Q3179.82 3492.05 3179.82 3502.63 Z" fill="#000000" fill-rule="nonzero" fill-opacity="1" /><path clip-path="url(#clip400)" d="M3236.95 3498.25 L3265.03 3498.25 L3265.03 3506.79 L3236.95 3506.79 L3236.95 3498.25 Z" fill="#000000" fill-rule="nonzero" fill-opacity="1" /><path clip-path="url(#clip400)" d="M3280.29 3450.7 L3289.87 3450.7 L3289.87 3531.74 L3280.29 3531.74 L3280.29 3450.7 Z" fill="#000000" fill-rule="nonzero" fill-opacity="1" /><path clip-path="url(#clip400)" d="M3309.92 3473.41 L3319.5 3473.41 L3319.5 3531.74 L3309.92 3531.74 L3309.92 3473.41 M3309.92 3450.7 L3319.5 3450.7 L3319.5 3462.83 L3309.92 3462.83 L3309.92 3450.7 Z" fill="#000000" fill-rule="nonzero" fill-opacity="1" /><path clip-path="url(#clip400)" d="M3388.05 3496.53 L3388.05 3531.74 L3378.46 3531.74 L3378.46 3496.84 Q3378.46 3488.56 3375.23 3484.45 Q3372 3480.33 3365.55 3480.33 Q3357.79 3480.33 3353.31 3485.28 Q3348.83 3490.23 3348.83 3498.77 L3348.83 3531.74 L3339.19 3531.74 L3339.19 3473.41 L3348.83 3473.41 L3348.83 3482.47 Q3352.26 3477.21 3356.9 3474.6 Q3361.59 3472 3367.68 3472 Q3377.73 3472 3382.89 3478.25 Q3388.05 3484.45 3388.05 3496.53 Z" fill="#000000" fill-rule="nonzero" fill-opacity="1" /><path clip-path="url(#clip400)" d="M3457.06 3500.18 L3457.06 3504.87 L3412.99 3504.87 Q3413.62 3514.76 3418.93 3519.97 Q3424.3 3525.13 3433.83 3525.13 Q3439.35 3525.13 3444.5 3523.77 Q3449.71 3522.42 3454.82 3519.71 L3454.82 3528.77 Q3449.66 3530.96 3444.24 3532.1 Q3438.83 3533.25 3433.25 3533.25 Q3419.3 3533.25 3411.12 3525.13 Q3402.99 3517 3402.99 3503.15 Q3402.99 3488.82 3410.7 3480.44 Q3418.46 3472 3431.59 3472 Q3443.36 3472 3450.18 3479.6 Q3457.06 3487.16 3457.06 3500.18 M3447.47 3497.37 Q3447.37 3489.5 3443.05 3484.81 Q3438.77 3480.13 3431.69 3480.13 Q3423.67 3480.13 3418.83 3484.66 Q3414.04 3489.19 3413.31 3497.42 L3447.47 3497.37 Z" fill="#000000" fill-rule="nonzero" fill-opacity="1" /><path clip-path="url(#clip400)" d="M3515.96 3522.99 L3515.96 3553.93 L3506.33 3553.93 L3506.33 3473.41 L3515.96 3473.41 L3515.96 3482.26 Q3518.98 3477.05 3523.57 3474.55 Q3528.2 3472 3534.61 3472 Q3545.23 3472 3551.85 3480.44 Q3558.51 3488.88 3558.51 3502.63 Q3558.51 3516.38 3551.85 3524.81 Q3545.23 3533.25 3534.61 3533.25 Q3528.2 3533.25 3523.57 3530.75 Q3518.98 3528.2 3515.96 3522.99 M3548.57 3502.63 Q3548.57 3492.05 3544.19 3486.06 Q3539.87 3480.02 3532.26 3480.02 Q3524.66 3480.02 3520.28 3486.06 Q3515.96 3492.05 3515.96 3502.63 Q3515.96 3513.2 3520.28 3519.24 Q3524.66 3525.23 3532.26 3525.23 Q3539.87 3525.23 3544.19 3519.24 Q3548.57 3513.2 3548.57 3502.63 Z" fill="#000000" fill-rule="nonzero" fill-opacity="1" /><path clip-path="url(#clip400)" d="M3600.91 3502.42 Q3589.29 3502.42 3584.82 3505.07 Q3580.34 3507.73 3580.34 3514.14 Q3580.34 3519.24 3583.67 3522.26 Q3587.06 3525.23 3592.84 3525.23 Q3600.81 3525.23 3605.6 3519.6 Q3610.44 3513.93 3610.44 3504.55 L3610.44 3502.42 L3600.91 3502.42 M3620.02 3498.46 L3620.02 3531.74 L3610.44 3531.74 L3610.44 3522.89 Q3607.16 3528.2 3602.26 3530.75 Q3597.37 3533.25 3590.28 3533.25 Q3581.33 3533.25 3576.01 3528.25 Q3570.75 3523.2 3570.75 3514.76 Q3570.75 3504.92 3577.32 3499.92 Q3583.93 3494.92 3597 3494.92 L3610.44 3494.92 L3610.44 3493.98 Q3610.44 3487.37 3606.07 3483.77 Q3601.74 3480.13 3593.88 3480.13 Q3588.88 3480.13 3584.14 3481.32 Q3579.4 3482.52 3575.02 3484.92 L3575.02 3476.06 Q3580.28 3474.03 3585.23 3473.04 Q3590.18 3472 3594.87 3472 Q3607.52 3472 3613.77 3478.56 Q3620.02 3485.13 3620.02 3498.46 Z" fill="#000000" fill-rule="nonzero" fill-opacity="1" /><path clip-path="url(#clip400)" d="M3673.57 3482.37 Q3671.95 3481.43 3670.02 3481.01 Q3668.15 3480.54 3665.86 3480.54 Q3657.73 3480.54 3653.36 3485.85 Q3649.03 3491.12 3649.03 3501.01 L3649.03 3531.74 L3639.4 3531.74 L3639.4 3473.41 L3649.03 3473.41 L3649.03 3482.47 Q3652.05 3477.16 3656.9 3474.6 Q3661.74 3472 3668.67 3472 Q3669.66 3472 3670.86 3472.16 Q3672.05 3472.26 3673.51 3472.52 L3673.57 3482.37 Z" fill="#000000" fill-rule="nonzero" fill-opacity="1" /><path clip-path="url(#clip400)" d="M3720.8 3475.13 L3720.8 3484.19 Q3716.74 3482.1 3712.37 3481.06 Q3707.99 3480.02 3703.3 3480.02 Q3696.17 3480.02 3692.58 3482.21 Q3689.03 3484.4 3689.03 3488.77 Q3689.03 3492.1 3691.59 3494.03 Q3694.14 3495.91 3701.85 3497.63 L3705.13 3498.35 Q3715.34 3500.54 3719.61 3504.55 Q3723.93 3508.51 3723.93 3515.65 Q3723.93 3523.77 3717.47 3528.51 Q3711.06 3533.25 3699.82 3533.25 Q3695.13 3533.25 3690.02 3532.31 Q3684.97 3531.43 3679.35 3529.6 L3679.35 3519.71 Q3684.66 3522.47 3689.82 3523.88 Q3694.97 3525.23 3700.02 3525.23 Q3706.79 3525.23 3710.44 3522.94 Q3714.09 3520.59 3714.09 3516.38 Q3714.09 3512.47 3711.43 3510.39 Q3708.83 3508.3 3699.92 3506.38 L3696.59 3505.59 Q3687.68 3503.72 3683.72 3499.87 Q3679.76 3495.96 3679.76 3489.19 Q3679.76 3480.96 3685.6 3476.48 Q3691.43 3472 3702.16 3472 Q3707.47 3472 3712.16 3472.78 Q3716.85 3473.56 3720.8 3475.13 Z" fill="#000000" fill-rule="nonzero" fill-opacity="1" /><path clip-path="url(#clip400)" d="M3789.09 3500.18 L3789.09 3504.87 L3745.02 3504.87 Q3745.65 3514.76 3750.96 3519.97 Q3756.33 3525.13 3765.86 3525.13 Q3771.38 3525.13 3776.53 3523.77 Q3781.74 3522.42 3786.85 3519.71 L3786.85 3528.77 Q3781.69 3530.96 3776.27 3532.1 Q3770.86 3533.25 3765.28 3533.25 Q3751.33 3533.25 3743.15 3525.13 Q3735.02 3517 3735.02 3503.15 Q3735.02 3488.82 3742.73 3480.44 Q3750.49 3472 3763.62 3472 Q3775.39 3472 3782.21 3479.6 Q3789.09 3487.16 3789.09 3500.18 M3779.5 3497.37 Q3779.4 3489.5 3775.08 3484.81 Q3770.8 3480.13 3763.72 3480.13 Q3755.7 3480.13 3750.86 3484.66 Q3746.06 3489.19 3745.34 3497.42 L3779.5 3497.37 Z" fill="#000000" fill-rule="nonzero" fill-opacity="1" /><path clip-path="url(#clip400)" d="M3838.62 3482.37 Q3837 3481.43 3835.07 3481.01 Q3833.2 3480.54 3830.91 3480.54 Q3822.78 3480.54 3818.41 3485.85 Q3814.09 3491.12 3814.09 3501.01 L3814.09 3531.74 L3804.45 3531.74 L3804.45 3473.41 L3814.09 3473.41 L3814.09 3482.47 Q3817.11 3477.16 3821.95 3474.6 Q3826.79 3472 3833.72 3472 Q3834.71 3472 3835.91 3472.16 Q3837.11 3472.26 3838.56 3472.52 L3838.62 3482.37 Z" fill="#000000" fill-rule="nonzero" fill-opacity="1" /><polyline clip-path="url(#clip400)" style="stroke:#000000; stroke-linecap:round; stroke-linejoin:round; stroke-width:4; stroke-opacity:1; fill:none" points="521.393,3225.79 521.393,175.496 "/>
<polyline clip-path="url(#clip400)" style="stroke:#000000; stroke-linecap:round; stroke-linejoin:round; stroke-width:4; stroke-opacity:1; fill:none" points="521.393,3225.79 540.29,3225.79 "/>
<polyline clip-path="url(#clip400)" style="stroke:#000000; stroke-linecap:round; stroke-linejoin:round; stroke-width:4; stroke-opacity:1; fill:none" points="521.393,2760.09 540.29,2760.09 "/>
<polyline clip-path="url(#clip400)" style="stroke:#000000; stroke-linecap:round; stroke-linejoin:round; stroke-width:4; stroke-opacity:1; fill:none" points="521.393,2294.4 540.29,2294.4 "/>
<polyline clip-path="url(#clip400)" style="stroke:#000000; stroke-linecap:round; stroke-linejoin:round; stroke-width:4; stroke-opacity:1; fill:none" points="521.393,1828.71 540.29,1828.71 "/>
<polyline clip-path="url(#clip400)" style="stroke:#000000; stroke-linecap:round; stroke-linejoin:round; stroke-width:4; stroke-opacity:1; fill:none" points="521.393,1363.01 540.29,1363.01 "/>
<polyline clip-path="url(#clip400)" style="stroke:#000000; stroke-linecap:round; stroke-linejoin:round; stroke-width:4; stroke-opacity:1; fill:none" points="521.393,897.321 540.29,897.321 "/>
<polyline clip-path="url(#clip400)" style="stroke:#000000; stroke-linecap:round; stroke-linejoin:round; stroke-width:4; stroke-opacity:1; fill:none" points="521.393,431.627 540.29,431.627 "/>
<path clip-path="url(#clip400)" d="M398.518 3193.83 Q390.393 3193.83 386.278 3201.86 Q382.216 3209.82 382.216 3225.87 Q382.216 3241.86 386.278 3249.88 Q390.393 3257.84 398.518 3257.84 Q406.695 3257.84 410.757 3249.88 Q414.872 3241.86 414.872 3225.87 Q414.872 3209.82 410.757 3201.86 Q406.695 3193.83 398.518 3193.83 M398.518 3185.5 Q411.591 3185.5 418.466 3195.87 Q425.393 3206.18 425.393 3225.87 Q425.393 3245.5 418.466 3255.87 Q411.591 3266.18 398.518 3266.18 Q385.445 3266.18 378.518 3255.87 Q371.643 3245.5 371.643 3225.87 Q371.643 3206.18 378.518 3195.87 Q385.445 3185.5 398.518 3185.5 Z" fill="#000000" fill-rule="nonzero" fill-opacity="1" /><path clip-path="url(#clip400)" d="M317.216 2790.12 L353.935 2790.12 L353.935 2798.97 L304.56 2798.97 L304.56 2790.12 Q310.55 2783.92 320.862 2773.51 Q331.227 2763.04 333.883 2760.02 Q338.935 2754.34 340.914 2750.43 Q342.945 2746.47 342.945 2742.67 Q342.945 2736.47 338.57 2732.57 Q334.247 2728.66 327.268 2728.66 Q322.32 2728.66 316.8 2730.38 Q311.331 2732.1 305.081 2735.59 L305.081 2724.96 Q311.435 2722.41 316.956 2721.11 Q322.477 2719.81 327.06 2719.81 Q339.143 2719.81 346.331 2725.85 Q353.518 2731.89 353.518 2742 Q353.518 2746.79 351.695 2751.11 Q349.924 2755.38 345.185 2761.21 Q343.883 2762.72 336.904 2769.96 Q329.925 2777.15 317.216 2790.12 Z" fill="#000000" fill-rule="nonzero" fill-opacity="1" /><path clip-path="url(#clip400)" d="M398.518 2728.14 Q390.393 2728.14 386.278 2736.16 Q382.216 2744.13 382.216 2760.17 Q382.216 2776.16 386.278 2784.18 Q390.393 2792.15 398.518 2792.15 Q406.695 2792.15 410.757 2784.18 Q414.872 2776.16 414.872 2760.17 Q414.872 2744.13 410.757 2736.16 Q406.695 2728.14 398.518 2728.14 M398.518 2719.81 Q411.591 2719.81 418.466 2730.17 Q425.393 2740.49 425.393 2760.17 Q425.393 2779.81 418.466 2790.17 Q411.591 2800.48 398.518 2800.48 Q385.445 2800.48 378.518 2790.17 Q371.643 2779.81 371.643 2760.17 Q371.643 2740.49 378.518 2730.17 Q385.445 2719.81 398.518 2719.81 Z" fill="#000000" fill-rule="nonzero" fill-opacity="1" /><path clip-path="url(#clip400)" d="M337.06 2264.69 L310.498 2306.2 L337.06 2306.2 L337.06 2264.69 M334.3 2255.52 L347.529 2255.52 L347.529 2306.2 L358.622 2306.2 L358.622 2314.95 L347.529 2314.95 L347.529 2333.28 L337.06 2333.28 L337.06 2314.95 L301.956 2314.95 L301.956 2304.79 L334.3 2255.52 Z" fill="#000000" fill-rule="nonzero" fill-opacity="1" /><path clip-path="url(#clip400)" d="M398.518 2262.45 Q390.393 2262.45 386.278 2270.47 Q382.216 2278.44 382.216 2294.48 Q382.216 2310.47 386.278 2318.49 Q390.393 2326.46 398.518 2326.46 Q406.695 2326.46 410.757 2318.49 Q414.872 2310.47 414.872 2294.48 Q414.872 2278.44 410.757 2270.47 Q406.695 2262.45 398.518 2262.45 M398.518 2254.11 Q411.591 2254.11 418.466 2264.48 Q425.393 2274.79 425.393 2294.48 Q425.393 2314.11 418.466 2324.48 Q411.591 2334.79 398.518 2334.79 Q385.445 2334.79 378.518 2324.48 Q371.643 2314.11 371.643 2294.48 Q371.643 2274.79 378.518 2264.48 Q385.445 2254.11 398.518 2254.11 Z" fill="#000000" fill-rule="nonzero" fill-opacity="1" /><path clip-path="url(#clip400)" d="M331.956 1824.51 Q324.873 1824.51 320.706 1829.36 Q316.591 1834.2 316.591 1842.64 Q316.591 1851.03 320.706 1855.92 Q324.873 1860.76 331.956 1860.76 Q339.039 1860.76 343.154 1855.92 Q347.32 1851.03 347.32 1842.64 Q347.32 1834.2 343.154 1829.36 Q339.039 1824.51 331.956 1824.51 M352.841 1791.55 L352.841 1801.13 Q348.883 1799.25 344.82 1798.27 Q340.81 1797.28 336.852 1797.28 Q326.435 1797.28 320.914 1804.31 Q315.445 1811.34 314.664 1825.56 Q317.737 1821.03 322.373 1818.63 Q327.008 1816.18 332.581 1816.18 Q344.299 1816.18 351.07 1823.32 Q357.893 1830.4 357.893 1842.64 Q357.893 1854.62 350.81 1861.86 Q343.727 1869.1 331.956 1869.1 Q318.466 1869.1 311.331 1858.79 Q304.196 1848.42 304.196 1828.79 Q304.196 1810.35 312.945 1799.41 Q321.695 1788.42 336.435 1788.42 Q340.393 1788.42 344.404 1789.2 Q348.466 1789.98 352.841 1791.55 Z" fill="#000000" fill-rule="nonzero" fill-opacity="1" /><path clip-path="url(#clip400)" d="M398.518 1796.75 Q390.393 1796.75 386.278 1804.78 Q382.216 1812.74 382.216 1828.79 Q382.216 1844.78 386.278 1852.8 Q390.393 1860.76 398.518 1860.76 Q406.695 1860.76 410.757 1852.8 Q414.872 1844.78 414.872 1828.79 Q414.872 1812.74 410.757 1804.78 Q406.695 1796.75 398.518 1796.75 M398.518 1788.42 Q411.591 1788.42 418.466 1798.79 Q425.393 1809.1 425.393 1828.79 Q425.393 1848.42 418.466 1858.79 Q411.591 1869.1 398.518 1869.1 Q385.445 1869.1 378.518 1858.79 Q371.643 1848.42 371.643 1828.79 Q371.643 1809.1 378.518 1798.79 Q385.445 1788.42 398.518 1788.42 Z" fill="#000000" fill-rule="nonzero" fill-opacity="1" /><path clip-path="url(#clip400)" d="M330.654 1364.97 Q323.154 1364.97 318.831 1368.98 Q314.56 1372.99 314.56 1380.02 Q314.56 1387.05 318.831 1391.06 Q323.154 1395.07 330.654 1395.07 Q338.154 1395.07 342.477 1391.06 Q346.799 1387 346.799 1380.02 Q346.799 1372.99 342.477 1368.98 Q338.206 1364.97 330.654 1364.97 M320.133 1360.49 Q313.362 1358.82 309.56 1354.19 Q305.81 1349.55 305.81 1342.88 Q305.81 1333.56 312.425 1328.14 Q319.091 1322.73 330.654 1322.73 Q342.268 1322.73 348.883 1328.14 Q355.497 1333.56 355.497 1342.88 Q355.497 1349.55 351.695 1354.19 Q347.945 1358.82 341.227 1360.49 Q348.831 1362.26 353.049 1367.42 Q357.32 1372.57 357.32 1380.02 Q357.32 1391.32 350.393 1397.36 Q343.518 1403.4 330.654 1403.4 Q317.789 1403.4 310.862 1397.36 Q303.987 1391.32 303.987 1380.02 Q303.987 1372.57 308.258 1367.42 Q312.529 1362.26 320.133 1360.49 M316.279 1343.87 Q316.279 1349.92 320.029 1353.3 Q323.831 1356.69 330.654 1356.69 Q337.425 1356.69 341.227 1353.3 Q345.081 1349.92 345.081 1343.87 Q345.081 1337.83 341.227 1334.45 Q337.425 1331.06 330.654 1331.06 Q323.831 1331.06 320.029 1334.45 Q316.279 1337.83 316.279 1343.87 Z" fill="#000000" fill-rule="nonzero" fill-opacity="1" /><path clip-path="url(#clip400)" d="M398.518 1331.06 Q390.393 1331.06 386.278 1339.08 Q382.216 1347.05 382.216 1363.09 Q382.216 1379.08 386.278 1387.1 Q390.393 1395.07 398.518 1395.07 Q406.695 1395.07 410.757 1387.1 Q414.872 1379.08 414.872 1363.09 Q414.872 1347.05 410.757 1339.08 Q406.695 1331.06 398.518 1331.06 M398.518 1322.73 Q411.591 1322.73 418.466 1333.09 Q425.393 1343.4 425.393 1363.09 Q425.393 1382.73 418.466 1393.09 Q411.591 1403.4 398.518 1403.4 Q385.445 1403.4 378.518 1393.09 Q371.643 1382.73 371.643 1363.09 Q371.643 1343.4 378.518 1333.09 Q385.445 1322.73 398.518 1322.73 Z" fill="#000000" fill-rule="nonzero" fill-opacity="1" /><path clip-path="url(#clip400)" d="M242.113 927.347 L259.3 927.347 L259.3 868.024 L240.602 871.774 L240.602 862.191 L259.196 858.441 L269.717 858.441 L269.717 927.347 L286.904 927.347 L286.904 936.201 L242.113 936.201 L242.113 927.347 Z" fill="#000000" fill-rule="nonzero" fill-opacity="1" /><path clip-path="url(#clip400)" d="M330.654 865.368 Q322.529 865.368 318.414 873.389 Q314.352 881.357 314.352 897.399 Q314.352 913.388 318.414 921.409 Q322.529 929.378 330.654 929.378 Q338.831 929.378 342.893 921.409 Q347.008 913.388 347.008 897.399 Q347.008 881.357 342.893 873.389 Q338.831 865.368 330.654 865.368 M330.654 857.035 Q343.727 857.035 350.602 867.399 Q357.529 877.712 357.529 897.399 Q357.529 917.034 350.602 927.399 Q343.727 937.711 330.654 937.711 Q317.581 937.711 310.654 927.399 Q303.779 917.034 303.779 897.399 Q303.779 877.712 310.654 867.399 Q317.581 857.035 330.654 857.035 Z" fill="#000000" fill-rule="nonzero" fill-opacity="1" /><path clip-path="url(#clip400)" d="M398.518 865.368 Q390.393 865.368 386.278 873.389 Q382.216 881.357 382.216 897.399 Q382.216 913.388 386.278 921.409 Q390.393 929.378 398.518 929.378 Q406.695 929.378 410.757 921.409 Q414.872 913.388 414.872 897.399 Q414.872 881.357 410.757 873.389 Q406.695 865.368 398.518 865.368 M398.518 857.035 Q411.591 857.035 418.466 867.399 Q425.393 877.712 425.393 897.399 Q425.393 917.034 418.466 927.399 Q411.591 937.711 398.518 937.711 Q385.445 937.711 378.518 927.399 Q371.643 917.034 371.643 897.399 Q371.643 877.712 378.518 867.399 Q385.445 857.035 398.518 857.035 Z" fill="#000000" fill-rule="nonzero" fill-opacity="1" /><path clip-path="url(#clip400)" d="M242.113 461.653 L259.3 461.653 L259.3 402.331 L240.602 406.081 L240.602 396.497 L259.196 392.747 L269.717 392.747 L269.717 461.653 L286.904 461.653 L286.904 470.507 L242.113 470.507 L242.113 461.653 Z" fill="#000000" fill-rule="nonzero" fill-opacity="1" /><path clip-path="url(#clip400)" d="M317.216 461.653 L353.935 461.653 L353.935 470.507 L304.56 470.507 L304.56 461.653 Q310.55 455.455 320.862 445.039 Q331.227 434.57 333.883 431.549 Q338.935 425.872 340.914 421.966 Q342.945 418.008 342.945 414.206 Q342.945 408.008 338.57 404.102 Q334.247 400.195 327.268 400.195 Q322.32 400.195 316.8 401.914 Q311.331 403.633 305.081 407.122 L305.081 396.497 Q311.435 393.945 316.956 392.643 Q322.477 391.341 327.06 391.341 Q339.143 391.341 346.331 397.383 Q353.518 403.424 353.518 413.529 Q353.518 418.32 351.695 422.643 Q349.924 426.914 345.185 432.747 Q343.883 434.258 336.904 441.497 Q329.925 448.685 317.216 461.653 Z" fill="#000000" fill-rule="nonzero" fill-opacity="1" /><path clip-path="url(#clip400)" d="M398.518 399.674 Q390.393 399.674 386.278 407.695 Q382.216 415.664 382.216 431.706 Q382.216 447.695 386.278 455.716 Q390.393 463.685 398.518 463.685 Q406.695 463.685 410.757 455.716 Q414.872 447.695 414.872 431.706 Q414.872 415.664 410.757 407.695 Q406.695 399.674 398.518 399.674 M398.518 391.341 Q411.591 391.341 418.466 401.706 Q425.393 412.018 425.393 431.706 Q425.393 451.341 418.466 461.705 Q411.591 472.018 398.518 472.018 Q385.445 472.018 378.518 461.705 Q371.643 451.341 371.643 431.706 Q371.643 412.018 378.518 401.706 Q385.445 391.341 398.518 391.341 Z" fill="#000000" fill-rule="nonzero" fill-opacity="1" /><path clip-path="url(#clip400)" d="M49.5037 2241.71 L60.5974 2241.71 Q55.6495 2247.02 53.2016 2253.06 Q50.7537 2259.05 50.7537 2265.82 Q50.7537 2279.15 58.9307 2286.24 Q67.0557 2293.32 82.4723 2293.32 Q97.8368 2293.32 106.014 2286.24 Q114.139 2279.15 114.139 2265.82 Q114.139 2259.05 111.691 2253.06 Q109.243 2247.02 104.295 2241.71 L115.285 2241.71 Q119.035 2247.23 120.91 2253.43 Q122.785 2259.57 122.785 2266.45 Q122.785 2284.1 112.003 2294.26 Q101.17 2304.41 82.4723 2304.41 Q63.7224 2304.41 52.9412 2294.26 Q42.1079 2284.1 42.1079 2266.45 Q42.1079 2259.47 43.9829 2253.32 Q45.8058 2247.12 49.5037 2241.71 Z" fill="#000000" fill-rule="nonzero" fill-opacity="1" /><path clip-path="url(#clip400)" d="M69.6598 2203.27 Q69.6598 2210.98 75.7015 2215.46 Q81.691 2219.94 92.1597 2219.94 Q102.628 2219.94 108.67 2215.51 Q114.66 2211.03 114.66 2203.27 Q114.66 2195.61 108.618 2191.13 Q102.576 2186.65 92.1597 2186.65 Q81.7952 2186.65 75.7535 2191.13 Q69.6598 2195.61 69.6598 2203.27 M61.5349 2203.27 Q61.5349 2190.77 69.6598 2183.63 Q77.7848 2176.5 92.1597 2176.5 Q106.483 2176.5 114.66 2183.63 Q122.785 2190.77 122.785 2203.27 Q122.785 2215.82 114.66 2222.96 Q106.483 2230.04 92.1597 2230.04 Q77.7848 2230.04 69.6598 2222.96 Q61.5349 2215.82 61.5349 2203.27 Z" fill="#000000" fill-rule="nonzero" fill-opacity="1" /><path clip-path="url(#clip400)" d="M71.7952 2122.23 L40.2329 2122.23 L40.2329 2112.64 L121.274 2112.64 L121.274 2122.23 L112.524 2122.23 Q117.732 2125.25 120.285 2129.88 Q122.785 2134.47 122.785 2140.93 Q122.785 2151.5 114.347 2158.17 Q105.91 2164.78 92.1597 2164.78 Q78.4098 2164.78 69.9723 2158.17 Q61.5349 2151.5 61.5349 2140.93 Q61.5349 2134.47 64.0869 2129.88 Q66.5869 2125.25 71.7952 2122.23 M92.1597 2154.88 Q102.733 2154.88 108.774 2150.56 Q114.764 2146.19 114.764 2138.58 Q114.764 2130.98 108.774 2126.6 Q102.733 2122.23 92.1597 2122.23 Q81.5868 2122.23 75.5973 2126.6 Q69.5557 2130.98 69.5557 2138.58 Q69.5557 2146.19 75.5973 2150.56 Q81.5868 2154.88 92.1597 2154.88 Z" fill="#000000" fill-rule="nonzero" fill-opacity="1" /><path clip-path="url(#clip400)" d="M89.7118 2043.01 L94.3993 2043.01 L94.3993 2087.07 Q104.295 2086.45 109.503 2081.13 Q114.66 2075.77 114.66 2066.24 Q114.66 2060.72 113.305 2055.56 Q111.951 2050.35 109.243 2045.25 L118.305 2045.25 Q120.493 2050.41 121.639 2055.82 Q122.785 2061.24 122.785 2066.81 Q122.785 2080.77 114.66 2088.95 Q106.535 2097.07 92.6805 2097.07 Q78.3577 2097.07 69.9723 2089.36 Q61.5349 2081.6 61.5349 2068.48 Q61.5349 2056.71 69.139 2049.88 Q76.691 2043.01 89.7118 2043.01 M86.8993 2052.59 Q79.0348 2052.7 74.3473 2057.02 Q69.6598 2061.29 69.6598 2068.37 Q69.6598 2076.4 74.191 2081.24 Q78.7223 2086.03 86.9514 2086.76 L86.8993 2052.59 Z" fill="#000000" fill-rule="nonzero" fill-opacity="1" /><path clip-path="url(#clip400)" d="M40.2329 1993.37 L40.2329 1983.79 L121.274 1983.79 L121.274 1993.37 L40.2329 1993.37 Z" fill="#000000" fill-rule="nonzero" fill-opacity="1" /><path clip-path="url(#clip400)" d="M89.7118 1913.84 L94.3993 1913.84 L94.3993 1957.91 Q104.295 1957.28 109.503 1951.97 Q114.66 1946.6 114.66 1937.07 Q114.66 1931.55 113.305 1926.4 Q111.951 1921.19 109.243 1916.08 L118.305 1916.08 Q120.493 1921.24 121.639 1926.66 Q122.785 1932.07 122.785 1937.65 Q122.785 1951.6 114.66 1959.78 Q106.535 1967.91 92.6805 1967.91 Q78.3577 1967.91 69.9723 1960.2 Q61.5349 1952.44 61.5349 1939.31 Q61.5349 1927.54 69.139 1920.72 Q76.691 1913.84 89.7118 1913.84 M86.8993 1923.43 Q79.0348 1923.53 74.3473 1927.85 Q69.6598 1932.13 69.6598 1939.21 Q69.6598 1947.23 74.191 1952.07 Q78.7223 1956.86 86.9514 1957.59 L86.8993 1923.43 Z" fill="#000000" fill-rule="nonzero" fill-opacity="1" /><path clip-path="url(#clip400)" d="M86.066 1849.63 L121.274 1849.63 L121.274 1859.21 L86.3785 1859.21 Q78.0973 1859.21 73.9827 1862.44 Q69.8682 1865.67 69.8682 1872.13 Q69.8682 1879.89 74.816 1884.36 Q79.7639 1888.84 88.3056 1888.84 L121.274 1888.84 L121.274 1898.48 L62.9411 1898.48 L62.9411 1888.84 L72.0036 1888.84 Q66.7432 1885.41 64.139 1880.77 Q61.5349 1876.08 61.5349 1869.99 Q61.5349 1859.94 67.7848 1854.78 Q73.9827 1849.63 86.066 1849.63 Z" fill="#000000" fill-rule="nonzero" fill-opacity="1" /><path clip-path="url(#clip400)" d="M91.4305 1792.13 Q81.0139 1792.13 75.2848 1796.45 Q69.5557 1800.72 69.5557 1808.48 Q69.5557 1816.19 75.2848 1820.51 Q81.0139 1824.78 91.4305 1824.78 Q101.795 1824.78 107.524 1820.51 Q113.253 1816.19 113.253 1808.48 Q113.253 1800.72 107.524 1796.45 Q101.795 1792.13 91.4305 1792.13 M114.035 1782.54 Q128.93 1782.54 136.17 1789.16 Q143.462 1795.77 143.462 1809.42 Q143.462 1814.47 142.68 1818.95 Q141.951 1823.43 140.389 1827.65 L131.066 1827.65 Q133.357 1823.43 134.451 1819.31 Q135.545 1815.2 135.545 1810.93 Q135.545 1801.5 130.597 1796.81 Q125.701 1792.13 115.753 1792.13 L111.014 1792.13 Q116.17 1795.09 118.722 1799.73 Q121.274 1804.37 121.274 1810.82 Q121.274 1821.55 113.097 1828.12 Q104.92 1834.68 91.4305 1834.68 Q77.8889 1834.68 69.7119 1828.12 Q61.5349 1821.55 61.5349 1810.82 Q61.5349 1804.37 64.0869 1799.73 Q66.639 1795.09 71.7952 1792.13 L62.9411 1792.13 L62.9411 1782.54 L114.035 1782.54 Z" fill="#000000" fill-rule="nonzero" fill-opacity="1" /><path clip-path="url(#clip400)" d="M46.3787 1753.32 L62.9411 1753.32 L62.9411 1733.58 L70.389 1733.58 L70.389 1753.32 L102.055 1753.32 Q109.191 1753.32 111.222 1751.4 Q113.253 1749.42 113.253 1743.43 L113.253 1733.58 L121.274 1733.58 L121.274 1743.43 Q121.274 1754.52 117.16 1758.74 Q112.993 1762.96 102.055 1762.96 L70.389 1762.96 L70.389 1769.99 L62.9411 1769.99 L62.9411 1762.96 L46.3787 1762.96 L46.3787 1753.32 Z" fill="#000000" fill-rule="nonzero" fill-opacity="1" /><path clip-path="url(#clip400)" d="M86.066 1672.49 L121.274 1672.49 L121.274 1682.07 L86.3785 1682.07 Q78.0973 1682.07 73.9827 1685.3 Q69.8682 1688.53 69.8682 1694.99 Q69.8682 1702.75 74.816 1707.23 Q79.7639 1711.71 88.3056 1711.71 L121.274 1711.71 L121.274 1721.34 L40.2329 1721.34 L40.2329 1711.71 L72.0036 1711.71 Q66.7432 1708.27 64.139 1703.64 Q61.5349 1698.95 61.5349 1692.86 Q61.5349 1682.8 67.7848 1677.65 Q73.9827 1672.49 86.066 1672.49 Z" fill="#000000" fill-rule="nonzero" fill-opacity="1" /><path clip-path="url(#clip400)" d="M40.3371 1596.45 Q52.3162 1603.43 64.0348 1606.81 Q75.7535 1610.2 87.7847 1610.2 Q99.8159 1610.2 111.639 1606.81 Q123.41 1603.38 135.337 1596.45 L135.337 1604.78 Q123.097 1612.6 111.274 1616.5 Q99.4513 1620.36 87.7847 1620.36 Q76.1702 1620.36 64.3994 1616.5 Q52.6287 1612.65 40.3371 1604.78 L40.3371 1596.45 Z" fill="#000000" fill-rule="nonzero" fill-opacity="1" /><path clip-path="url(#clip400)" d="M91.9514 1551.35 Q91.9514 1562.96 94.6076 1567.44 Q97.2638 1571.92 103.67 1571.92 Q108.774 1571.92 111.795 1568.59 Q114.764 1565.2 114.764 1559.42 Q114.764 1551.45 109.139 1546.66 Q103.462 1541.81 94.0868 1541.81 L91.9514 1541.81 L91.9514 1551.35 M87.9931 1532.23 L121.274 1532.23 L121.274 1541.81 L112.42 1541.81 Q117.732 1545.1 120.285 1549.99 Q122.785 1554.89 122.785 1561.97 Q122.785 1570.93 117.785 1576.24 Q112.733 1581.5 104.295 1581.5 Q94.4514 1581.5 89.4514 1574.94 Q84.4514 1568.32 84.4514 1555.25 L84.4514 1541.81 L83.5139 1541.81 Q76.8994 1541.81 73.3056 1546.19 Q69.6598 1550.51 69.6598 1558.38 Q69.6598 1563.38 70.8577 1568.12 Q72.0556 1572.86 74.4515 1577.23 L65.5973 1577.23 Q63.5661 1571.97 62.5765 1567.02 Q61.5349 1562.08 61.5349 1557.39 Q61.5349 1544.73 68.0973 1538.48 Q74.6598 1532.23 87.9931 1532.23 Z" fill="#000000" fill-rule="nonzero" fill-opacity="1" /><path clip-path="url(#clip400)" d="M92.1597 1470.62 Q81.5868 1470.62 75.5973 1474.99 Q69.5557 1479.32 69.5557 1486.92 Q69.5557 1494.52 75.5973 1498.9 Q81.5868 1503.22 92.1597 1503.22 Q102.733 1503.22 108.774 1498.9 Q114.764 1494.52 114.764 1486.92 Q114.764 1479.32 108.774 1474.99 Q102.733 1470.62 92.1597 1470.62 M71.7952 1503.22 Q66.5869 1500.2 64.0869 1495.62 Q61.5349 1490.98 61.5349 1484.58 Q61.5349 1473.95 69.9723 1467.34 Q78.4098 1460.67 92.1597 1460.67 Q105.91 1460.67 114.347 1467.34 Q122.785 1473.95 122.785 1484.58 Q122.785 1490.98 120.285 1495.62 Q117.732 1500.2 112.524 1503.22 L121.274 1503.22 L121.274 1512.86 L40.2329 1512.86 L40.2329 1503.22 L71.7952 1503.22 Z" fill="#000000" fill-rule="nonzero" fill-opacity="1" /><path clip-path="url(#clip400)" d="M64.6598 1407.6 L73.7223 1407.6 Q71.639 1411.66 70.5973 1416.03 Q69.5557 1420.41 69.5557 1425.1 Q69.5557 1432.23 71.7431 1435.83 Q73.9306 1439.37 78.3056 1439.37 Q81.6389 1439.37 83.566 1436.82 Q85.441 1434.26 87.1597 1426.55 L87.8889 1423.27 Q90.0764 1413.07 94.0868 1408.79 Q98.0451 1404.47 105.18 1404.47 Q113.305 1404.47 118.045 1410.93 Q122.785 1417.34 122.785 1428.59 Q122.785 1433.27 121.847 1438.38 Q120.962 1443.43 119.139 1449.05 L109.243 1449.05 Q112.003 1443.74 113.41 1438.59 Q114.764 1433.43 114.764 1428.38 Q114.764 1421.61 112.472 1417.96 Q110.128 1414.32 105.91 1414.32 Q102.003 1414.32 99.9201 1416.97 Q97.8368 1419.58 95.9097 1428.48 L95.1284 1431.82 Q93.2534 1440.72 89.3993 1444.68 Q85.4931 1448.64 78.7223 1448.64 Q70.4931 1448.64 66.014 1442.8 Q61.5349 1436.97 61.5349 1426.24 Q61.5349 1420.93 62.3161 1416.24 Q63.0974 1411.55 64.6598 1407.6 Z" fill="#000000" fill-rule="nonzero" fill-opacity="1" /><path clip-path="url(#clip400)" d="M69.6598 1366.61 Q69.6598 1374.32 75.7015 1378.79 Q81.691 1383.27 92.1597 1383.27 Q102.628 1383.27 108.67 1378.85 Q114.66 1374.37 114.66 1366.61 Q114.66 1358.95 108.618 1354.47 Q102.576 1349.99 92.1597 1349.99 Q81.7952 1349.99 75.7535 1354.47 Q69.6598 1358.95 69.6598 1366.61 M61.5349 1366.61 Q61.5349 1354.11 69.6598 1346.97 Q77.7848 1339.84 92.1597 1339.84 Q106.483 1339.84 114.66 1346.97 Q122.785 1354.11 122.785 1366.61 Q122.785 1379.16 114.66 1386.29 Q106.483 1393.38 92.1597 1393.38 Q77.7848 1393.38 69.6598 1386.29 Q61.5349 1379.16 61.5349 1366.61 Z" fill="#000000" fill-rule="nonzero" fill-opacity="1" /><path clip-path="url(#clip400)" d="M40.2329 1323.95 L40.2329 1314.37 L121.274 1314.37 L121.274 1323.95 L40.2329 1323.95 Z" fill="#000000" fill-rule="nonzero" fill-opacity="1" /><path clip-path="url(#clip400)" d="M98.2534 1295.31 L62.9411 1295.31 L62.9411 1285.72 L97.8888 1285.72 Q106.17 1285.72 110.337 1282.49 Q114.451 1279.26 114.451 1272.81 Q114.451 1265.05 109.503 1260.57 Q104.555 1256.03 96.0138 1256.03 L62.9411 1256.03 L62.9411 1246.45 L121.274 1246.45 L121.274 1256.03 L112.316 1256.03 Q117.628 1259.52 120.232 1264.16 Q122.785 1268.74 122.785 1274.84 Q122.785 1284.89 116.535 1290.1 Q110.285 1295.31 98.2534 1295.31 M61.5349 1271.19 L61.5349 1271.19 Z" fill="#000000" fill-rule="nonzero" fill-opacity="1" /><path clip-path="url(#clip400)" d="M46.3787 1217.23 L62.9411 1217.23 L62.9411 1197.49 L70.389 1197.49 L70.389 1217.23 L102.055 1217.23 Q109.191 1217.23 111.222 1215.31 Q113.253 1213.33 113.253 1207.34 L113.253 1197.49 L121.274 1197.49 L121.274 1207.34 Q121.274 1218.43 117.16 1222.65 Q112.993 1226.87 102.055 1226.87 L70.389 1226.87 L70.389 1233.9 L62.9411 1233.9 L62.9411 1226.87 L46.3787 1226.87 L46.3787 1217.23 Z" fill="#000000" fill-rule="nonzero" fill-opacity="1" /><path clip-path="url(#clip400)" d="M89.7118 1134.99 L94.3993 1134.99 L94.3993 1179.06 Q104.295 1178.43 109.503 1173.12 Q114.66 1167.75 114.66 1158.22 Q114.66 1152.7 113.305 1147.55 Q111.951 1142.34 109.243 1137.23 L118.305 1137.23 Q120.493 1142.39 121.639 1147.81 Q122.785 1153.22 122.785 1158.8 Q122.785 1172.75 114.66 1180.93 Q106.535 1189.06 92.6805 1189.06 Q78.3577 1189.06 69.9723 1181.35 Q61.5349 1173.59 61.5349 1160.46 Q61.5349 1148.69 69.139 1141.87 Q76.691 1134.99 89.7118 1134.99 M86.8993 1144.58 Q79.0348 1144.68 74.3473 1149 Q69.6598 1153.28 69.6598 1160.36 Q69.6598 1168.38 74.191 1173.22 Q78.7223 1178.01 86.9514 1178.74 L86.8993 1144.58 Z" fill="#000000" fill-rule="nonzero" fill-opacity="1" /><path clip-path="url(#clip400)" d="M40.3371 1120.78 L40.3371 1112.44 Q52.6287 1104.63 64.3994 1100.78 Q76.1702 1096.87 87.7847 1096.87 Q99.4513 1096.87 111.274 1100.78 Q123.097 1104.63 135.337 1112.44 L135.337 1120.78 Q123.41 1113.85 111.639 1110.46 Q99.8159 1107.03 87.7847 1107.03 Q75.7535 1107.03 64.0348 1110.46 Q52.3162 1113.85 40.3371 1120.78 Z" fill="#000000" fill-rule="nonzero" fill-opacity="1" /><path clip-path="url(#clip402)" d="M695.617 850.752 L695.617 3225.79 L1328.24 3225.79 L1328.24 850.752 L695.617 850.752 L695.617 850.752  Z" fill="#440154" fill-rule="evenodd" fill-opacity="1"/>
<polyline clip-path="url(#clip402)" style="stroke:#000000; stroke-linecap:round; stroke-linejoin:round; stroke-width:4; stroke-opacity:1; fill:none" points="695.617,850.752 695.617,3225.79 1328.24,3225.79 1328.24,850.752 695.617,850.752 "/>
<circle clip-path="url(#clip402)" style="fill:#440154; stroke:none; fill-opacity:0" cx="1011.93" cy="850.752" r="2"/>
<path clip-path="url(#clip402)" d="M1821.68 175.496 L1821.68 3225.79 L2454.31 3225.79 L2454.31 175.496 L1821.68 175.496 L1821.68 175.496  Z" fill="#3a518b" fill-rule="evenodd" fill-opacity="1"/>
<polyline clip-path="url(#clip402)" style="stroke:#000000; stroke-linecap:round; stroke-linejoin:round; stroke-width:4; stroke-opacity:1; fill:none" points="1821.68,175.496 1821.68,3225.79 2454.31,3225.79 2454.31,175.496 1821.68,175.496 "/>
<circle clip-path="url(#clip402)" style="fill:#3a518b; stroke:none; fill-opacity:0" cx="2138" cy="175.496" r="2"/>
<path clip-path="url(#clip402)" d="M2947.75 1200.02 L2947.75 3225.79 L3580.37 3225.79 L3580.37 1200.02 L2947.75 1200.02 L2947.75 1200.02  Z" fill="#20908c" fill-rule="evenodd" fill-opacity="1"/>
<polyline clip-path="url(#clip402)" style="stroke:#000000; stroke-linecap:round; stroke-linejoin:round; stroke-width:4; stroke-opacity:1; fill:none" points="2947.75,1200.02 2947.75,3225.79 3580.37,3225.79 3580.37,1200.02 2947.75,1200.02 "/>
<circle clip-path="url(#clip402)" style="fill:#20908c; stroke:none; fill-opacity:0" cx="3264.06" cy="1200.02" r="2"/>
<path clip-path="url(#clip402)" d="M4073.82 1037.03 L4073.82 3225.79 L4706.44 3225.79 L4706.44 1037.03 L4073.82 1037.03 L4073.82 1037.03  Z" fill="#5cc862" fill-rule="evenodd" fill-opacity="1"/>
<polyline clip-path="url(#clip402)" style="stroke:#000000; stroke-linecap:round; stroke-linejoin:round; stroke-width:4; stroke-opacity:1; fill:none" points="4073.82,1037.03 4073.82,3225.79 4706.44,3225.79 4706.44,1037.03 4073.82,1037.03 "/>
<circle clip-path="url(#clip402)" style="fill:#5cc862; stroke:none; fill-opacity:0" cx="4390.13" cy="1037.03" r="2"/>
<path clip-path="url(#clip402)" d="M5199.89 2853.23 L5199.89 3225.79 L5832.51 3225.79 L5832.51 2853.23 L5199.89 2853.23 L5199.89 2853.23  Z" fill="#fde724" fill-rule="evenodd" fill-opacity="1"/>
<polyline clip-path="url(#clip402)" style="stroke:#000000; stroke-linecap:round; stroke-linejoin:round; stroke-width:4; stroke-opacity:1; fill:none" points="5199.89,2853.23 5199.89,3225.79 5832.51,3225.79 5832.51,2853.23 5199.89,2853.23 "/>
<circle clip-path="url(#clip402)" style="fill:#fde724; stroke:none; fill-opacity:0" cx="5516.2" cy="2853.23" r="2"/>
<polyline clip-path="url(#clip400)" style="stroke:#000000; stroke-linecap:round; stroke-linejoin:round; stroke-width:4; stroke-opacity:1; fill:none" points="6006.73,3225.79 6006.73,175.496 "/>
<polyline clip-path="url(#clip400)" style="stroke:#000000; stroke-linecap:round; stroke-linejoin:round; stroke-width:4; stroke-opacity:1; fill:none" points="6006.73,3225.79 5987.83,3225.79 "/>
<polyline clip-path="url(#clip400)" style="stroke:#000000; stroke-linecap:round; stroke-linejoin:round; stroke-width:4; stroke-opacity:1; fill:none" points="6006.73,2480.68 5987.83,2480.68 "/>
<polyline clip-path="url(#clip400)" style="stroke:#000000; stroke-linecap:round; stroke-linejoin:round; stroke-width:4; stroke-opacity:1; fill:none" points="6006.73,1735.57 5987.83,1735.57 "/>
<polyline clip-path="url(#clip400)" style="stroke:#000000; stroke-linecap:round; stroke-linejoin:round; stroke-width:4; stroke-opacity:1; fill:none" points="6006.73,990.46 5987.83,990.46 "/>
<polyline clip-path="url(#clip400)" style="stroke:#000000; stroke-linecap:round; stroke-linejoin:round; stroke-width:4; stroke-opacity:1; fill:none" points="6006.73,245.35 5987.83,245.35 "/>
<path clip-path="url(#clip400)" d="M6129.61 3193.83 Q6121.48 3193.83 6117.37 3201.86 Q6113.3 3209.82 6113.3 3225.87 Q6113.3 3241.86 6117.37 3249.88 Q6121.48 3257.84 6129.61 3257.84 Q6137.78 3257.84 6141.85 3249.88 Q6145.96 3241.86 6145.96 3225.87 Q6145.96 3209.82 6141.85 3201.86 Q6137.78 3193.83 6129.61 3193.83 M6129.61 3185.5 Q6142.68 3185.5 6149.55 3195.87 Q6156.48 3206.18 6156.48 3225.87 Q6156.48 3245.5 6149.55 3255.87 Q6142.68 3266.18 6129.61 3266.18 Q6116.53 3266.18 6109.61 3255.87 Q6102.73 3245.5 6102.73 3225.87 Q6102.73 3206.18 6109.61 3195.87 Q6116.53 3185.5 6129.61 3185.5 Z" fill="#000000" fill-rule="nonzero" fill-opacity="1" /><path clip-path="url(#clip400)" d="M6115.39 2510.7 L6152.11 2510.7 L6152.11 2519.56 L6102.73 2519.56 L6102.73 2510.7 Q6108.72 2504.51 6119.03 2494.09 Q6129.4 2483.62 6132.05 2480.6 Q6137.11 2474.92 6139.09 2471.02 Q6141.12 2467.06 6141.12 2463.26 Q6141.12 2457.06 6136.74 2453.15 Q6132.42 2449.25 6125.44 2449.25 Q6120.49 2449.25 6114.97 2450.97 Q6109.5 2452.68 6103.25 2456.17 L6103.25 2445.55 Q6109.61 2443 6115.13 2441.69 Q6120.65 2440.39 6125.23 2440.39 Q6137.31 2440.39 6144.5 2446.43 Q6151.69 2452.48 6151.69 2462.58 Q6151.69 2467.37 6149.87 2471.69 Q6148.1 2475.96 6143.36 2481.8 Q6142.05 2483.31 6135.08 2490.55 Q6128.1 2497.74 6115.39 2510.7 Z" fill="#000000" fill-rule="nonzero" fill-opacity="1" /><path clip-path="url(#clip400)" d="M6137.84 1705.86 L6111.27 1747.37 L6137.84 1747.37 L6137.84 1705.86 M6135.08 1696.69 L6148.3 1696.69 L6148.3 1747.37 L6159.4 1747.37 L6159.4 1756.12 L6148.3 1756.12 L6148.3 1774.45 L6137.84 1774.45 L6137.84 1756.12 L6102.73 1756.12 L6102.73 1745.96 L6135.08 1696.69 Z" fill="#000000" fill-rule="nonzero" fill-opacity="1" /><path clip-path="url(#clip400)" d="M6130.49 986.267 Q6123.41 986.267 6119.24 991.111 Q6115.13 995.954 6115.13 1004.39 Q6115.13 1012.78 6119.24 1017.67 Q6123.41 1022.52 6130.49 1022.52 Q6137.58 1022.52 6141.69 1017.67 Q6145.86 1012.78 6145.86 1004.39 Q6145.86 995.954 6141.69 991.111 Q6137.58 986.267 6130.49 986.267 M6151.38 953.298 L6151.38 962.882 Q6147.42 961.007 6143.36 960.017 Q6139.35 959.027 6135.39 959.027 Q6124.97 959.027 6119.45 966.059 Q6113.98 973.09 6113.2 987.308 Q6116.27 982.777 6120.91 980.381 Q6125.54 977.934 6131.12 977.934 Q6142.84 977.934 6149.61 985.069 Q6156.43 992.152 6156.43 1004.39 Q6156.43 1016.37 6149.35 1023.61 Q6142.26 1030.85 6130.49 1030.85 Q6117 1030.85 6109.87 1020.54 Q6102.73 1010.17 6102.73 990.538 Q6102.73 972.1 6111.48 961.163 Q6120.23 950.173 6134.97 950.173 Q6138.93 950.173 6142.94 950.955 Q6147 951.736 6151.38 953.298 Z" fill="#000000" fill-rule="nonzero" fill-opacity="1" /><path clip-path="url(#clip400)" d="M6129.4 247.303 Q6121.9 247.303 6117.58 251.314 Q6113.3 255.324 6113.3 262.355 Q6113.3 269.386 6117.58 273.397 Q6121.9 277.407 6129.4 277.407 Q6136.9 277.407 6141.22 273.397 Q6145.54 269.334 6145.54 262.355 Q6145.54 255.324 6141.22 251.314 Q6136.95 247.303 6129.4 247.303 M6118.88 242.824 Q6112.11 241.157 6108.3 236.522 Q6104.55 231.887 6104.55 225.22 Q6104.55 215.897 6111.17 210.48 Q6117.84 205.064 6129.4 205.064 Q6141.01 205.064 6147.63 210.48 Q6154.24 215.897 6154.24 225.22 Q6154.24 231.887 6150.44 236.522 Q6146.69 241.157 6139.97 242.824 Q6147.58 244.595 6151.79 249.751 Q6156.06 254.907 6156.06 262.355 Q6156.06 273.657 6149.14 279.699 Q6142.26 285.74 6129.4 285.74 Q6116.53 285.74 6109.61 279.699 Q6102.73 273.657 6102.73 262.355 Q6102.73 254.907 6107 249.751 Q6111.27 244.595 6118.88 242.824 M6115.02 226.21 Q6115.02 232.251 6118.77 235.637 Q6122.58 239.022 6129.4 239.022 Q6136.17 239.022 6139.97 235.637 Q6143.83 232.251 6143.83 226.21 Q6143.83 220.168 6139.97 216.783 Q6136.17 213.397 6129.4 213.397 Q6122.58 213.397 6118.77 216.783 Q6115.02 220.168 6115.02 226.21 Z" fill="#000000" fill-rule="nonzero" fill-opacity="1" /><path clip-path="url(#clip400)" d="M6276.94 2213.58 L6288.03 2213.58 Q6283.09 2218.89 6280.64 2224.94 Q6278.19 2230.93 6278.19 2237.7 Q6278.19 2251.03 6286.37 2258.11 Q6294.49 2265.2 6309.91 2265.2 Q6325.27 2265.2 6333.45 2258.11 Q6341.57 2251.03 6341.57 2237.7 Q6341.57 2230.93 6339.13 2224.94 Q6336.68 2218.89 6331.73 2213.58 L6342.72 2213.58 Q6346.47 2219.1 6348.35 2225.3 Q6350.22 2231.45 6350.22 2238.32 Q6350.22 2255.98 6339.44 2266.13 Q6328.61 2276.29 6309.91 2276.29 Q6291.16 2276.29 6280.38 2266.13 Q6269.54 2255.98 6269.54 2238.32 Q6269.54 2231.34 6271.42 2225.2 Q6273.24 2219 6276.94 2213.58 Z" fill="#000000" fill-rule="nonzero" fill-opacity="1" /><path clip-path="url(#clip400)" d="M6297.1 2175.14 Q6297.1 2182.85 6303.14 2187.33 Q6309.13 2191.81 6319.6 2191.81 Q6330.06 2191.81 6336.11 2187.38 Q6342.1 2182.91 6342.1 2175.14 Q6342.1 2167.49 6336.05 2163.01 Q6330.01 2158.53 6319.6 2158.53 Q6309.23 2158.53 6303.19 2163.01 Q6297.1 2167.49 6297.1 2175.14 M6288.97 2175.14 Q6288.97 2162.64 6297.1 2155.51 Q6305.22 2148.37 6319.6 2148.37 Q6333.92 2148.37 6342.1 2155.51 Q6350.22 2162.64 6350.22 2175.14 Q6350.22 2187.7 6342.1 2194.83 Q6333.92 2201.92 6319.6 2201.92 Q6305.22 2201.92 6297.1 2194.83 Q6288.97 2187.7 6288.97 2175.14 Z" fill="#000000" fill-rule="nonzero" fill-opacity="1" /><path clip-path="url(#clip400)" d="M6299.23 2094.1 L6267.67 2094.1 L6267.67 2084.52 L6348.71 2084.52 L6348.71 2094.1 L6339.96 2094.1 Q6345.17 2097.12 6347.72 2101.76 Q6350.22 2106.34 6350.22 2112.8 Q6350.22 2123.37 6341.78 2130.04 Q6333.35 2136.66 6319.6 2136.66 Q6305.85 2136.66 6297.41 2130.04 Q6288.97 2123.37 6288.97 2112.8 Q6288.97 2106.34 6291.52 2101.76 Q6294.02 2097.12 6299.23 2094.1 M6319.6 2126.76 Q6330.17 2126.76 6336.21 2122.44 Q6342.2 2118.06 6342.2 2110.46 Q6342.2 2102.85 6336.21 2098.48 Q6330.17 2094.1 6319.6 2094.1 Q6309.02 2094.1 6303.03 2098.48 Q6296.99 2102.85 6296.99 2110.46 Q6296.99 2118.06 6303.03 2122.44 Q6309.02 2126.76 6319.6 2126.76 Z" fill="#000000" fill-rule="nonzero" fill-opacity="1" /><path clip-path="url(#clip400)" d="M6317.15 2014.89 L6321.84 2014.89 L6321.84 2058.95 Q6331.73 2058.32 6336.94 2053.01 Q6342.1 2047.65 6342.1 2038.11 Q6342.1 2032.59 6340.74 2027.44 Q6339.39 2022.23 6336.68 2017.12 L6345.74 2017.12 Q6347.93 2022.28 6349.07 2027.7 Q6350.22 2033.11 6350.22 2038.69 Q6350.22 2052.65 6342.1 2060.82 Q6333.97 2068.95 6320.12 2068.95 Q6305.79 2068.95 6297.41 2061.24 Q6288.97 2053.48 6288.97 2040.35 Q6288.97 2028.58 6296.57 2021.76 Q6304.13 2014.89 6317.15 2014.89 M6314.34 2024.47 Q6306.47 2024.57 6301.78 2028.9 Q6297.1 2033.17 6297.1 2040.25 Q6297.1 2048.27 6301.63 2053.11 Q6306.16 2057.91 6314.39 2058.63 L6314.34 2024.47 Z" fill="#000000" fill-rule="nonzero" fill-opacity="1" /><path clip-path="url(#clip400)" d="M6267.67 1965.25 L6267.67 1955.67 L6348.71 1955.67 L6348.71 1965.25 L6267.67 1965.25 Z" fill="#000000" fill-rule="nonzero" fill-opacity="1" /><path clip-path="url(#clip400)" d="M6317.15 1885.72 L6321.84 1885.72 L6321.84 1929.78 Q6331.73 1929.16 6336.94 1923.84 Q6342.1 1918.48 6342.1 1908.95 Q6342.1 1903.43 6340.74 1898.27 Q6339.39 1893.06 6336.68 1887.96 L6345.74 1887.96 Q6347.93 1893.11 6349.07 1898.53 Q6350.22 1903.95 6350.22 1909.52 Q6350.22 1923.48 6342.1 1931.66 Q6333.97 1939.78 6320.12 1939.78 Q6305.79 1939.78 6297.41 1932.07 Q6288.97 1924.31 6288.97 1911.19 Q6288.97 1899.42 6296.57 1892.59 Q6304.13 1885.72 6317.15 1885.72 M6314.34 1895.3 Q6306.47 1895.41 6301.78 1899.73 Q6297.1 1904 6297.1 1911.08 Q6297.1 1919.1 6301.63 1923.95 Q6306.16 1928.74 6314.39 1929.47 L6314.34 1895.3 Z" fill="#000000" fill-rule="nonzero" fill-opacity="1" /><path clip-path="url(#clip400)" d="M6313.5 1821.5 L6348.71 1821.5 L6348.71 1831.08 L6313.81 1831.08 Q6305.53 1831.08 6301.42 1834.31 Q6297.3 1837.54 6297.3 1844 Q6297.3 1851.76 6302.25 1856.24 Q6307.2 1860.72 6315.74 1860.72 L6348.71 1860.72 L6348.71 1870.35 L6290.38 1870.35 L6290.38 1860.72 L6299.44 1860.72 Q6294.18 1857.28 6291.57 1852.65 Q6288.97 1847.96 6288.97 1841.87 Q6288.97 1831.81 6295.22 1826.66 Q6301.42 1821.5 6313.5 1821.5 Z" fill="#000000" fill-rule="nonzero" fill-opacity="1" /><path clip-path="url(#clip400)" d="M6318.87 1764 Q6308.45 1764 6302.72 1768.32 Q6296.99 1772.59 6296.99 1780.36 Q6296.99 1788.06 6302.72 1792.39 Q6308.45 1796.66 6318.87 1796.66 Q6329.23 1796.66 6334.96 1792.39 Q6340.69 1788.06 6340.69 1780.36 Q6340.69 1772.59 6334.96 1768.32 Q6329.23 1764 6318.87 1764 M6341.47 1754.42 Q6356.37 1754.42 6363.61 1761.03 Q6370.9 1767.65 6370.9 1781.29 Q6370.9 1786.34 6370.12 1790.82 Q6369.39 1795.3 6367.82 1799.52 L6358.5 1799.52 Q6360.79 1795.3 6361.89 1791.19 Q6362.98 1787.07 6362.98 1782.8 Q6362.98 1773.38 6358.03 1768.69 Q6353.14 1764 6343.19 1764 L6338.45 1764 Q6343.61 1766.97 6346.16 1771.61 Q6348.71 1776.24 6348.71 1782.7 Q6348.71 1793.43 6340.53 1799.99 Q6332.36 1806.55 6318.87 1806.55 Q6305.32 1806.55 6297.15 1799.99 Q6288.97 1793.43 6288.97 1782.7 Q6288.97 1776.24 6291.52 1771.61 Q6294.07 1766.97 6299.23 1764 L6290.38 1764 L6290.38 1754.42 L6341.47 1754.42 Z" fill="#000000" fill-rule="nonzero" fill-opacity="1" /><path clip-path="url(#clip400)" d="M6273.81 1725.2 L6290.38 1725.2 L6290.38 1705.46 L6297.82 1705.46 L6297.82 1725.2 L6329.49 1725.2 Q6336.63 1725.2 6338.66 1723.27 Q6340.69 1721.29 6340.69 1715.3 L6340.69 1705.46 L6348.71 1705.46 L6348.71 1715.3 Q6348.71 1726.4 6344.6 1730.62 Q6340.43 1734.83 6329.49 1734.83 L6297.82 1734.83 L6297.82 1741.87 L6290.38 1741.87 L6290.38 1734.83 L6273.81 1734.83 L6273.81 1725.2 Z" fill="#000000" fill-rule="nonzero" fill-opacity="1" /><path clip-path="url(#clip400)" d="M6313.5 1644.37 L6348.71 1644.37 L6348.71 1653.95 L6313.81 1653.95 Q6305.53 1653.95 6301.42 1657.18 Q6297.3 1660.41 6297.3 1666.87 Q6297.3 1674.63 6302.25 1679.11 Q6307.2 1683.58 6315.74 1683.58 L6348.71 1683.58 L6348.71 1693.22 L6267.67 1693.22 L6267.67 1683.58 L6299.44 1683.58 Q6294.18 1680.15 6291.57 1675.51 Q6288.97 1670.82 6288.97 1664.73 Q6288.97 1654.68 6295.22 1649.52 Q6301.42 1644.37 6313.5 1644.37 Z" fill="#000000" fill-rule="nonzero" fill-opacity="1" /><path clip-path="url(#clip400)" d="M6267.77 1568.32 Q6279.75 1575.3 6291.47 1578.69 Q6303.19 1582.07 6315.22 1582.07 Q6327.25 1582.07 6339.07 1578.69 Q6350.85 1575.25 6362.77 1568.32 L6362.77 1576.66 Q6350.53 1584.47 6338.71 1588.38 Q6326.89 1592.23 6315.22 1592.23 Q6303.61 1592.23 6291.84 1588.38 Q6280.06 1584.52 6267.77 1576.66 L6267.77 1568.32 Z" fill="#000000" fill-rule="nonzero" fill-opacity="1" /><path clip-path="url(#clip400)" d="M6299.34 1515.93 Q6298.4 1517.54 6297.98 1519.47 Q6297.51 1521.35 6297.51 1523.64 Q6297.51 1531.76 6302.82 1536.14 Q6308.09 1540.46 6317.98 1540.46 L6348.71 1540.46 L6348.71 1550.1 L6290.38 1550.1 L6290.38 1540.46 L6299.44 1540.46 Q6294.13 1537.44 6291.57 1532.6 Q6288.97 1527.75 6288.97 1520.83 Q6288.97 1519.84 6289.13 1518.64 Q6289.23 1517.44 6289.49 1515.98 L6299.34 1515.93 Z" fill="#000000" fill-rule="nonzero" fill-opacity="1" /><path clip-path="url(#clip400)" d="M6317.15 1458.33 L6321.84 1458.33 L6321.84 1502.39 Q6331.73 1501.76 6336.94 1496.45 Q6342.1 1491.09 6342.1 1481.55 Q6342.1 1476.03 6340.74 1470.88 Q6339.39 1465.67 6336.68 1460.57 L6345.74 1460.57 Q6347.93 1465.72 6349.07 1471.14 Q6350.22 1476.55 6350.22 1482.13 Q6350.22 1496.09 6342.1 1504.26 Q6333.97 1512.39 6320.12 1512.39 Q6305.79 1512.39 6297.41 1504.68 Q6288.97 1496.92 6288.97 1483.79 Q6288.97 1472.02 6296.57 1465.2 Q6304.13 1458.33 6317.15 1458.33 M6314.34 1467.91 Q6306.47 1468.01 6301.78 1472.34 Q6297.1 1476.61 6297.1 1483.69 Q6297.1 1491.71 6301.63 1496.55 Q6306.16 1501.35 6314.39 1502.08 L6314.34 1467.91 Z" fill="#000000" fill-rule="nonzero" fill-opacity="1" /><path clip-path="url(#clip400)" d="M6267.67 1442.6 L6267.67 1433.01 L6348.71 1433.01 L6348.71 1442.6 L6267.67 1442.6 Z" fill="#000000" fill-rule="nonzero" fill-opacity="1" /><path clip-path="url(#clip400)" d="M6319.39 1386.45 Q6319.39 1398.07 6322.04 1402.54 Q6324.7 1407.02 6331.11 1407.02 Q6336.21 1407.02 6339.23 1403.69 Q6342.2 1400.31 6342.2 1394.52 Q6342.2 1386.56 6336.57 1381.76 Q6330.9 1376.92 6321.52 1376.92 L6319.39 1376.92 L6319.39 1386.45 M6315.43 1367.34 L6348.71 1367.34 L6348.71 1376.92 L6339.86 1376.92 Q6345.17 1380.2 6347.72 1385.1 Q6350.22 1389.99 6350.22 1397.08 Q6350.22 1406.03 6345.22 1411.35 Q6340.17 1416.61 6331.73 1416.61 Q6321.89 1416.61 6316.89 1410.04 Q6311.89 1403.43 6311.89 1390.36 L6311.89 1376.92 L6310.95 1376.92 Q6304.34 1376.92 6300.74 1381.29 Q6297.1 1385.62 6297.1 1393.48 Q6297.1 1398.48 6298.29 1403.22 Q6299.49 1407.96 6301.89 1412.34 L6293.03 1412.34 Q6291 1407.08 6290.01 1402.13 Q6288.97 1397.18 6288.97 1392.49 Q6288.97 1379.84 6295.53 1373.59 Q6302.1 1367.34 6315.43 1367.34 Z" fill="#000000" fill-rule="nonzero" fill-opacity="1" /><path clip-path="url(#clip400)" d="M6273.81 1338.12 L6290.38 1338.12 L6290.38 1318.38 L6297.82 1318.38 L6297.82 1338.12 L6329.49 1338.12 Q6336.63 1338.12 6338.66 1336.19 Q6340.69 1334.21 6340.69 1328.22 L6340.69 1318.38 L6348.71 1318.38 L6348.71 1328.22 Q6348.71 1339.32 6344.6 1343.53 Q6340.43 1347.75 6329.49 1347.75 L6297.82 1347.75 L6297.82 1354.78 L6290.38 1354.78 L6290.38 1347.75 L6273.81 1347.75 L6273.81 1338.12 Z" fill="#000000" fill-rule="nonzero" fill-opacity="1" /><path clip-path="url(#clip400)" d="M6290.38 1305.77 L6290.38 1296.19 L6348.71 1296.19 L6348.71 1305.77 L6290.38 1305.77 M6267.67 1305.77 L6267.67 1296.19 L6279.8 1296.19 L6279.8 1305.77 L6267.67 1305.77 Z" fill="#000000" fill-rule="nonzero" fill-opacity="1" /><path clip-path="url(#clip400)" d="M6290.38 1283.01 L6290.38 1272.86 L6339.33 1254.63 L6290.38 1236.4 L6290.38 1226.24 L6348.71 1248.12 L6348.71 1261.14 L6290.38 1283.01 Z" fill="#000000" fill-rule="nonzero" fill-opacity="1" /><path clip-path="url(#clip400)" d="M6317.15 1163.12 L6321.84 1163.12 L6321.84 1207.18 Q6331.73 1206.56 6336.94 1201.24 Q6342.1 1195.88 6342.1 1186.35 Q6342.1 1180.83 6340.74 1175.67 Q6339.39 1170.46 6336.68 1165.36 L6345.74 1165.36 Q6347.93 1170.51 6349.07 1175.93 Q6350.22 1181.35 6350.22 1186.92 Q6350.22 1200.88 6342.1 1209.06 Q6333.97 1217.18 6320.12 1217.18 Q6305.79 1217.18 6297.41 1209.47 Q6288.97 1201.71 6288.97 1188.59 Q6288.97 1176.82 6296.57 1169.99 Q6304.13 1163.12 6317.15 1163.12 M6314.34 1172.7 Q6306.47 1172.81 6301.78 1177.13 Q6297.1 1181.4 6297.1 1188.48 Q6297.1 1196.5 6301.63 1201.35 Q6306.16 1206.14 6314.39 1206.87 L6314.34 1172.7 Z" fill="#000000" fill-rule="nonzero" fill-opacity="1" /><path clip-path="url(#clip400)" d="M6267.77 1148.9 L6267.77 1140.57 Q6280.06 1132.75 6291.84 1128.9 Q6303.61 1124.99 6315.22 1124.99 Q6326.89 1124.99 6338.71 1128.9 Q6350.53 1132.75 6362.77 1140.57 L6362.77 1148.9 Q6350.85 1141.97 6339.07 1138.59 Q6327.25 1135.15 6315.22 1135.15 Q6303.19 1135.15 6291.47 1138.59 Q6279.75 1141.97 6267.77 1148.9 Z" fill="#000000" fill-rule="nonzero" fill-opacity="1" /><path clip-path="url(#clip402)" d="M695.617 175.496 L695.617 3225.79 L1328.24 3225.79 L1328.24 175.496 L695.617 175.496 L695.617 175.496  Z" fill="#000000" fill-rule="evenodd" fill-opacity="0"/>
<polyline clip-path="url(#clip402)" style="stroke:#000000; stroke-linecap:round; stroke-linejoin:round; stroke-width:4; stroke-opacity:0; fill:none" points="695.617,175.496 695.617,3225.79 1328.24,3225.79 1328.24,175.496 695.617,175.496 "/>
<circle clip-path="url(#clip402)" style="fill:#000000; stroke:none; fill-opacity:0" cx="1011.93" cy="175.496" r="2"/>
</svg>
