<?xml version="1.0" encoding="utf-8"?>
<svg xmlns="http://www.w3.org/2000/svg" xmlns:xlink="http://www.w3.org/1999/xlink" width="1600" height="900" viewBox="0 0 6400 3600">
<defs>
  <clipPath id="clip390">
    <rect x="0" y="0" width="6400" height="3600"/>
  </clipPath>
</defs>
<path clip-path="url(#clip390)" d="M0 3600 L6400 3600 L6400 0 L0 0  Z" fill="#ffffff" fill-rule="evenodd" fill-opacity="1"/>
<defs>
  <clipPath id="clip391">
    <rect x="1280" y="0" width="4481" height="3600"/>
  </clipPath>
</defs>
<path clip-path="url(#clip390)" d="M521.393 3225.79 L6224.5 3225.79 L6224.5 175.496 L521.393 175.496  Z" fill="#ffffff" fill-rule="evenodd" fill-opacity="1"/>
<defs>
  <clipPath id="clip392">
    <rect x="521" y="175" width="5704" height="3051"/>
  </clipPath>
</defs>
<polyline clip-path="url(#clip392)" style="stroke:#000000; stroke-linecap:round; stroke-linejoin:round; stroke-width:2; stroke-opacity:0.1; fill:none" points="1031.4,3225.79 1031.4,175.496 "/>
<polyline clip-path="url(#clip392)" style="stroke:#000000; stroke-linecap:round; stroke-linejoin:round; stroke-width:2; stroke-opacity:0.1; fill:none" points="2202.18,3225.79 2202.18,175.496 "/>
<polyline clip-path="url(#clip392)" style="stroke:#000000; stroke-linecap:round; stroke-linejoin:round; stroke-width:2; stroke-opacity:0.1; fill:none" points="3372.95,3225.79 3372.95,175.496 "/>
<polyline clip-path="url(#clip392)" style="stroke:#000000; stroke-linecap:round; stroke-linejoin:round; stroke-width:2; stroke-opacity:0.1; fill:none" points="4543.72,3225.79 4543.72,175.496 "/>
<polyline clip-path="url(#clip392)" style="stroke:#000000; stroke-linecap:round; stroke-linejoin:round; stroke-width:2; stroke-opacity:0.1; fill:none" points="5714.49,3225.79 5714.49,175.496 "/>
<polyline clip-path="url(#clip392)" style="stroke:#000000; stroke-linecap:round; stroke-linejoin:round; stroke-width:2; stroke-opacity:0.1; fill:none" points="521.393,3225.79 6224.5,3225.79 "/>
<polyline clip-path="url(#clip392)" style="stroke:#000000; stroke-linecap:round; stroke-linejoin:round; stroke-width:2; stroke-opacity:0.1; fill:none" points="521.393,2760.09 6224.5,2760.09 "/>
<polyline clip-path="url(#clip392)" style="stroke:#000000; stroke-linecap:round; stroke-linejoin:round; stroke-width:2; stroke-opacity:0.1; fill:none" points="521.393,2294.4 6224.5,2294.4 "/>
<polyline clip-path="url(#clip392)" style="stroke:#000000; stroke-linecap:round; stroke-linejoin:round; stroke-width:2; stroke-opacity:0.1; fill:none" points="521.393,1828.71 6224.5,1828.71 "/>
<polyline clip-path="url(#clip392)" style="stroke:#000000; stroke-linecap:round; stroke-linejoin:round; stroke-width:2; stroke-opacity:0.1; fill:none" points="521.393,1363.01 6224.5,1363.01 "/>
<polyline clip-path="url(#clip392)" style="stroke:#000000; stroke-linecap:round; stroke-linejoin:round; stroke-width:2; stroke-opacity:0.1; fill:none" points="521.393,897.321 6224.5,897.321 "/>
<polyline clip-path="url(#clip392)" style="stroke:#000000; stroke-linecap:round; stroke-linejoin:round; stroke-width:2; stroke-opacity:0.1; fill:none" points="521.393,431.627 6224.5,431.627 "/>
<polyline clip-path="url(#clip390)" style="stroke:#000000; stroke-linecap:round; stroke-linejoin:round; stroke-width:4; stroke-opacity:1; fill:none" points="521.393,3225.79 6224.5,3225.79 "/>
<polyline clip-path="url(#clip390)" style="stroke:#000000; stroke-linecap:round; stroke-linejoin:round; stroke-width:4; stroke-opacity:1; fill:none" points="1031.4,3225.79 1031.4,3206.89 "/>
<polyline clip-path="url(#clip390)" style="stroke:#000000; stroke-linecap:round; stroke-linejoin:round; stroke-width:4; stroke-opacity:1; fill:none" points="2202.18,3225.79 2202.18,3206.89 "/>
<polyline clip-path="url(#clip390)" style="stroke:#000000; stroke-linecap:round; stroke-linejoin:round; stroke-width:4; stroke-opacity:1; fill:none" points="3372.95,3225.79 3372.95,3206.89 "/>
<polyline clip-path="url(#clip390)" style="stroke:#000000; stroke-linecap:round; stroke-linejoin:round; stroke-width:4; stroke-opacity:1; fill:none" points="4543.72,3225.79 4543.72,3206.89 "/>
<polyline clip-path="url(#clip390)" style="stroke:#000000; stroke-linecap:round; stroke-linejoin:round; stroke-width:4; stroke-opacity:1; fill:none" points="5714.49,3225.79 5714.49,3206.89 "/>
<path clip-path="url(#clip390)" d="M806.247 3344.87 Q794.633 3344.87 790.154 3347.52 Q785.675 3350.18 785.675 3356.58 Q785.675 3361.69 789.008 3364.71 Q792.393 3367.68 798.175 3367.68 Q806.143 3367.68 810.935 3362.05 Q815.779 3356.38 815.779 3347 L815.779 3344.87 L806.247 3344.87 M825.362 3340.91 L825.362 3374.19 L815.779 3374.19 L815.779 3365.33 Q812.497 3370.65 807.602 3373.2 Q802.706 3375.7 795.623 3375.7 Q786.664 3375.7 781.352 3370.7 Q776.091 3365.65 776.091 3357.21 Q776.091 3347.37 782.654 3342.37 Q789.268 3337.37 802.341 3337.37 L815.779 3337.37 L815.779 3336.43 Q815.779 3329.81 811.404 3326.22 Q807.081 3322.57 799.216 3322.57 Q794.216 3322.57 789.477 3323.77 Q784.737 3324.97 780.362 3327.37 L780.362 3318.51 Q785.623 3316.48 790.57 3315.49 Q795.518 3314.45 800.206 3314.45 Q812.862 3314.45 819.112 3321.01 Q825.362 3327.57 825.362 3340.91 Z" fill="#000000" fill-rule="nonzero" fill-opacity="1" /><path clip-path="url(#clip390)" d="M878.903 3324.81 Q877.289 3323.88 875.362 3323.46 Q873.487 3322.99 871.195 3322.99 Q863.07 3322.99 858.695 3328.3 Q854.372 3333.56 854.372 3343.46 L854.372 3374.19 L844.737 3374.19 L844.737 3315.85 L854.372 3315.85 L854.372 3324.92 Q857.393 3319.6 862.237 3317.05 Q867.08 3314.45 874.008 3314.45 Q874.997 3314.45 876.195 3314.6 Q877.393 3314.71 878.851 3314.97 L878.903 3324.81 Z" fill="#000000" fill-rule="nonzero" fill-opacity="1" /><path clip-path="url(#clip390)" d="M925.466 3344.34 Q925.466 3333.93 921.143 3328.2 Q916.872 3322.47 909.112 3322.47 Q901.403 3322.47 897.08 3328.2 Q892.81 3333.93 892.81 3344.34 Q892.81 3354.71 897.08 3360.44 Q901.403 3366.17 909.112 3366.17 Q916.872 3366.17 921.143 3360.44 Q925.466 3354.71 925.466 3344.34 M935.049 3366.95 Q935.049 3381.84 928.434 3389.08 Q921.82 3396.38 908.174 3396.38 Q903.122 3396.38 898.643 3395.59 Q894.164 3394.86 889.945 3393.3 L889.945 3383.98 Q894.164 3386.27 898.278 3387.36 Q902.393 3388.46 906.664 3388.46 Q916.091 3388.46 920.778 3383.51 Q925.466 3378.61 925.466 3368.67 L925.466 3363.93 Q922.497 3369.08 917.861 3371.64 Q913.226 3374.19 906.768 3374.19 Q896.039 3374.19 889.476 3366.01 Q882.914 3357.83 882.914 3344.34 Q882.914 3330.8 889.476 3322.63 Q896.039 3314.45 906.768 3314.45 Q913.226 3314.45 917.861 3317 Q922.497 3319.55 925.466 3324.71 L925.466 3315.85 L935.049 3315.85 L935.049 3366.95 Z" fill="#000000" fill-rule="nonzero" fill-opacity="1" /><path clip-path="url(#clip390)" d="M964.059 3365.44 L964.059 3396.38 L954.424 3396.38 L954.424 3315.85 L964.059 3315.85 L964.059 3324.71 Q967.08 3319.5 971.663 3317 Q976.299 3314.45 982.705 3314.45 Q993.33 3314.45 999.944 3322.89 Q1006.61 3331.32 1006.61 3345.07 Q1006.61 3358.82 999.944 3367.26 Q993.33 3375.7 982.705 3375.7 Q976.299 3375.7 971.663 3373.2 Q967.08 3370.65 964.059 3365.44 M996.663 3345.07 Q996.663 3334.5 992.288 3328.51 Q987.965 3322.47 980.361 3322.47 Q972.757 3322.47 968.382 3328.51 Q964.059 3334.5 964.059 3345.07 Q964.059 3355.65 968.382 3361.69 Q972.757 3367.68 980.361 3367.68 Q987.965 3367.68 992.288 3361.69 Q996.663 3355.65 996.663 3345.07 Z" fill="#000000" fill-rule="nonzero" fill-opacity="1" /><path clip-path="url(#clip390)" d="M1049.01 3344.87 Q1037.39 3344.87 1032.91 3347.52 Q1028.43 3350.18 1028.43 3356.58 Q1028.43 3361.69 1031.77 3364.71 Q1035.15 3367.68 1040.93 3367.68 Q1048.9 3367.68 1053.69 3362.05 Q1058.54 3356.38 1058.54 3347 L1058.54 3344.87 L1049.01 3344.87 M1068.12 3340.91 L1068.12 3374.19 L1058.54 3374.19 L1058.54 3365.33 Q1055.26 3370.65 1050.36 3373.2 Q1045.46 3375.7 1038.38 3375.7 Q1029.42 3375.7 1024.11 3370.7 Q1018.85 3365.65 1018.85 3357.21 Q1018.85 3347.37 1025.41 3342.37 Q1032.03 3337.37 1045.1 3337.37 L1058.54 3337.37 L1058.54 3336.43 Q1058.54 3329.81 1054.16 3326.22 Q1049.84 3322.57 1041.98 3322.57 Q1036.98 3322.57 1032.24 3323.77 Q1027.5 3324.97 1023.12 3327.37 L1023.12 3318.51 Q1028.38 3316.48 1033.33 3315.49 Q1038.28 3314.45 1042.96 3314.45 Q1055.62 3314.45 1061.87 3321.01 Q1068.12 3327.57 1068.12 3340.91 Z" fill="#000000" fill-rule="nonzero" fill-opacity="1" /><path clip-path="url(#clip390)" d="M1121.66 3324.81 Q1120.05 3323.88 1118.12 3323.46 Q1116.25 3322.99 1113.95 3322.99 Q1105.83 3322.99 1101.45 3328.3 Q1097.13 3333.56 1097.13 3343.46 L1097.13 3374.19 L1087.5 3374.19 L1087.5 3315.85 L1097.13 3315.85 L1097.13 3324.92 Q1100.15 3319.6 1105 3317.05 Q1109.84 3314.45 1116.77 3314.45 Q1117.76 3314.45 1118.95 3314.6 Q1120.15 3314.71 1121.61 3314.97 L1121.66 3324.81 Z" fill="#000000" fill-rule="nonzero" fill-opacity="1" /><path clip-path="url(#clip390)" d="M1168.9 3317.57 L1168.9 3326.64 Q1164.84 3324.55 1160.46 3323.51 Q1156.09 3322.47 1151.4 3322.47 Q1144.27 3322.47 1140.67 3324.66 Q1137.13 3326.84 1137.13 3331.22 Q1137.13 3334.55 1139.68 3336.48 Q1142.24 3338.35 1149.94 3340.07 L1153.22 3340.8 Q1163.43 3342.99 1167.7 3347 Q1172.03 3350.96 1172.03 3358.09 Q1172.03 3366.22 1165.57 3370.96 Q1159.16 3375.7 1147.91 3375.7 Q1143.22 3375.7 1138.12 3374.76 Q1133.07 3373.88 1127.44 3372.05 L1127.44 3362.16 Q1132.76 3364.92 1137.91 3366.32 Q1143.07 3367.68 1148.12 3367.68 Q1154.89 3367.68 1158.54 3365.39 Q1162.18 3363.04 1162.18 3358.82 Q1162.18 3354.92 1159.53 3352.83 Q1156.92 3350.75 1148.02 3348.82 L1144.68 3348.04 Q1135.78 3346.17 1131.82 3342.31 Q1127.86 3338.41 1127.86 3331.64 Q1127.86 3323.41 1133.69 3318.93 Q1139.53 3314.45 1150.26 3314.45 Q1155.57 3314.45 1160.26 3315.23 Q1164.94 3316.01 1168.9 3317.57 Z" fill="#000000" fill-rule="nonzero" fill-opacity="1" /><path clip-path="url(#clip390)" d="M1237.18 3342.63 L1237.18 3347.31 L1193.12 3347.31 Q1193.75 3357.21 1199.06 3362.42 Q1204.42 3367.57 1213.95 3367.57 Q1219.47 3367.57 1224.63 3366.22 Q1229.84 3364.87 1234.94 3362.16 L1234.94 3371.22 Q1229.79 3373.41 1224.37 3374.55 Q1218.95 3375.7 1213.38 3375.7 Q1199.42 3375.7 1191.25 3367.57 Q1183.12 3359.45 1183.12 3345.59 Q1183.12 3331.27 1190.83 3322.89 Q1198.59 3314.45 1211.71 3314.45 Q1223.48 3314.45 1230.31 3322.05 Q1237.18 3329.6 1237.18 3342.63 M1227.6 3339.81 Q1227.5 3331.95 1223.17 3327.26 Q1218.9 3322.57 1211.82 3322.57 Q1203.8 3322.57 1198.95 3327.1 Q1194.16 3331.64 1193.43 3339.87 L1227.6 3339.81 Z" fill="#000000" fill-rule="nonzero" fill-opacity="1" /><path clip-path="url(#clip390)" d="M1286.71 3324.81 Q1285.1 3323.88 1283.17 3323.46 Q1281.3 3322.99 1279.01 3322.99 Q1270.88 3322.99 1266.51 3328.3 Q1262.18 3333.56 1262.18 3343.46 L1262.18 3374.19 L1252.55 3374.19 L1252.55 3315.85 L1262.18 3315.85 L1262.18 3324.92 Q1265.2 3319.6 1270.05 3317.05 Q1274.89 3314.45 1281.82 3314.45 Q1282.81 3314.45 1284.01 3314.6 Q1285.2 3314.71 1286.66 3314.97 L1286.71 3324.81 Z" fill="#000000" fill-rule="nonzero" fill-opacity="1" /><path clip-path="url(#clip390)" d="M2039.29 3324.71 L2039.29 3293.15 L2048.87 3293.15 L2048.87 3374.19 L2039.29 3374.19 L2039.29 3365.44 Q2036.26 3370.65 2031.63 3373.2 Q2027.05 3375.7 2020.59 3375.7 Q2010.02 3375.7 2003.35 3367.26 Q1996.73 3358.82 1996.73 3345.07 Q1996.73 3331.32 2003.35 3322.89 Q2010.02 3314.45 2020.59 3314.45 Q2027.05 3314.45 2031.63 3317 Q2036.26 3319.5 2039.29 3324.71 M2006.63 3345.07 Q2006.63 3355.65 2010.95 3361.69 Q2015.33 3367.68 2022.93 3367.68 Q2030.54 3367.68 2034.91 3361.69 Q2039.29 3355.65 2039.29 3345.07 Q2039.29 3334.5 2034.91 3328.51 Q2030.54 3322.47 2022.93 3322.47 Q2015.33 3322.47 2010.95 3328.51 Q2006.63 3334.5 2006.63 3345.07 Z" fill="#000000" fill-rule="nonzero" fill-opacity="1" /><path clip-path="url(#clip390)" d="M2091.21 3322.57 Q2083.5 3322.57 2079.03 3328.62 Q2074.55 3334.6 2074.55 3345.07 Q2074.55 3355.54 2078.97 3361.58 Q2083.45 3367.57 2091.21 3367.57 Q2098.87 3367.57 2103.35 3361.53 Q2107.83 3355.49 2107.83 3345.07 Q2107.83 3334.71 2103.35 3328.67 Q2098.87 3322.57 2091.21 3322.57 M2091.21 3314.45 Q2103.71 3314.45 2110.85 3322.57 Q2117.98 3330.7 2117.98 3345.07 Q2117.98 3359.4 2110.85 3367.57 Q2103.71 3375.7 2091.21 3375.7 Q2078.66 3375.7 2071.53 3367.57 Q2064.44 3359.4 2064.44 3345.07 Q2064.44 3330.7 2071.53 3322.57 Q2078.66 3314.45 2091.21 3314.45 Z" fill="#000000" fill-rule="nonzero" fill-opacity="1" /><path clip-path="url(#clip390)" d="M2175.85 3318.09 L2175.85 3327.05 Q2171.78 3324.81 2167.67 3323.72 Q2163.61 3322.57 2159.44 3322.57 Q2150.12 3322.57 2144.96 3328.51 Q2139.81 3334.4 2139.81 3345.07 Q2139.81 3355.75 2144.96 3361.69 Q2150.12 3367.57 2159.44 3367.57 Q2163.61 3367.57 2167.67 3366.48 Q2171.78 3365.33 2175.85 3363.09 L2175.85 3371.95 Q2171.84 3373.82 2167.51 3374.76 Q2163.24 3375.7 2158.4 3375.7 Q2145.22 3375.7 2137.46 3367.42 Q2129.7 3359.14 2129.7 3345.07 Q2129.7 3330.8 2137.51 3322.63 Q2145.38 3314.45 2159.02 3314.45 Q2163.45 3314.45 2167.67 3315.39 Q2171.89 3316.27 2175.85 3318.09 Z" fill="#000000" fill-rule="nonzero" fill-opacity="1" /><path clip-path="url(#clip390)" d="M2215.12 3322.57 Q2207.41 3322.57 2202.93 3328.62 Q2198.45 3334.6 2198.45 3345.07 Q2198.45 3355.54 2202.88 3361.58 Q2207.36 3367.57 2215.12 3367.57 Q2222.77 3367.57 2227.25 3361.53 Q2231.73 3355.49 2231.73 3345.07 Q2231.73 3334.71 2227.25 3328.67 Q2222.77 3322.57 2215.12 3322.57 M2215.12 3314.45 Q2227.62 3314.45 2234.75 3322.57 Q2241.89 3330.7 2241.89 3345.07 Q2241.89 3359.4 2234.75 3367.57 Q2227.62 3375.7 2215.12 3375.7 Q2202.57 3375.7 2195.43 3367.57 Q2188.35 3359.4 2188.35 3345.07 Q2188.35 3330.7 2195.43 3322.57 Q2202.57 3314.45 2215.12 3314.45 Z" fill="#000000" fill-rule="nonzero" fill-opacity="1" /><path clip-path="url(#clip390)" d="M2267.04 3365.44 L2267.04 3396.38 L2257.41 3396.38 L2257.41 3315.85 L2267.04 3315.85 L2267.04 3324.71 Q2270.07 3319.5 2274.65 3317 Q2279.28 3314.45 2285.69 3314.45 Q2296.32 3314.45 2302.93 3322.89 Q2309.6 3331.32 2309.6 3345.07 Q2309.6 3358.82 2302.93 3367.26 Q2296.32 3375.7 2285.69 3375.7 Q2279.28 3375.7 2274.65 3373.2 Q2270.07 3370.65 2267.04 3365.44 M2299.65 3345.07 Q2299.65 3334.5 2295.27 3328.51 Q2290.95 3322.47 2283.35 3322.47 Q2275.74 3322.47 2271.37 3328.51 Q2267.04 3334.5 2267.04 3345.07 Q2267.04 3355.65 2271.37 3361.69 Q2275.74 3367.68 2283.35 3367.68 Q2290.95 3367.68 2295.27 3361.69 Q2299.65 3355.65 2299.65 3345.07 Z" fill="#000000" fill-rule="nonzero" fill-opacity="1" /><path clip-path="url(#clip390)" d="M2334.96 3299.29 L2334.96 3315.85 L2354.7 3315.85 L2354.7 3323.3 L2334.96 3323.3 L2334.96 3354.97 Q2334.96 3362.1 2336.89 3364.14 Q2338.87 3366.17 2344.86 3366.17 L2354.7 3366.17 L2354.7 3374.19 L2344.86 3374.19 Q2333.76 3374.19 2329.54 3370.07 Q2325.33 3365.91 2325.33 3354.97 L2325.33 3323.3 L2318.29 3323.3 L2318.29 3315.85 L2325.33 3315.85 L2325.33 3299.29 L2334.96 3299.29 Z" fill="#000000" fill-rule="nonzero" fill-opacity="1" /><path clip-path="url(#clip390)" d="M2404.49 3317.57 L2404.49 3326.64 Q2400.43 3324.55 2396.05 3323.51 Q2391.68 3322.47 2386.99 3322.47 Q2379.86 3322.47 2376.26 3324.66 Q2372.72 3326.84 2372.72 3331.22 Q2372.72 3334.55 2375.27 3336.48 Q2377.83 3338.35 2385.53 3340.07 L2388.82 3340.8 Q2399.02 3342.99 2403.29 3347 Q2407.62 3350.96 2407.62 3358.09 Q2407.62 3366.22 2401.16 3370.96 Q2394.75 3375.7 2383.5 3375.7 Q2378.82 3375.7 2373.71 3374.76 Q2368.66 3373.88 2363.03 3372.05 L2363.03 3362.16 Q2368.35 3364.92 2373.5 3366.32 Q2378.66 3367.68 2383.71 3367.68 Q2390.48 3367.68 2394.13 3365.39 Q2397.77 3363.04 2397.77 3358.82 Q2397.77 3354.92 2395.12 3352.83 Q2392.51 3350.75 2383.61 3348.82 L2380.27 3348.04 Q2371.37 3346.17 2367.41 3342.31 Q2363.45 3338.41 2363.45 3331.64 Q2363.45 3323.41 2369.28 3318.93 Q2375.12 3314.45 2385.85 3314.45 Q2391.16 3314.45 2395.85 3315.23 Q2400.53 3316.01 2404.49 3317.57 Z" fill="#000000" fill-rule="nonzero" fill-opacity="1" /><path clip-path="url(#clip390)" d="M3244.75 3344.34 Q3244.75 3333.93 3240.42 3328.2 Q3236.15 3322.47 3228.39 3322.47 Q3220.68 3322.47 3216.36 3328.2 Q3212.09 3333.93 3212.09 3344.34 Q3212.09 3354.71 3216.36 3360.44 Q3220.68 3366.17 3228.39 3366.17 Q3236.15 3366.17 3240.42 3360.44 Q3244.75 3354.71 3244.75 3344.34 M3254.33 3366.95 Q3254.33 3381.84 3247.71 3389.08 Q3241.1 3396.38 3227.45 3396.38 Q3222.4 3396.38 3217.92 3395.59 Q3213.44 3394.86 3209.23 3393.3 L3209.23 3383.98 Q3213.44 3386.27 3217.56 3387.36 Q3221.67 3388.46 3225.94 3388.46 Q3235.37 3388.46 3240.06 3383.51 Q3244.75 3378.61 3244.75 3368.67 L3244.75 3363.93 Q3241.78 3369.08 3237.14 3371.64 Q3232.51 3374.19 3226.05 3374.19 Q3215.32 3374.19 3208.76 3366.01 Q3202.19 3357.83 3202.19 3344.34 Q3202.19 3330.8 3208.76 3322.63 Q3215.32 3314.45 3226.05 3314.45 Q3232.51 3314.45 3237.14 3317 Q3241.78 3319.55 3244.75 3324.71 L3244.75 3315.85 L3254.33 3315.85 L3254.33 3366.95 Z" fill="#000000" fill-rule="nonzero" fill-opacity="1" /><path clip-path="url(#clip390)" d="M3323.96 3342.63 L3323.96 3347.31 L3279.9 3347.31 Q3280.53 3357.21 3285.84 3362.42 Q3291.2 3367.57 3300.74 3367.57 Q3306.26 3367.57 3311.41 3366.22 Q3316.62 3364.87 3321.72 3362.16 L3321.72 3371.22 Q3316.57 3373.41 3311.15 3374.55 Q3305.74 3375.7 3300.16 3375.7 Q3286.2 3375.7 3278.03 3367.57 Q3269.9 3359.45 3269.9 3345.59 Q3269.9 3331.27 3277.61 3322.89 Q3285.37 3314.45 3298.5 3314.45 Q3310.27 3314.45 3317.09 3322.05 Q3323.96 3329.6 3323.96 3342.63 M3314.38 3339.81 Q3314.28 3331.95 3309.95 3327.26 Q3305.68 3322.57 3298.6 3322.57 Q3290.58 3322.57 3285.74 3327.1 Q3280.94 3331.64 3280.21 3339.87 L3314.38 3339.81 Z" fill="#000000" fill-rule="nonzero" fill-opacity="1" /><path clip-path="url(#clip390)" d="M3349.17 3299.29 L3349.17 3315.85 L3368.91 3315.85 L3368.91 3323.3 L3349.17 3323.3 L3349.17 3354.97 Q3349.17 3362.1 3351.1 3364.14 Q3353.08 3366.17 3359.07 3366.17 L3368.91 3366.17 L3368.91 3374.19 L3359.07 3374.19 Q3347.97 3374.19 3343.76 3370.07 Q3339.54 3365.91 3339.54 3354.97 L3339.54 3323.3 L3332.51 3323.3 L3332.51 3315.85 L3339.54 3315.85 L3339.54 3299.29 L3349.17 3299.29 Z" fill="#000000" fill-rule="nonzero" fill-opacity="1" /><path clip-path="url(#clip390)" d="M3404.12 3322.57 Q3396.41 3322.57 3391.93 3328.62 Q3387.45 3334.6 3387.45 3345.07 Q3387.45 3355.54 3391.88 3361.58 Q3396.36 3367.57 3404.12 3367.57 Q3411.78 3367.57 3416.26 3361.53 Q3420.73 3355.49 3420.73 3345.07 Q3420.73 3334.71 3416.26 3328.67 Q3411.78 3322.57 3404.12 3322.57 M3404.12 3314.45 Q3416.62 3314.45 3423.76 3322.57 Q3430.89 3330.7 3430.89 3345.07 Q3430.89 3359.4 3423.76 3367.57 Q3416.62 3375.7 3404.12 3375.7 Q3391.57 3375.7 3384.43 3367.57 Q3377.35 3359.4 3377.35 3345.07 Q3377.35 3330.7 3384.43 3322.57 Q3391.57 3314.45 3404.12 3314.45 Z" fill="#000000" fill-rule="nonzero" fill-opacity="1" /><path clip-path="url(#clip390)" d="M3456.05 3365.44 L3456.05 3396.38 L3446.41 3396.38 L3446.41 3315.85 L3456.05 3315.85 L3456.05 3324.71 Q3459.07 3319.5 3463.65 3317 Q3468.29 3314.45 3474.69 3314.45 Q3485.32 3314.45 3491.93 3322.89 Q3498.6 3331.32 3498.6 3345.07 Q3498.6 3358.82 3491.93 3367.26 Q3485.32 3375.7 3474.69 3375.7 Q3468.29 3375.7 3463.65 3373.2 Q3459.07 3370.65 3456.05 3365.44 M3488.65 3345.07 Q3488.65 3334.5 3484.28 3328.51 Q3479.95 3322.47 3472.35 3322.47 Q3464.74 3322.47 3460.37 3328.51 Q3456.05 3334.5 3456.05 3345.07 Q3456.05 3355.65 3460.37 3361.69 Q3464.74 3367.68 3472.35 3367.68 Q3479.95 3367.68 3484.28 3361.69 Q3488.65 3355.65 3488.65 3345.07 Z" fill="#000000" fill-rule="nonzero" fill-opacity="1" /><path clip-path="url(#clip390)" d="M3523.96 3299.29 L3523.96 3315.85 L3543.7 3315.85 L3543.7 3323.3 L3523.96 3323.3 L3523.96 3354.97 Q3523.96 3362.1 3525.89 3364.14 Q3527.87 3366.17 3533.86 3366.17 L3543.7 3366.17 L3543.7 3374.19 L3533.86 3374.19 Q3522.77 3374.19 3518.55 3370.07 Q3514.33 3365.91 3514.33 3354.97 L3514.33 3323.3 L3507.3 3323.3 L3507.3 3315.85 L3514.33 3315.85 L3514.33 3299.29 L3523.96 3299.29 Z" fill="#000000" fill-rule="nonzero" fill-opacity="1" /><path clip-path="url(#clip390)" d="M4389.06 3344.34 Q4389.06 3333.93 4384.74 3328.2 Q4380.47 3322.47 4372.71 3322.47 Q4365 3322.47 4360.68 3328.2 Q4356.4 3333.93 4356.4 3344.34 Q4356.4 3354.71 4360.68 3360.44 Q4365 3366.17 4372.71 3366.17 Q4380.47 3366.17 4384.74 3360.44 Q4389.06 3354.71 4389.06 3344.34 M4398.64 3366.95 Q4398.64 3381.84 4392.03 3389.08 Q4385.41 3396.38 4371.77 3396.38 Q4366.72 3396.38 4362.24 3395.59 Q4357.76 3394.86 4353.54 3393.3 L4353.54 3383.98 Q4357.76 3386.27 4361.87 3387.36 Q4365.99 3388.46 4370.26 3388.46 Q4379.69 3388.46 4384.37 3383.51 Q4389.06 3378.61 4389.06 3368.67 L4389.06 3363.93 Q4386.09 3369.08 4381.46 3371.64 Q4376.82 3374.19 4370.36 3374.19 Q4359.63 3374.19 4353.07 3366.01 Q4346.51 3357.83 4346.51 3344.34 Q4346.51 3330.8 4353.07 3322.63 Q4359.63 3314.45 4370.36 3314.45 Q4376.82 3314.45 4381.46 3317 Q4386.09 3319.55 4389.06 3324.71 L4389.06 3315.85 L4398.64 3315.85 L4398.64 3366.95 Z" fill="#000000" fill-rule="nonzero" fill-opacity="1" /><path clip-path="url(#clip390)" d="M4468.28 3342.63 L4468.28 3347.31 L4424.22 3347.31 Q4424.84 3357.21 4430.15 3362.42 Q4435.52 3367.57 4445.05 3367.57 Q4450.57 3367.57 4455.73 3366.22 Q4460.94 3364.87 4466.04 3362.16 L4466.04 3371.22 Q4460.88 3373.41 4455.47 3374.55 Q4450.05 3375.7 4444.48 3375.7 Q4430.52 3375.7 4422.34 3367.57 Q4414.22 3359.45 4414.22 3345.59 Q4414.22 3331.27 4421.93 3322.89 Q4429.69 3314.45 4442.81 3314.45 Q4454.58 3314.45 4461.4 3322.05 Q4468.28 3329.6 4468.28 3342.63 M4458.7 3339.81 Q4458.59 3331.95 4454.27 3327.26 Q4450 3322.57 4442.91 3322.57 Q4434.89 3322.57 4430.05 3327.1 Q4425.26 3331.64 4424.53 3339.87 L4458.7 3339.81 Z" fill="#000000" fill-rule="nonzero" fill-opacity="1" /><path clip-path="url(#clip390)" d="M4493.49 3299.29 L4493.49 3315.85 L4513.23 3315.85 L4513.23 3323.3 L4493.49 3323.3 L4493.49 3354.97 Q4493.49 3362.1 4495.41 3364.14 Q4497.39 3366.17 4503.38 3366.17 L4513.23 3366.17 L4513.23 3374.19 L4503.38 3374.19 Q4492.29 3374.19 4488.07 3370.07 Q4483.85 3365.91 4483.85 3354.97 L4483.85 3323.3 L4476.82 3323.3 L4476.82 3315.85 L4483.85 3315.85 L4483.85 3299.29 L4493.49 3299.29 Z" fill="#000000" fill-rule="nonzero" fill-opacity="1" /><path clip-path="url(#clip390)" d="M4548.43 3322.57 Q4540.73 3322.57 4536.25 3328.62 Q4531.77 3334.6 4531.77 3345.07 Q4531.77 3355.54 4536.2 3361.58 Q4540.67 3367.57 4548.43 3367.57 Q4556.09 3367.57 4560.57 3361.53 Q4565.05 3355.49 4565.05 3345.07 Q4565.05 3334.71 4560.57 3328.67 Q4556.09 3322.57 4548.43 3322.57 M4548.43 3314.45 Q4560.93 3314.45 4568.07 3322.57 Q4575.21 3330.7 4575.21 3345.07 Q4575.21 3359.4 4568.07 3367.57 Q4560.93 3375.7 4548.43 3375.7 Q4535.88 3375.7 4528.75 3367.57 Q4521.66 3359.4 4521.66 3345.07 Q4521.66 3330.7 4528.75 3322.57 Q4535.88 3314.45 4548.43 3314.45 Z" fill="#000000" fill-rule="nonzero" fill-opacity="1" /><path clip-path="url(#clip390)" d="M4600.36 3365.44 L4600.36 3396.38 L4590.73 3396.38 L4590.73 3315.85 L4600.36 3315.85 L4600.36 3324.71 Q4603.38 3319.5 4607.97 3317 Q4612.6 3314.45 4619.01 3314.45 Q4629.63 3314.45 4636.25 3322.89 Q4642.91 3331.32 4642.91 3345.07 Q4642.91 3358.82 4636.25 3367.26 Q4629.63 3375.7 4619.01 3375.7 Q4612.6 3375.7 4607.97 3373.2 Q4603.38 3370.65 4600.36 3365.44 M4632.97 3345.07 Q4632.97 3334.5 4628.59 3328.51 Q4624.27 3322.47 4616.66 3322.47 Q4609.06 3322.47 4604.68 3328.51 Q4600.36 3334.5 4600.36 3345.07 Q4600.36 3355.65 4604.68 3361.69 Q4609.06 3367.68 4616.66 3367.68 Q4624.27 3367.68 4628.59 3361.69 Q4632.97 3355.65 4632.97 3345.07 Z" fill="#000000" fill-rule="nonzero" fill-opacity="1" /><path clip-path="url(#clip390)" d="M4668.28 3299.29 L4668.28 3315.85 L4688.02 3315.85 L4688.02 3323.3 L4668.28 3323.3 L4668.28 3354.97 Q4668.28 3362.1 4670.2 3364.14 Q4672.18 3366.17 4678.17 3366.17 L4688.02 3366.17 L4688.02 3374.19 L4678.17 3374.19 Q4667.08 3374.19 4662.86 3370.07 Q4658.64 3365.91 4658.64 3354.97 L4658.64 3323.3 L4651.61 3323.3 L4651.61 3315.85 L4658.64 3315.85 L4658.64 3299.29 L4668.28 3299.29 Z" fill="#000000" fill-rule="nonzero" fill-opacity="1" /><path clip-path="url(#clip390)" d="M4737.81 3317.57 L4737.81 3326.64 Q4733.75 3324.55 4729.37 3323.51 Q4725 3322.47 4720.31 3322.47 Q4713.17 3322.47 4709.58 3324.66 Q4706.04 3326.84 4706.04 3331.22 Q4706.04 3334.55 4708.59 3336.48 Q4711.14 3338.35 4718.85 3340.07 L4722.13 3340.8 Q4732.34 3342.99 4736.61 3347 Q4740.93 3350.96 4740.93 3358.09 Q4740.93 3366.22 4734.48 3370.96 Q4728.07 3375.7 4716.82 3375.7 Q4712.13 3375.7 4707.03 3374.76 Q4701.98 3373.88 4696.35 3372.05 L4696.35 3362.16 Q4701.66 3364.92 4706.82 3366.32 Q4711.98 3367.68 4717.03 3367.68 Q4723.8 3367.68 4727.44 3365.39 Q4731.09 3363.04 4731.09 3358.82 Q4731.09 3354.92 4728.43 3352.83 Q4725.83 3350.75 4716.92 3348.82 L4713.59 3348.04 Q4704.68 3346.17 4700.73 3342.31 Q4696.77 3338.41 4696.77 3331.64 Q4696.77 3323.41 4702.6 3318.93 Q4708.43 3314.45 4719.16 3314.45 Q4724.48 3314.45 4729.16 3315.23 Q4733.85 3316.01 4737.81 3317.57 Z" fill="#000000" fill-rule="nonzero" fill-opacity="1" /><path clip-path="url(#clip390)" d="M5571.94 3317.57 L5571.94 3326.64 Q5567.88 3324.55 5563.51 3323.51 Q5559.13 3322.47 5554.44 3322.47 Q5547.31 3322.47 5543.71 3324.66 Q5540.17 3326.84 5540.17 3331.22 Q5540.17 3334.55 5542.72 3336.48 Q5545.28 3338.35 5552.98 3340.07 L5556.27 3340.8 Q5566.47 3342.99 5570.74 3347 Q5575.07 3350.96 5575.07 3358.09 Q5575.07 3366.22 5568.61 3370.96 Q5562.2 3375.7 5550.95 3375.7 Q5546.27 3375.7 5541.16 3374.76 Q5536.11 3373.88 5530.48 3372.05 L5530.48 3362.16 Q5535.8 3364.92 5540.95 3366.32 Q5546.11 3367.68 5551.16 3367.68 Q5557.93 3367.68 5561.58 3365.39 Q5565.22 3363.04 5565.22 3358.82 Q5565.22 3354.92 5562.57 3352.83 Q5559.96 3350.75 5551.06 3348.82 L5547.72 3348.04 Q5538.82 3346.17 5534.86 3342.31 Q5530.9 3338.41 5530.9 3331.64 Q5530.9 3323.41 5536.73 3318.93 Q5542.57 3314.45 5553.3 3314.45 Q5558.61 3314.45 5563.3 3315.23 Q5567.98 3316.01 5571.94 3317.57 Z" fill="#000000" fill-rule="nonzero" fill-opacity="1" /><path clip-path="url(#clip390)" d="M5638.82 3338.98 L5638.82 3374.19 L5629.23 3374.19 L5629.23 3339.29 Q5629.23 3331.01 5626.01 3326.9 Q5622.78 3322.78 5616.32 3322.78 Q5608.56 3322.78 5604.08 3327.73 Q5599.6 3332.68 5599.6 3341.22 L5599.6 3374.19 L5589.96 3374.19 L5589.96 3293.15 L5599.6 3293.15 L5599.6 3324.92 Q5603.04 3319.66 5607.67 3317.05 Q5612.36 3314.45 5618.45 3314.45 Q5628.51 3314.45 5633.66 3320.7 Q5638.82 3326.9 5638.82 3338.98 Z" fill="#000000" fill-rule="nonzero" fill-opacity="1" /><path clip-path="url(#clip390)" d="M5687.46 3293.15 L5687.46 3301.12 L5678.3 3301.12 Q5673.14 3301.12 5671.11 3303.2 Q5669.13 3305.28 5669.13 3310.7 L5669.13 3315.85 L5684.91 3315.85 L5684.91 3323.3 L5669.13 3323.3 L5669.13 3374.19 L5659.49 3374.19 L5659.49 3323.3 L5650.33 3323.3 L5650.33 3315.85 L5659.49 3315.85 L5659.49 3311.79 Q5659.49 3302.05 5664.03 3297.63 Q5668.56 3293.15 5678.4 3293.15 L5687.46 3293.15 Z" fill="#000000" fill-rule="nonzero" fill-opacity="1" /><path clip-path="url(#clip390)" d="M5695.48 3293.15 L5705.07 3293.15 L5705.07 3374.19 L5695.48 3374.19 L5695.48 3293.15 Z" fill="#000000" fill-rule="nonzero" fill-opacity="1" /><path clip-path="url(#clip390)" d="M5751.63 3344.87 Q5740.01 3344.87 5735.54 3347.52 Q5731.06 3350.18 5731.06 3356.58 Q5731.06 3361.69 5734.39 3364.71 Q5737.78 3367.68 5743.56 3367.68 Q5751.53 3367.68 5756.32 3362.05 Q5761.16 3356.38 5761.16 3347 L5761.16 3344.87 L5751.63 3344.87 M5770.74 3340.91 L5770.74 3374.19 L5761.16 3374.19 L5761.16 3365.33 Q5757.88 3370.65 5752.98 3373.2 Q5748.09 3375.7 5741 3375.7 Q5732.05 3375.7 5726.73 3370.7 Q5721.47 3365.65 5721.47 3357.21 Q5721.47 3347.37 5728.04 3342.37 Q5734.65 3337.37 5747.72 3337.37 L5761.16 3337.37 L5761.16 3336.43 Q5761.16 3329.81 5756.79 3326.22 Q5752.46 3322.57 5744.6 3322.57 Q5739.6 3322.57 5734.86 3323.77 Q5730.12 3324.97 5725.74 3327.37 L5725.74 3318.51 Q5731 3316.48 5735.95 3315.49 Q5740.9 3314.45 5745.59 3314.45 Q5758.24 3314.45 5764.49 3321.01 Q5770.74 3327.57 5770.74 3340.91 Z" fill="#000000" fill-rule="nonzero" fill-opacity="1" /><path clip-path="url(#clip390)" d="M5828.87 3344.34 Q5828.87 3333.93 5824.55 3328.2 Q5820.27 3322.47 5812.51 3322.47 Q5804.81 3322.47 5800.48 3328.2 Q5796.21 3333.93 5796.21 3344.34 Q5796.21 3354.71 5800.48 3360.44 Q5804.81 3366.17 5812.51 3366.17 Q5820.27 3366.17 5824.55 3360.44 Q5828.87 3354.71 5828.87 3344.34 M5838.45 3366.95 Q5838.45 3381.84 5831.84 3389.08 Q5825.22 3396.38 5811.58 3396.38 Q5806.52 3396.38 5802.05 3395.59 Q5797.57 3394.86 5793.35 3393.3 L5793.35 3383.98 Q5797.57 3386.27 5801.68 3387.36 Q5805.8 3388.46 5810.07 3388.46 Q5819.49 3388.46 5824.18 3383.51 Q5828.87 3378.61 5828.87 3368.67 L5828.87 3363.93 Q5825.9 3369.08 5821.26 3371.64 Q5816.63 3374.19 5810.17 3374.19 Q5799.44 3374.19 5792.88 3366.01 Q5786.32 3357.83 5786.32 3344.34 Q5786.32 3330.8 5792.88 3322.63 Q5799.44 3314.45 5810.17 3314.45 Q5816.63 3314.45 5821.26 3317 Q5825.9 3319.55 5828.87 3324.71 L5828.87 3315.85 L5838.45 3315.85 L5838.45 3366.95 Z" fill="#000000" fill-rule="nonzero" fill-opacity="1" /><path clip-path="url(#clip390)" d="M5895.38 3317.57 L5895.38 3326.64 Q5891.32 3324.55 5886.94 3323.51 Q5882.57 3322.47 5877.88 3322.47 Q5870.74 3322.47 5867.15 3324.66 Q5863.61 3326.84 5863.61 3331.22 Q5863.61 3334.55 5866.16 3336.48 Q5868.71 3338.35 5876.42 3340.07 L5879.7 3340.8 Q5889.91 3342.99 5894.18 3347 Q5898.5 3350.96 5898.5 3358.09 Q5898.5 3366.22 5892.05 3370.96 Q5885.64 3375.7 5874.39 3375.7 Q5869.7 3375.7 5864.6 3374.76 Q5859.55 3373.88 5853.92 3372.05 L5853.92 3362.16 Q5859.23 3364.92 5864.39 3366.32 Q5869.55 3367.68 5874.6 3367.68 Q5881.37 3367.68 5885.01 3365.39 Q5888.66 3363.04 5888.66 3358.82 Q5888.66 3354.92 5886 3352.83 Q5883.4 3350.75 5874.49 3348.82 L5871.16 3348.04 Q5862.25 3346.17 5858.3 3342.31 Q5854.34 3338.41 5854.34 3331.64 Q5854.34 3323.41 5860.17 3318.93 Q5866 3314.45 5876.73 3314.45 Q5882.05 3314.45 5886.73 3315.23 Q5891.42 3316.01 5895.38 3317.57 Z" fill="#000000" fill-rule="nonzero" fill-opacity="1" /><path clip-path="url(#clip390)" d="M2861.1 3459.97 L2861.1 3471.06 Q2855.79 3466.12 2849.75 3463.67 Q2843.76 3461.22 2836.99 3461.22 Q2823.65 3461.22 2816.57 3469.4 Q2809.49 3477.52 2809.49 3492.94 Q2809.49 3508.3 2816.57 3516.48 Q2823.65 3524.6 2836.99 3524.6 Q2843.76 3524.6 2849.75 3522.16 Q2855.79 3519.71 2861.1 3514.76 L2861.1 3525.75 Q2855.58 3529.5 2849.38 3531.38 Q2843.24 3533.25 2836.36 3533.25 Q2818.71 3533.25 2808.55 3522.47 Q2798.39 3511.64 2798.39 3492.94 Q2798.39 3474.19 2808.55 3463.41 Q2818.71 3452.57 2836.36 3452.57 Q2843.34 3452.57 2849.49 3454.45 Q2855.69 3456.27 2861.1 3459.97 Z" fill="#000000" fill-rule="nonzero" fill-opacity="1" /><path clip-path="url(#clip390)" d="M2899.54 3480.13 Q2891.83 3480.13 2887.35 3486.17 Q2882.87 3492.16 2882.87 3502.63 Q2882.87 3513.09 2887.3 3519.14 Q2891.78 3525.13 2899.54 3525.13 Q2907.2 3525.13 2911.67 3519.08 Q2916.15 3513.04 2916.15 3502.63 Q2916.15 3492.26 2911.67 3486.22 Q2907.2 3480.13 2899.54 3480.13 M2899.54 3472 Q2912.04 3472 2919.17 3480.13 Q2926.31 3488.25 2926.31 3502.63 Q2926.31 3516.95 2919.17 3525.13 Q2912.04 3533.25 2899.54 3533.25 Q2886.99 3533.25 2879.85 3525.13 Q2872.77 3516.95 2872.77 3502.63 Q2872.77 3488.25 2879.85 3480.13 Q2886.99 3472 2899.54 3472 Z" fill="#000000" fill-rule="nonzero" fill-opacity="1" /><path clip-path="url(#clip390)" d="M2987.61 3484.6 Q2991.21 3478.15 2996.21 3475.07 Q3001.21 3472 3007.98 3472 Q3017.09 3472 3022.04 3478.41 Q3026.99 3484.76 3026.99 3496.53 L3026.99 3531.74 L3017.35 3531.74 L3017.35 3496.84 Q3017.35 3488.46 3014.38 3484.4 Q3011.41 3480.33 3005.32 3480.33 Q2997.87 3480.33 2993.55 3485.28 Q2989.23 3490.23 2989.23 3498.77 L2989.23 3531.74 L2979.59 3531.74 L2979.59 3496.84 Q2979.59 3488.41 2976.62 3484.4 Q2973.65 3480.33 2967.46 3480.33 Q2960.11 3480.33 2955.79 3485.33 Q2951.47 3490.28 2951.47 3498.77 L2951.47 3531.74 L2941.83 3531.74 L2941.83 3473.41 L2951.47 3473.41 L2951.47 3482.47 Q2954.75 3477.1 2959.33 3474.55 Q2963.91 3472 2970.22 3472 Q2976.57 3472 2981 3475.23 Q2985.48 3478.46 2987.61 3484.6 Z" fill="#000000" fill-rule="nonzero" fill-opacity="1" /><path clip-path="url(#clip390)" d="M3091.52 3484.6 Q3095.11 3478.15 3100.11 3475.07 Q3105.11 3472 3111.88 3472 Q3121 3472 3125.94 3478.41 Q3130.89 3484.76 3130.89 3496.53 L3130.89 3531.74 L3121.26 3531.74 L3121.26 3496.84 Q3121.26 3488.46 3118.29 3484.4 Q3115.32 3480.33 3109.23 3480.33 Q3101.78 3480.33 3097.46 3485.28 Q3093.13 3490.23 3093.13 3498.77 L3093.13 3531.74 L3083.5 3531.74 L3083.5 3496.84 Q3083.5 3488.41 3080.53 3484.4 Q3077.56 3480.33 3071.36 3480.33 Q3064.02 3480.33 3059.69 3485.33 Q3055.37 3490.28 3055.37 3498.77 L3055.37 3531.74 L3045.74 3531.74 L3045.74 3473.41 L3055.37 3473.41 L3055.37 3482.47 Q3058.65 3477.1 3063.24 3474.55 Q3067.82 3472 3074.12 3472 Q3080.48 3472 3084.9 3475.23 Q3089.38 3478.46 3091.52 3484.6 Z" fill="#000000" fill-rule="nonzero" fill-opacity="1" /><path clip-path="url(#clip390)" d="M3176.52 3502.42 Q3164.9 3502.42 3160.42 3505.07 Q3155.94 3507.73 3155.94 3514.14 Q3155.94 3519.24 3159.28 3522.26 Q3162.66 3525.23 3168.44 3525.23 Q3176.41 3525.23 3181.2 3519.6 Q3186.05 3513.93 3186.05 3504.55 L3186.05 3502.42 L3176.52 3502.42 M3195.63 3498.46 L3195.63 3531.74 L3186.05 3531.74 L3186.05 3522.89 Q3182.77 3528.2 3177.87 3530.75 Q3172.98 3533.25 3165.89 3533.25 Q3156.93 3533.25 3151.62 3528.25 Q3146.36 3523.2 3146.36 3514.76 Q3146.36 3504.92 3152.92 3499.92 Q3159.54 3494.92 3172.61 3494.92 L3186.05 3494.92 L3186.05 3493.98 Q3186.05 3487.37 3181.67 3483.77 Q3177.35 3480.13 3169.49 3480.13 Q3164.49 3480.13 3159.75 3481.32 Q3155.01 3482.52 3150.63 3484.92 L3150.63 3476.06 Q3155.89 3474.03 3160.84 3473.04 Q3165.79 3472 3170.48 3472 Q3183.13 3472 3189.38 3478.56 Q3195.63 3485.13 3195.63 3498.46 Z" fill="#000000" fill-rule="nonzero" fill-opacity="1" /><path clip-path="url(#clip390)" d="M3263.86 3496.53 L3263.86 3531.74 L3254.28 3531.74 L3254.28 3496.84 Q3254.28 3488.56 3251.05 3484.45 Q3247.82 3480.33 3241.36 3480.33 Q3233.6 3480.33 3229.12 3485.28 Q3224.64 3490.23 3224.64 3498.77 L3224.64 3531.74 L3215.01 3531.74 L3215.01 3473.41 L3224.64 3473.41 L3224.64 3482.47 Q3228.08 3477.21 3232.71 3474.6 Q3237.4 3472 3243.5 3472 Q3253.55 3472 3258.7 3478.25 Q3263.86 3484.45 3263.86 3496.53 Z" fill="#000000" fill-rule="nonzero" fill-opacity="1" /><path clip-path="url(#clip390)" d="M3321.36 3482.26 L3321.36 3450.7 L3330.94 3450.7 L3330.94 3531.74 L3321.36 3531.74 L3321.36 3522.99 Q3318.34 3528.2 3313.7 3530.75 Q3309.12 3533.25 3302.66 3533.25 Q3292.09 3533.25 3285.42 3524.81 Q3278.81 3516.38 3278.81 3502.63 Q3278.81 3488.88 3285.42 3480.44 Q3292.09 3472 3302.66 3472 Q3309.12 3472 3313.7 3474.55 Q3318.34 3477.05 3321.36 3482.26 M3288.7 3502.63 Q3288.7 3513.2 3293.03 3519.24 Q3297.4 3525.23 3305.01 3525.23 Q3312.61 3525.23 3316.99 3519.24 Q3321.36 3513.2 3321.36 3502.63 Q3321.36 3492.05 3316.99 3486.06 Q3312.61 3480.02 3305.01 3480.02 Q3297.4 3480.02 3293.03 3486.06 Q3288.7 3492.05 3288.7 3502.63 Z" fill="#000000" fill-rule="nonzero" fill-opacity="1" /><path clip-path="url(#clip390)" d="M3345.84 3498.25 L3373.91 3498.25 L3373.91 3506.79 L3345.84 3506.79 L3345.84 3498.25 Z" fill="#000000" fill-rule="nonzero" fill-opacity="1" /><path clip-path="url(#clip390)" d="M3389.17 3450.7 L3398.76 3450.7 L3398.76 3531.74 L3389.17 3531.74 L3389.17 3450.7 Z" fill="#000000" fill-rule="nonzero" fill-opacity="1" /><path clip-path="url(#clip390)" d="M3418.81 3473.41 L3428.39 3473.41 L3428.39 3531.74 L3418.81 3531.74 L3418.81 3473.41 M3418.81 3450.7 L3428.39 3450.7 L3428.39 3462.83 L3418.81 3462.83 L3418.81 3450.7 Z" fill="#000000" fill-rule="nonzero" fill-opacity="1" /><path clip-path="url(#clip390)" d="M3496.93 3496.53 L3496.93 3531.74 L3487.35 3531.74 L3487.35 3496.84 Q3487.35 3488.56 3484.12 3484.45 Q3480.89 3480.33 3474.43 3480.33 Q3466.67 3480.33 3462.19 3485.28 Q3457.71 3490.23 3457.71 3498.77 L3457.71 3531.74 L3448.08 3531.74 L3448.08 3473.41 L3457.71 3473.41 L3457.71 3482.47 Q3461.15 3477.21 3465.79 3474.6 Q3470.47 3472 3476.57 3472 Q3486.62 3472 3491.78 3478.25 Q3496.93 3484.45 3496.93 3496.53 Z" fill="#000000" fill-rule="nonzero" fill-opacity="1" /><path clip-path="url(#clip390)" d="M3565.94 3500.18 L3565.94 3504.87 L3521.88 3504.87 Q3522.5 3514.76 3527.82 3519.97 Q3533.18 3525.13 3542.71 3525.13 Q3548.23 3525.13 3553.39 3523.77 Q3558.6 3522.42 3563.7 3519.71 L3563.7 3528.77 Q3558.55 3530.96 3553.13 3532.1 Q3547.71 3533.25 3542.14 3533.25 Q3528.18 3533.25 3520 3525.13 Q3511.88 3517 3511.88 3503.15 Q3511.88 3488.82 3519.59 3480.44 Q3527.35 3472 3540.47 3472 Q3552.24 3472 3559.07 3479.6 Q3565.94 3487.16 3565.94 3500.18 M3556.36 3497.37 Q3556.25 3489.5 3551.93 3484.81 Q3547.66 3480.13 3540.58 3480.13 Q3532.56 3480.13 3527.71 3484.66 Q3522.92 3489.19 3522.19 3497.42 L3556.36 3497.37 Z" fill="#000000" fill-rule="nonzero" fill-opacity="1" /><path clip-path="url(#clip390)" d="M3624.85 3522.99 L3624.85 3553.93 L3615.21 3553.93 L3615.21 3473.41 L3624.85 3473.41 L3624.85 3482.26 Q3627.87 3477.05 3632.45 3474.55 Q3637.09 3472 3643.49 3472 Q3654.12 3472 3660.73 3480.44 Q3667.4 3488.88 3667.4 3502.63 Q3667.4 3516.38 3660.73 3524.81 Q3654.12 3533.25 3643.49 3533.25 Q3637.09 3533.25 3632.45 3530.75 Q3627.87 3528.2 3624.85 3522.99 M3657.45 3502.63 Q3657.45 3492.05 3653.08 3486.06 Q3648.75 3480.02 3641.15 3480.02 Q3633.55 3480.02 3629.17 3486.06 Q3624.85 3492.05 3624.85 3502.63 Q3624.85 3513.2 3629.17 3519.24 Q3633.55 3525.23 3641.15 3525.23 Q3648.75 3525.23 3653.08 3519.24 Q3657.45 3513.2 3657.45 3502.63 Z" fill="#000000" fill-rule="nonzero" fill-opacity="1" /><path clip-path="url(#clip390)" d="M3709.8 3502.42 Q3698.18 3502.42 3693.7 3505.07 Q3689.22 3507.73 3689.22 3514.14 Q3689.22 3519.24 3692.56 3522.26 Q3695.94 3525.23 3701.72 3525.23 Q3709.69 3525.23 3714.48 3519.6 Q3719.33 3513.93 3719.33 3504.55 L3719.33 3502.42 L3709.8 3502.42 M3728.91 3498.46 L3728.91 3531.74 L3719.33 3531.74 L3719.33 3522.89 Q3716.05 3528.2 3711.15 3530.75 Q3706.25 3533.25 3699.17 3533.25 Q3690.21 3533.25 3684.9 3528.25 Q3679.64 3523.2 3679.64 3514.76 Q3679.64 3504.92 3686.2 3499.92 Q3692.82 3494.92 3705.89 3494.92 L3719.33 3494.92 L3719.33 3493.98 Q3719.33 3487.37 3714.95 3483.77 Q3710.63 3480.13 3702.76 3480.13 Q3697.76 3480.13 3693.02 3481.32 Q3688.29 3482.52 3683.91 3484.92 L3683.91 3476.06 Q3689.17 3474.03 3694.12 3473.04 Q3699.07 3472 3703.75 3472 Q3716.41 3472 3722.66 3478.56 Q3728.91 3485.13 3728.91 3498.46 Z" fill="#000000" fill-rule="nonzero" fill-opacity="1" /><path clip-path="url(#clip390)" d="M3782.45 3482.37 Q3780.84 3481.43 3778.91 3481.01 Q3777.03 3480.54 3774.74 3480.54 Q3766.62 3480.54 3762.24 3485.85 Q3757.92 3491.12 3757.92 3501.01 L3757.92 3531.74 L3748.28 3531.74 L3748.28 3473.41 L3757.92 3473.41 L3757.92 3482.47 Q3760.94 3477.16 3765.78 3474.6 Q3770.63 3472 3777.56 3472 Q3778.55 3472 3779.74 3472.16 Q3780.94 3472.26 3782.4 3472.52 L3782.45 3482.37 Z" fill="#000000" fill-rule="nonzero" fill-opacity="1" /><path clip-path="url(#clip390)" d="M3829.69 3475.13 L3829.69 3484.19 Q3825.63 3482.1 3821.25 3481.06 Q3816.88 3480.02 3812.19 3480.02 Q3805.06 3480.02 3801.46 3482.21 Q3797.92 3484.4 3797.92 3488.77 Q3797.92 3492.1 3800.47 3494.03 Q3803.02 3495.91 3810.73 3497.63 L3814.01 3498.35 Q3824.22 3500.54 3828.49 3504.55 Q3832.82 3508.51 3832.82 3515.65 Q3832.82 3523.77 3826.36 3528.51 Q3819.95 3533.25 3808.7 3533.25 Q3804.01 3533.25 3798.91 3532.31 Q3793.86 3531.43 3788.23 3529.6 L3788.23 3519.71 Q3793.55 3522.47 3798.7 3523.88 Q3803.86 3525.23 3808.91 3525.23 Q3815.68 3525.23 3819.33 3522.94 Q3822.97 3520.59 3822.97 3516.38 Q3822.97 3512.47 3820.32 3510.39 Q3817.71 3508.3 3808.81 3506.38 L3805.47 3505.59 Q3796.57 3503.72 3792.61 3499.87 Q3788.65 3495.96 3788.65 3489.19 Q3788.65 3480.96 3794.48 3476.48 Q3800.32 3472 3811.04 3472 Q3816.36 3472 3821.04 3472.78 Q3825.73 3473.56 3829.69 3475.13 Z" fill="#000000" fill-rule="nonzero" fill-opacity="1" /><path clip-path="url(#clip390)" d="M3897.97 3500.18 L3897.97 3504.87 L3853.91 3504.87 Q3854.53 3514.76 3859.85 3519.97 Q3865.21 3525.13 3874.74 3525.13 Q3880.26 3525.13 3885.42 3523.77 Q3890.63 3522.42 3895.73 3519.71 L3895.73 3528.77 Q3890.58 3530.96 3885.16 3532.1 Q3879.74 3533.25 3874.17 3533.25 Q3860.21 3533.25 3852.03 3525.13 Q3843.91 3517 3843.91 3503.15 Q3843.91 3488.82 3851.62 3480.44 Q3859.38 3472 3872.5 3472 Q3884.27 3472 3891.1 3479.6 Q3897.97 3487.16 3897.97 3500.18 M3888.39 3497.37 Q3888.28 3489.5 3883.96 3484.81 Q3879.69 3480.13 3872.61 3480.13 Q3864.59 3480.13 3859.74 3484.66 Q3854.95 3489.19 3854.22 3497.42 L3888.39 3497.37 Z" fill="#000000" fill-rule="nonzero" fill-opacity="1" /><path clip-path="url(#clip390)" d="M3947.5 3482.37 Q3945.89 3481.43 3943.96 3481.01 Q3942.09 3480.54 3939.79 3480.54 Q3931.67 3480.54 3927.29 3485.85 Q3922.97 3491.12 3922.97 3501.01 L3922.97 3531.74 L3913.34 3531.74 L3913.34 3473.41 L3922.97 3473.41 L3922.97 3482.47 Q3925.99 3477.16 3930.84 3474.6 Q3935.68 3472 3942.61 3472 Q3943.6 3472 3944.79 3472.16 Q3945.99 3472.26 3947.45 3472.52 L3947.5 3482.37 Z" fill="#000000" fill-rule="nonzero" fill-opacity="1" /><polyline clip-path="url(#clip390)" style="stroke:#000000; stroke-linecap:round; stroke-linejoin:round; stroke-width:4; stroke-opacity:1; fill:none" points="521.393,3225.79 521.393,175.496 "/>
<polyline clip-path="url(#clip390)" style="stroke:#000000; stroke-linecap:round; stroke-linejoin:round; stroke-width:4; stroke-opacity:1; fill:none" points="521.393,3225.79 540.29,3225.79 "/>
<polyline clip-path="url(#clip390)" style="stroke:#000000; stroke-linecap:round; stroke-linejoin:round; stroke-width:4; stroke-opacity:1; fill:none" points="521.393,2760.09 540.29,2760.09 "/>
<polyline clip-path="url(#clip390)" style="stroke:#000000; stroke-linecap:round; stroke-linejoin:round; stroke-width:4; stroke-opacity:1; fill:none" points="521.393,2294.4 540.29,2294.4 "/>
<polyline clip-path="url(#clip390)" style="stroke:#000000; stroke-linecap:round; stroke-linejoin:round; stroke-width:4; stroke-opacity:1; fill:none" points="521.393,1828.71 540.29,1828.71 "/>
<polyline clip-path="url(#clip390)" style="stroke:#000000; stroke-linecap:round; stroke-linejoin:round; stroke-width:4; stroke-opacity:1; fill:none" points="521.393,1363.01 540.29,1363.01 "/>
<polyline clip-path="url(#clip390)" style="stroke:#000000; stroke-linecap:round; stroke-linejoin:round; stroke-width:4; stroke-opacity:1; fill:none" points="521.393,897.321 540.29,897.321 "/>
<polyline clip-path="url(#clip390)" style="stroke:#000000; stroke-linecap:round; stroke-linejoin:round; stroke-width:4; stroke-opacity:1; fill:none" points="521.393,431.627 540.29,431.627 "/>
<path clip-path="url(#clip390)" d="M398.518 3193.83 Q390.393 3193.83 386.278 3201.86 Q382.216 3209.82 382.216 3225.87 Q382.216 3241.86 386.278 3249.88 Q390.393 3257.84 398.518 3257.84 Q406.695 3257.84 410.757 3249.88 Q414.872 3241.86 414.872 3225.87 Q414.872 3209.82 410.757 3201.86 Q406.695 3193.83 398.518 3193.83 M398.518 3185.5 Q411.591 3185.5 418.466 3195.87 Q425.393 3206.18 425.393 3225.87 Q425.393 3245.5 418.466 3255.87 Q411.591 3266.18 398.518 3266.18 Q385.445 3266.18 378.518 3255.87 Q371.643 3245.5 371.643 3225.87 Q371.643 3206.18 378.518 3195.87 Q385.445 3185.5 398.518 3185.5 Z" fill="#000000" fill-rule="nonzero" fill-opacity="1" /><path clip-path="url(#clip390)" d="M317.216 2790.12 L353.935 2790.12 L353.935 2798.97 L304.56 2798.97 L304.56 2790.12 Q310.55 2783.92 320.862 2773.51 Q331.227 2763.04 333.883 2760.02 Q338.935 2754.34 340.914 2750.43 Q342.945 2746.47 342.945 2742.67 Q342.945 2736.47 338.57 2732.57 Q334.247 2728.66 327.268 2728.66 Q322.32 2728.66 316.8 2730.38 Q311.331 2732.1 305.081 2735.59 L305.081 2724.96 Q311.435 2722.41 316.956 2721.11 Q322.477 2719.81 327.06 2719.81 Q339.143 2719.81 346.331 2725.85 Q353.518 2731.89 353.518 2742 Q353.518 2746.79 351.695 2751.11 Q349.924 2755.38 345.185 2761.21 Q343.883 2762.72 336.904 2769.96 Q329.925 2777.15 317.216 2790.12 Z" fill="#000000" fill-rule="nonzero" fill-opacity="1" /><path clip-path="url(#clip390)" d="M398.518 2728.14 Q390.393 2728.14 386.278 2736.16 Q382.216 2744.13 382.216 2760.17 Q382.216 2776.16 386.278 2784.18 Q390.393 2792.15 398.518 2792.15 Q406.695 2792.15 410.757 2784.18 Q414.872 2776.16 414.872 2760.17 Q414.872 2744.13 410.757 2736.16 Q406.695 2728.14 398.518 2728.14 M398.518 2719.81 Q411.591 2719.81 418.466 2730.17 Q425.393 2740.49 425.393 2760.17 Q425.393 2779.81 418.466 2790.17 Q411.591 2800.48 398.518 2800.48 Q385.445 2800.48 378.518 2790.17 Q371.643 2779.81 371.643 2760.17 Q371.643 2740.49 378.518 2730.17 Q385.445 2719.81 398.518 2719.81 Z" fill="#000000" fill-rule="nonzero" fill-opacity="1" /><path clip-path="url(#clip390)" d="M337.06 2264.69 L310.498 2306.2 L337.06 2306.2 L337.06 2264.69 M334.3 2255.52 L347.529 2255.52 L347.529 2306.2 L358.622 2306.2 L358.622 2314.95 L347.529 2314.95 L347.529 2333.28 L337.06 2333.28 L337.06 2314.95 L301.956 2314.95 L301.956 2304.79 L334.3 2255.52 Z" fill="#000000" fill-rule="nonzero" fill-opacity="1" /><path clip-path="url(#clip390)" d="M398.518 2262.45 Q390.393 2262.45 386.278 2270.47 Q382.216 2278.44 382.216 2294.48 Q382.216 2310.47 386.278 2318.49 Q390.393 2326.46 398.518 2326.46 Q406.695 2326.46 410.757 2318.49 Q414.872 2310.47 414.872 2294.48 Q414.872 2278.44 410.757 2270.47 Q406.695 2262.45 398.518 2262.45 M398.518 2254.11 Q411.591 2254.11 418.466 2264.48 Q425.393 2274.79 425.393 2294.48 Q425.393 2314.11 418.466 2324.48 Q411.591 2334.79 398.518 2334.79 Q385.445 2334.79 378.518 2324.48 Q371.643 2314.11 371.643 2294.48 Q371.643 2274.79 378.518 2264.48 Q385.445 2254.11 398.518 2254.11 Z" fill="#000000" fill-rule="nonzero" fill-opacity="1" /><path clip-path="url(#clip390)" d="M331.956 1824.51 Q324.873 1824.51 320.706 1829.36 Q316.591 1834.2 316.591 1842.64 Q316.591 1851.03 320.706 1855.92 Q324.873 1860.76 331.956 1860.76 Q339.039 1860.76 343.154 1855.92 Q347.32 1851.03 347.32 1842.64 Q347.32 1834.2 343.154 1829.36 Q339.039 1824.51 331.956 1824.51 M352.841 1791.55 L352.841 1801.13 Q348.883 1799.25 344.82 1798.27 Q340.81 1797.28 336.852 1797.28 Q326.435 1797.28 320.914 1804.31 Q315.445 1811.34 314.664 1825.56 Q317.737 1821.03 322.373 1818.63 Q327.008 1816.18 332.581 1816.18 Q344.299 1816.18 351.07 1823.32 Q357.893 1830.4 357.893 1842.64 Q357.893 1854.62 350.81 1861.86 Q343.727 1869.1 331.956 1869.1 Q318.466 1869.1 311.331 1858.79 Q304.196 1848.42 304.196 1828.79 Q304.196 1810.35 312.945 1799.41 Q321.695 1788.42 336.435 1788.42 Q340.393 1788.42 344.404 1789.2 Q348.466 1789.98 352.841 1791.55 Z" fill="#000000" fill-rule="nonzero" fill-opacity="1" /><path clip-path="url(#clip390)" d="M398.518 1796.75 Q390.393 1796.75 386.278 1804.78 Q382.216 1812.74 382.216 1828.79 Q382.216 1844.78 386.278 1852.8 Q390.393 1860.76 398.518 1860.76 Q406.695 1860.76 410.757 1852.8 Q414.872 1844.78 414.872 1828.79 Q414.872 1812.74 410.757 1804.78 Q406.695 1796.75 398.518 1796.75 M398.518 1788.42 Q411.591 1788.42 418.466 1798.79 Q425.393 1809.1 425.393 1828.79 Q425.393 1848.42 418.466 1858.79 Q411.591 1869.1 398.518 1869.1 Q385.445 1869.1 378.518 1858.79 Q371.643 1848.42 371.643 1828.79 Q371.643 1809.1 378.518 1798.79 Q385.445 1788.42 398.518 1788.42 Z" fill="#000000" fill-rule="nonzero" fill-opacity="1" /><path clip-path="url(#clip390)" d="M330.654 1364.97 Q323.154 1364.97 318.831 1368.98 Q314.56 1372.99 314.56 1380.02 Q314.56 1387.05 318.831 1391.06 Q323.154 1395.07 330.654 1395.07 Q338.154 1395.07 342.477 1391.06 Q346.799 1387 346.799 1380.02 Q346.799 1372.99 342.477 1368.98 Q338.206 1364.97 330.654 1364.97 M320.133 1360.49 Q313.362 1358.82 309.56 1354.19 Q305.81 1349.55 305.81 1342.88 Q305.81 1333.56 312.425 1328.14 Q319.091 1322.73 330.654 1322.73 Q342.268 1322.73 348.883 1328.14 Q355.497 1333.56 355.497 1342.88 Q355.497 1349.55 351.695 1354.19 Q347.945 1358.82 341.227 1360.49 Q348.831 1362.26 353.049 1367.42 Q357.32 1372.57 357.32 1380.02 Q357.32 1391.32 350.393 1397.36 Q343.518 1403.4 330.654 1403.4 Q317.789 1403.4 310.862 1397.36 Q303.987 1391.32 303.987 1380.02 Q303.987 1372.57 308.258 1367.42 Q312.529 1362.26 320.133 1360.49 M316.279 1343.87 Q316.279 1349.92 320.029 1353.3 Q323.831 1356.69 330.654 1356.69 Q337.425 1356.69 341.227 1353.3 Q345.081 1349.92 345.081 1343.87 Q345.081 1337.83 341.227 1334.45 Q337.425 1331.06 330.654 1331.06 Q323.831 1331.06 320.029 1334.45 Q316.279 1337.83 316.279 1343.87 Z" fill="#000000" fill-rule="nonzero" fill-opacity="1" /><path clip-path="url(#clip390)" d="M398.518 1331.06 Q390.393 1331.06 386.278 1339.08 Q382.216 1347.05 382.216 1363.09 Q382.216 1379.08 386.278 1387.1 Q390.393 1395.07 398.518 1395.07 Q406.695 1395.07 410.757 1387.1 Q414.872 1379.08 414.872 1363.09 Q414.872 1347.05 410.757 1339.08 Q406.695 1331.06 398.518 1331.06 M398.518 1322.73 Q411.591 1322.73 418.466 1333.09 Q425.393 1343.4 425.393 1363.09 Q425.393 1382.73 418.466 1393.09 Q411.591 1403.4 398.518 1403.4 Q385.445 1403.4 378.518 1393.09 Q371.643 1382.73 371.643 1363.09 Q371.643 1343.4 378.518 1333.09 Q385.445 1322.73 398.518 1322.73 Z" fill="#000000" fill-rule="nonzero" fill-opacity="1" /><path clip-path="url(#clip390)" d="M242.113 927.347 L259.3 927.347 L259.3 868.024 L240.602 871.774 L240.602 862.191 L259.196 858.441 L269.717 858.441 L269.717 927.347 L286.904 927.347 L286.904 936.201 L242.113 936.201 L242.113 927.347 Z" fill="#000000" fill-rule="nonzero" fill-opacity="1" /><path clip-path="url(#clip390)" d="M330.654 865.368 Q322.529 865.368 318.414 873.389 Q314.352 881.357 314.352 897.399 Q314.352 913.388 318.414 921.409 Q322.529 929.378 330.654 929.378 Q338.831 929.378 342.893 921.409 Q347.008 913.388 347.008 897.399 Q347.008 881.357 342.893 873.389 Q338.831 865.368 330.654 865.368 M330.654 857.035 Q343.727 857.035 350.602 867.399 Q357.529 877.712 357.529 897.399 Q357.529 917.034 350.602 927.399 Q343.727 937.711 330.654 937.711 Q317.581 937.711 310.654 927.399 Q303.779 917.034 303.779 897.399 Q303.779 877.712 310.654 867.399 Q317.581 857.035 330.654 857.035 Z" fill="#000000" fill-rule="nonzero" fill-opacity="1" /><path clip-path="url(#clip390)" d="M398.518 865.368 Q390.393 865.368 386.278 873.389 Q382.216 881.357 382.216 897.399 Q382.216 913.388 386.278 921.409 Q390.393 929.378 398.518 929.378 Q406.695 929.378 410.757 921.409 Q414.872 913.388 414.872 897.399 Q414.872 881.357 410.757 873.389 Q406.695 865.368 398.518 865.368 M398.518 857.035 Q411.591 857.035 418.466 867.399 Q425.393 877.712 425.393 897.399 Q425.393 917.034 418.466 927.399 Q411.591 937.711 398.518 937.711 Q385.445 937.711 378.518 927.399 Q371.643 917.034 371.643 897.399 Q371.643 877.712 378.518 867.399 Q385.445 857.035 398.518 857.035 Z" fill="#000000" fill-rule="nonzero" fill-opacity="1" /><path clip-path="url(#clip390)" d="M242.113 461.653 L259.3 461.653 L259.3 402.331 L240.602 406.081 L240.602 396.497 L259.196 392.747 L269.717 392.747 L269.717 461.653 L286.904 461.653 L286.904 470.507 L242.113 470.507 L242.113 461.653 Z" fill="#000000" fill-rule="nonzero" fill-opacity="1" /><path clip-path="url(#clip390)" d="M317.216 461.653 L353.935 461.653 L353.935 470.507 L304.56 470.507 L304.56 461.653 Q310.55 455.455 320.862 445.039 Q331.227 434.57 333.883 431.549 Q338.935 425.872 340.914 421.966 Q342.945 418.008 342.945 414.206 Q342.945 408.008 338.57 404.102 Q334.247 400.195 327.268 400.195 Q322.32 400.195 316.8 401.914 Q311.331 403.633 305.081 407.122 L305.081 396.497 Q311.435 393.945 316.956 392.643 Q322.477 391.341 327.06 391.341 Q339.143 391.341 346.331 397.383 Q353.518 403.424 353.518 413.529 Q353.518 418.32 351.695 422.643 Q349.924 426.914 345.185 432.747 Q343.883 434.258 336.904 441.497 Q329.925 448.685 317.216 461.653 Z" fill="#000000" fill-rule="nonzero" fill-opacity="1" /><path clip-path="url(#clip390)" d="M398.518 399.674 Q390.393 399.674 386.278 407.695 Q382.216 415.664 382.216 431.706 Q382.216 447.695 386.278 455.716 Q390.393 463.685 398.518 463.685 Q406.695 463.685 410.757 455.716 Q414.872 447.695 414.872 431.706 Q414.872 415.664 410.757 407.695 Q406.695 399.674 398.518 399.674 M398.518 391.341 Q411.591 391.341 418.466 401.706 Q425.393 412.018 425.393 431.706 Q425.393 451.341 418.466 461.705 Q411.591 472.018 398.518 472.018 Q385.445 472.018 378.518 461.705 Q371.643 451.341 371.643 431.706 Q371.643 412.018 378.518 401.706 Q385.445 391.341 398.518 391.341 Z" fill="#000000" fill-rule="nonzero" fill-opacity="1" /><path clip-path="url(#clip390)" d="M49.5037 2266.45 L60.5974 2266.45 Q55.6495 2271.76 53.2016 2277.8 Q50.7537 2283.79 50.7537 2290.56 Q50.7537 2303.89 58.9307 2310.98 Q67.0557 2318.06 82.4723 2318.06 Q97.8368 2318.06 106.014 2310.98 Q114.139 2303.89 114.139 2290.56 Q114.139 2283.79 111.691 2277.8 Q109.243 2271.76 104.295 2266.45 L115.285 2266.45 Q119.035 2271.97 120.91 2278.16 Q122.785 2284.31 122.785 2291.19 Q122.785 2308.84 112.003 2319 Q101.17 2329.15 82.4723 2329.15 Q63.7224 2329.15 52.9412 2319 Q42.1079 2308.84 42.1079 2291.19 Q42.1079 2284.21 43.9829 2278.06 Q45.8058 2271.86 49.5037 2266.45 Z" fill="#000000" fill-rule="nonzero" fill-opacity="1" /><path clip-path="url(#clip390)" d="M69.6598 2228.01 Q69.6598 2235.72 75.7015 2240.2 Q81.691 2244.68 92.1597 2244.68 Q102.628 2244.68 108.67 2240.25 Q114.66 2235.77 114.66 2228.01 Q114.66 2220.35 108.618 2215.87 Q102.576 2211.39 92.1597 2211.39 Q81.7952 2211.39 75.7535 2215.87 Q69.6598 2220.35 69.6598 2228.01 M61.5349 2228.01 Q61.5349 2215.51 69.6598 2208.37 Q77.7848 2201.24 92.1597 2201.24 Q106.483 2201.24 114.66 2208.37 Q122.785 2215.51 122.785 2228.01 Q122.785 2240.56 114.66 2247.7 Q106.483 2254.78 92.1597 2254.78 Q77.7848 2254.78 69.6598 2247.7 Q61.5349 2240.56 61.5349 2228.01 Z" fill="#000000" fill-rule="nonzero" fill-opacity="1" /><path clip-path="url(#clip390)" d="M71.7952 2146.97 L40.2329 2146.97 L40.2329 2137.38 L121.274 2137.38 L121.274 2146.97 L112.524 2146.97 Q117.732 2149.99 120.285 2154.62 Q122.785 2159.21 122.785 2165.67 Q122.785 2176.24 114.347 2182.91 Q105.91 2189.52 92.1597 2189.52 Q78.4098 2189.52 69.9723 2182.91 Q61.5349 2176.24 61.5349 2165.67 Q61.5349 2159.21 64.0869 2154.62 Q66.5869 2149.99 71.7952 2146.97 M92.1597 2179.62 Q102.733 2179.62 108.774 2175.3 Q114.764 2170.93 114.764 2163.32 Q114.764 2155.72 108.774 2151.34 Q102.733 2146.97 92.1597 2146.97 Q81.5868 2146.97 75.5973 2151.34 Q69.5557 2155.72 69.5557 2163.32 Q69.5557 2170.93 75.5973 2175.3 Q81.5868 2179.62 92.1597 2179.62 Z" fill="#000000" fill-rule="nonzero" fill-opacity="1" /><path clip-path="url(#clip390)" d="M89.7118 2067.75 L94.3993 2067.75 L94.3993 2111.81 Q104.295 2111.19 109.503 2105.87 Q114.66 2100.51 114.66 2090.98 Q114.66 2085.46 113.305 2080.3 Q111.951 2075.09 109.243 2069.99 L118.305 2069.99 Q120.493 2075.15 121.639 2080.56 Q122.785 2085.98 122.785 2091.55 Q122.785 2105.51 114.66 2113.69 Q106.535 2121.81 92.6805 2121.81 Q78.3577 2121.81 69.9723 2114.1 Q61.5349 2106.34 61.5349 2093.22 Q61.5349 2081.45 69.139 2074.62 Q76.691 2067.75 89.7118 2067.75 M86.8993 2077.33 Q79.0348 2077.44 74.3473 2081.76 Q69.6598 2086.03 69.6598 2093.11 Q69.6598 2101.13 74.191 2105.98 Q78.7223 2110.77 86.9514 2111.5 L86.8993 2077.33 Z" fill="#000000" fill-rule="nonzero" fill-opacity="1" /><path clip-path="url(#clip390)" d="M40.2329 2018.11 L40.2329 2008.53 L121.274 2008.53 L121.274 2018.11 L40.2329 2018.11 Z" fill="#000000" fill-rule="nonzero" fill-opacity="1" /><path clip-path="url(#clip390)" d="M89.7118 1938.58 L94.3993 1938.58 L94.3993 1982.65 Q104.295 1982.02 109.503 1976.71 Q114.66 1971.34 114.66 1961.81 Q114.66 1956.29 113.305 1951.14 Q111.951 1945.93 109.243 1940.82 L118.305 1940.82 Q120.493 1945.98 121.639 1951.4 Q122.785 1956.81 122.785 1962.39 Q122.785 1976.34 114.66 1984.52 Q106.535 1992.65 92.6805 1992.65 Q78.3577 1992.65 69.9723 1984.94 Q61.5349 1977.18 61.5349 1964.05 Q61.5349 1952.28 69.139 1945.46 Q76.691 1938.58 89.7118 1938.58 M86.8993 1948.17 Q79.0348 1948.27 74.3473 1952.59 Q69.6598 1956.86 69.6598 1963.95 Q69.6598 1971.97 74.191 1976.81 Q78.7223 1981.6 86.9514 1982.33 L86.8993 1948.17 Z" fill="#000000" fill-rule="nonzero" fill-opacity="1" /><path clip-path="url(#clip390)" d="M86.066 1874.36 L121.274 1874.36 L121.274 1883.95 L86.3785 1883.95 Q78.0973 1883.95 73.9827 1887.18 Q69.8682 1890.41 69.8682 1896.86 Q69.8682 1904.63 74.816 1909.1 Q79.7639 1913.58 88.3056 1913.58 L121.274 1913.58 L121.274 1923.22 L62.9411 1923.22 L62.9411 1913.58 L72.0036 1913.58 Q66.7432 1910.15 64.139 1905.51 Q61.5349 1900.82 61.5349 1894.73 Q61.5349 1884.68 67.7848 1879.52 Q73.9827 1874.36 86.066 1874.36 Z" fill="#000000" fill-rule="nonzero" fill-opacity="1" /><path clip-path="url(#clip390)" d="M91.4305 1816.87 Q81.0139 1816.87 75.2848 1821.19 Q69.5557 1825.46 69.5557 1833.22 Q69.5557 1840.93 75.2848 1845.25 Q81.0139 1849.52 91.4305 1849.52 Q101.795 1849.52 107.524 1845.25 Q113.253 1840.93 113.253 1833.22 Q113.253 1825.46 107.524 1821.19 Q101.795 1816.87 91.4305 1816.87 M114.035 1807.28 Q128.93 1807.28 136.17 1813.9 Q143.462 1820.51 143.462 1834.16 Q143.462 1839.21 142.68 1843.69 Q141.951 1848.17 140.389 1852.39 L131.066 1852.39 Q133.357 1848.17 134.451 1844.05 Q135.545 1839.94 135.545 1835.67 Q135.545 1826.24 130.597 1821.55 Q125.701 1816.87 115.753 1816.87 L111.014 1816.87 Q116.17 1819.83 118.722 1824.47 Q121.274 1829.1 121.274 1835.56 Q121.274 1846.29 113.097 1852.85 Q104.92 1859.42 91.4305 1859.42 Q77.8889 1859.42 69.7119 1852.85 Q61.5349 1846.29 61.5349 1835.56 Q61.5349 1829.1 64.0869 1824.47 Q66.639 1819.83 71.7952 1816.87 L62.9411 1816.87 L62.9411 1807.28 L114.035 1807.28 Z" fill="#000000" fill-rule="nonzero" fill-opacity="1" /><path clip-path="url(#clip390)" d="M46.3787 1778.06 L62.9411 1778.06 L62.9411 1758.32 L70.389 1758.32 L70.389 1778.06 L102.055 1778.06 Q109.191 1778.06 111.222 1776.14 Q113.253 1774.16 113.253 1768.17 L113.253 1758.32 L121.274 1758.32 L121.274 1768.17 Q121.274 1779.26 117.16 1783.48 Q112.993 1787.7 102.055 1787.7 L70.389 1787.7 L70.389 1794.73 L62.9411 1794.73 L62.9411 1787.7 L46.3787 1787.7 L46.3787 1778.06 Z" fill="#000000" fill-rule="nonzero" fill-opacity="1" /><path clip-path="url(#clip390)" d="M86.066 1697.23 L121.274 1697.23 L121.274 1706.81 L86.3785 1706.81 Q78.0973 1706.81 73.9827 1710.04 Q69.8682 1713.27 69.8682 1719.73 Q69.8682 1727.49 74.816 1731.97 Q79.7639 1736.45 88.3056 1736.45 L121.274 1736.45 L121.274 1746.08 L40.2329 1746.08 L40.2329 1736.45 L72.0036 1736.45 Q66.7432 1733.01 64.139 1728.38 Q61.5349 1723.69 61.5349 1717.6 Q61.5349 1707.54 67.7848 1702.39 Q73.9827 1697.23 86.066 1697.23 Z" fill="#000000" fill-rule="nonzero" fill-opacity="1" /><path clip-path="url(#clip390)" d="M40.3371 1621.19 Q52.3162 1628.17 64.0348 1631.55 Q75.7535 1634.94 87.7847 1634.94 Q99.8159 1634.94 111.639 1631.55 Q123.41 1628.12 135.337 1621.19 L135.337 1629.52 Q123.097 1637.34 111.274 1641.24 Q99.4513 1645.1 87.7847 1645.1 Q76.1702 1645.1 64.3994 1641.24 Q52.6287 1637.39 40.3371 1629.52 L40.3371 1621.19 Z" fill="#000000" fill-rule="nonzero" fill-opacity="1" /><path clip-path="url(#clip390)" d="M74.3473 1558.12 L74.3473 1573.27 L91.743 1577.65 L91.743 1562.39 L74.3473 1558.12 M44.712 1565.93 L66.3265 1571.35 L66.3265 1556.14 L44.712 1550.67 L44.712 1542.34 L66.3265 1547.7 L66.3265 1531.45 L74.3473 1531.45 L74.3473 1549.73 L91.743 1554 L91.743 1537.44 L99.7117 1537.44 L99.7117 1556.03 L121.274 1561.45 L121.274 1569.78 L99.7117 1564.42 L99.7117 1579.68 L121.274 1585.04 L121.274 1593.43 L99.7117 1588.01 L99.7117 1604.42 L91.743 1604.42 L91.743 1586.09 L74.3473 1581.71 L74.3473 1598.48 L66.3265 1598.48 L66.3265 1579.68 L44.712 1574.37 L44.712 1565.93 Z" fill="#000000" fill-rule="nonzero" fill-opacity="1" /><path clip-path="url(#clip390)" d="M69.6598 1456.71 Q69.6598 1464.42 75.7015 1468.9 Q81.691 1473.38 92.1597 1473.38 Q102.628 1473.38 108.67 1468.95 Q114.66 1464.47 114.66 1456.71 Q114.66 1449.05 108.618 1444.58 Q102.576 1440.1 92.1597 1440.1 Q81.7952 1440.1 75.7535 1444.58 Q69.6598 1449.05 69.6598 1456.71 M61.5349 1456.71 Q61.5349 1444.21 69.6598 1437.08 Q77.7848 1429.94 92.1597 1429.94 Q106.483 1429.94 114.66 1437.08 Q122.785 1444.21 122.785 1456.71 Q122.785 1469.26 114.66 1476.4 Q106.483 1483.48 92.1597 1483.48 Q77.7848 1483.48 69.6598 1476.4 Q61.5349 1469.26 61.5349 1456.71 Z" fill="#000000" fill-rule="nonzero" fill-opacity="1" /><path clip-path="url(#clip390)" d="M40.2329 1384.52 L48.2016 1384.52 L48.2016 1393.69 Q48.2016 1398.85 50.2849 1400.88 Q52.3682 1402.86 57.7849 1402.86 L62.9411 1402.86 L62.9411 1387.08 L70.389 1387.08 L70.389 1402.86 L121.274 1402.86 L121.274 1412.49 L70.389 1412.49 L70.389 1421.66 L62.9411 1421.66 L62.9411 1412.49 L58.8786 1412.49 Q49.1391 1412.49 44.712 1407.96 Q40.2329 1403.43 40.2329 1393.59 L40.2329 1384.52 Z" fill="#000000" fill-rule="nonzero" fill-opacity="1" /><path clip-path="url(#clip390)" d="M40.2329 1342.6 L40.2329 1333.01 L121.274 1333.01 L121.274 1342.6 L40.2329 1342.6 Z" fill="#000000" fill-rule="nonzero" fill-opacity="1" /><path clip-path="url(#clip390)" d="M62.9411 1312.96 L62.9411 1303.38 L121.274 1303.38 L121.274 1312.96 L62.9411 1312.96 M40.2329 1312.96 L40.2329 1303.38 L52.3682 1303.38 L52.3682 1312.96 L40.2329 1312.96 Z" fill="#000000" fill-rule="nonzero" fill-opacity="1" /><path clip-path="url(#clip390)" d="M86.066 1234.84 L121.274 1234.84 L121.274 1244.42 L86.3785 1244.42 Q78.0973 1244.42 73.9827 1247.65 Q69.8682 1250.88 69.8682 1257.34 Q69.8682 1265.1 74.816 1269.58 Q79.7639 1274.06 88.3056 1274.06 L121.274 1274.06 L121.274 1283.69 L62.9411 1283.69 L62.9411 1274.06 L72.0036 1274.06 Q66.7432 1270.62 64.139 1265.98 Q61.5349 1261.3 61.5349 1255.2 Q61.5349 1245.15 67.7848 1239.99 Q73.9827 1234.84 86.066 1234.84 Z" fill="#000000" fill-rule="nonzero" fill-opacity="1" /><path clip-path="url(#clip390)" d="M89.7118 1165.83 L94.3993 1165.83 L94.3993 1209.89 Q104.295 1209.26 109.503 1203.95 Q114.66 1198.59 114.66 1189.06 Q114.66 1183.54 113.305 1178.38 Q111.951 1173.17 109.243 1168.07 L118.305 1168.07 Q120.493 1173.22 121.639 1178.64 Q122.785 1184.06 122.785 1189.63 Q122.785 1203.59 114.66 1211.76 Q106.535 1219.89 92.6805 1219.89 Q78.3577 1219.89 69.9723 1212.18 Q61.5349 1204.42 61.5349 1191.3 Q61.5349 1179.52 69.139 1172.7 Q76.691 1165.83 89.7118 1165.83 M86.8993 1175.41 Q79.0348 1175.51 74.3473 1179.84 Q69.6598 1184.11 69.6598 1191.19 Q69.6598 1199.21 74.191 1204.06 Q78.7223 1208.85 86.9514 1209.58 L86.8993 1175.41 Z" fill="#000000" fill-rule="nonzero" fill-opacity="1" /><path clip-path="url(#clip390)" d="M64.6598 1112.91 L73.7223 1112.91 Q71.639 1116.97 70.5973 1121.35 Q69.5557 1125.72 69.5557 1130.41 Q69.5557 1137.55 71.7431 1141.14 Q73.9306 1144.68 78.3056 1144.68 Q81.6389 1144.68 83.566 1142.13 Q85.441 1139.58 87.1597 1131.87 L87.8889 1128.59 Q90.0764 1118.38 94.0868 1114.11 Q98.0451 1109.79 105.18 1109.79 Q113.305 1109.79 118.045 1116.24 Q122.785 1122.65 122.785 1133.9 Q122.785 1138.59 121.847 1143.69 Q120.962 1148.74 119.139 1154.37 L109.243 1154.37 Q112.003 1149.06 113.41 1143.9 Q114.764 1138.74 114.764 1133.69 Q114.764 1126.92 112.472 1123.28 Q110.128 1119.63 105.91 1119.63 Q102.003 1119.63 99.9201 1122.29 Q97.8368 1124.89 95.9097 1133.8 L95.1284 1137.13 Q93.2534 1146.04 89.3993 1149.99 Q85.4931 1153.95 78.7223 1153.95 Q70.4931 1153.95 66.014 1148.12 Q61.5349 1142.29 61.5349 1131.56 Q61.5349 1126.24 62.3161 1121.56 Q63.0974 1116.87 64.6598 1112.91 Z" fill="#000000" fill-rule="nonzero" fill-opacity="1" /><path clip-path="url(#clip390)" d="M40.3371 1096.04 L40.3371 1087.7 Q52.6287 1079.89 64.3994 1076.04 Q76.1702 1072.13 87.7847 1072.13 Q99.4513 1072.13 111.274 1076.04 Q123.097 1079.89 135.337 1087.7 L135.337 1096.04 Q123.41 1089.11 111.639 1085.72 Q99.8159 1082.29 87.7847 1082.29 Q75.7535 1082.29 64.0348 1085.72 Q52.3162 1089.11 40.3371 1096.04 Z" fill="#000000" fill-rule="nonzero" fill-opacity="1" /><path clip-path="url(#clip392)" d="M702.534 2853.23 L702.534 3225.79 L1360.27 3225.79 L1360.27 2853.23 L702.534 2853.23 L702.534 2853.23  Z" fill="#440154" fill-rule="evenodd" fill-opacity="1"/>
<polyline clip-path="url(#clip392)" style="stroke:#000000; stroke-linecap:round; stroke-linejoin:round; stroke-width:4; stroke-opacity:1; fill:none" points="702.534,2853.23 702.534,3225.79 1360.27,3225.79 1360.27,2853.23 702.534,2853.23 "/>
<circle clip-path="url(#clip392)" style="fill:#440154; stroke:none; fill-opacity:0" cx="1031.4" cy="2853.23" r="2"/>
<path clip-path="url(#clip392)" d="M1873.31 1037.03 L1873.31 3225.79 L2531.04 3225.79 L2531.04 1037.03 L1873.31 1037.03 L1873.31 1037.03  Z" fill="#3a518b" fill-rule="evenodd" fill-opacity="1"/>
<polyline clip-path="url(#clip392)" style="stroke:#000000; stroke-linecap:round; stroke-linejoin:round; stroke-width:4; stroke-opacity:1; fill:none" points="1873.31,1037.03 1873.31,3225.79 2531.04,3225.79 2531.04,1037.03 1873.31,1037.03 "/>
<circle clip-path="url(#clip392)" style="fill:#3a518b; stroke:none; fill-opacity:0" cx="2202.18" cy="1037.03" r="2"/>
<path clip-path="url(#clip392)" d="M3044.08 175.496 L3044.08 3225.79 L3701.82 3225.79 L3701.82 175.496 L3044.08 175.496 L3044.08 175.496  Z" fill="#20908c" fill-rule="evenodd" fill-opacity="1"/>
<polyline clip-path="url(#clip392)" style="stroke:#000000; stroke-linecap:round; stroke-linejoin:round; stroke-width:4; stroke-opacity:1; fill:none" points="3044.08,175.496 3044.08,3225.79 3701.82,3225.79 3701.82,175.496 3044.08,175.496 "/>
<circle clip-path="url(#clip392)" style="fill:#20908c; stroke:none; fill-opacity:0" cx="3372.95" cy="175.496" r="2"/>
<path clip-path="url(#clip392)" d="M4214.85 850.752 L4214.85 3225.79 L4872.59 3225.79 L4872.59 850.752 L4214.85 850.752 L4214.85 850.752  Z" fill="#5cc862" fill-rule="evenodd" fill-opacity="1"/>
<polyline clip-path="url(#clip392)" style="stroke:#000000; stroke-linecap:round; stroke-linejoin:round; stroke-width:4; stroke-opacity:1; fill:none" points="4214.85,850.752 4214.85,3225.79 4872.59,3225.79 4872.59,850.752 4214.85,850.752 "/>
<circle clip-path="url(#clip392)" style="fill:#5cc862; stroke:none; fill-opacity:0" cx="4543.72" cy="850.752" r="2"/>
<path clip-path="url(#clip392)" d="M5385.63 1200.02 L5385.63 3225.79 L6043.36 3225.79 L6043.36 1200.02 L5385.63 1200.02 L5385.63 1200.02  Z" fill="#fde724" fill-rule="evenodd" fill-opacity="1"/>
<polyline clip-path="url(#clip392)" style="stroke:#000000; stroke-linecap:round; stroke-linejoin:round; stroke-width:4; stroke-opacity:1; fill:none" points="5385.63,1200.02 5385.63,3225.79 6043.36,3225.79 6043.36,1200.02 5385.63,1200.02 "/>
<circle clip-path="url(#clip392)" style="fill:#fde724; stroke:none; fill-opacity:0" cx="5714.49" cy="1200.02" r="2"/>
</svg>
