<?xml version="1.0" encoding="utf-8"?>
<svg xmlns="http://www.w3.org/2000/svg" xmlns:xlink="http://www.w3.org/1999/xlink" width="1600" height="900" viewBox="0 0 6400 3600">
<defs>
  <clipPath id="clip410">
    <rect x="0" y="0" width="6400" height="3600"/>
  </clipPath>
</defs>
<path clip-path="url(#clip410)" d="M0 3600 L6400 3600 L6400 0 L0 0  Z" fill="#ffffff" fill-rule="evenodd" fill-opacity="1"/>
<defs>
  <clipPath id="clip411">
    <rect x="1280" y="0" width="4481" height="3600"/>
  </clipPath>
</defs>
<path clip-path="url(#clip410)" d="M315.689 3435.4 L6352.76 3435.4 L6352.76 47.2441 L315.689 47.2441  Z" fill="#ffffff" fill-rule="evenodd" fill-opacity="1"/>
<defs>
  <clipPath id="clip412">
    <rect x="315" y="47" width="6038" height="3389"/>
  </clipPath>
</defs>
<polyline clip-path="url(#clip412)" style="stroke:#000000; stroke-linecap:round; stroke-linejoin:round; stroke-width:2; stroke-opacity:0.1; fill:none" points="842.509,3435.4 842.509,47.2441 "/>
<polyline clip-path="url(#clip412)" style="stroke:#000000; stroke-linecap:round; stroke-linejoin:round; stroke-width:2; stroke-opacity:0.1; fill:none" points="2088.37,3435.4 2088.37,47.2441 "/>
<polyline clip-path="url(#clip412)" style="stroke:#000000; stroke-linecap:round; stroke-linejoin:round; stroke-width:2; stroke-opacity:0.1; fill:none" points="3334.22,3435.4 3334.22,47.2441 "/>
<polyline clip-path="url(#clip412)" style="stroke:#000000; stroke-linecap:round; stroke-linejoin:round; stroke-width:2; stroke-opacity:0.1; fill:none" points="4580.08,3435.4 4580.08,47.2441 "/>
<polyline clip-path="url(#clip412)" style="stroke:#000000; stroke-linecap:round; stroke-linejoin:round; stroke-width:2; stroke-opacity:0.1; fill:none" points="5825.94,3435.4 5825.94,47.2441 "/>
<polyline clip-path="url(#clip412)" style="stroke:#000000; stroke-linecap:round; stroke-linejoin:round; stroke-width:2; stroke-opacity:0.1; fill:none" points="315.689,3411.7 6352.76,3411.7 "/>
<polyline clip-path="url(#clip412)" style="stroke:#000000; stroke-linecap:round; stroke-linejoin:round; stroke-width:2; stroke-opacity:0.1; fill:none" points="315.689,2820.74 6352.76,2820.74 "/>
<polyline clip-path="url(#clip412)" style="stroke:#000000; stroke-linecap:round; stroke-linejoin:round; stroke-width:2; stroke-opacity:0.1; fill:none" points="315.689,2229.78 6352.76,2229.78 "/>
<polyline clip-path="url(#clip412)" style="stroke:#000000; stroke-linecap:round; stroke-linejoin:round; stroke-width:2; stroke-opacity:0.1; fill:none" points="315.689,1638.82 6352.76,1638.82 "/>
<polyline clip-path="url(#clip412)" style="stroke:#000000; stroke-linecap:round; stroke-linejoin:round; stroke-width:2; stroke-opacity:0.1; fill:none" points="315.689,1047.85 6352.76,1047.85 "/>
<polyline clip-path="url(#clip412)" style="stroke:#000000; stroke-linecap:round; stroke-linejoin:round; stroke-width:2; stroke-opacity:0.1; fill:none" points="315.689,456.893 6352.76,456.893 "/>
<polyline clip-path="url(#clip410)" style="stroke:#000000; stroke-linecap:round; stroke-linejoin:round; stroke-width:4; stroke-opacity:1; fill:none" points="315.689,3435.4 6352.76,3435.4 "/>
<polyline clip-path="url(#clip410)" style="stroke:#000000; stroke-linecap:round; stroke-linejoin:round; stroke-width:4; stroke-opacity:1; fill:none" points="842.509,3435.4 842.509,3416.5 "/>
<polyline clip-path="url(#clip410)" style="stroke:#000000; stroke-linecap:round; stroke-linejoin:round; stroke-width:4; stroke-opacity:1; fill:none" points="2088.37,3435.4 2088.37,3416.5 "/>
<polyline clip-path="url(#clip410)" style="stroke:#000000; stroke-linecap:round; stroke-linejoin:round; stroke-width:4; stroke-opacity:1; fill:none" points="3334.22,3435.4 3334.22,3416.5 "/>
<polyline clip-path="url(#clip410)" style="stroke:#000000; stroke-linecap:round; stroke-linejoin:round; stroke-width:4; stroke-opacity:1; fill:none" points="4580.08,3435.4 4580.08,3416.5 "/>
<polyline clip-path="url(#clip410)" style="stroke:#000000; stroke-linecap:round; stroke-linejoin:round; stroke-width:4; stroke-opacity:1; fill:none" points="5825.94,3435.4 5825.94,3416.5 "/>
<path clip-path="url(#clip410)" d="M617.354 3554.48 Q605.739 3554.48 601.26 3557.13 Q596.781 3559.79 596.781 3566.19 Q596.781 3571.3 600.114 3574.32 Q603.499 3577.29 609.281 3577.29 Q617.249 3577.29 622.041 3571.66 Q626.885 3565.99 626.885 3556.61 L626.885 3554.48 L617.354 3554.48 M636.468 3550.52 L636.468 3583.8 L626.885 3583.8 L626.885 3574.94 Q623.603 3580.26 618.708 3582.81 Q613.812 3585.31 606.729 3585.31 Q597.77 3585.31 592.458 3580.31 Q587.197 3575.26 587.197 3566.82 Q587.197 3556.98 593.76 3551.98 Q600.374 3546.98 613.447 3546.98 L626.885 3546.98 L626.885 3546.04 Q626.885 3539.42 622.51 3535.83 Q618.187 3532.18 610.322 3532.18 Q605.322 3532.18 600.583 3533.38 Q595.843 3534.58 591.468 3536.98 L591.468 3528.12 Q596.729 3526.09 601.677 3525.1 Q606.624 3524.06 611.312 3524.06 Q623.968 3524.06 630.218 3530.62 Q636.468 3537.18 636.468 3550.52 Z" fill="#000000" fill-rule="nonzero" fill-opacity="1" /><path clip-path="url(#clip410)" d="M690.009 3534.42 Q688.395 3533.49 686.468 3533.07 Q684.593 3532.6 682.301 3532.6 Q674.176 3532.6 669.801 3537.91 Q665.478 3543.17 665.478 3553.07 L665.478 3583.8 L655.843 3583.8 L655.843 3525.46 L665.478 3525.46 L665.478 3534.53 Q668.499 3529.21 673.343 3526.66 Q678.187 3524.06 685.114 3524.06 Q686.103 3524.06 687.301 3524.21 Q688.499 3524.32 689.957 3524.58 L690.009 3534.42 Z" fill="#000000" fill-rule="nonzero" fill-opacity="1" /><path clip-path="url(#clip410)" d="M736.572 3553.95 Q736.572 3543.54 732.249 3537.81 Q727.978 3532.08 720.218 3532.08 Q712.509 3532.08 708.186 3537.81 Q703.916 3543.54 703.916 3553.95 Q703.916 3564.32 708.186 3570.05 Q712.509 3575.78 720.218 3575.78 Q727.978 3575.78 732.249 3570.05 Q736.572 3564.32 736.572 3553.95 M746.155 3576.56 Q746.155 3591.45 739.54 3598.69 Q732.926 3605.99 719.28 3605.99 Q714.228 3605.99 709.749 3605.2 Q705.27 3604.47 701.051 3602.91 L701.051 3593.59 Q705.27 3595.88 709.384 3596.97 Q713.499 3598.07 717.77 3598.07 Q727.197 3598.07 731.884 3593.12 Q736.572 3588.22 736.572 3578.28 L736.572 3573.54 Q733.603 3578.69 728.967 3581.25 Q724.332 3583.8 717.874 3583.8 Q707.145 3583.8 700.582 3575.62 Q694.02 3567.44 694.02 3553.95 Q694.02 3540.41 700.582 3532.24 Q707.145 3524.06 717.874 3524.06 Q724.332 3524.06 728.967 3526.61 Q733.603 3529.16 736.572 3534.32 L736.572 3525.46 L746.155 3525.46 L746.155 3576.56 Z" fill="#000000" fill-rule="nonzero" fill-opacity="1" /><path clip-path="url(#clip410)" d="M775.165 3575.05 L775.165 3605.99 L765.53 3605.99 L765.53 3525.46 L775.165 3525.46 L775.165 3534.32 Q778.186 3529.11 782.769 3526.61 Q787.405 3524.06 793.811 3524.06 Q804.436 3524.06 811.05 3532.5 Q817.717 3540.93 817.717 3554.68 Q817.717 3568.43 811.05 3576.87 Q804.436 3585.31 793.811 3585.31 Q787.405 3585.31 782.769 3582.81 Q778.186 3580.26 775.165 3575.05 M807.769 3554.68 Q807.769 3544.11 803.394 3538.12 Q799.071 3532.08 791.467 3532.08 Q783.863 3532.08 779.488 3538.12 Q775.165 3544.11 775.165 3554.68 Q775.165 3565.26 779.488 3571.3 Q783.863 3577.29 791.467 3577.29 Q799.071 3577.29 803.394 3571.3 Q807.769 3565.26 807.769 3554.68 Z" fill="#000000" fill-rule="nonzero" fill-opacity="1" /><path clip-path="url(#clip410)" d="M860.113 3554.48 Q848.498 3554.48 844.019 3557.13 Q839.54 3559.79 839.54 3566.19 Q839.54 3571.3 842.873 3574.32 Q846.259 3577.29 852.04 3577.29 Q860.008 3577.29 864.8 3571.66 Q869.644 3565.99 869.644 3556.61 L869.644 3554.48 L860.113 3554.48 M879.227 3550.52 L879.227 3583.8 L869.644 3583.8 L869.644 3574.94 Q866.363 3580.26 861.467 3582.81 Q856.571 3585.31 849.488 3585.31 Q840.529 3585.31 835.217 3580.31 Q829.957 3575.26 829.957 3566.82 Q829.957 3556.98 836.519 3551.98 Q843.134 3546.98 856.206 3546.98 L869.644 3546.98 L869.644 3546.04 Q869.644 3539.42 865.269 3535.83 Q860.946 3532.18 853.081 3532.18 Q848.081 3532.18 843.342 3533.38 Q838.602 3534.58 834.227 3536.98 L834.227 3528.12 Q839.488 3526.09 844.436 3525.1 Q849.384 3524.06 854.071 3524.06 Q866.727 3524.06 872.977 3530.62 Q879.227 3537.18 879.227 3550.52 Z" fill="#000000" fill-rule="nonzero" fill-opacity="1" /><path clip-path="url(#clip410)" d="M932.768 3534.42 Q931.154 3533.49 929.227 3533.07 Q927.352 3532.6 925.06 3532.6 Q916.935 3532.6 912.56 3537.91 Q908.237 3543.17 908.237 3553.07 L908.237 3583.8 L898.602 3583.8 L898.602 3525.46 L908.237 3525.46 L908.237 3534.53 Q911.258 3529.21 916.102 3526.66 Q920.946 3524.06 927.873 3524.06 Q928.862 3524.06 930.06 3524.21 Q931.258 3524.32 932.716 3524.58 L932.768 3534.42 Z" fill="#000000" fill-rule="nonzero" fill-opacity="1" /><path clip-path="url(#clip410)" d="M980.008 3527.18 L980.008 3536.25 Q975.945 3534.16 971.57 3533.12 Q967.195 3532.08 962.508 3532.08 Q955.373 3532.08 951.779 3534.27 Q948.237 3536.45 948.237 3540.83 Q948.237 3544.16 950.789 3546.09 Q953.341 3547.96 961.05 3549.68 L964.331 3550.41 Q974.539 3552.6 978.81 3556.61 Q983.133 3560.57 983.133 3567.7 Q983.133 3575.83 976.674 3580.57 Q970.268 3585.31 959.018 3585.31 Q954.331 3585.31 949.227 3584.37 Q944.175 3583.49 938.55 3581.66 L938.55 3571.77 Q943.862 3574.53 949.018 3575.93 Q954.175 3577.29 959.227 3577.29 Q965.997 3577.29 969.643 3575 Q973.289 3572.65 973.289 3568.43 Q973.289 3564.53 970.633 3562.44 Q968.029 3560.36 959.123 3558.43 L955.789 3557.65 Q946.883 3555.78 942.925 3551.92 Q938.966 3548.02 938.966 3541.25 Q938.966 3533.02 944.8 3528.54 Q950.633 3524.06 961.362 3524.06 Q966.675 3524.06 971.362 3524.84 Q976.049 3525.62 980.008 3527.18 Z" fill="#000000" fill-rule="nonzero" fill-opacity="1" /><path clip-path="url(#clip410)" d="M1048.29 3552.24 L1048.29 3556.92 L1004.23 3556.92 Q1004.85 3566.82 1010.16 3572.03 Q1015.53 3577.18 1025.06 3577.18 Q1030.58 3577.18 1035.74 3575.83 Q1040.94 3574.48 1046.05 3571.77 L1046.05 3580.83 Q1040.89 3583.02 1035.48 3584.16 Q1030.06 3585.31 1024.49 3585.31 Q1010.53 3585.31 1002.35 3577.18 Q994.226 3569.06 994.226 3555.2 Q994.226 3540.88 1001.93 3532.5 Q1009.7 3524.06 1022.82 3524.06 Q1034.59 3524.06 1041.41 3531.66 Q1048.29 3539.21 1048.29 3552.24 M1038.71 3549.42 Q1038.6 3541.56 1034.28 3536.87 Q1030.01 3532.18 1022.92 3532.18 Q1014.9 3532.18 1010.06 3536.71 Q1005.27 3541.25 1004.54 3549.48 L1038.71 3549.42 Z" fill="#000000" fill-rule="nonzero" fill-opacity="1" /><path clip-path="url(#clip410)" d="M1097.82 3534.42 Q1096.21 3533.49 1094.28 3533.07 Q1092.4 3532.6 1090.11 3532.6 Q1081.99 3532.6 1077.61 3537.91 Q1073.29 3543.17 1073.29 3553.07 L1073.29 3583.8 L1063.65 3583.8 L1063.65 3525.46 L1073.29 3525.46 L1073.29 3534.53 Q1076.31 3529.21 1081.15 3526.66 Q1086 3524.06 1092.92 3524.06 Q1093.91 3524.06 1095.11 3524.21 Q1096.31 3524.32 1097.77 3524.58 L1097.82 3534.42 Z" fill="#000000" fill-rule="nonzero" fill-opacity="1" /><path clip-path="url(#clip410)" d="M1925.48 3534.32 L1925.48 3502.76 L1935.06 3502.76 L1935.06 3583.8 L1925.48 3583.8 L1925.48 3575.05 Q1922.45 3580.26 1917.82 3582.81 Q1913.24 3585.31 1906.78 3585.31 Q1896.21 3585.31 1889.54 3576.87 Q1882.92 3568.43 1882.92 3554.68 Q1882.92 3540.93 1889.54 3532.5 Q1896.21 3524.06 1906.78 3524.06 Q1913.24 3524.06 1917.82 3526.61 Q1922.45 3529.11 1925.48 3534.32 M1892.82 3554.68 Q1892.82 3565.26 1897.14 3571.3 Q1901.52 3577.29 1909.12 3577.29 Q1916.73 3577.29 1921.1 3571.3 Q1925.48 3565.26 1925.48 3554.68 Q1925.48 3544.11 1921.1 3538.12 Q1916.73 3532.08 1909.12 3532.08 Q1901.52 3532.08 1897.14 3538.12 Q1892.82 3544.11 1892.82 3554.68 Z" fill="#000000" fill-rule="nonzero" fill-opacity="1" /><path clip-path="url(#clip410)" d="M1977.4 3532.18 Q1969.69 3532.18 1965.22 3538.23 Q1960.74 3544.21 1960.74 3554.68 Q1960.74 3565.15 1965.16 3571.19 Q1969.64 3577.18 1977.4 3577.18 Q1985.06 3577.18 1989.54 3571.14 Q1994.02 3565.1 1994.02 3554.68 Q1994.02 3544.32 1989.54 3538.28 Q1985.06 3532.18 1977.4 3532.18 M1977.4 3524.06 Q1989.9 3524.06 1997.04 3532.18 Q2004.17 3540.31 2004.17 3554.68 Q2004.17 3569.01 1997.04 3577.18 Q1989.9 3585.31 1977.4 3585.31 Q1964.85 3585.31 1957.72 3577.18 Q1950.63 3569.01 1950.63 3554.68 Q1950.63 3540.31 1957.72 3532.18 Q1964.85 3524.06 1977.4 3524.06 Z" fill="#000000" fill-rule="nonzero" fill-opacity="1" /><path clip-path="url(#clip410)" d="M2062.04 3527.7 L2062.04 3536.66 Q2057.98 3534.42 2053.86 3533.33 Q2049.8 3532.18 2045.63 3532.18 Q2036.31 3532.18 2031.15 3538.12 Q2026 3544.01 2026 3554.68 Q2026 3565.36 2031.15 3571.3 Q2036.31 3577.18 2045.63 3577.18 Q2049.8 3577.18 2053.86 3576.09 Q2057.98 3574.94 2062.04 3572.7 L2062.04 3581.56 Q2058.03 3583.43 2053.7 3584.37 Q2049.43 3585.31 2044.59 3585.31 Q2031.41 3585.31 2023.65 3577.03 Q2015.89 3568.75 2015.89 3554.68 Q2015.89 3540.41 2023.7 3532.24 Q2031.57 3524.06 2045.21 3524.06 Q2049.64 3524.06 2053.86 3525 Q2058.08 3525.88 2062.04 3527.7 Z" fill="#000000" fill-rule="nonzero" fill-opacity="1" /><path clip-path="url(#clip410)" d="M2101.31 3532.18 Q2093.6 3532.18 2089.12 3538.23 Q2084.64 3544.21 2084.64 3554.68 Q2084.64 3565.15 2089.07 3571.19 Q2093.55 3577.18 2101.31 3577.18 Q2108.96 3577.18 2113.44 3571.14 Q2117.92 3565.1 2117.92 3554.68 Q2117.92 3544.32 2113.44 3538.28 Q2108.96 3532.18 2101.31 3532.18 M2101.31 3524.06 Q2113.81 3524.06 2120.94 3532.18 Q2128.08 3540.31 2128.08 3554.68 Q2128.08 3569.01 2120.94 3577.18 Q2113.81 3585.31 2101.31 3585.31 Q2088.76 3585.31 2081.62 3577.18 Q2074.54 3569.01 2074.54 3554.68 Q2074.54 3540.31 2081.62 3532.18 Q2088.76 3524.06 2101.31 3524.06 Z" fill="#000000" fill-rule="nonzero" fill-opacity="1" /><path clip-path="url(#clip410)" d="M2153.23 3575.05 L2153.23 3605.99 L2143.6 3605.99 L2143.6 3525.46 L2153.23 3525.46 L2153.23 3534.32 Q2156.26 3529.11 2160.84 3526.61 Q2165.47 3524.06 2171.88 3524.06 Q2182.51 3524.06 2189.12 3532.5 Q2195.79 3540.93 2195.79 3554.68 Q2195.79 3568.43 2189.12 3576.87 Q2182.51 3585.31 2171.88 3585.31 Q2165.47 3585.31 2160.84 3582.81 Q2156.26 3580.26 2153.23 3575.05 M2185.84 3554.68 Q2185.84 3544.11 2181.46 3538.12 Q2177.14 3532.08 2169.54 3532.08 Q2161.93 3532.08 2157.56 3538.12 Q2153.23 3544.11 2153.23 3554.68 Q2153.23 3565.26 2157.56 3571.3 Q2161.93 3577.29 2169.54 3577.29 Q2177.14 3577.29 2181.46 3571.3 Q2185.84 3565.26 2185.84 3554.68 Z" fill="#000000" fill-rule="nonzero" fill-opacity="1" /><path clip-path="url(#clip410)" d="M2221.15 3508.9 L2221.15 3525.46 L2240.89 3525.46 L2240.89 3532.91 L2221.15 3532.91 L2221.15 3564.58 Q2221.15 3571.71 2223.08 3573.75 Q2225.06 3575.78 2231.05 3575.78 L2240.89 3575.78 L2240.89 3583.8 L2231.05 3583.8 Q2219.95 3583.8 2215.73 3579.68 Q2211.52 3575.52 2211.52 3564.58 L2211.52 3532.91 L2204.48 3532.91 L2204.48 3525.46 L2211.52 3525.46 L2211.52 3508.9 L2221.15 3508.9 Z" fill="#000000" fill-rule="nonzero" fill-opacity="1" /><path clip-path="url(#clip410)" d="M2290.68 3527.18 L2290.68 3536.25 Q2286.62 3534.16 2282.24 3533.12 Q2277.87 3532.08 2273.18 3532.08 Q2266.05 3532.08 2262.45 3534.27 Q2258.91 3536.45 2258.91 3540.83 Q2258.91 3544.16 2261.46 3546.09 Q2264.02 3547.96 2271.72 3549.68 L2275.01 3550.41 Q2285.21 3552.6 2289.48 3556.61 Q2293.81 3560.57 2293.81 3567.7 Q2293.81 3575.83 2287.35 3580.57 Q2280.94 3585.31 2269.69 3585.31 Q2265.01 3585.31 2259.9 3584.37 Q2254.85 3583.49 2249.22 3581.66 L2249.22 3571.77 Q2254.54 3574.53 2259.69 3575.93 Q2264.85 3577.29 2269.9 3577.29 Q2276.67 3577.29 2280.32 3575 Q2283.96 3572.65 2283.96 3568.43 Q2283.96 3564.53 2281.31 3562.44 Q2278.7 3560.36 2269.8 3558.43 L2266.46 3557.65 Q2257.56 3555.78 2253.6 3551.92 Q2249.64 3548.02 2249.64 3541.25 Q2249.64 3533.02 2255.47 3528.54 Q2261.31 3524.06 2272.04 3524.06 Q2277.35 3524.06 2282.04 3524.84 Q2286.72 3525.62 2290.68 3527.18 Z" fill="#000000" fill-rule="nonzero" fill-opacity="1" /><path clip-path="url(#clip410)" d="M3206.02 3553.95 Q3206.02 3543.54 3201.7 3537.81 Q3197.43 3532.08 3189.67 3532.08 Q3181.96 3532.08 3177.63 3537.81 Q3173.36 3543.54 3173.36 3553.95 Q3173.36 3564.32 3177.63 3570.05 Q3181.96 3575.78 3189.67 3575.78 Q3197.43 3575.78 3201.7 3570.05 Q3206.02 3564.32 3206.02 3553.95 M3215.6 3576.56 Q3215.6 3591.45 3208.99 3598.69 Q3202.37 3605.99 3188.73 3605.99 Q3183.68 3605.99 3179.2 3605.2 Q3174.72 3604.47 3170.5 3602.91 L3170.5 3593.59 Q3174.72 3595.88 3178.83 3596.97 Q3182.95 3598.07 3187.22 3598.07 Q3196.65 3598.07 3201.33 3593.12 Q3206.02 3588.22 3206.02 3578.28 L3206.02 3573.54 Q3203.05 3578.69 3198.42 3581.25 Q3193.78 3583.8 3187.32 3583.8 Q3176.59 3583.8 3170.03 3575.62 Q3163.47 3567.44 3163.47 3553.95 Q3163.47 3540.41 3170.03 3532.24 Q3176.59 3524.06 3187.32 3524.06 Q3193.78 3524.06 3198.42 3526.61 Q3203.05 3529.16 3206.02 3534.32 L3206.02 3525.46 L3215.6 3525.46 L3215.6 3576.56 Z" fill="#000000" fill-rule="nonzero" fill-opacity="1" /><path clip-path="url(#clip410)" d="M3285.24 3552.24 L3285.24 3556.92 L3241.18 3556.92 Q3241.8 3566.82 3247.11 3572.03 Q3252.48 3577.18 3262.01 3577.18 Q3267.53 3577.18 3272.69 3575.83 Q3277.89 3574.48 3283 3571.77 L3283 3580.83 Q3277.84 3583.02 3272.43 3584.16 Q3267.01 3585.31 3261.44 3585.31 Q3247.48 3585.31 3239.3 3577.18 Q3231.18 3569.06 3231.18 3555.2 Q3231.18 3540.88 3238.88 3532.5 Q3246.64 3524.06 3259.77 3524.06 Q3271.54 3524.06 3278.36 3531.66 Q3285.24 3539.21 3285.24 3552.24 M3275.66 3549.42 Q3275.55 3541.56 3271.23 3536.87 Q3266.96 3532.18 3259.87 3532.18 Q3251.85 3532.18 3247.01 3536.71 Q3242.22 3541.25 3241.49 3549.48 L3275.66 3549.42 Z" fill="#000000" fill-rule="nonzero" fill-opacity="1" /><path clip-path="url(#clip410)" d="M3310.45 3508.9 L3310.45 3525.46 L3330.19 3525.46 L3330.19 3532.91 L3310.45 3532.91 L3310.45 3564.58 Q3310.45 3571.71 3312.37 3573.75 Q3314.35 3575.78 3320.34 3575.78 L3330.19 3575.78 L3330.19 3583.8 L3320.34 3583.8 Q3309.25 3583.8 3305.03 3579.68 Q3300.81 3575.52 3300.81 3564.58 L3300.81 3532.91 L3293.78 3532.91 L3293.78 3525.46 L3300.81 3525.46 L3300.81 3508.9 L3310.45 3508.9 Z" fill="#000000" fill-rule="nonzero" fill-opacity="1" /><path clip-path="url(#clip410)" d="M3365.39 3532.18 Q3357.69 3532.18 3353.21 3538.23 Q3348.73 3544.21 3348.73 3554.68 Q3348.73 3565.15 3353.15 3571.19 Q3357.63 3577.18 3365.39 3577.18 Q3373.05 3577.18 3377.53 3571.14 Q3382.01 3565.1 3382.01 3554.68 Q3382.01 3544.32 3377.53 3538.28 Q3373.05 3532.18 3365.39 3532.18 M3365.39 3524.06 Q3377.89 3524.06 3385.03 3532.18 Q3392.16 3540.31 3392.16 3554.68 Q3392.16 3569.01 3385.03 3577.18 Q3377.89 3585.31 3365.39 3585.31 Q3352.84 3585.31 3345.71 3577.18 Q3338.62 3569.01 3338.62 3554.68 Q3338.62 3540.31 3345.71 3532.18 Q3352.84 3524.06 3365.39 3524.06 Z" fill="#000000" fill-rule="nonzero" fill-opacity="1" /><path clip-path="url(#clip410)" d="M3417.32 3575.05 L3417.32 3605.99 L3407.69 3605.99 L3407.69 3525.46 L3417.32 3525.46 L3417.32 3534.32 Q3420.34 3529.11 3424.93 3526.61 Q3429.56 3524.06 3435.97 3524.06 Q3446.59 3524.06 3453.21 3532.5 Q3459.87 3540.93 3459.87 3554.68 Q3459.87 3568.43 3453.21 3576.87 Q3446.59 3585.31 3435.97 3585.31 Q3429.56 3585.31 3424.93 3582.81 Q3420.34 3580.26 3417.32 3575.05 M3449.92 3554.68 Q3449.92 3544.11 3445.55 3538.12 Q3441.23 3532.08 3433.62 3532.08 Q3426.02 3532.08 3421.64 3538.12 Q3417.32 3544.11 3417.32 3554.68 Q3417.32 3565.26 3421.64 3571.3 Q3426.02 3577.29 3433.62 3577.29 Q3441.23 3577.29 3445.55 3571.3 Q3449.92 3565.26 3449.92 3554.68 Z" fill="#000000" fill-rule="nonzero" fill-opacity="1" /><path clip-path="url(#clip410)" d="M3485.24 3508.9 L3485.24 3525.46 L3504.98 3525.46 L3504.98 3532.91 L3485.24 3532.91 L3485.24 3564.58 Q3485.24 3571.71 3487.16 3573.75 Q3489.14 3575.78 3495.13 3575.78 L3504.98 3575.78 L3504.98 3583.8 L3495.13 3583.8 Q3484.04 3583.8 3479.82 3579.68 Q3475.6 3575.52 3475.6 3564.58 L3475.6 3532.91 L3468.57 3532.91 L3468.57 3525.46 L3475.6 3525.46 L3475.6 3508.9 L3485.24 3508.9 Z" fill="#000000" fill-rule="nonzero" fill-opacity="1" /><path clip-path="url(#clip410)" d="M4425.42 3553.95 Q4425.42 3543.54 4421.1 3537.81 Q4416.83 3532.08 4409.06 3532.08 Q4401.36 3532.08 4397.03 3537.81 Q4392.76 3543.54 4392.76 3553.95 Q4392.76 3564.32 4397.03 3570.05 Q4401.36 3575.78 4409.06 3575.78 Q4416.83 3575.78 4421.1 3570.05 Q4425.42 3564.32 4425.42 3553.95 M4435 3576.56 Q4435 3591.45 4428.39 3598.69 Q4421.77 3605.99 4408.13 3605.99 Q4403.08 3605.99 4398.6 3605.2 Q4394.12 3604.47 4389.9 3602.91 L4389.9 3593.59 Q4394.12 3595.88 4398.23 3596.97 Q4402.35 3598.07 4406.62 3598.07 Q4416.04 3598.07 4420.73 3593.12 Q4425.42 3588.22 4425.42 3578.28 L4425.42 3573.54 Q4422.45 3578.69 4417.81 3581.25 Q4413.18 3583.8 4406.72 3583.8 Q4395.99 3583.8 4389.43 3575.62 Q4382.87 3567.44 4382.87 3553.95 Q4382.87 3540.41 4389.43 3532.24 Q4395.99 3524.06 4406.72 3524.06 Q4413.18 3524.06 4417.81 3526.61 Q4422.45 3529.16 4425.42 3534.32 L4425.42 3525.46 L4435 3525.46 L4435 3576.56 Z" fill="#000000" fill-rule="nonzero" fill-opacity="1" /><path clip-path="url(#clip410)" d="M4504.64 3552.24 L4504.64 3556.92 L4460.57 3556.92 Q4461.2 3566.82 4466.51 3572.03 Q4471.88 3577.18 4481.41 3577.18 Q4486.93 3577.18 4492.09 3575.83 Q4497.29 3574.48 4502.4 3571.77 L4502.4 3580.83 Q4497.24 3583.02 4491.82 3584.16 Q4486.41 3585.31 4480.84 3585.31 Q4466.88 3585.31 4458.7 3577.18 Q4450.57 3569.06 4450.57 3555.2 Q4450.57 3540.88 4458.28 3532.5 Q4466.04 3524.06 4479.17 3524.06 Q4490.94 3524.06 4497.76 3531.66 Q4504.64 3539.21 4504.64 3552.24 M4495.05 3549.42 Q4494.95 3541.56 4490.63 3536.87 Q4486.36 3532.18 4479.27 3532.18 Q4471.25 3532.18 4466.41 3536.71 Q4461.62 3541.25 4460.89 3549.48 L4495.05 3549.42 Z" fill="#000000" fill-rule="nonzero" fill-opacity="1" /><path clip-path="url(#clip410)" d="M4529.85 3508.9 L4529.85 3525.46 L4549.58 3525.46 L4549.58 3532.91 L4529.85 3532.91 L4529.85 3564.58 Q4529.85 3571.71 4531.77 3573.75 Q4533.75 3575.78 4539.74 3575.78 L4549.58 3575.78 L4549.58 3583.8 L4539.74 3583.8 Q4528.65 3583.8 4524.43 3579.68 Q4520.21 3575.52 4520.21 3564.58 L4520.21 3532.91 L4513.18 3532.91 L4513.18 3525.46 L4520.21 3525.46 L4520.21 3508.9 L4529.85 3508.9 Z" fill="#000000" fill-rule="nonzero" fill-opacity="1" /><path clip-path="url(#clip410)" d="M4584.79 3532.18 Q4577.08 3532.18 4572.61 3538.23 Q4568.13 3544.21 4568.13 3554.68 Q4568.13 3565.15 4572.55 3571.19 Q4577.03 3577.18 4584.79 3577.18 Q4592.45 3577.18 4596.93 3571.14 Q4601.41 3565.1 4601.41 3554.68 Q4601.41 3544.32 4596.93 3538.28 Q4592.45 3532.18 4584.79 3532.18 M4584.79 3524.06 Q4597.29 3524.06 4604.43 3532.18 Q4611.56 3540.31 4611.56 3554.68 Q4611.56 3569.01 4604.43 3577.18 Q4597.29 3585.31 4584.79 3585.31 Q4572.24 3585.31 4565.11 3577.18 Q4558.02 3569.01 4558.02 3554.68 Q4558.02 3540.31 4565.11 3532.18 Q4572.24 3524.06 4584.79 3524.06 Z" fill="#000000" fill-rule="nonzero" fill-opacity="1" /><path clip-path="url(#clip410)" d="M4636.72 3575.05 L4636.72 3605.99 L4627.08 3605.99 L4627.08 3525.46 L4636.72 3525.46 L4636.72 3534.32 Q4639.74 3529.11 4644.32 3526.61 Q4648.96 3524.06 4655.37 3524.06 Q4665.99 3524.06 4672.6 3532.5 Q4679.27 3540.93 4679.27 3554.68 Q4679.27 3568.43 4672.6 3576.87 Q4665.99 3585.31 4655.37 3585.31 Q4648.96 3585.31 4644.32 3582.81 Q4639.74 3580.26 4636.72 3575.05 M4669.32 3554.68 Q4669.32 3544.11 4664.95 3538.12 Q4660.63 3532.08 4653.02 3532.08 Q4645.42 3532.08 4641.04 3538.12 Q4636.72 3544.11 4636.72 3554.68 Q4636.72 3565.26 4641.04 3571.3 Q4645.42 3577.29 4653.02 3577.29 Q4660.63 3577.29 4664.95 3571.3 Q4669.32 3565.26 4669.32 3554.68 Z" fill="#000000" fill-rule="nonzero" fill-opacity="1" /><path clip-path="url(#clip410)" d="M4704.64 3508.9 L4704.64 3525.46 L4724.38 3525.46 L4724.38 3532.91 L4704.64 3532.91 L4704.64 3564.58 Q4704.64 3571.71 4706.56 3573.75 Q4708.54 3575.78 4714.53 3575.78 L4724.38 3575.78 L4724.38 3583.8 L4714.53 3583.8 Q4703.44 3583.8 4699.22 3579.68 Q4695 3575.52 4695 3564.58 L4695 3532.91 L4687.97 3532.91 L4687.97 3525.46 L4695 3525.46 L4695 3508.9 L4704.64 3508.9 Z" fill="#000000" fill-rule="nonzero" fill-opacity="1" /><path clip-path="url(#clip410)" d="M4774.17 3527.18 L4774.17 3536.25 Q4770.1 3534.16 4765.73 3533.12 Q4761.35 3532.08 4756.67 3532.08 Q4749.53 3532.08 4745.94 3534.27 Q4742.4 3536.45 4742.4 3540.83 Q4742.4 3544.16 4744.95 3546.09 Q4747.5 3547.96 4755.21 3549.68 L4758.49 3550.41 Q4768.7 3552.6 4772.97 3556.61 Q4777.29 3560.57 4777.29 3567.7 Q4777.29 3575.83 4770.83 3580.57 Q4764.43 3585.31 4753.18 3585.31 Q4748.49 3585.31 4743.39 3584.37 Q4738.33 3583.49 4732.71 3581.66 L4732.71 3571.77 Q4738.02 3574.53 4743.18 3575.93 Q4748.33 3577.29 4753.39 3577.29 Q4760.16 3577.29 4763.8 3575 Q4767.45 3572.65 4767.45 3568.43 Q4767.45 3564.53 4764.79 3562.44 Q4762.19 3560.36 4753.28 3558.43 L4749.95 3557.65 Q4741.04 3555.78 4737.08 3551.92 Q4733.13 3548.02 4733.13 3541.25 Q4733.13 3533.02 4738.96 3528.54 Q4744.79 3524.06 4755.52 3524.06 Q4760.83 3524.06 4765.52 3524.84 Q4770.21 3525.62 4774.17 3527.18 Z" fill="#000000" fill-rule="nonzero" fill-opacity="1" /><path clip-path="url(#clip410)" d="M5683.39 3527.18 L5683.39 3536.25 Q5679.32 3534.16 5674.95 3533.12 Q5670.57 3532.08 5665.89 3532.08 Q5658.75 3532.08 5655.16 3534.27 Q5651.61 3536.45 5651.61 3540.83 Q5651.61 3544.16 5654.17 3546.09 Q5656.72 3547.96 5664.43 3549.68 L5667.71 3550.41 Q5677.92 3552.6 5682.19 3556.61 Q5686.51 3560.57 5686.51 3567.7 Q5686.51 3575.83 5680.05 3580.57 Q5673.65 3585.31 5662.4 3585.31 Q5657.71 3585.31 5652.6 3584.37 Q5647.55 3583.49 5641.93 3581.66 L5641.93 3571.77 Q5647.24 3574.53 5652.4 3575.93 Q5657.55 3577.29 5662.6 3577.29 Q5669.37 3577.29 5673.02 3575 Q5676.67 3572.65 5676.67 3568.43 Q5676.67 3564.53 5674.01 3562.44 Q5671.41 3560.36 5662.5 3558.43 L5659.17 3557.65 Q5650.26 3555.78 5646.3 3551.92 Q5642.34 3548.02 5642.34 3541.25 Q5642.34 3533.02 5648.18 3528.54 Q5654.01 3524.06 5664.74 3524.06 Q5670.05 3524.06 5674.74 3524.84 Q5679.43 3525.62 5683.39 3527.18 Z" fill="#000000" fill-rule="nonzero" fill-opacity="1" /><path clip-path="url(#clip410)" d="M5750.26 3548.59 L5750.26 3583.8 L5740.68 3583.8 L5740.68 3548.9 Q5740.68 3540.62 5737.45 3536.51 Q5734.22 3532.39 5727.76 3532.39 Q5720 3532.39 5715.52 3537.34 Q5711.04 3542.29 5711.04 3550.83 L5711.04 3583.8 L5701.41 3583.8 L5701.41 3502.76 L5711.04 3502.76 L5711.04 3534.53 Q5714.48 3529.27 5719.11 3526.66 Q5723.8 3524.06 5729.9 3524.06 Q5739.95 3524.06 5745.1 3530.31 Q5750.26 3536.51 5750.26 3548.59 Z" fill="#000000" fill-rule="nonzero" fill-opacity="1" /><path clip-path="url(#clip410)" d="M5798.91 3502.76 L5798.91 3510.73 L5789.74 3510.73 Q5784.58 3510.73 5782.55 3512.81 Q5780.57 3514.89 5780.57 3520.31 L5780.57 3525.46 L5796.35 3525.46 L5796.35 3532.91 L5780.57 3532.91 L5780.57 3583.8 L5770.94 3583.8 L5770.94 3532.91 L5761.77 3532.91 L5761.77 3525.46 L5770.94 3525.46 L5770.94 3521.4 Q5770.94 3511.66 5775.47 3507.24 Q5780 3502.76 5789.84 3502.76 L5798.91 3502.76 Z" fill="#000000" fill-rule="nonzero" fill-opacity="1" /><path clip-path="url(#clip410)" d="M5806.93 3502.76 L5816.51 3502.76 L5816.51 3583.8 L5806.93 3583.8 L5806.93 3502.76 Z" fill="#000000" fill-rule="nonzero" fill-opacity="1" /><path clip-path="url(#clip410)" d="M5863.07 3554.48 Q5851.46 3554.48 5846.98 3557.13 Q5842.5 3559.79 5842.5 3566.19 Q5842.5 3571.3 5845.83 3574.32 Q5849.22 3577.29 5855 3577.29 Q5862.97 3577.29 5867.76 3571.66 Q5872.6 3565.99 5872.6 3556.61 L5872.6 3554.48 L5863.07 3554.48 M5882.19 3550.52 L5882.19 3583.8 L5872.6 3583.8 L5872.6 3574.94 Q5869.32 3580.26 5864.43 3582.81 Q5859.53 3585.31 5852.45 3585.31 Q5843.49 3585.31 5838.18 3580.31 Q5832.92 3575.26 5832.92 3566.82 Q5832.92 3556.98 5839.48 3551.98 Q5846.09 3546.98 5859.17 3546.98 L5872.6 3546.98 L5872.6 3546.04 Q5872.6 3539.42 5868.23 3535.83 Q5863.9 3532.18 5856.04 3532.18 Q5851.04 3532.18 5846.3 3533.38 Q5841.56 3534.58 5837.19 3536.98 L5837.19 3528.12 Q5842.45 3526.09 5847.39 3525.1 Q5852.34 3524.06 5857.03 3524.06 Q5869.69 3524.06 5875.94 3530.62 Q5882.19 3537.18 5882.19 3550.52 Z" fill="#000000" fill-rule="nonzero" fill-opacity="1" /><path clip-path="url(#clip410)" d="M5940.31 3553.95 Q5940.31 3543.54 5935.99 3537.81 Q5931.72 3532.08 5923.96 3532.08 Q5916.25 3532.08 5911.93 3537.81 Q5907.65 3543.54 5907.65 3553.95 Q5907.65 3564.32 5911.93 3570.05 Q5916.25 3575.78 5923.96 3575.78 Q5931.72 3575.78 5935.99 3570.05 Q5940.31 3564.32 5940.31 3553.95 M5949.89 3576.56 Q5949.89 3591.45 5943.28 3598.69 Q5936.66 3605.99 5923.02 3605.99 Q5917.97 3605.99 5913.49 3605.2 Q5909.01 3604.47 5904.79 3602.91 L5904.79 3593.59 Q5909.01 3595.88 5913.12 3596.97 Q5917.24 3598.07 5921.51 3598.07 Q5930.94 3598.07 5935.62 3593.12 Q5940.31 3588.22 5940.31 3578.28 L5940.31 3573.54 Q5937.34 3578.69 5932.71 3581.25 Q5928.07 3583.8 5921.61 3583.8 Q5910.88 3583.8 5904.32 3575.62 Q5897.76 3567.44 5897.76 3553.95 Q5897.76 3540.41 5904.32 3532.24 Q5910.88 3524.06 5921.61 3524.06 Q5928.07 3524.06 5932.71 3526.61 Q5937.34 3529.16 5940.31 3534.32 L5940.31 3525.46 L5949.89 3525.46 L5949.89 3576.56 Z" fill="#000000" fill-rule="nonzero" fill-opacity="1" /><path clip-path="url(#clip410)" d="M6006.82 3527.18 L6006.82 3536.25 Q6002.76 3534.16 5998.38 3533.12 Q5994.01 3532.08 5989.32 3532.08 Q5982.19 3532.08 5978.59 3534.27 Q5975.05 3536.45 5975.05 3540.83 Q5975.05 3544.16 5977.6 3546.09 Q5980.15 3547.96 5987.86 3549.68 L5991.14 3550.41 Q6001.35 3552.6 6005.62 3556.61 Q6009.95 3560.57 6009.95 3567.7 Q6009.95 3575.83 6003.49 3580.57 Q5997.08 3585.31 5985.83 3585.31 Q5981.14 3585.31 5976.04 3584.37 Q5970.99 3583.49 5965.36 3581.66 L5965.36 3571.77 Q5970.68 3574.53 5975.83 3575.93 Q5980.99 3577.29 5986.04 3577.29 Q5992.81 3577.29 5996.46 3575 Q6000.1 3572.65 6000.1 3568.43 Q6000.1 3564.53 5997.45 3562.44 Q5994.84 3560.36 5985.94 3558.43 L5982.6 3557.65 Q5973.7 3555.78 5969.74 3551.92 Q5965.78 3548.02 5965.78 3541.25 Q5965.78 3533.02 5971.61 3528.54 Q5977.45 3524.06 5988.18 3524.06 Q5993.49 3524.06 5998.18 3524.84 Q6002.86 3525.62 6006.82 3527.18 Z" fill="#000000" fill-rule="nonzero" fill-opacity="1" /><polyline clip-path="url(#clip410)" style="stroke:#000000; stroke-linecap:round; stroke-linejoin:round; stroke-width:4; stroke-opacity:1; fill:none" points="315.689,3435.4 315.689,47.2441 "/>
<polyline clip-path="url(#clip410)" style="stroke:#000000; stroke-linecap:round; stroke-linejoin:round; stroke-width:4; stroke-opacity:1; fill:none" points="315.689,3411.7 334.587,3411.7 "/>
<polyline clip-path="url(#clip410)" style="stroke:#000000; stroke-linecap:round; stroke-linejoin:round; stroke-width:4; stroke-opacity:1; fill:none" points="315.689,2820.74 334.587,2820.74 "/>
<polyline clip-path="url(#clip410)" style="stroke:#000000; stroke-linecap:round; stroke-linejoin:round; stroke-width:4; stroke-opacity:1; fill:none" points="315.689,2229.78 334.587,2229.78 "/>
<polyline clip-path="url(#clip410)" style="stroke:#000000; stroke-linecap:round; stroke-linejoin:round; stroke-width:4; stroke-opacity:1; fill:none" points="315.689,1638.82 334.587,1638.82 "/>
<polyline clip-path="url(#clip410)" style="stroke:#000000; stroke-linecap:round; stroke-linejoin:round; stroke-width:4; stroke-opacity:1; fill:none" points="315.689,1047.85 334.587,1047.85 "/>
<polyline clip-path="url(#clip410)" style="stroke:#000000; stroke-linecap:round; stroke-linejoin:round; stroke-width:4; stroke-opacity:1; fill:none" points="315.689,456.893 334.587,456.893 "/>
<path clip-path="url(#clip410)" d="M192.814 3379.75 Q184.689 3379.75 180.575 3387.77 Q176.512 3395.74 176.512 3411.78 Q176.512 3427.77 180.575 3435.79 Q184.689 3443.76 192.814 3443.76 Q200.991 3443.76 205.054 3435.79 Q209.168 3427.77 209.168 3411.78 Q209.168 3395.74 205.054 3387.77 Q200.991 3379.75 192.814 3379.75 M192.814 3371.41 Q205.887 3371.41 212.762 3381.78 Q219.689 3392.09 219.689 3411.78 Q219.689 3431.41 212.762 3441.78 Q205.887 3452.09 192.814 3452.09 Q179.741 3452.09 172.814 3441.78 Q165.939 3431.41 165.939 3411.78 Q165.939 3392.09 172.814 3381.78 Q179.741 3371.41 192.814 3371.41 Z" fill="#000000" fill-rule="nonzero" fill-opacity="1" /><path clip-path="url(#clip410)" d="M102.554 2781.86 L143.856 2781.86 L143.856 2790.71 L112.19 2790.71 L112.19 2809.78 Q114.481 2808.99 116.773 2808.63 Q119.065 2808.21 121.356 2808.21 Q134.377 2808.21 141.981 2815.35 Q149.585 2822.48 149.585 2834.67 Q149.585 2847.22 141.773 2854.2 Q133.96 2861.13 119.742 2861.13 Q114.846 2861.13 109.742 2860.3 Q104.69 2859.46 99.273 2857.8 L99.273 2847.22 Q103.96 2849.78 108.96 2851.03 Q113.96 2852.28 119.533 2852.28 Q128.544 2852.28 133.804 2847.54 Q139.064 2842.8 139.064 2834.67 Q139.064 2826.55 133.804 2821.81 Q128.544 2817.07 119.533 2817.07 Q115.315 2817.07 111.096 2818 Q106.929 2818.94 102.554 2820.92 L102.554 2781.86 Z" fill="#000000" fill-rule="nonzero" fill-opacity="1" /><path clip-path="url(#clip410)" d="M192.814 2788.79 Q184.689 2788.79 180.575 2796.81 Q176.512 2804.78 176.512 2820.82 Q176.512 2836.81 180.575 2844.83 Q184.689 2852.8 192.814 2852.8 Q200.991 2852.8 205.054 2844.83 Q209.168 2836.81 209.168 2820.82 Q209.168 2804.78 205.054 2796.81 Q200.991 2788.79 192.814 2788.79 M192.814 2780.45 Q205.887 2780.45 212.762 2790.82 Q219.689 2801.13 219.689 2820.82 Q219.689 2840.45 212.762 2850.82 Q205.887 2861.13 192.814 2861.13 Q179.741 2861.13 172.814 2850.82 Q165.939 2840.45 165.939 2820.82 Q165.939 2801.13 172.814 2790.82 Q179.741 2780.45 192.814 2780.45 Z" fill="#000000" fill-rule="nonzero" fill-opacity="1" /><path clip-path="url(#clip410)" d="M36.4088 2259.8 L53.5962 2259.8 L53.5962 2200.48 L34.8984 2204.23 L34.8984 2194.65 L53.492 2190.9 L64.0128 2190.9 L64.0128 2259.8 L81.2002 2259.8 L81.2002 2268.66 L36.4088 2268.66 L36.4088 2259.8 Z" fill="#000000" fill-rule="nonzero" fill-opacity="1" /><path clip-path="url(#clip410)" d="M124.95 2197.82 Q116.825 2197.82 112.71 2205.85 Q108.648 2213.81 108.648 2229.86 Q108.648 2245.85 112.71 2253.87 Q116.825 2261.83 124.95 2261.83 Q133.127 2261.83 137.189 2253.87 Q141.304 2245.85 141.304 2229.86 Q141.304 2213.81 137.189 2205.85 Q133.127 2197.82 124.95 2197.82 M124.95 2189.49 Q138.023 2189.49 144.898 2199.86 Q151.825 2210.17 151.825 2229.86 Q151.825 2249.49 144.898 2259.86 Q138.023 2270.17 124.95 2270.17 Q111.877 2270.17 104.95 2259.86 Q98.0751 2249.49 98.0751 2229.86 Q98.0751 2210.17 104.95 2199.86 Q111.877 2189.49 124.95 2189.49 Z" fill="#000000" fill-rule="nonzero" fill-opacity="1" /><path clip-path="url(#clip410)" d="M192.814 2197.82 Q184.689 2197.82 180.575 2205.85 Q176.512 2213.81 176.512 2229.86 Q176.512 2245.85 180.575 2253.87 Q184.689 2261.83 192.814 2261.83 Q200.991 2261.83 205.054 2253.87 Q209.168 2245.85 209.168 2229.86 Q209.168 2213.81 205.054 2205.85 Q200.991 2197.82 192.814 2197.82 M192.814 2189.49 Q205.887 2189.49 212.762 2199.86 Q219.689 2210.17 219.689 2229.86 Q219.689 2249.49 212.762 2259.86 Q205.887 2270.17 192.814 2270.17 Q179.741 2270.17 172.814 2259.86 Q165.939 2249.49 165.939 2229.86 Q165.939 2210.17 172.814 2199.86 Q179.741 2189.49 192.814 2189.49 Z" fill="#000000" fill-rule="nonzero" fill-opacity="1" /><path clip-path="url(#clip410)" d="M36.4088 1668.84 L53.5962 1668.84 L53.5962 1609.52 L34.8984 1613.27 L34.8984 1603.69 L53.492 1599.94 L64.0128 1599.94 L64.0128 1668.84 L81.2002 1668.84 L81.2002 1677.7 L36.4088 1677.7 L36.4088 1668.84 Z" fill="#000000" fill-rule="nonzero" fill-opacity="1" /><path clip-path="url(#clip410)" d="M102.554 1599.94 L143.856 1599.94 L143.856 1608.79 L112.19 1608.79 L112.19 1627.85 Q114.481 1627.07 116.773 1626.71 Q119.065 1626.29 121.356 1626.29 Q134.377 1626.29 141.981 1633.43 Q149.585 1640.56 149.585 1652.75 Q149.585 1665.3 141.773 1672.28 Q133.96 1679.21 119.742 1679.21 Q114.846 1679.21 109.742 1678.37 Q104.69 1677.54 99.273 1675.87 L99.273 1665.3 Q103.96 1667.85 108.96 1669.1 Q113.96 1670.35 119.533 1670.35 Q128.544 1670.35 133.804 1665.61 Q139.064 1660.87 139.064 1652.75 Q139.064 1644.62 133.804 1639.88 Q128.544 1635.14 119.533 1635.14 Q115.315 1635.14 111.096 1636.08 Q106.929 1637.02 102.554 1639 L102.554 1599.94 Z" fill="#000000" fill-rule="nonzero" fill-opacity="1" /><path clip-path="url(#clip410)" d="M192.814 1606.86 Q184.689 1606.86 180.575 1614.88 Q176.512 1622.85 176.512 1638.89 Q176.512 1654.88 180.575 1662.9 Q184.689 1670.87 192.814 1670.87 Q200.991 1670.87 205.054 1662.9 Q209.168 1654.88 209.168 1638.89 Q209.168 1622.85 205.054 1614.88 Q200.991 1606.86 192.814 1606.86 M192.814 1598.53 Q205.887 1598.53 212.762 1608.89 Q219.689 1619.21 219.689 1638.89 Q219.689 1658.53 212.762 1668.89 Q205.887 1679.21 192.814 1679.21 Q179.741 1679.21 172.814 1668.89 Q165.939 1658.53 165.939 1638.89 Q165.939 1619.21 172.814 1608.89 Q179.741 1598.53 192.814 1598.53 Z" fill="#000000" fill-rule="nonzero" fill-opacity="1" /><path clip-path="url(#clip410)" d="M43.6483 1077.88 L80.3669 1077.88 L80.3669 1086.73 L30.9921 1086.73 L30.9921 1077.88 Q36.9817 1071.68 47.2941 1061.27 Q57.6586 1050.8 60.3149 1047.78 Q65.3669 1042.1 67.3461 1038.19 Q69.3773 1034.23 69.3773 1030.43 Q69.3773 1024.23 65.0024 1020.33 Q60.6795 1016.42 53.7003 1016.42 Q48.7524 1016.42 43.2316 1018.14 Q37.7629 1019.86 31.513 1023.35 L31.513 1012.72 Q37.8671 1010.17 43.3879 1008.87 Q48.9087 1007.57 53.492 1007.57 Q65.5753 1007.57 72.7627 1013.61 Q79.9502 1019.65 79.9502 1029.76 Q79.9502 1034.55 78.1273 1038.87 Q76.3565 1043.14 71.6169 1048.97 Q70.3148 1050.48 63.3357 1057.72 Q56.3566 1064.91 43.6483 1077.88 Z" fill="#000000" fill-rule="nonzero" fill-opacity="1" /><path clip-path="url(#clip410)" d="M124.95 1015.9 Q116.825 1015.9 112.71 1023.92 Q108.648 1031.89 108.648 1047.93 Q108.648 1063.92 112.71 1071.94 Q116.825 1079.91 124.95 1079.91 Q133.127 1079.91 137.189 1071.94 Q141.304 1063.92 141.304 1047.93 Q141.304 1031.89 137.189 1023.92 Q133.127 1015.9 124.95 1015.9 M124.95 1007.57 Q138.023 1007.57 144.898 1017.93 Q151.825 1028.25 151.825 1047.93 Q151.825 1067.57 144.898 1077.93 Q138.023 1088.25 124.95 1088.25 Q111.877 1088.25 104.95 1077.93 Q98.0751 1067.57 98.0751 1047.93 Q98.0751 1028.25 104.95 1017.93 Q111.877 1007.57 124.95 1007.57 Z" fill="#000000" fill-rule="nonzero" fill-opacity="1" /><path clip-path="url(#clip410)" d="M192.814 1015.9 Q184.689 1015.9 180.575 1023.92 Q176.512 1031.89 176.512 1047.93 Q176.512 1063.92 180.575 1071.94 Q184.689 1079.91 192.814 1079.91 Q200.991 1079.91 205.054 1071.94 Q209.168 1063.92 209.168 1047.93 Q209.168 1031.89 205.054 1023.92 Q200.991 1015.9 192.814 1015.9 M192.814 1007.57 Q205.887 1007.57 212.762 1017.93 Q219.689 1028.25 219.689 1047.93 Q219.689 1067.57 212.762 1077.93 Q205.887 1088.25 192.814 1088.25 Q179.741 1088.25 172.814 1077.93 Q165.939 1067.57 165.939 1047.93 Q165.939 1028.25 172.814 1017.93 Q179.741 1007.57 192.814 1007.57 Z" fill="#000000" fill-rule="nonzero" fill-opacity="1" /><path clip-path="url(#clip410)" d="M43.6483 486.919 L80.3669 486.919 L80.3669 495.773 L30.9921 495.773 L30.9921 486.919 Q36.9817 480.721 47.2941 470.305 Q57.6586 459.836 60.3149 456.815 Q65.3669 451.138 67.3461 447.232 Q69.3773 443.273 69.3773 439.471 Q69.3773 433.273 65.0024 429.367 Q60.6795 425.461 53.7003 425.461 Q48.7524 425.461 43.2316 427.18 Q37.7629 428.899 31.513 432.388 L31.513 421.763 Q37.8671 419.211 43.3879 417.909 Q48.9087 416.607 53.492 416.607 Q65.5753 416.607 72.7627 422.649 Q79.9502 428.69 79.9502 438.794 Q79.9502 443.586 78.1273 447.909 Q76.3565 452.18 71.6169 458.013 Q70.3148 459.523 63.3357 466.763 Q56.3566 473.95 43.6483 486.919 Z" fill="#000000" fill-rule="nonzero" fill-opacity="1" /><path clip-path="url(#clip410)" d="M102.554 418.013 L143.856 418.013 L143.856 426.867 L112.19 426.867 L112.19 445.93 Q114.481 445.148 116.773 444.784 Q119.065 444.367 121.356 444.367 Q134.377 444.367 141.981 451.503 Q149.585 458.638 149.585 470.825 Q149.585 483.377 141.773 490.357 Q133.96 497.284 119.742 497.284 Q114.846 497.284 109.742 496.45 Q104.69 495.617 99.273 493.95 L99.273 483.377 Q103.96 485.929 108.96 487.179 Q113.96 488.429 119.533 488.429 Q128.544 488.429 133.804 483.69 Q139.064 478.95 139.064 470.825 Q139.064 462.7 133.804 457.961 Q128.544 453.221 119.533 453.221 Q115.315 453.221 111.096 454.159 Q106.929 455.096 102.554 457.075 L102.554 418.013 Z" fill="#000000" fill-rule="nonzero" fill-opacity="1" /><path clip-path="url(#clip410)" d="M192.814 424.94 Q184.689 424.94 180.575 432.961 Q176.512 440.93 176.512 456.971 Q176.512 472.961 180.575 480.982 Q184.689 488.95 192.814 488.95 Q200.991 488.95 205.054 480.982 Q209.168 472.961 209.168 456.971 Q209.168 440.93 205.054 432.961 Q200.991 424.94 192.814 424.94 M192.814 416.607 Q205.887 416.607 212.762 426.971 Q219.689 437.284 219.689 456.971 Q219.689 476.607 212.762 486.971 Q205.887 497.284 192.814 497.284 Q179.741 497.284 172.814 486.971 Q165.939 476.607 165.939 456.971 Q165.939 437.284 172.814 426.971 Q179.741 416.607 192.814 416.607 Z" fill="#000000" fill-rule="nonzero" fill-opacity="1" /><path clip-path="url(#clip412)" d="M844.795 1886.56 L844.478 1884.74 L843.894 1882.92 L843.305 1881.09 L842.881 1879.27 L842.651 1877.45 L842.553 1875.62 L842.52 1873.8 L842.511 1871.98 L842.509 1870.15 L842.509 1868.33 L842.509 1866.51 L842.509 1864.68 L842.509 1862.86 L842.509 1861.04 L842.509 1859.21 L842.509 1857.39 L842.509 1855.57 L842.509 1853.74 L842.509 1851.92 L842.509 1850.1 L842.509 1848.27 L842.509 1846.45 L842.509 1844.63 L842.51 1842.8 L842.515 1840.98 L842.533 1839.16 L842.585 1837.33 L842.707 1835.51 L842.929 1833.69 L843.236 1831.86 L843.55 1830.04 L843.79 1828.22 L844.017 1826.39 L844.532 1824.57 L845.765 1822.75 L847.911 1820.92 L850.561 1819.1 L852.827 1817.28 L854.276 1815.45 L856.133 1813.63 L861.469 1811.81 L873.284 1809.98 L891.095 1808.16 L909.149 1806.34 L919.824 1804.51 L921.277 1802.69 L922.34 1800.87 L937.966 1799.04 L976.54 1797.22 L1028.84 1795.4 L1070.32 1793.57 L1079.43 1791.75 L1058.53 1789.93 L1036.59 1788.1 L1047.44 1786.28 L1099.8 1784.46 L1165.32 1782.63 L1198.47 1780.81 L1174.96 1778.99 L1113.53 1777.16 L1059.38 1775.34 L1045.83 1773.52 L1069.52 1771.69 L1097.36 1769.87 L1096.02 1768.05 L1058.46 1766.22 L1006.4 1764.4 L969.217 1762.58 L960.026 1760.75 L968.541 1758.93 L973.348 1757.11 L960.913 1755.28 L934.967 1753.46 L909.969 1751.64 L897.236 1749.81 L896.867 1747.99 L900.266 1746.17 L898.524 1744.34 L889.075 1742.52 L876.04 1740.7 L865.429 1738.87 L860.213 1737.05 L859.096 1735.23 L858.8 1733.4 L857.159 1731.58 L854.488 1729.76 L852.604 1727.93 L852.803 1726.11 L854.626 1724.29 L856.26 1722.46 L856.03 1720.64 L853.672 1718.82 L850.337 1716.99 L847.503 1715.17 L845.902 1713.35 L845.317 1711.52 L845.108 1709.7 L844.837 1707.88 L844.525 1706.05 L844.459 1704.23 L844.823 1702.41 L845.457 1700.58 L845.949 1698.76 L845.974 1696.94 L845.595 1695.11 L845.251 1693.29 L845.398 1691.47 L846.103 1689.64 L846.93 1687.82 L847.259 1686 L846.805 1684.17 L845.856 1682.35 L845 1680.53 L844.635 1678.7 L844.708 1676.88 L844.858 1675.06 L844.747 1673.23 L844.301 1671.41 L843.694 1669.59 L843.153 1667.76 L842.798 1665.94 L842.623 1664.12 L842.578 1662.29 L842.642 1660.47 L842.845 1658.65 L843.237 1656.82 L843.806 1655 L844.401 1653.18 L844.781 1651.35 L844.781 1649.53 L844.481 1647.71 L844.17 1645.88 L844.129 1644.06 L844.4 1642.24 L844.75 1640.41 L844.854 1638.59 L844.557 1636.77 L843.975 1634.94 L843.365 1633.12 L842.916 1631.3 L842.666 1629.47 L842.558 1627.65 L842.521 1625.83 L842.511 1624 L842.509 1622.18 L842.509 1620.36 L842.51 1618.53 L842.514 1616.71 L842.529 1614.89 L842.576 1613.06 L842.685 1611.24 L842.89 1609.42 L843.179 1607.59 L843.473 1605.77 L843.643 1603.95 L843.602 1602.12 L843.372 1600.3 L843.067 1598.48 L842.805 1596.65 L842.638 1594.83 L842.555 1593.01 L842.522 1591.18 L842.512 1589.36 L842.509 1587.54 L842.509 1585.71 L842.509 1583.89 L842.511 1582.07 L842.52 1580.24 L842.549 1578.42 L842.626 1576.6 L842.784 1574.77 L843.039 1572.95 L843.347 1571.13 L843.597 1569.3 L843.676 1567.48 L843.57 1565.66 L843.394 1563.83 L843.309 1562.01 L843.391 1560.19 L843.566 1558.36 L843.674 1556.54 L841.343 1556.54 L841.452 1558.36 L841.627 1560.19 L841.708 1562.01 L841.623 1563.83 L841.447 1565.66 L841.341 1567.48 L841.42 1569.3 L841.67 1571.13 L841.978 1572.95 L842.233 1574.77 L842.392 1576.6 L842.468 1578.42 L842.497 1580.24 L842.506 1582.07 L842.508 1583.89 L842.508 1585.71 L842.508 1587.54 L842.505 1589.36 L842.495 1591.18 L842.462 1593.01 L842.379 1594.83 L842.212 1596.65 L841.95 1598.48 L841.645 1600.3 L841.415 1602.12 L841.374 1603.95 L841.544 1605.77 L841.838 1607.59 L842.127 1609.42 L842.332 1611.24 L842.442 1613.06 L842.488 1614.89 L842.503 1616.71 L842.507 1618.53 L842.508 1620.36 L842.508 1622.18 L842.506 1624 L842.496 1625.83 L842.459 1627.65 L842.351 1629.47 L842.102 1631.3 L841.652 1633.12 L841.042 1634.94 L840.46 1636.77 L840.163 1638.59 L840.267 1640.41 L840.617 1642.24 L840.888 1644.06 L840.847 1645.88 L840.536 1647.71 L840.236 1649.53 L840.236 1651.35 L840.616 1653.18 L841.211 1655 L841.78 1656.82 L842.172 1658.65 L842.375 1660.47 L842.439 1662.29 L842.394 1664.12 L842.22 1665.94 L841.864 1667.76 L841.323 1669.59 L840.716 1671.41 L840.27 1673.23 L840.159 1675.06 L840.309 1676.88 L840.382 1678.7 L840.017 1680.53 L839.161 1682.35 L838.212 1684.17 L837.758 1686 L838.087 1687.82 L838.914 1689.64 L839.619 1691.47 L839.766 1693.29 L839.422 1695.11 L839.043 1696.94 L839.068 1698.76 L839.56 1700.58 L840.194 1702.41 L840.558 1704.23 L840.492 1706.05 L840.18 1707.88 L839.909 1709.7 L839.7 1711.52 L839.115 1713.35 L837.514 1715.17 L834.68 1716.99 L831.345 1718.82 L828.987 1720.64 L828.757 1722.46 L830.391 1724.29 L832.214 1726.11 L832.413 1727.93 L830.53 1729.76 L827.858 1731.58 L826.217 1733.4 L825.921 1735.23 L824.804 1737.05 L819.588 1738.87 L808.977 1740.7 L795.942 1742.52 L786.493 1744.34 L784.751 1746.17 L788.15 1747.99 L787.781 1749.81 L775.048 1751.64 L750.05 1753.46 L724.104 1755.28 L711.669 1757.11 L716.476 1758.93 L724.992 1760.75 L715.801 1762.58 L678.614 1764.4 L626.553 1766.22 L588.998 1768.05 L587.66 1769.87 L615.499 1771.69 L639.184 1773.52 L625.641 1775.34 L571.491 1777.16 L510.06 1778.99 L486.549 1780.81 L519.696 1782.63 L585.214 1784.46 L637.581 1786.28 L648.423 1788.1 L626.487 1789.93 L605.587 1791.75 L614.7 1793.57 L656.177 1795.4 L708.478 1797.22 L747.051 1799.04 L762.678 1800.87 L763.74 1802.69 L765.193 1804.51 L775.868 1806.34 L793.923 1808.16 L811.733 1809.98 L823.548 1811.81 L828.884 1813.63 L830.741 1815.45 L832.19 1817.28 L834.457 1819.1 L837.106 1820.92 L839.253 1822.75 L840.485 1824.57 L841 1826.39 L841.227 1828.22 L841.467 1830.04 L841.781 1831.86 L842.088 1833.69 L842.31 1835.51 L842.432 1837.33 L842.485 1839.16 L842.502 1840.98 L842.507 1842.8 L842.508 1844.63 L842.509 1846.45 L842.509 1848.27 L842.509 1850.1 L842.509 1851.92 L842.509 1853.74 L842.509 1855.57 L842.509 1857.39 L842.509 1859.21 L842.509 1861.04 L842.509 1862.86 L842.509 1864.68 L842.509 1866.51 L842.508 1868.33 L842.508 1870.15 L842.506 1871.98 L842.497 1873.8 L842.464 1875.62 L842.366 1877.45 L842.136 1879.27 L841.713 1881.09 L841.123 1882.92 L840.539 1884.74 L840.222 1886.56 L844.795 1886.56  Z" fill="#414286" fill-rule="evenodd" fill-opacity="1"/>
<polyline clip-path="url(#clip412)" style="stroke:#000000; stroke-linecap:round; stroke-linejoin:round; stroke-width:4; stroke-opacity:1; fill:none" points="844.795,1886.56 844.478,1884.74 843.894,1882.92 843.305,1881.09 842.881,1879.27 842.651,1877.45 842.553,1875.62 842.52,1873.8 842.511,1871.98 842.509,1870.15 842.509,1868.33 842.509,1866.51 842.509,1864.68 842.509,1862.86 842.509,1861.04 842.509,1859.21 842.509,1857.39 842.509,1855.57 842.509,1853.74 842.509,1851.92 842.509,1850.1 842.509,1848.27 842.509,1846.45 842.509,1844.63 842.51,1842.8 842.515,1840.98 842.533,1839.16 842.585,1837.33 842.707,1835.51 842.929,1833.69 843.236,1831.86 843.55,1830.04 843.79,1828.22 844.017,1826.39 844.532,1824.57 845.765,1822.75 847.911,1820.92 850.561,1819.1 852.827,1817.28 854.276,1815.45 856.133,1813.63 861.469,1811.81 873.284,1809.98 891.095,1808.16 909.149,1806.34 919.824,1804.51 921.277,1802.69 922.34,1800.87 937.966,1799.04 976.54,1797.22 1028.84,1795.4 1070.32,1793.57 1079.43,1791.75 1058.53,1789.93 1036.59,1788.1 1047.44,1786.28 1099.8,1784.46 1165.32,1782.63 1198.47,1780.81 1174.96,1778.99 1113.53,1777.16 1059.38,1775.34 1045.83,1773.52 1069.52,1771.69 1097.36,1769.87 1096.02,1768.05 1058.46,1766.22 1006.4,1764.4 969.217,1762.58 960.026,1760.75 968.541,1758.93 973.348,1757.11 960.913,1755.28 934.967,1753.46 909.969,1751.64 897.236,1749.81 896.867,1747.99 900.266,1746.17 898.524,1744.34 889.075,1742.52 876.04,1740.7 865.429,1738.87 860.213,1737.05 859.096,1735.23 858.8,1733.4 857.159,1731.58 854.488,1729.76 852.604,1727.93 852.803,1726.11 854.626,1724.29 856.26,1722.46 856.03,1720.64 853.672,1718.82 850.337,1716.99 847.503,1715.17 845.902,1713.35 845.317,1711.52 845.108,1709.7 844.837,1707.88 844.525,1706.05 844.459,1704.23 844.823,1702.41 845.457,1700.58 845.949,1698.76 845.974,1696.94 845.595,1695.11 845.251,1693.29 845.398,1691.47 846.103,1689.64 846.93,1687.82 847.259,1686 846.805,1684.17 845.856,1682.35 845,1680.53 844.635,1678.7 844.708,1676.88 844.858,1675.06 844.747,1673.23 844.301,1671.41 843.694,1669.59 843.153,1667.76 842.798,1665.94 842.623,1664.12 842.578,1662.29 842.642,1660.47 842.845,1658.65 843.237,1656.82 843.806,1655 844.401,1653.18 844.781,1651.35 844.781,1649.53 844.481,1647.71 844.17,1645.88 844.129,1644.06 844.4,1642.24 844.75,1640.41 844.854,1638.59 844.557,1636.77 843.975,1634.94 843.365,1633.12 842.916,1631.3 842.666,1629.47 842.558,1627.65 842.521,1625.83 842.511,1624 842.509,1622.18 842.509,1620.36 842.51,1618.53 842.514,1616.71 842.529,1614.89 842.576,1613.06 842.685,1611.24 842.89,1609.42 843.179,1607.59 843.473,1605.77 843.643,1603.95 843.602,1602.12 843.372,1600.3 843.067,1598.48 842.805,1596.65 842.638,1594.83 842.555,1593.01 842.522,1591.18 842.512,1589.36 842.509,1587.54 842.509,1585.71 842.509,1583.89 842.511,1582.07 842.52,1580.24 842.549,1578.42 842.626,1576.6 842.784,1574.77 843.039,1572.95 843.347,1571.13 843.597,1569.3 843.676,1567.48 843.57,1565.66 843.394,1563.83 843.309,1562.01 843.391,1560.19 843.566,1558.36 843.674,1556.54 841.343,1556.54 841.452,1558.36 841.627,1560.19 841.708,1562.01 841.623,1563.83 841.447,1565.66 841.341,1567.48 841.42,1569.3 841.67,1571.13 841.978,1572.95 842.233,1574.77 842.392,1576.6 842.468,1578.42 842.497,1580.24 842.506,1582.07 842.508,1583.89 842.508,1585.71 842.508,1587.54 842.505,1589.36 842.495,1591.18 842.462,1593.01 842.379,1594.83 842.212,1596.65 841.95,1598.48 841.645,1600.3 841.415,1602.12 841.374,1603.95 841.544,1605.77 841.838,1607.59 842.127,1609.42 842.332,1611.24 842.442,1613.06 842.488,1614.89 842.503,1616.71 842.507,1618.53 842.508,1620.36 842.508,1622.18 842.506,1624 842.496,1625.83 842.459,1627.65 842.351,1629.47 842.102,1631.3 841.652,1633.12 841.042,1634.94 840.46,1636.77 840.163,1638.59 840.267,1640.41 840.617,1642.24 840.888,1644.06 840.847,1645.88 840.536,1647.71 840.236,1649.53 840.236,1651.35 840.616,1653.18 841.211,1655 841.78,1656.82 842.172,1658.65 842.375,1660.47 842.439,1662.29 842.394,1664.12 842.22,1665.94 841.864,1667.76 841.323,1669.59 840.716,1671.41 840.27,1673.23 840.159,1675.06 840.309,1676.88 840.382,1678.7 840.017,1680.53 839.161,1682.35 838.212,1684.17 837.758,1686 838.087,1687.82 838.914,1689.64 839.619,1691.47 839.766,1693.29 839.422,1695.11 839.043,1696.94 839.068,1698.76 839.56,1700.58 840.194,1702.41 840.558,1704.23 840.492,1706.05 840.18,1707.88 839.909,1709.7 839.7,1711.52 839.115,1713.35 837.514,1715.17 834.68,1716.99 831.345,1718.82 828.987,1720.64 828.757,1722.46 830.391,1724.29 832.214,1726.11 832.413,1727.93 830.53,1729.76 827.858,1731.58 826.217,1733.4 825.921,1735.23 824.804,1737.05 819.588,1738.87 808.977,1740.7 795.942,1742.52 786.493,1744.34 784.751,1746.17 788.15,1747.99 787.781,1749.81 775.048,1751.64 750.05,1753.46 724.104,1755.28 711.669,1757.11 716.476,1758.93 724.992,1760.75 715.801,1762.58 678.614,1764.4 626.553,1766.22 588.998,1768.05 587.66,1769.87 615.499,1771.69 639.184,1773.52 625.641,1775.34 571.491,1777.16 510.06,1778.99 486.549,1780.81 519.696,1782.63 585.214,1784.46 637.581,1786.28 648.423,1788.1 626.487,1789.93 605.587,1791.75 614.7,1793.57 656.177,1795.4 708.478,1797.22 747.051,1799.04 762.678,1800.87 763.74,1802.69 765.193,1804.51 775.868,1806.34 793.923,1808.16 811.733,1809.98 823.548,1811.81 828.884,1813.63 830.741,1815.45 832.19,1817.28 834.457,1819.1 837.106,1820.92 839.253,1822.75 840.485,1824.57 841,1826.39 841.227,1828.22 841.467,1830.04 841.781,1831.86 842.088,1833.69 842.31,1835.51 842.432,1837.33 842.485,1839.16 842.502,1840.98 842.507,1842.8 842.508,1844.63 842.509,1846.45 842.509,1848.27 842.509,1850.1 842.509,1851.92 842.509,1853.74 842.509,1855.57 842.509,1857.39 842.509,1859.21 842.509,1861.04 842.509,1862.86 842.509,1864.68 842.509,1866.51 842.508,1868.33 842.508,1870.15 842.506,1871.98 842.497,1873.8 842.464,1875.62 842.366,1877.45 842.136,1879.27 841.713,1881.09 841.123,1882.92 840.539,1884.74 840.222,1886.56 844.795,1886.56 "/>
<path clip-path="url(#clip412)" d="M2174.65 3268.93 L2185.27 3266.77 L2195.86 3264.6 L2206.21 3262.43 L2216.15 3260.27 L2225.49 3258.1 L2234.12 3255.94 L2241.96 3253.77 L2248.95 3251.6 L2255.09 3249.44 L2260.4 3247.27 L2264.95 3245.1 L2268.79 3242.94 L2272 3240.77 L2274.66 3238.61 L2276.84 3236.44 L2278.59 3234.27 L2280 3232.11 L2281.1 3229.94 L2281.96 3227.78 L2282.63 3225.61 L2283.18 3223.44 L2283.66 3221.28 L2284.17 3219.11 L2284.78 3216.94 L2285.56 3214.78 L2286.61 3212.61 L2288.02 3210.45 L2289.85 3208.28 L2292.17 3206.11 L2295.04 3203.95 L2298.48 3201.78 L2302.52 3199.62 L2307.13 3197.45 L2312.29 3195.28 L2317.94 3193.12 L2324 3190.95 L2330.39 3188.79 L2336.99 3186.62 L2343.69 3184.45 L2350.39 3182.29 L2356.98 3180.12 L2363.39 3177.95 L2369.52 3175.79 L2375.33 3173.62 L2380.8 3171.46 L2385.9 3169.29 L2390.65 3167.12 L2395.07 3164.96 L2399.19 3162.79 L2403.03 3160.63 L2406.65 3158.46 L2410.06 3156.29 L2413.29 3154.13 L2416.37 3151.96 L2419.31 3149.79 L2422.1 3147.63 L2424.76 3145.46 L2427.26 3143.3 L2429.61 3141.13 L2431.8 3138.96 L2433.83 3136.8 L2435.69 3134.63 L2437.39 3132.47 L2438.93 3130.3 L2440.31 3128.13 L2441.53 3125.97 L2442.58 3123.8 L2443.42 3121.63 L2444.02 3119.47 L2444.32 3117.3 L2444.26 3115.14 L2443.73 3112.97 L2442.67 3110.8 L2440.99 3108.64 L2438.61 3106.47 L2435.51 3104.31 L2431.66 3102.14 L2427.07 3099.97 L2421.8 3097.81 L2415.93 3095.64 L2409.54 3093.48 L2402.75 3091.31 L2395.68 3089.14 L2388.44 3086.98 L2381.13 3084.81 L2373.84 3082.64 L2366.63 3080.48 L2359.56 3078.31 L2352.66 3076.15 L2345.94 3073.98 L2339.44 3071.81 L2333.15 3069.65 L2327.08 3067.48 L2321.25 3065.32 L2315.64 3063.15 L2310.28 3060.98 L2305.15 3058.82 L2300.27 3056.65 L2295.6 3054.48 L2291.14 3052.32 L2286.86 3050.15 L2282.71 3047.99 L2278.66 3045.82 L2274.64 3043.65 L2270.59 3041.49 L2266.46 3039.32 L2262.19 3037.16 L2257.71 3034.99 L2252.99 3032.82 L2247.99 3030.66 L2242.7 3028.49 L2237.12 3026.33 L2231.25 3024.16 L2225.15 3021.99 L2218.85 3019.83 L2212.41 3017.66 L2205.9 3015.49 L2199.37 3013.33 L2192.89 3011.16 L2186.5 3009 L2180.24 3006.83 L2174.14 3004.66 L2168.22 3002.5 L2162.47 3000.33 L2156.91 2998.17 L2151.53 2996 L2146.33 2993.83 L2141.32 2991.67 L2136.49 2989.5 L2131.87 2987.33 L2127.46 2985.17 L2123.3 2983 L2119.38 2980.84 L2115.73 2978.67 L2112.37 2976.5 L2109.29 2974.34 L2106.5 2972.17 L2104 2970.01 L2101.76 2967.84 L2099.78 2965.67 L2098.04 2963.51 L2078.69 2963.51 L2076.95 2965.67 L2074.97 2967.84 L2072.74 2970.01 L2070.23 2972.17 L2067.44 2974.34 L2064.36 2976.5 L2061 2978.67 L2057.35 2980.84 L2053.44 2983 L2049.27 2985.17 L2044.86 2987.33 L2040.24 2989.5 L2035.41 2991.67 L2030.4 2993.83 L2025.2 2996 L2019.82 2998.17 L2014.26 3000.33 L2008.51 3002.5 L2002.59 3004.66 L1996.49 3006.83 L1990.23 3009 L1983.85 3011.16 L1977.36 3013.33 L1970.84 3015.49 L1964.32 3017.66 L1957.88 3019.83 L1951.58 3021.99 L1945.48 3024.16 L1939.62 3026.33 L1934.03 3028.49 L1928.74 3030.66 L1923.74 3032.82 L1919.02 3034.99 L1914.54 3037.16 L1910.27 3039.32 L1906.14 3041.49 L1902.09 3043.65 L1898.07 3045.82 L1894.02 3047.99 L1889.87 3050.15 L1885.59 3052.32 L1881.13 3054.48 L1876.47 3056.65 L1871.58 3058.82 L1866.45 3060.98 L1861.09 3063.15 L1855.49 3065.32 L1849.65 3067.48 L1843.58 3069.65 L1837.29 3071.81 L1830.79 3073.98 L1824.07 3076.15 L1817.17 3078.31 L1810.1 3080.48 L1802.89 3082.64 L1795.6 3084.81 L1788.29 3086.98 L1781.05 3089.14 L1773.98 3091.31 L1767.19 3093.48 L1760.81 3095.64 L1754.93 3097.81 L1749.66 3099.97 L1745.07 3102.14 L1741.22 3104.31 L1738.12 3106.47 L1735.75 3108.64 L1734.06 3110.8 L1733 3112.97 L1732.48 3115.14 L1732.41 3117.3 L1732.71 3119.47 L1733.31 3121.63 L1734.16 3123.8 L1735.2 3125.97 L1736.42 3128.13 L1737.8 3130.3 L1739.34 3132.47 L1741.04 3134.63 L1742.9 3136.8 L1744.93 3138.96 L1747.12 3141.13 L1749.47 3143.3 L1751.98 3145.46 L1754.63 3147.63 L1757.42 3149.79 L1760.36 3151.96 L1763.44 3154.13 L1766.67 3156.29 L1770.09 3158.46 L1773.7 3160.63 L1777.54 3162.79 L1781.66 3164.96 L1786.08 3167.12 L1790.83 3169.29 L1795.93 3171.46 L1801.4 3173.62 L1807.21 3175.79 L1813.35 3177.95 L1819.75 3180.12 L1826.34 3182.29 L1833.04 3184.45 L1839.75 3186.62 L1846.34 3188.79 L1852.73 3190.95 L1858.79 3193.12 L1864.44 3195.28 L1869.6 3197.45 L1874.21 3199.62 L1878.25 3201.78 L1881.69 3203.95 L1884.56 3206.11 L1886.88 3208.28 L1888.71 3210.45 L1890.12 3212.61 L1891.17 3214.78 L1891.96 3216.94 L1892.56 3219.11 L1893.07 3221.28 L1893.56 3223.44 L1894.1 3225.61 L1894.77 3227.78 L1895.63 3229.94 L1896.73 3232.11 L1898.14 3234.27 L1899.89 3236.44 L1902.07 3238.61 L1904.73 3240.77 L1907.94 3242.94 L1911.78 3245.1 L1916.33 3247.27 L1921.64 3249.44 L1927.78 3251.6 L1934.77 3253.77 L1942.61 3255.94 L1951.24 3258.1 L1960.59 3260.27 L1970.52 3262.43 L1980.87 3264.6 L1991.46 3266.77 L2002.08 3268.93 L2174.65 3268.93  Z" fill="#2a778e" fill-rule="evenodd" fill-opacity="1"/>
<polyline clip-path="url(#clip412)" style="stroke:#000000; stroke-linecap:round; stroke-linejoin:round; stroke-width:4; stroke-opacity:1; fill:none" points="2174.65,3268.93 2185.27,3266.77 2195.86,3264.6 2206.21,3262.43 2216.15,3260.27 2225.49,3258.1 2234.12,3255.94 2241.96,3253.77 2248.95,3251.6 2255.09,3249.44 2260.4,3247.27 2264.95,3245.1 2268.79,3242.94 2272,3240.77 2274.66,3238.61 2276.84,3236.44 2278.59,3234.27 2280,3232.11 2281.1,3229.94 2281.96,3227.78 2282.63,3225.61 2283.18,3223.44 2283.66,3221.28 2284.17,3219.11 2284.78,3216.94 2285.56,3214.78 2286.61,3212.61 2288.02,3210.45 2289.85,3208.28 2292.17,3206.11 2295.04,3203.95 2298.48,3201.78 2302.52,3199.62 2307.13,3197.45 2312.29,3195.28 2317.94,3193.12 2324,3190.95 2330.39,3188.79 2336.99,3186.62 2343.69,3184.45 2350.39,3182.29 2356.98,3180.12 2363.39,3177.95 2369.52,3175.79 2375.33,3173.62 2380.8,3171.46 2385.9,3169.29 2390.65,3167.12 2395.07,3164.96 2399.19,3162.79 2403.03,3160.63 2406.65,3158.46 2410.06,3156.29 2413.29,3154.13 2416.37,3151.96 2419.31,3149.79 2422.1,3147.63 2424.76,3145.46 2427.26,3143.3 2429.61,3141.13 2431.8,3138.96 2433.83,3136.8 2435.69,3134.63 2437.39,3132.47 2438.93,3130.3 2440.31,3128.13 2441.53,3125.97 2442.58,3123.8 2443.42,3121.63 2444.02,3119.47 2444.32,3117.3 2444.26,3115.14 2443.73,3112.97 2442.67,3110.8 2440.99,3108.64 2438.61,3106.47 2435.51,3104.31 2431.66,3102.14 2427.07,3099.97 2421.8,3097.81 2415.93,3095.64 2409.54,3093.48 2402.75,3091.31 2395.68,3089.14 2388.44,3086.98 2381.13,3084.81 2373.84,3082.64 2366.63,3080.48 2359.56,3078.31 2352.66,3076.15 2345.94,3073.98 2339.44,3071.81 2333.15,3069.65 2327.08,3067.48 2321.25,3065.32 2315.64,3063.15 2310.28,3060.98 2305.15,3058.82 2300.27,3056.65 2295.6,3054.48 2291.14,3052.32 2286.86,3050.15 2282.71,3047.99 2278.66,3045.82 2274.64,3043.65 2270.59,3041.49 2266.46,3039.32 2262.19,3037.16 2257.71,3034.99 2252.99,3032.82 2247.99,3030.66 2242.7,3028.49 2237.12,3026.33 2231.25,3024.16 2225.15,3021.99 2218.85,3019.83 2212.41,3017.66 2205.9,3015.49 2199.37,3013.33 2192.89,3011.16 2186.5,3009 2180.24,3006.83 2174.14,3004.66 2168.22,3002.5 2162.47,3000.33 2156.91,2998.17 2151.53,2996 2146.33,2993.83 2141.32,2991.67 2136.49,2989.5 2131.87,2987.33 2127.46,2985.17 2123.3,2983 2119.38,2980.84 2115.73,2978.67 2112.37,2976.5 2109.29,2974.34 2106.5,2972.17 2104,2970.01 2101.76,2967.84 2099.78,2965.67 2098.04,2963.51 2078.69,2963.51 2076.95,2965.67 2074.97,2967.84 2072.74,2970.01 2070.23,2972.17 2067.44,2974.34 2064.36,2976.5 2061,2978.67 2057.35,2980.84 2053.44,2983 2049.27,2985.17 2044.86,2987.33 2040.24,2989.5 2035.41,2991.67 2030.4,2993.83 2025.2,2996 2019.82,2998.17 2014.26,3000.33 2008.51,3002.5 2002.59,3004.66 1996.49,3006.83 1990.23,3009 1983.85,3011.16 1977.36,3013.33 1970.84,3015.49 1964.32,3017.66 1957.88,3019.83 1951.58,3021.99 1945.48,3024.16 1939.62,3026.33 1934.03,3028.49 1928.74,3030.66 1923.74,3032.82 1919.02,3034.99 1914.54,3037.16 1910.27,3039.32 1906.14,3041.49 1902.09,3043.65 1898.07,3045.82 1894.02,3047.99 1889.87,3050.15 1885.59,3052.32 1881.13,3054.48 1876.47,3056.65 1871.58,3058.82 1866.45,3060.98 1861.09,3063.15 1855.49,3065.32 1849.65,3067.48 1843.58,3069.65 1837.29,3071.81 1830.79,3073.98 1824.07,3076.15 1817.17,3078.31 1810.1,3080.48 1802.89,3082.64 1795.6,3084.81 1788.29,3086.98 1781.05,3089.14 1773.98,3091.31 1767.19,3093.48 1760.81,3095.64 1754.93,3097.81 1749.66,3099.97 1745.07,3102.14 1741.22,3104.31 1738.12,3106.47 1735.75,3108.64 1734.06,3110.8 1733,3112.97 1732.48,3115.14 1732.41,3117.3 1732.71,3119.47 1733.31,3121.63 1734.16,3123.8 1735.2,3125.97 1736.42,3128.13 1737.8,3130.3 1739.34,3132.47 1741.04,3134.63 1742.9,3136.8 1744.93,3138.96 1747.12,3141.13 1749.47,3143.3 1751.98,3145.46 1754.63,3147.63 1757.42,3149.79 1760.36,3151.96 1763.44,3154.13 1766.67,3156.29 1770.09,3158.46 1773.7,3160.63 1777.54,3162.79 1781.66,3164.96 1786.08,3167.12 1790.83,3169.29 1795.93,3171.46 1801.4,3173.62 1807.21,3175.79 1813.35,3177.95 1819.75,3180.12 1826.34,3182.29 1833.04,3184.45 1839.75,3186.62 1846.34,3188.79 1852.73,3190.95 1858.79,3193.12 1864.44,3195.28 1869.6,3197.45 1874.21,3199.62 1878.25,3201.78 1881.69,3203.95 1884.56,3206.11 1886.88,3208.28 1888.71,3210.45 1890.12,3212.61 1891.17,3214.78 1891.96,3216.94 1892.56,3219.11 1893.07,3221.28 1893.56,3223.44 1894.1,3225.61 1894.77,3227.78 1895.63,3229.94 1896.73,3232.11 1898.14,3234.27 1899.89,3236.44 1902.07,3238.61 1904.73,3240.77 1907.94,3242.94 1911.78,3245.1 1916.33,3247.27 1921.64,3249.44 1927.78,3251.6 1934.77,3253.77 1942.61,3255.94 1951.24,3258.1 1960.59,3260.27 1970.52,3262.43 1980.87,3264.6 1991.46,3266.77 2002.08,3268.93 2174.65,3268.93 "/>
<path clip-path="url(#clip412)" d="M3426.44 3328.62 L3438.28 3326.99 L3450.27 3325.36 L3462.17 3323.72 L3473.72 3322.09 L3484.65 3320.45 L3494.74 3318.82 L3503.77 3317.18 L3511.59 3315.55 L3518.08 3313.92 L3523.19 3312.28 L3526.94 3310.65 L3529.4 3309.01 L3530.7 3307.38 L3531 3305.75 L3530.53 3304.11 L3529.51 3302.48 L3528.18 3300.84 L3526.8 3299.21 L3525.58 3297.57 L3524.72 3295.94 L3524.4 3294.31 L3524.75 3292.67 L3525.84 3291.04 L3527.73 3289.4 L3530.41 3287.77 L3533.86 3286.14 L3538.01 3284.5 L3542.79 3282.87 L3548.09 3281.23 L3553.82 3279.6 L3559.87 3277.96 L3566.14 3276.33 L3572.54 3274.7 L3578.97 3273.06 L3585.37 3271.43 L3591.67 3269.79 L3597.83 3268.16 L3603.78 3266.53 L3609.51 3264.89 L3614.98 3263.26 L3620.17 3261.62 L3625.06 3259.99 L3629.65 3258.35 L3633.94 3256.72 L3637.93 3255.09 L3641.64 3253.45 L3645.08 3251.82 L3648.27 3250.18 L3651.25 3248.55 L3654.04 3246.92 L3656.67 3245.28 L3659.17 3243.65 L3661.57 3242.01 L3663.89 3240.38 L3666.15 3238.74 L3668.35 3237.11 L3670.51 3235.48 L3672.62 3233.84 L3674.66 3232.21 L3676.63 3230.57 L3678.51 3228.94 L3680.27 3227.31 L3681.9 3225.67 L3683.4 3224.04 L3684.74 3222.4 L3685.92 3220.77 L3686.95 3219.13 L3687.83 3217.5 L3688.56 3215.87 L3689.15 3214.23 L3689.61 3212.6 L3689.94 3210.96 L3690.13 3209.33 L3690.18 3207.7 L3690.08 3206.06 L3689.81 3204.43 L3689.36 3202.79 L3688.72 3201.16 L3687.86 3199.52 L3686.79 3197.89 L3685.51 3196.26 L3684.03 3194.62 L3682.38 3192.99 L3680.6 3191.35 L3678.72 3189.72 L3676.8 3188.09 L3674.9 3186.45 L3673.09 3184.82 L3671.42 3183.18 L3669.96 3181.55 L3668.76 3179.91 L3667.86 3178.28 L3667.27 3176.65 L3667.01 3175.01 L3667.05 3173.38 L3667.37 3171.74 L3667.9 3170.11 L3668.56 3168.47 L3669.24 3166.84 L3669.84 3165.21 L3670.21 3163.57 L3670.22 3161.94 L3669.72 3160.3 L3668.6 3158.67 L3666.73 3157.04 L3664.02 3155.4 L3660.39 3153.77 L3655.82 3152.13 L3650.28 3150.5 L3643.82 3148.86 L3636.47 3147.23 L3628.32 3145.6 L3619.47 3143.96 L3610.01 3142.33 L3600.07 3140.69 L3589.75 3139.06 L3579.16 3137.43 L3568.36 3135.79 L3557.45 3134.16 L3546.47 3132.52 L3535.45 3130.89 L3524.44 3129.25 L3513.44 3127.62 L3502.48 3125.99 L3491.57 3124.35 L3480.73 3122.72 L3469.98 3121.08 L3459.35 3119.45 L3448.9 3117.82 L3438.66 3116.18 L3428.69 3114.55 L3419.06 3112.91 L3409.82 3111.28 L3401.05 3109.64 L3392.79 3108.01 L3385.09 3106.38 L3378 3104.74 L3290.44 3104.74 L3283.35 3106.38 L3275.66 3108.01 L3267.4 3109.64 L3258.62 3111.28 L3249.39 3112.91 L3239.76 3114.55 L3229.79 3116.18 L3219.55 3117.82 L3209.09 3119.45 L3198.47 3121.08 L3187.72 3122.72 L3176.87 3124.35 L3165.96 3125.99 L3155 3127.62 L3144.01 3129.25 L3132.99 3130.89 L3121.98 3132.52 L3111 3134.16 L3100.08 3135.79 L3089.29 3137.43 L3078.69 3139.06 L3068.37 3140.69 L3058.43 3142.33 L3048.98 3143.96 L3040.13 3145.6 L3031.98 3147.23 L3024.63 3148.86 L3018.16 3150.5 L3012.63 3152.13 L3008.05 3153.77 L3004.43 3155.4 L3001.71 3157.04 L2999.84 3158.67 L2998.72 3160.3 L2998.23 3161.94 L2998.24 3163.57 L2998.61 3165.21 L2999.2 3166.84 L2999.89 3168.47 L3000.55 3170.11 L3001.07 3171.74 L3001.39 3173.38 L3001.44 3175.01 L3001.18 3176.65 L3000.59 3178.28 L2999.68 3179.91 L2998.48 3181.55 L2997.02 3183.18 L2995.36 3184.82 L2993.55 3186.45 L2991.65 3188.09 L2989.73 3189.72 L2987.85 3191.35 L2986.06 3192.99 L2984.41 3194.62 L2982.93 3196.26 L2981.65 3197.89 L2980.58 3199.52 L2979.73 3201.16 L2979.08 3202.79 L2978.63 3204.43 L2978.36 3206.06 L2978.26 3207.7 L2978.31 3209.33 L2978.51 3210.96 L2978.83 3212.6 L2979.29 3214.23 L2979.88 3215.87 L2980.61 3217.5 L2981.49 3219.13 L2982.52 3220.77 L2983.71 3222.4 L2985.05 3224.04 L2986.54 3225.67 L2988.18 3227.31 L2989.94 3228.94 L2991.81 3230.57 L2993.78 3232.21 L2995.83 3233.84 L2997.93 3235.48 L3000.09 3237.11 L3002.3 3238.74 L3004.56 3240.38 L3006.88 3242.01 L3009.28 3243.65 L3011.78 3245.28 L3014.41 3246.92 L3017.2 3248.55 L3020.17 3250.18 L3023.37 3251.82 L3026.81 3253.45 L3030.51 3255.09 L3034.5 3256.72 L3038.79 3258.35 L3043.38 3259.99 L3048.28 3261.62 L3053.47 3263.26 L3058.93 3264.89 L3064.66 3266.53 L3070.62 3268.16 L3076.77 3269.79 L3083.07 3271.43 L3089.47 3273.06 L3095.91 3274.7 L3102.3 3276.33 L3108.57 3277.96 L3114.62 3279.6 L3120.35 3281.23 L3125.66 3282.87 L3130.43 3284.5 L3134.59 3286.14 L3138.03 3287.77 L3140.72 3289.4 L3142.6 3291.04 L3143.7 3292.67 L3144.04 3294.31 L3143.72 3295.94 L3142.87 3297.57 L3141.65 3299.21 L3140.26 3300.84 L3138.94 3302.48 L3137.92 3304.11 L3137.44 3305.75 L3137.75 3307.38 L3139.04 3309.01 L3141.5 3310.65 L3145.25 3312.28 L3150.37 3313.92 L3156.86 3315.55 L3164.67 3317.18 L3173.7 3318.82 L3183.79 3320.45 L3194.73 3322.09 L3206.27 3323.72 L3218.17 3325.36 L3230.17 3326.99 L3242.01 3328.62 L3426.44 3328.62  Z" fill="#21a784" fill-rule="evenodd" fill-opacity="1"/>
<polyline clip-path="url(#clip412)" style="stroke:#000000; stroke-linecap:round; stroke-linejoin:round; stroke-width:4; stroke-opacity:1; fill:none" points="3426.44,3328.62 3438.28,3326.99 3450.27,3325.36 3462.17,3323.72 3473.72,3322.09 3484.65,3320.45 3494.74,3318.82 3503.77,3317.18 3511.59,3315.55 3518.08,3313.92 3523.19,3312.28 3526.94,3310.65 3529.4,3309.01 3530.7,3307.38 3531,3305.75 3530.53,3304.11 3529.51,3302.48 3528.18,3300.84 3526.8,3299.21 3525.58,3297.57 3524.72,3295.94 3524.4,3294.31 3524.75,3292.67 3525.84,3291.04 3527.73,3289.4 3530.41,3287.77 3533.86,3286.14 3538.01,3284.5 3542.79,3282.87 3548.09,3281.23 3553.82,3279.6 3559.87,3277.96 3566.14,3276.33 3572.54,3274.7 3578.97,3273.06 3585.37,3271.43 3591.67,3269.79 3597.83,3268.16 3603.78,3266.53 3609.51,3264.89 3614.98,3263.26 3620.17,3261.62 3625.06,3259.99 3629.65,3258.35 3633.94,3256.72 3637.93,3255.09 3641.64,3253.45 3645.08,3251.82 3648.27,3250.18 3651.25,3248.55 3654.04,3246.92 3656.67,3245.28 3659.17,3243.65 3661.57,3242.01 3663.89,3240.38 3666.15,3238.74 3668.35,3237.11 3670.51,3235.48 3672.62,3233.84 3674.66,3232.21 3676.63,3230.57 3678.51,3228.94 3680.27,3227.31 3681.9,3225.67 3683.4,3224.04 3684.74,3222.4 3685.92,3220.77 3686.95,3219.13 3687.83,3217.5 3688.56,3215.87 3689.15,3214.23 3689.61,3212.6 3689.94,3210.96 3690.13,3209.33 3690.18,3207.7 3690.08,3206.06 3689.81,3204.43 3689.36,3202.79 3688.72,3201.16 3687.86,3199.52 3686.79,3197.89 3685.51,3196.26 3684.03,3194.62 3682.38,3192.99 3680.6,3191.35 3678.72,3189.72 3676.8,3188.09 3674.9,3186.45 3673.09,3184.82 3671.42,3183.18 3669.96,3181.55 3668.76,3179.91 3667.86,3178.28 3667.27,3176.65 3667.01,3175.01 3667.05,3173.38 3667.37,3171.74 3667.9,3170.11 3668.56,3168.47 3669.24,3166.84 3669.84,3165.21 3670.21,3163.57 3670.22,3161.94 3669.72,3160.3 3668.6,3158.67 3666.73,3157.04 3664.02,3155.4 3660.39,3153.77 3655.82,3152.13 3650.28,3150.5 3643.82,3148.86 3636.47,3147.23 3628.32,3145.6 3619.47,3143.96 3610.01,3142.33 3600.07,3140.69 3589.75,3139.06 3579.16,3137.43 3568.36,3135.79 3557.45,3134.16 3546.47,3132.52 3535.45,3130.89 3524.44,3129.25 3513.44,3127.62 3502.48,3125.99 3491.57,3124.35 3480.73,3122.72 3469.98,3121.08 3459.35,3119.45 3448.9,3117.82 3438.66,3116.18 3428.69,3114.55 3419.06,3112.91 3409.82,3111.28 3401.05,3109.64 3392.79,3108.01 3385.09,3106.38 3378,3104.74 3290.44,3104.74 3283.35,3106.38 3275.66,3108.01 3267.4,3109.64 3258.62,3111.28 3249.39,3112.91 3239.76,3114.55 3229.79,3116.18 3219.55,3117.82 3209.09,3119.45 3198.47,3121.08 3187.72,3122.72 3176.87,3124.35 3165.96,3125.99 3155,3127.62 3144.01,3129.25 3132.99,3130.89 3121.98,3132.52 3111,3134.16 3100.08,3135.79 3089.29,3137.43 3078.69,3139.06 3068.37,3140.69 3058.43,3142.33 3048.98,3143.96 3040.13,3145.6 3031.98,3147.23 3024.63,3148.86 3018.16,3150.5 3012.63,3152.13 3008.05,3153.77 3004.43,3155.4 3001.71,3157.04 2999.84,3158.67 2998.72,3160.3 2998.23,3161.94 2998.24,3163.57 2998.61,3165.21 2999.2,3166.84 2999.89,3168.47 3000.55,3170.11 3001.07,3171.74 3001.39,3173.38 3001.44,3175.01 3001.18,3176.65 3000.59,3178.28 2999.68,3179.91 2998.48,3181.55 2997.02,3183.18 2995.36,3184.82 2993.55,3186.45 2991.65,3188.09 2989.73,3189.72 2987.85,3191.35 2986.06,3192.99 2984.41,3194.62 2982.93,3196.26 2981.65,3197.89 2980.58,3199.52 2979.73,3201.16 2979.08,3202.79 2978.63,3204.43 2978.36,3206.06 2978.26,3207.7 2978.31,3209.33 2978.51,3210.96 2978.83,3212.6 2979.29,3214.23 2979.88,3215.87 2980.61,3217.5 2981.49,3219.13 2982.52,3220.77 2983.71,3222.4 2985.05,3224.04 2986.54,3225.67 2988.18,3227.31 2989.94,3228.94 2991.81,3230.57 2993.78,3232.21 2995.83,3233.84 2997.93,3235.48 3000.09,3237.11 3002.3,3238.74 3004.56,3240.38 3006.88,3242.01 3009.28,3243.65 3011.78,3245.28 3014.41,3246.92 3017.2,3248.55 3020.17,3250.18 3023.37,3251.82 3026.81,3253.45 3030.51,3255.09 3034.5,3256.72 3038.79,3258.35 3043.38,3259.99 3048.28,3261.62 3053.47,3263.26 3058.93,3264.89 3064.66,3266.53 3070.62,3268.16 3076.77,3269.79 3083.07,3271.43 3089.47,3273.06 3095.91,3274.7 3102.3,3276.33 3108.57,3277.96 3114.62,3279.6 3120.35,3281.23 3125.66,3282.87 3130.43,3284.5 3134.59,3286.14 3138.03,3287.77 3140.72,3289.4 3142.6,3291.04 3143.7,3292.67 3144.04,3294.31 3143.72,3295.94 3142.87,3297.57 3141.65,3299.21 3140.26,3300.84 3138.94,3302.48 3137.92,3304.11 3137.44,3305.75 3137.75,3307.38 3139.04,3309.01 3141.5,3310.65 3145.25,3312.28 3150.37,3313.92 3156.86,3315.55 3164.67,3317.18 3173.7,3318.82 3183.79,3320.45 3194.73,3322.09 3206.27,3323.72 3218.17,3325.36 3230.17,3326.99 3242.01,3328.62 3426.44,3328.62 "/>
<path clip-path="url(#clip412)" d="M4672.03 3339.51 L4683.7 3338.1 L4695.46 3336.7 L4707.04 3335.3 L4718.16 3333.9 L4728.58 3332.49 L4738.05 3331.09 L4746.35 3329.69 L4753.33 3328.29 L4758.88 3326.88 L4762.95 3325.48 L4765.55 3324.08 L4766.74 3322.68 L4766.63 3321.27 L4765.39 3319.87 L4763.21 3318.47 L4760.28 3317.06 L4756.83 3315.66 L4753.08 3314.26 L4749.24 3312.86 L4745.5 3311.45 L4742.03 3310.05 L4738.98 3308.65 L4736.46 3307.25 L4734.55 3305.84 L4733.31 3304.44 L4732.77 3303.04 L4732.92 3301.64 L4733.74 3300.23 L4735.18 3298.83 L4737.18 3297.43 L4739.68 3296.02 L4742.6 3294.62 L4745.86 3293.22 L4749.38 3291.82 L4753.09 3290.41 L4756.93 3289.01 L4760.85 3287.61 L4764.79 3286.21 L4768.72 3284.8 L4772.62 3283.4 L4776.48 3282 L4780.3 3280.6 L4784.08 3279.19 L4787.84 3277.79 L4791.61 3276.39 L4795.4 3274.99 L4799.26 3273.58 L4803.21 3272.18 L4807.28 3270.78 L4811.5 3269.37 L4815.89 3267.97 L4820.47 3266.57 L4825.26 3265.17 L4830.27 3263.76 L4835.48 3262.36 L4840.9 3260.96 L4846.49 3259.56 L4852.25 3258.15 L4858.13 3256.75 L4864.1 3255.35 L4870.1 3253.95 L4876.07 3252.54 L4881.97 3251.14 L4887.71 3249.74 L4893.23 3248.34 L4898.46 3246.93 L4903.32 3245.53 L4907.75 3244.13 L4911.69 3242.72 L4915.08 3241.32 L4917.89 3239.92 L4920.08 3238.52 L4921.66 3237.11 L4922.65 3235.71 L4923.07 3234.31 L4922.98 3232.91 L4922.46 3231.5 L4921.59 3230.1 L4920.46 3228.7 L4919.19 3227.3 L4917.88 3225.89 L4916.61 3224.49 L4915.47 3223.09 L4914.53 3221.68 L4913.84 3220.28 L4913.44 3218.88 L4913.32 3217.48 L4913.5 3216.07 L4913.95 3214.67 L4914.65 3213.27 L4915.57 3211.87 L4916.67 3210.46 L4917.92 3209.06 L4919.28 3207.66 L4920.73 3206.26 L4922.25 3204.85 L4923.81 3203.45 L4925.39 3202.05 L4926.98 3200.65 L4928.56 3199.24 L4930.1 3197.84 L4931.57 3196.44 L4932.92 3195.03 L4934.11 3193.63 L4935.08 3192.23 L4935.75 3190.83 L4936.04 3189.42 L4935.86 3188.02 L4935.12 3186.62 L4933.71 3185.22 L4931.55 3183.81 L4928.53 3182.41 L4924.58 3181.01 L4919.63 3179.61 L4913.63 3178.2 L4906.54 3176.8 L4898.37 3175.4 L4889.14 3174 L4878.89 3172.59 L4867.69 3171.19 L4855.65 3169.79 L4842.87 3168.38 L4829.48 3166.98 L4815.61 3165.58 L4801.41 3164.18 L4787.02 3162.77 L4772.57 3161.37 L4758.19 3159.97 L4744.01 3158.57 L4730.12 3157.16 L4716.64 3155.76 L4703.64 3154.36 L4691.2 3152.96 L4468.95 3152.96 L4456.51 3154.36 L4443.52 3155.76 L4430.03 3157.16 L4416.15 3158.57 L4401.97 3159.97 L4387.59 3161.37 L4373.14 3162.77 L4358.75 3164.18 L4344.55 3165.58 L4330.68 3166.98 L4317.29 3168.38 L4304.51 3169.79 L4292.46 3171.19 L4281.27 3172.59 L4271.02 3174 L4261.79 3175.4 L4253.62 3176.8 L4246.53 3178.2 L4240.53 3179.61 L4235.58 3181.01 L4231.63 3182.41 L4228.61 3183.81 L4226.45 3185.22 L4225.04 3186.62 L4224.3 3188.02 L4224.12 3189.42 L4224.41 3190.83 L4225.08 3192.23 L4226.04 3193.63 L4227.23 3195.03 L4228.59 3196.44 L4230.06 3197.84 L4231.6 3199.24 L4233.17 3200.65 L4234.77 3202.05 L4236.35 3203.45 L4237.91 3204.85 L4239.43 3206.26 L4240.88 3207.66 L4242.24 3209.06 L4243.49 3210.46 L4244.59 3211.87 L4245.51 3213.27 L4246.21 3214.67 L4246.66 3216.07 L4246.84 3217.48 L4246.72 3218.88 L4246.31 3220.28 L4245.62 3221.68 L4244.69 3223.09 L4243.55 3224.49 L4242.28 3225.89 L4240.96 3227.3 L4239.69 3228.7 L4238.57 3230.1 L4237.7 3231.5 L4237.18 3232.91 L4237.09 3234.31 L4237.51 3235.71 L4238.49 3237.11 L4240.08 3238.52 L4242.27 3239.92 L4245.08 3241.32 L4248.47 3242.72 L4252.4 3244.13 L4256.84 3245.53 L4261.7 3246.93 L4266.93 3248.34 L4272.45 3249.74 L4278.19 3251.14 L4284.08 3252.54 L4290.06 3253.95 L4296.06 3255.35 L4302.03 3256.75 L4307.91 3258.15 L4313.66 3259.56 L4319.26 3260.96 L4324.68 3262.36 L4329.89 3263.76 L4334.89 3265.17 L4339.68 3266.57 L4344.27 3267.97 L4348.66 3269.37 L4352.88 3270.78 L4356.95 3272.18 L4360.9 3273.58 L4364.75 3274.99 L4368.55 3276.39 L4372.32 3277.79 L4376.08 3279.19 L4379.86 3280.6 L4383.68 3282 L4387.54 3283.4 L4391.44 3284.8 L4395.37 3286.21 L4399.31 3287.61 L4403.22 3289.01 L4407.07 3290.41 L4410.78 3291.82 L4414.3 3293.22 L4417.56 3294.62 L4420.48 3296.02 L4422.98 3297.43 L4424.98 3298.83 L4426.42 3300.23 L4427.24 3301.64 L4427.39 3303.04 L4426.84 3304.44 L4425.61 3305.84 L4423.7 3307.25 L4421.18 3308.65 L4418.13 3310.05 L4414.66 3311.45 L4410.92 3312.86 L4407.08 3314.26 L4403.33 3315.66 L4399.88 3317.06 L4396.95 3318.47 L4394.76 3319.87 L4393.53 3321.27 L4393.42 3322.68 L4394.61 3324.08 L4397.21 3325.48 L4401.28 3326.88 L4406.83 3328.29 L4413.81 3329.69 L4422.11 3331.09 L4431.58 3332.49 L4442 3333.9 L4453.12 3335.3 L4464.7 3336.7 L4476.46 3338.1 L4488.13 3339.51 L4672.03 3339.51  Z" fill="#77d052" fill-rule="evenodd" fill-opacity="1"/>
<polyline clip-path="url(#clip412)" style="stroke:#000000; stroke-linecap:round; stroke-linejoin:round; stroke-width:4; stroke-opacity:1; fill:none" points="4672.03,3339.51 4683.7,3338.1 4695.46,3336.7 4707.04,3335.3 4718.16,3333.9 4728.58,3332.49 4738.05,3331.09 4746.35,3329.69 4753.33,3328.29 4758.88,3326.88 4762.95,3325.48 4765.55,3324.08 4766.74,3322.68 4766.63,3321.27 4765.39,3319.87 4763.21,3318.47 4760.28,3317.06 4756.83,3315.66 4753.08,3314.26 4749.24,3312.86 4745.5,3311.45 4742.03,3310.05 4738.98,3308.65 4736.46,3307.25 4734.55,3305.84 4733.31,3304.44 4732.77,3303.04 4732.92,3301.64 4733.74,3300.23 4735.18,3298.83 4737.18,3297.43 4739.68,3296.02 4742.6,3294.62 4745.86,3293.22 4749.38,3291.82 4753.09,3290.41 4756.93,3289.01 4760.85,3287.61 4764.79,3286.21 4768.72,3284.8 4772.62,3283.4 4776.48,3282 4780.3,3280.6 4784.08,3279.19 4787.84,3277.79 4791.61,3276.39 4795.4,3274.99 4799.26,3273.58 4803.21,3272.18 4807.28,3270.78 4811.5,3269.37 4815.89,3267.97 4820.47,3266.57 4825.26,3265.17 4830.27,3263.76 4835.48,3262.36 4840.9,3260.96 4846.49,3259.56 4852.25,3258.15 4858.13,3256.75 4864.1,3255.35 4870.1,3253.95 4876.07,3252.54 4881.97,3251.14 4887.71,3249.74 4893.23,3248.34 4898.46,3246.93 4903.32,3245.53 4907.75,3244.13 4911.69,3242.72 4915.08,3241.32 4917.89,3239.92 4920.08,3238.52 4921.66,3237.11 4922.65,3235.71 4923.07,3234.31 4922.98,3232.91 4922.46,3231.5 4921.59,3230.1 4920.46,3228.7 4919.19,3227.3 4917.88,3225.89 4916.61,3224.49 4915.47,3223.09 4914.53,3221.68 4913.84,3220.28 4913.44,3218.88 4913.32,3217.48 4913.5,3216.07 4913.95,3214.67 4914.65,3213.27 4915.57,3211.87 4916.67,3210.46 4917.92,3209.06 4919.28,3207.66 4920.73,3206.26 4922.25,3204.85 4923.81,3203.45 4925.39,3202.05 4926.98,3200.65 4928.56,3199.24 4930.1,3197.84 4931.57,3196.44 4932.92,3195.03 4934.11,3193.63 4935.08,3192.23 4935.75,3190.83 4936.04,3189.42 4935.86,3188.02 4935.12,3186.62 4933.71,3185.22 4931.55,3183.81 4928.53,3182.41 4924.58,3181.01 4919.63,3179.61 4913.63,3178.2 4906.54,3176.8 4898.37,3175.4 4889.14,3174 4878.89,3172.59 4867.69,3171.19 4855.65,3169.79 4842.87,3168.38 4829.48,3166.98 4815.61,3165.58 4801.41,3164.18 4787.02,3162.77 4772.57,3161.37 4758.19,3159.97 4744.01,3158.57 4730.12,3157.16 4716.64,3155.76 4703.64,3154.36 4691.2,3152.96 4468.95,3152.96 4456.51,3154.36 4443.52,3155.76 4430.03,3157.16 4416.15,3158.57 4401.97,3159.97 4387.59,3161.37 4373.14,3162.77 4358.75,3164.18 4344.55,3165.58 4330.68,3166.98 4317.29,3168.38 4304.51,3169.79 4292.46,3171.19 4281.27,3172.59 4271.02,3174 4261.79,3175.4 4253.62,3176.8 4246.53,3178.2 4240.53,3179.61 4235.58,3181.01 4231.63,3182.41 4228.61,3183.81 4226.45,3185.22 4225.04,3186.62 4224.3,3188.02 4224.12,3189.42 4224.41,3190.83 4225.08,3192.23 4226.04,3193.63 4227.23,3195.03 4228.59,3196.44 4230.06,3197.84 4231.6,3199.24 4233.17,3200.65 4234.77,3202.05 4236.35,3203.45 4237.91,3204.85 4239.43,3206.26 4240.88,3207.66 4242.24,3209.06 4243.49,3210.46 4244.59,3211.87 4245.51,3213.27 4246.21,3214.67 4246.66,3216.07 4246.84,3217.48 4246.72,3218.88 4246.31,3220.28 4245.62,3221.68 4244.69,3223.09 4243.55,3224.49 4242.28,3225.89 4240.96,3227.3 4239.69,3228.7 4238.57,3230.1 4237.7,3231.5 4237.18,3232.91 4237.09,3234.31 4237.51,3235.71 4238.49,3237.11 4240.08,3238.52 4242.27,3239.92 4245.08,3241.32 4248.47,3242.72 4252.4,3244.13 4256.84,3245.53 4261.7,3246.93 4266.93,3248.34 4272.45,3249.74 4278.19,3251.14 4284.08,3252.54 4290.06,3253.95 4296.06,3255.35 4302.03,3256.75 4307.91,3258.15 4313.66,3259.56 4319.26,3260.96 4324.68,3262.36 4329.89,3263.76 4334.89,3265.17 4339.68,3266.57 4344.27,3267.97 4348.66,3269.37 4352.88,3270.78 4356.95,3272.18 4360.9,3273.58 4364.75,3274.99 4368.55,3276.39 4372.32,3277.79 4376.08,3279.19 4379.86,3280.6 4383.68,3282 4387.54,3283.4 4391.44,3284.8 4395.37,3286.21 4399.31,3287.61 4403.22,3289.01 4407.07,3290.41 4410.78,3291.82 4414.3,3293.22 4417.56,3294.62 4420.48,3296.02 4422.98,3297.43 4424.98,3298.83 4426.42,3300.23 4427.24,3301.64 4427.39,3303.04 4426.84,3304.44 4425.61,3305.84 4423.7,3307.25 4421.18,3308.65 4418.13,3310.05 4414.66,3311.45 4410.92,3312.86 4407.08,3314.26 4403.33,3315.66 4399.88,3317.06 4396.95,3318.47 4394.76,3319.87 4393.53,3321.27 4393.42,3322.68 4394.61,3324.08 4397.21,3325.48 4401.28,3326.88 4406.83,3328.29 4413.81,3329.69 4422.11,3331.09 4431.58,3332.49 4442,3333.9 4453.12,3335.3 4464.7,3336.7 4476.46,3338.1 4488.13,3339.51 4672.03,3339.51 "/>
<path clip-path="url(#clip412)" d="M5834.26 2401.7 L5835.19 2385.69 L5836.18 2369.67 L5837.22 2353.65 L5838.31 2337.63 L5839.47 2321.61 L5840.69 2305.6 L5841.97 2289.58 L5843.32 2273.56 L5844.74 2257.54 L5846.22 2241.52 L5847.75 2225.5 L5849.34 2209.49 L5850.97 2193.47 L5852.66 2177.45 L5854.4 2161.43 L5856.2 2145.41 L5858.07 2129.39 L5860.03 2113.38 L5862.09 2097.36 L5864.29 2081.34 L5866.63 2065.32 L5869.13 2049.3 L5871.8 2033.29 L5874.64 2017.27 L5877.63 2001.25 L5880.77 1985.23 L5884.02 1969.21 L5887.33 1953.19 L5890.66 1937.18 L5893.96 1921.16 L5897.19 1905.14 L5900.29 1889.12 L5903.23 1873.1 L5905.98 1857.09 L5908.55 1841.07 L5910.92 1825.05 L5913.14 1809.03 L5915.22 1793.01 L5917.22 1776.99 L5919.19 1760.98 L5921.17 1744.96 L5923.21 1728.94 L5925.34 1712.92 L5927.58 1696.9 L5929.93 1680.88 L5932.38 1664.87 L5934.89 1648.85 L5937.43 1632.83 L5939.94 1616.81 L5942.36 1600.79 L5944.63 1584.78 L5946.7 1568.76 L5948.51 1552.74 L5950.04 1536.72 L5951.26 1520.7 L5952.16 1504.68 L5952.75 1488.67 L5953.06 1472.65 L5953.11 1456.63 L5952.96 1440.61 L5952.67 1424.59 L5952.3 1408.57 L5951.93 1392.56 L5951.61 1376.54 L5951.4 1360.52 L5951.35 1344.5 L5951.49 1328.48 L5951.83 1312.47 L5952.36 1296.45 L5953.06 1280.43 L5953.89 1264.41 L5954.8 1248.39 L5955.73 1232.37 L5956.64 1216.36 L5957.5 1200.34 L5958.27 1184.32 L5958.96 1168.3 L5959.6 1152.28 L5960.23 1136.27 L5960.93 1120.25 L5961.79 1104.23 L5962.9 1088.21 L5964.36 1072.19 L5966.27 1056.17 L5968.72 1040.16 L5971.8 1024.14 L5975.56 1008.12 L5980.03 992.101 L5985.25 976.083 L5991.21 960.065 L5997.9 944.046 L6005.28 928.028 L6013.3 912.01 L6021.9 895.992 L6031.02 879.973 L6040.58 863.955 L6050.49 847.937 L6060.67 831.919 L6071.04 815.901 L6081.51 799.882 L6091.99 783.864 L6102.39 767.846 L6112.61 751.828 L6122.56 735.809 L6132.12 719.791 L6141.19 703.773 L6149.64 687.755 L6157.36 671.737 L6164.22 655.718 L6170.11 639.7 L6174.91 623.682 L6178.52 607.664 L6180.87 591.645 L6181.9 575.627 L6181.58 559.609 L6179.91 543.591 L6176.94 527.573 L6172.7 511.554 L6167.29 495.536 L6160.77 479.518 L6153.23 463.5 L6144.77 447.481 L6135.43 431.463 L6125.29 415.445 L6114.36 399.427 L6102.69 383.409 L6090.28 367.39 L6077.14 351.372 L6063.31 335.354 L6048.83 319.336 L6033.78 303.317 L6018.25 287.299 L6002.4 271.281 L5986.39 255.263 L5970.43 239.245 L5954.72 223.226 L5939.47 207.208 L5924.9 191.19 L5911.19 175.172 L5898.49 159.153 L5886.91 143.135 L5764.96 143.135 L5753.38 159.153 L5740.68 175.172 L5726.97 191.19 L5712.4 207.208 L5697.16 223.226 L5681.44 239.245 L5665.48 255.263 L5649.47 271.281 L5633.62 287.299 L5618.1 303.317 L5603.04 319.336 L5588.56 335.354 L5574.73 351.372 L5561.6 367.39 L5549.18 383.409 L5537.51 399.427 L5526.59 415.445 L5516.44 431.463 L5507.11 447.481 L5498.64 463.5 L5491.11 479.518 L5484.59 495.536 L5479.17 511.554 L5474.93 527.573 L5471.96 543.591 L5470.3 559.609 L5469.98 575.627 L5471 591.645 L5473.35 607.664 L5476.96 623.682 L5481.76 639.7 L5487.65 655.718 L5494.51 671.737 L5502.23 687.755 L5510.69 703.773 L5519.75 719.791 L5529.31 735.809 L5539.26 751.828 L5549.48 767.846 L5559.88 783.864 L5570.36 799.882 L5580.83 815.901 L5591.2 831.919 L5601.39 847.937 L5611.3 863.955 L5620.85 879.973 L5629.97 895.992 L5638.57 912.01 L5646.59 928.028 L5653.97 944.046 L5660.66 960.065 L5666.62 976.083 L5671.84 992.101 L5676.32 1008.12 L5680.07 1024.14 L5683.15 1040.16 L5685.6 1056.17 L5687.52 1072.19 L5688.98 1088.21 L5690.08 1104.23 L5690.94 1120.25 L5691.64 1136.27 L5692.28 1152.28 L5692.91 1168.3 L5693.61 1184.32 L5694.38 1200.34 L5695.23 1216.36 L5696.14 1232.37 L5697.07 1248.39 L5697.98 1264.41 L5698.81 1280.43 L5699.51 1296.45 L5700.05 1312.47 L5700.39 1328.48 L5700.53 1344.5 L5700.48 1360.52 L5700.27 1376.54 L5699.95 1392.56 L5699.57 1408.57 L5699.2 1424.59 L5698.91 1440.61 L5698.76 1456.63 L5698.82 1472.65 L5699.12 1488.67 L5699.71 1504.68 L5700.61 1520.7 L5701.83 1536.72 L5703.36 1552.74 L5705.17 1568.76 L5707.24 1584.78 L5709.51 1600.79 L5711.93 1616.81 L5714.44 1632.83 L5716.98 1648.85 L5719.49 1664.87 L5721.94 1680.88 L5724.3 1696.9 L5726.54 1712.92 L5728.67 1728.94 L5730.71 1744.96 L5732.69 1760.98 L5734.65 1776.99 L5736.65 1793.01 L5738.74 1809.03 L5740.95 1825.05 L5743.33 1841.07 L5745.89 1857.09 L5748.65 1873.1 L5751.59 1889.12 L5754.69 1905.14 L5757.91 1921.16 L5761.21 1937.18 L5764.55 1953.19 L5767.86 1969.21 L5771.1 1985.23 L5774.24 2001.25 L5777.24 2017.27 L5780.07 2033.29 L5782.74 2049.3 L5785.24 2065.32 L5787.58 2081.34 L5789.78 2097.36 L5791.85 2113.38 L5793.81 2129.39 L5795.68 2145.41 L5797.47 2161.43 L5799.21 2177.45 L5800.9 2193.47 L5802.53 2209.49 L5804.12 2225.5 L5805.66 2241.52 L5807.13 2257.54 L5808.55 2273.56 L5809.9 2289.58 L5811.19 2305.6 L5812.41 2321.61 L5813.56 2337.63 L5814.65 2353.65 L5815.69 2369.67 L5816.68 2385.69 L5817.62 2401.7 L5834.26 2401.7  Z" fill="#fae622" fill-rule="evenodd" fill-opacity="1"/>
<polyline clip-path="url(#clip412)" style="stroke:#000000; stroke-linecap:round; stroke-linejoin:round; stroke-width:4; stroke-opacity:1; fill:none" points="5834.26,2401.7 5835.19,2385.69 5836.18,2369.67 5837.22,2353.65 5838.31,2337.63 5839.47,2321.61 5840.69,2305.6 5841.97,2289.58 5843.32,2273.56 5844.74,2257.54 5846.22,2241.52 5847.75,2225.5 5849.34,2209.49 5850.97,2193.47 5852.66,2177.45 5854.4,2161.43 5856.2,2145.41 5858.07,2129.39 5860.03,2113.38 5862.09,2097.36 5864.29,2081.34 5866.63,2065.32 5869.13,2049.3 5871.8,2033.29 5874.64,2017.27 5877.63,2001.25 5880.77,1985.23 5884.02,1969.21 5887.33,1953.19 5890.66,1937.18 5893.96,1921.16 5897.19,1905.14 5900.29,1889.12 5903.23,1873.1 5905.98,1857.09 5908.55,1841.07 5910.92,1825.05 5913.14,1809.03 5915.22,1793.01 5917.22,1776.99 5919.19,1760.98 5921.17,1744.96 5923.21,1728.94 5925.34,1712.92 5927.58,1696.9 5929.93,1680.88 5932.38,1664.87 5934.89,1648.85 5937.43,1632.83 5939.94,1616.81 5942.36,1600.79 5944.63,1584.78 5946.7,1568.76 5948.51,1552.74 5950.04,1536.72 5951.26,1520.7 5952.16,1504.68 5952.75,1488.67 5953.06,1472.65 5953.11,1456.63 5952.96,1440.61 5952.67,1424.59 5952.3,1408.57 5951.93,1392.56 5951.61,1376.54 5951.4,1360.52 5951.35,1344.5 5951.49,1328.48 5951.83,1312.47 5952.36,1296.45 5953.06,1280.43 5953.89,1264.41 5954.8,1248.39 5955.73,1232.37 5956.64,1216.36 5957.5,1200.34 5958.27,1184.32 5958.96,1168.3 5959.6,1152.28 5960.23,1136.27 5960.93,1120.25 5961.79,1104.23 5962.9,1088.21 5964.36,1072.19 5966.27,1056.17 5968.72,1040.16 5971.8,1024.14 5975.56,1008.12 5980.03,992.101 5985.25,976.083 5991.21,960.065 5997.9,944.046 6005.28,928.028 6013.3,912.01 6021.9,895.992 6031.02,879.973 6040.58,863.955 6050.49,847.937 6060.67,831.919 6071.04,815.901 6081.51,799.882 6091.99,783.864 6102.39,767.846 6112.61,751.828 6122.56,735.809 6132.12,719.791 6141.19,703.773 6149.64,687.755 6157.36,671.737 6164.22,655.718 6170.11,639.7 6174.91,623.682 6178.52,607.664 6180.87,591.645 6181.9,575.627 6181.58,559.609 6179.91,543.591 6176.94,527.573 6172.7,511.554 6167.29,495.536 6160.77,479.518 6153.23,463.5 6144.77,447.481 6135.43,431.463 6125.29,415.445 6114.36,399.427 6102.69,383.409 6090.28,367.39 6077.14,351.372 6063.31,335.354 6048.83,319.336 6033.78,303.317 6018.25,287.299 6002.4,271.281 5986.39,255.263 5970.43,239.245 5954.72,223.226 5939.47,207.208 5924.9,191.19 5911.19,175.172 5898.49,159.153 5886.91,143.135 5764.96,143.135 5753.38,159.153 5740.68,175.172 5726.97,191.19 5712.4,207.208 5697.16,223.226 5681.44,239.245 5665.48,255.263 5649.47,271.281 5633.62,287.299 5618.1,303.317 5603.04,319.336 5588.56,335.354 5574.73,351.372 5561.6,367.39 5549.18,383.409 5537.51,399.427 5526.59,415.445 5516.44,431.463 5507.11,447.481 5498.64,463.5 5491.11,479.518 5484.59,495.536 5479.17,511.554 5474.93,527.573 5471.96,543.591 5470.3,559.609 5469.98,575.627 5471,591.645 5473.35,607.664 5476.96,623.682 5481.76,639.7 5487.65,655.718 5494.51,671.737 5502.23,687.755 5510.69,703.773 5519.75,719.791 5529.31,735.809 5539.26,751.828 5549.48,767.846 5559.88,783.864 5570.36,799.882 5580.83,815.901 5591.2,831.919 5601.39,847.937 5611.3,863.955 5620.85,879.973 5629.97,895.992 5638.57,912.01 5646.59,928.028 5653.97,944.046 5660.66,960.065 5666.62,976.083 5671.84,992.101 5676.32,1008.12 5680.07,1024.14 5683.15,1040.16 5685.6,1056.17 5687.52,1072.19 5688.98,1088.21 5690.08,1104.23 5690.94,1120.25 5691.64,1136.27 5692.28,1152.28 5692.91,1168.3 5693.61,1184.32 5694.38,1200.34 5695.23,1216.36 5696.14,1232.37 5697.07,1248.39 5697.98,1264.41 5698.81,1280.43 5699.51,1296.45 5700.05,1312.47 5700.39,1328.48 5700.53,1344.5 5700.48,1360.52 5700.27,1376.54 5699.95,1392.56 5699.57,1408.57 5699.2,1424.59 5698.91,1440.61 5698.76,1456.63 5698.82,1472.65 5699.12,1488.67 5699.71,1504.68 5700.61,1520.7 5701.83,1536.72 5703.36,1552.74 5705.17,1568.76 5707.24,1584.78 5709.51,1600.79 5711.93,1616.81 5714.44,1632.83 5716.98,1648.85 5719.49,1664.87 5721.94,1680.88 5724.3,1696.9 5726.54,1712.92 5728.67,1728.94 5730.71,1744.96 5732.69,1760.98 5734.65,1776.99 5736.65,1793.01 5738.74,1809.03 5740.95,1825.05 5743.33,1841.07 5745.89,1857.09 5748.65,1873.1 5751.59,1889.12 5754.69,1905.14 5757.91,1921.16 5761.21,1937.18 5764.55,1953.19 5767.86,1969.21 5771.1,1985.23 5774.24,2001.25 5777.24,2017.27 5780.07,2033.29 5782.74,2049.3 5785.24,2065.32 5787.58,2081.34 5789.78,2097.36 5791.85,2113.38 5793.81,2129.39 5795.68,2145.41 5797.47,2161.43 5799.21,2177.45 5800.9,2193.47 5802.53,2209.49 5804.12,2225.5 5805.66,2241.52 5807.13,2257.54 5808.55,2273.56 5809.9,2289.58 5811.19,2305.6 5812.41,2321.61 5813.56,2337.63 5814.65,2353.65 5815.69,2369.67 5816.68,2385.69 5817.62,2401.7 5834.26,2401.7 "/>
</svg>
