<?xml version="1.0" encoding="utf-8"?>
<svg xmlns="http://www.w3.org/2000/svg" xmlns:xlink="http://www.w3.org/1999/xlink" width="1600" height="900" viewBox="0 0 6400 3600">
<defs>
  <clipPath id="clip130">
    <rect x="0" y="0" width="6400" height="3600"/>
  </clipPath>
</defs>
<path clip-path="url(#clip130)" d="M0 3600 L6400 3600 L6400 0 L0 0  Z" fill="#ffffff" fill-rule="evenodd" fill-opacity="1"/>
<defs>
  <clipPath id="clip131">
    <rect x="1280" y="0" width="4481" height="3600"/>
  </clipPath>
</defs>
<path clip-path="url(#clip130)" d="M315.689 3435.4 L6352.76 3435.4 L6352.76 47.2441 L315.689 47.2441  Z" fill="#ffffff" fill-rule="evenodd" fill-opacity="1"/>
<defs>
  <clipPath id="clip132">
    <rect x="315" y="47" width="6038" height="3389"/>
  </clipPath>
</defs>
<polyline clip-path="url(#clip132)" style="stroke:#000000; stroke-linecap:round; stroke-linejoin:round; stroke-width:2; stroke-opacity:0.1; fill:none" points="842.509,3435.4 842.509,47.2441 "/>
<polyline clip-path="url(#clip132)" style="stroke:#000000; stroke-linecap:round; stroke-linejoin:round; stroke-width:2; stroke-opacity:0.1; fill:none" points="2088.37,3435.4 2088.37,47.2441 "/>
<polyline clip-path="url(#clip132)" style="stroke:#000000; stroke-linecap:round; stroke-linejoin:round; stroke-width:2; stroke-opacity:0.1; fill:none" points="3334.22,3435.4 3334.22,47.2441 "/>
<polyline clip-path="url(#clip132)" style="stroke:#000000; stroke-linecap:round; stroke-linejoin:round; stroke-width:2; stroke-opacity:0.1; fill:none" points="4580.08,3435.4 4580.08,47.2441 "/>
<polyline clip-path="url(#clip132)" style="stroke:#000000; stroke-linecap:round; stroke-linejoin:round; stroke-width:2; stroke-opacity:0.1; fill:none" points="5825.94,3435.4 5825.94,47.2441 "/>
<polyline clip-path="url(#clip132)" style="stroke:#000000; stroke-linecap:round; stroke-linejoin:round; stroke-width:2; stroke-opacity:0.1; fill:none" points="315.689,3425.09 6352.76,3425.09 "/>
<polyline clip-path="url(#clip132)" style="stroke:#000000; stroke-linecap:round; stroke-linejoin:round; stroke-width:2; stroke-opacity:0.1; fill:none" points="315.689,2825.49 6352.76,2825.49 "/>
<polyline clip-path="url(#clip132)" style="stroke:#000000; stroke-linecap:round; stroke-linejoin:round; stroke-width:2; stroke-opacity:0.1; fill:none" points="315.689,2225.89 6352.76,2225.89 "/>
<polyline clip-path="url(#clip132)" style="stroke:#000000; stroke-linecap:round; stroke-linejoin:round; stroke-width:2; stroke-opacity:0.1; fill:none" points="315.689,1626.29 6352.76,1626.29 "/>
<polyline clip-path="url(#clip132)" style="stroke:#000000; stroke-linecap:round; stroke-linejoin:round; stroke-width:2; stroke-opacity:0.1; fill:none" points="315.689,1026.7 6352.76,1026.7 "/>
<polyline clip-path="url(#clip132)" style="stroke:#000000; stroke-linecap:round; stroke-linejoin:round; stroke-width:2; stroke-opacity:0.1; fill:none" points="315.689,427.097 6352.76,427.097 "/>
<polyline clip-path="url(#clip130)" style="stroke:#000000; stroke-linecap:round; stroke-linejoin:round; stroke-width:4; stroke-opacity:1; fill:none" points="315.689,3435.4 6352.76,3435.4 "/>
<polyline clip-path="url(#clip130)" style="stroke:#000000; stroke-linecap:round; stroke-linejoin:round; stroke-width:4; stroke-opacity:1; fill:none" points="842.509,3435.4 842.509,3416.5 "/>
<polyline clip-path="url(#clip130)" style="stroke:#000000; stroke-linecap:round; stroke-linejoin:round; stroke-width:4; stroke-opacity:1; fill:none" points="2088.37,3435.4 2088.37,3416.5 "/>
<polyline clip-path="url(#clip130)" style="stroke:#000000; stroke-linecap:round; stroke-linejoin:round; stroke-width:4; stroke-opacity:1; fill:none" points="3334.22,3435.4 3334.22,3416.5 "/>
<polyline clip-path="url(#clip130)" style="stroke:#000000; stroke-linecap:round; stroke-linejoin:round; stroke-width:4; stroke-opacity:1; fill:none" points="4580.08,3435.4 4580.08,3416.5 "/>
<polyline clip-path="url(#clip130)" style="stroke:#000000; stroke-linecap:round; stroke-linejoin:round; stroke-width:4; stroke-opacity:1; fill:none" points="5825.94,3435.4 5825.94,3416.5 "/>
<path clip-path="url(#clip130)" d="M617.354 3554.48 Q605.739 3554.48 601.26 3557.13 Q596.781 3559.79 596.781 3566.19 Q596.781 3571.3 600.114 3574.32 Q603.499 3577.29 609.281 3577.29 Q617.249 3577.29 622.041 3571.66 Q626.885 3565.99 626.885 3556.61 L626.885 3554.48 L617.354 3554.48 M636.468 3550.52 L636.468 3583.8 L626.885 3583.8 L626.885 3574.94 Q623.603 3580.26 618.708 3582.81 Q613.812 3585.31 606.729 3585.31 Q597.77 3585.31 592.458 3580.31 Q587.197 3575.26 587.197 3566.82 Q587.197 3556.98 593.76 3551.98 Q600.374 3546.98 613.447 3546.98 L626.885 3546.98 L626.885 3546.04 Q626.885 3539.42 622.51 3535.83 Q618.187 3532.18 610.322 3532.18 Q605.322 3532.18 600.583 3533.38 Q595.843 3534.58 591.468 3536.98 L591.468 3528.12 Q596.729 3526.09 601.677 3525.1 Q606.624 3524.06 611.312 3524.06 Q623.968 3524.06 630.218 3530.62 Q636.468 3537.18 636.468 3550.52 Z" fill="#000000" fill-rule="nonzero" fill-opacity="1" /><path clip-path="url(#clip130)" d="M690.009 3534.42 Q688.395 3533.49 686.468 3533.07 Q684.593 3532.6 682.301 3532.6 Q674.176 3532.6 669.801 3537.91 Q665.478 3543.17 665.478 3553.07 L665.478 3583.8 L655.843 3583.8 L655.843 3525.46 L665.478 3525.46 L665.478 3534.53 Q668.499 3529.21 673.343 3526.66 Q678.187 3524.06 685.114 3524.06 Q686.103 3524.06 687.301 3524.21 Q688.499 3524.32 689.957 3524.58 L690.009 3534.42 Z" fill="#000000" fill-rule="nonzero" fill-opacity="1" /><path clip-path="url(#clip130)" d="M736.572 3553.95 Q736.572 3543.54 732.249 3537.81 Q727.978 3532.08 720.218 3532.08 Q712.509 3532.08 708.186 3537.81 Q703.916 3543.54 703.916 3553.95 Q703.916 3564.32 708.186 3570.05 Q712.509 3575.78 720.218 3575.78 Q727.978 3575.78 732.249 3570.05 Q736.572 3564.32 736.572 3553.95 M746.155 3576.56 Q746.155 3591.45 739.54 3598.69 Q732.926 3605.99 719.28 3605.99 Q714.228 3605.99 709.749 3605.2 Q705.27 3604.47 701.051 3602.91 L701.051 3593.59 Q705.27 3595.88 709.384 3596.97 Q713.499 3598.07 717.77 3598.07 Q727.197 3598.07 731.884 3593.12 Q736.572 3588.22 736.572 3578.28 L736.572 3573.54 Q733.603 3578.69 728.967 3581.25 Q724.332 3583.8 717.874 3583.8 Q707.145 3583.8 700.582 3575.62 Q694.02 3567.44 694.02 3553.95 Q694.02 3540.41 700.582 3532.24 Q707.145 3524.06 717.874 3524.06 Q724.332 3524.06 728.967 3526.61 Q733.603 3529.16 736.572 3534.32 L736.572 3525.46 L746.155 3525.46 L746.155 3576.56 Z" fill="#000000" fill-rule="nonzero" fill-opacity="1" /><path clip-path="url(#clip130)" d="M775.165 3575.05 L775.165 3605.99 L765.53 3605.99 L765.53 3525.46 L775.165 3525.46 L775.165 3534.32 Q778.186 3529.11 782.769 3526.61 Q787.405 3524.06 793.811 3524.06 Q804.436 3524.06 811.05 3532.5 Q817.717 3540.93 817.717 3554.68 Q817.717 3568.43 811.05 3576.87 Q804.436 3585.31 793.811 3585.31 Q787.405 3585.31 782.769 3582.81 Q778.186 3580.26 775.165 3575.05 M807.769 3554.68 Q807.769 3544.11 803.394 3538.12 Q799.071 3532.08 791.467 3532.08 Q783.863 3532.08 779.488 3538.12 Q775.165 3544.11 775.165 3554.68 Q775.165 3565.26 779.488 3571.3 Q783.863 3577.29 791.467 3577.29 Q799.071 3577.29 803.394 3571.3 Q807.769 3565.26 807.769 3554.68 Z" fill="#000000" fill-rule="nonzero" fill-opacity="1" /><path clip-path="url(#clip130)" d="M860.113 3554.48 Q848.498 3554.48 844.019 3557.13 Q839.54 3559.79 839.54 3566.19 Q839.54 3571.3 842.873 3574.32 Q846.259 3577.29 852.04 3577.29 Q860.008 3577.29 864.8 3571.66 Q869.644 3565.99 869.644 3556.61 L869.644 3554.48 L860.113 3554.48 M879.227 3550.52 L879.227 3583.8 L869.644 3583.8 L869.644 3574.94 Q866.363 3580.26 861.467 3582.81 Q856.571 3585.31 849.488 3585.31 Q840.529 3585.31 835.217 3580.31 Q829.957 3575.26 829.957 3566.82 Q829.957 3556.98 836.519 3551.98 Q843.134 3546.98 856.206 3546.98 L869.644 3546.98 L869.644 3546.04 Q869.644 3539.42 865.269 3535.83 Q860.946 3532.18 853.081 3532.18 Q848.081 3532.18 843.342 3533.38 Q838.602 3534.58 834.227 3536.98 L834.227 3528.12 Q839.488 3526.09 844.436 3525.1 Q849.384 3524.06 854.071 3524.06 Q866.727 3524.06 872.977 3530.62 Q879.227 3537.18 879.227 3550.52 Z" fill="#000000" fill-rule="nonzero" fill-opacity="1" /><path clip-path="url(#clip130)" d="M932.768 3534.42 Q931.154 3533.49 929.227 3533.07 Q927.352 3532.6 925.06 3532.6 Q916.935 3532.6 912.56 3537.91 Q908.237 3543.17 908.237 3553.07 L908.237 3583.8 L898.602 3583.8 L898.602 3525.46 L908.237 3525.46 L908.237 3534.53 Q911.258 3529.21 916.102 3526.66 Q920.946 3524.06 927.873 3524.06 Q928.862 3524.06 930.06 3524.21 Q931.258 3524.32 932.716 3524.58 L932.768 3534.42 Z" fill="#000000" fill-rule="nonzero" fill-opacity="1" /><path clip-path="url(#clip130)" d="M980.008 3527.18 L980.008 3536.25 Q975.945 3534.16 971.57 3533.12 Q967.195 3532.08 962.508 3532.08 Q955.373 3532.08 951.779 3534.27 Q948.237 3536.45 948.237 3540.83 Q948.237 3544.16 950.789 3546.09 Q953.341 3547.96 961.05 3549.68 L964.331 3550.41 Q974.539 3552.6 978.81 3556.61 Q983.133 3560.57 983.133 3567.7 Q983.133 3575.83 976.674 3580.57 Q970.268 3585.31 959.018 3585.31 Q954.331 3585.31 949.227 3584.37 Q944.175 3583.49 938.55 3581.66 L938.55 3571.77 Q943.862 3574.53 949.018 3575.93 Q954.175 3577.29 959.227 3577.29 Q965.997 3577.29 969.643 3575 Q973.289 3572.65 973.289 3568.43 Q973.289 3564.53 970.633 3562.44 Q968.029 3560.36 959.123 3558.43 L955.789 3557.65 Q946.883 3555.78 942.925 3551.92 Q938.966 3548.02 938.966 3541.25 Q938.966 3533.02 944.8 3528.54 Q950.633 3524.06 961.362 3524.06 Q966.675 3524.06 971.362 3524.84 Q976.049 3525.62 980.008 3527.18 Z" fill="#000000" fill-rule="nonzero" fill-opacity="1" /><path clip-path="url(#clip130)" d="M1048.29 3552.24 L1048.29 3556.92 L1004.23 3556.92 Q1004.85 3566.82 1010.16 3572.03 Q1015.53 3577.18 1025.06 3577.18 Q1030.58 3577.18 1035.74 3575.83 Q1040.94 3574.48 1046.05 3571.77 L1046.05 3580.83 Q1040.89 3583.02 1035.48 3584.16 Q1030.06 3585.31 1024.49 3585.31 Q1010.53 3585.31 1002.35 3577.18 Q994.226 3569.06 994.226 3555.2 Q994.226 3540.88 1001.93 3532.5 Q1009.7 3524.06 1022.82 3524.06 Q1034.59 3524.06 1041.41 3531.66 Q1048.29 3539.21 1048.29 3552.24 M1038.71 3549.42 Q1038.6 3541.56 1034.28 3536.87 Q1030.01 3532.18 1022.92 3532.18 Q1014.9 3532.18 1010.06 3536.71 Q1005.27 3541.25 1004.54 3549.48 L1038.71 3549.42 Z" fill="#000000" fill-rule="nonzero" fill-opacity="1" /><path clip-path="url(#clip130)" d="M1097.82 3534.42 Q1096.21 3533.49 1094.28 3533.07 Q1092.4 3532.6 1090.11 3532.6 Q1081.99 3532.6 1077.61 3537.91 Q1073.29 3543.17 1073.29 3553.07 L1073.29 3583.8 L1063.65 3583.8 L1063.65 3525.46 L1073.29 3525.46 L1073.29 3534.53 Q1076.31 3529.21 1081.15 3526.66 Q1086 3524.06 1092.92 3524.06 Q1093.91 3524.06 1095.11 3524.21 Q1096.31 3524.32 1097.77 3524.58 L1097.82 3534.42 Z" fill="#000000" fill-rule="nonzero" fill-opacity="1" /><path clip-path="url(#clip130)" d="M1925.48 3534.32 L1925.48 3502.76 L1935.06 3502.76 L1935.06 3583.8 L1925.48 3583.8 L1925.48 3575.05 Q1922.45 3580.26 1917.82 3582.81 Q1913.24 3585.31 1906.78 3585.31 Q1896.21 3585.31 1889.54 3576.87 Q1882.92 3568.43 1882.92 3554.68 Q1882.92 3540.93 1889.54 3532.5 Q1896.21 3524.06 1906.78 3524.06 Q1913.24 3524.06 1917.82 3526.61 Q1922.45 3529.11 1925.48 3534.32 M1892.82 3554.68 Q1892.82 3565.26 1897.14 3571.3 Q1901.52 3577.29 1909.12 3577.29 Q1916.73 3577.29 1921.1 3571.3 Q1925.48 3565.26 1925.48 3554.68 Q1925.48 3544.11 1921.1 3538.12 Q1916.73 3532.08 1909.12 3532.08 Q1901.52 3532.08 1897.14 3538.12 Q1892.82 3544.11 1892.82 3554.68 Z" fill="#000000" fill-rule="nonzero" fill-opacity="1" /><path clip-path="url(#clip130)" d="M1977.4 3532.18 Q1969.69 3532.18 1965.22 3538.23 Q1960.74 3544.21 1960.74 3554.68 Q1960.74 3565.15 1965.16 3571.19 Q1969.64 3577.18 1977.4 3577.18 Q1985.06 3577.18 1989.54 3571.14 Q1994.02 3565.1 1994.02 3554.68 Q1994.02 3544.32 1989.54 3538.28 Q1985.06 3532.18 1977.4 3532.18 M1977.4 3524.06 Q1989.9 3524.06 1997.04 3532.18 Q2004.17 3540.31 2004.17 3554.68 Q2004.17 3569.01 1997.04 3577.18 Q1989.9 3585.31 1977.4 3585.31 Q1964.85 3585.31 1957.72 3577.18 Q1950.63 3569.01 1950.63 3554.68 Q1950.63 3540.31 1957.72 3532.18 Q1964.85 3524.06 1977.4 3524.06 Z" fill="#000000" fill-rule="nonzero" fill-opacity="1" /><path clip-path="url(#clip130)" d="M2062.04 3527.7 L2062.04 3536.66 Q2057.98 3534.42 2053.86 3533.33 Q2049.8 3532.18 2045.63 3532.18 Q2036.31 3532.18 2031.15 3538.12 Q2026 3544.01 2026 3554.68 Q2026 3565.36 2031.15 3571.3 Q2036.31 3577.18 2045.63 3577.18 Q2049.8 3577.18 2053.86 3576.09 Q2057.98 3574.94 2062.04 3572.7 L2062.04 3581.56 Q2058.03 3583.43 2053.7 3584.37 Q2049.43 3585.31 2044.59 3585.31 Q2031.41 3585.31 2023.65 3577.03 Q2015.89 3568.75 2015.89 3554.68 Q2015.89 3540.41 2023.7 3532.24 Q2031.57 3524.06 2045.21 3524.06 Q2049.64 3524.06 2053.86 3525 Q2058.08 3525.88 2062.04 3527.7 Z" fill="#000000" fill-rule="nonzero" fill-opacity="1" /><path clip-path="url(#clip130)" d="M2101.31 3532.18 Q2093.6 3532.18 2089.12 3538.23 Q2084.64 3544.21 2084.64 3554.68 Q2084.64 3565.15 2089.07 3571.19 Q2093.55 3577.18 2101.31 3577.18 Q2108.96 3577.18 2113.44 3571.14 Q2117.92 3565.1 2117.92 3554.68 Q2117.92 3544.32 2113.44 3538.28 Q2108.96 3532.18 2101.31 3532.18 M2101.31 3524.06 Q2113.81 3524.06 2120.94 3532.18 Q2128.08 3540.31 2128.08 3554.68 Q2128.08 3569.01 2120.94 3577.18 Q2113.81 3585.31 2101.31 3585.31 Q2088.76 3585.31 2081.62 3577.18 Q2074.54 3569.01 2074.54 3554.68 Q2074.54 3540.31 2081.62 3532.18 Q2088.76 3524.06 2101.31 3524.06 Z" fill="#000000" fill-rule="nonzero" fill-opacity="1" /><path clip-path="url(#clip130)" d="M2153.23 3575.05 L2153.23 3605.99 L2143.6 3605.99 L2143.6 3525.46 L2153.23 3525.46 L2153.23 3534.32 Q2156.26 3529.11 2160.84 3526.61 Q2165.47 3524.06 2171.88 3524.06 Q2182.51 3524.06 2189.12 3532.5 Q2195.79 3540.93 2195.79 3554.68 Q2195.79 3568.43 2189.12 3576.87 Q2182.51 3585.31 2171.88 3585.31 Q2165.47 3585.31 2160.84 3582.81 Q2156.26 3580.26 2153.23 3575.05 M2185.84 3554.68 Q2185.84 3544.11 2181.46 3538.12 Q2177.14 3532.08 2169.54 3532.08 Q2161.93 3532.08 2157.56 3538.12 Q2153.23 3544.11 2153.23 3554.68 Q2153.23 3565.26 2157.56 3571.3 Q2161.93 3577.29 2169.54 3577.29 Q2177.14 3577.29 2181.46 3571.3 Q2185.84 3565.26 2185.84 3554.68 Z" fill="#000000" fill-rule="nonzero" fill-opacity="1" /><path clip-path="url(#clip130)" d="M2221.15 3508.9 L2221.15 3525.46 L2240.89 3525.46 L2240.89 3532.91 L2221.15 3532.91 L2221.15 3564.58 Q2221.15 3571.71 2223.08 3573.75 Q2225.06 3575.78 2231.05 3575.78 L2240.89 3575.78 L2240.89 3583.8 L2231.05 3583.8 Q2219.95 3583.8 2215.73 3579.68 Q2211.52 3575.52 2211.52 3564.58 L2211.52 3532.91 L2204.48 3532.91 L2204.48 3525.46 L2211.52 3525.46 L2211.52 3508.9 L2221.15 3508.9 Z" fill="#000000" fill-rule="nonzero" fill-opacity="1" /><path clip-path="url(#clip130)" d="M2290.68 3527.18 L2290.68 3536.25 Q2286.62 3534.16 2282.24 3533.12 Q2277.87 3532.08 2273.18 3532.08 Q2266.05 3532.08 2262.45 3534.27 Q2258.91 3536.45 2258.91 3540.83 Q2258.91 3544.16 2261.46 3546.09 Q2264.02 3547.96 2271.72 3549.68 L2275.01 3550.41 Q2285.21 3552.6 2289.48 3556.61 Q2293.81 3560.57 2293.81 3567.7 Q2293.81 3575.83 2287.35 3580.57 Q2280.94 3585.31 2269.69 3585.31 Q2265.01 3585.31 2259.9 3584.37 Q2254.85 3583.49 2249.22 3581.66 L2249.22 3571.77 Q2254.54 3574.53 2259.69 3575.93 Q2264.85 3577.29 2269.9 3577.29 Q2276.67 3577.29 2280.32 3575 Q2283.96 3572.65 2283.96 3568.43 Q2283.96 3564.53 2281.31 3562.44 Q2278.7 3560.36 2269.8 3558.43 L2266.46 3557.65 Q2257.56 3555.78 2253.6 3551.92 Q2249.64 3548.02 2249.64 3541.25 Q2249.64 3533.02 2255.47 3528.54 Q2261.31 3524.06 2272.04 3524.06 Q2277.35 3524.06 2282.04 3524.84 Q2286.72 3525.62 2290.68 3527.18 Z" fill="#000000" fill-rule="nonzero" fill-opacity="1" /><path clip-path="url(#clip130)" d="M3206.02 3553.95 Q3206.02 3543.54 3201.7 3537.81 Q3197.43 3532.08 3189.67 3532.08 Q3181.96 3532.08 3177.63 3537.81 Q3173.36 3543.54 3173.36 3553.95 Q3173.36 3564.32 3177.63 3570.05 Q3181.96 3575.78 3189.67 3575.78 Q3197.43 3575.78 3201.7 3570.05 Q3206.02 3564.32 3206.02 3553.95 M3215.6 3576.56 Q3215.6 3591.45 3208.99 3598.69 Q3202.37 3605.99 3188.73 3605.99 Q3183.68 3605.99 3179.2 3605.2 Q3174.72 3604.47 3170.5 3602.91 L3170.5 3593.59 Q3174.72 3595.88 3178.83 3596.97 Q3182.95 3598.07 3187.22 3598.07 Q3196.65 3598.07 3201.33 3593.12 Q3206.02 3588.22 3206.02 3578.28 L3206.02 3573.54 Q3203.05 3578.69 3198.42 3581.25 Q3193.78 3583.8 3187.32 3583.8 Q3176.59 3583.8 3170.03 3575.62 Q3163.47 3567.44 3163.47 3553.95 Q3163.47 3540.41 3170.03 3532.24 Q3176.59 3524.06 3187.32 3524.06 Q3193.78 3524.06 3198.42 3526.61 Q3203.05 3529.16 3206.02 3534.32 L3206.02 3525.46 L3215.6 3525.46 L3215.6 3576.56 Z" fill="#000000" fill-rule="nonzero" fill-opacity="1" /><path clip-path="url(#clip130)" d="M3285.24 3552.24 L3285.24 3556.92 L3241.18 3556.92 Q3241.8 3566.82 3247.11 3572.03 Q3252.48 3577.18 3262.01 3577.18 Q3267.53 3577.18 3272.69 3575.83 Q3277.89 3574.48 3283 3571.77 L3283 3580.83 Q3277.84 3583.02 3272.43 3584.16 Q3267.01 3585.31 3261.44 3585.31 Q3247.48 3585.31 3239.3 3577.18 Q3231.18 3569.06 3231.18 3555.2 Q3231.18 3540.88 3238.88 3532.5 Q3246.64 3524.06 3259.77 3524.06 Q3271.54 3524.06 3278.36 3531.66 Q3285.24 3539.21 3285.24 3552.24 M3275.66 3549.42 Q3275.55 3541.56 3271.23 3536.87 Q3266.96 3532.18 3259.87 3532.18 Q3251.85 3532.18 3247.01 3536.71 Q3242.22 3541.25 3241.49 3549.48 L3275.66 3549.42 Z" fill="#000000" fill-rule="nonzero" fill-opacity="1" /><path clip-path="url(#clip130)" d="M3310.45 3508.9 L3310.45 3525.46 L3330.19 3525.46 L3330.19 3532.91 L3310.45 3532.91 L3310.45 3564.58 Q3310.45 3571.71 3312.37 3573.75 Q3314.35 3575.78 3320.34 3575.78 L3330.19 3575.78 L3330.19 3583.8 L3320.34 3583.8 Q3309.25 3583.8 3305.03 3579.68 Q3300.81 3575.52 3300.81 3564.58 L3300.81 3532.91 L3293.78 3532.91 L3293.78 3525.46 L3300.81 3525.46 L3300.81 3508.9 L3310.45 3508.9 Z" fill="#000000" fill-rule="nonzero" fill-opacity="1" /><path clip-path="url(#clip130)" d="M3365.39 3532.18 Q3357.69 3532.18 3353.21 3538.23 Q3348.73 3544.21 3348.73 3554.68 Q3348.73 3565.15 3353.15 3571.19 Q3357.63 3577.18 3365.39 3577.18 Q3373.05 3577.18 3377.53 3571.14 Q3382.01 3565.1 3382.01 3554.68 Q3382.01 3544.32 3377.53 3538.28 Q3373.05 3532.18 3365.39 3532.18 M3365.39 3524.06 Q3377.89 3524.06 3385.03 3532.18 Q3392.16 3540.31 3392.16 3554.68 Q3392.16 3569.01 3385.03 3577.18 Q3377.89 3585.31 3365.39 3585.31 Q3352.84 3585.31 3345.71 3577.18 Q3338.62 3569.01 3338.62 3554.68 Q3338.62 3540.31 3345.71 3532.18 Q3352.84 3524.06 3365.39 3524.06 Z" fill="#000000" fill-rule="nonzero" fill-opacity="1" /><path clip-path="url(#clip130)" d="M3417.32 3575.05 L3417.32 3605.99 L3407.69 3605.99 L3407.69 3525.46 L3417.32 3525.46 L3417.32 3534.32 Q3420.34 3529.11 3424.93 3526.61 Q3429.56 3524.06 3435.97 3524.06 Q3446.59 3524.06 3453.21 3532.5 Q3459.87 3540.93 3459.87 3554.68 Q3459.87 3568.43 3453.21 3576.87 Q3446.59 3585.31 3435.97 3585.31 Q3429.56 3585.31 3424.93 3582.81 Q3420.34 3580.26 3417.32 3575.05 M3449.92 3554.68 Q3449.92 3544.11 3445.55 3538.12 Q3441.23 3532.08 3433.62 3532.08 Q3426.02 3532.08 3421.64 3538.12 Q3417.32 3544.11 3417.32 3554.68 Q3417.32 3565.26 3421.64 3571.3 Q3426.02 3577.29 3433.62 3577.29 Q3441.23 3577.29 3445.55 3571.3 Q3449.92 3565.26 3449.92 3554.68 Z" fill="#000000" fill-rule="nonzero" fill-opacity="1" /><path clip-path="url(#clip130)" d="M3485.24 3508.9 L3485.24 3525.46 L3504.98 3525.46 L3504.98 3532.91 L3485.24 3532.91 L3485.24 3564.58 Q3485.24 3571.71 3487.16 3573.75 Q3489.14 3575.78 3495.13 3575.78 L3504.98 3575.78 L3504.98 3583.8 L3495.13 3583.8 Q3484.04 3583.8 3479.82 3579.68 Q3475.6 3575.52 3475.6 3564.58 L3475.6 3532.91 L3468.57 3532.91 L3468.57 3525.46 L3475.6 3525.46 L3475.6 3508.9 L3485.24 3508.9 Z" fill="#000000" fill-rule="nonzero" fill-opacity="1" /><path clip-path="url(#clip130)" d="M4425.42 3553.95 Q4425.42 3543.54 4421.1 3537.81 Q4416.83 3532.08 4409.06 3532.08 Q4401.36 3532.08 4397.03 3537.81 Q4392.76 3543.54 4392.76 3553.95 Q4392.76 3564.32 4397.03 3570.05 Q4401.36 3575.78 4409.06 3575.78 Q4416.83 3575.78 4421.1 3570.05 Q4425.42 3564.32 4425.42 3553.95 M4435 3576.56 Q4435 3591.45 4428.39 3598.69 Q4421.77 3605.99 4408.13 3605.99 Q4403.08 3605.99 4398.6 3605.2 Q4394.12 3604.47 4389.9 3602.91 L4389.9 3593.59 Q4394.12 3595.88 4398.23 3596.97 Q4402.35 3598.07 4406.62 3598.07 Q4416.04 3598.07 4420.73 3593.12 Q4425.42 3588.22 4425.42 3578.28 L4425.42 3573.54 Q4422.45 3578.69 4417.81 3581.25 Q4413.18 3583.8 4406.72 3583.8 Q4395.99 3583.8 4389.43 3575.62 Q4382.87 3567.44 4382.87 3553.95 Q4382.87 3540.41 4389.43 3532.24 Q4395.99 3524.06 4406.72 3524.06 Q4413.18 3524.06 4417.81 3526.61 Q4422.45 3529.16 4425.42 3534.32 L4425.42 3525.46 L4435 3525.46 L4435 3576.56 Z" fill="#000000" fill-rule="nonzero" fill-opacity="1" /><path clip-path="url(#clip130)" d="M4504.64 3552.24 L4504.64 3556.92 L4460.57 3556.92 Q4461.2 3566.82 4466.51 3572.03 Q4471.88 3577.18 4481.41 3577.18 Q4486.93 3577.18 4492.09 3575.83 Q4497.29 3574.48 4502.4 3571.77 L4502.4 3580.83 Q4497.24 3583.02 4491.82 3584.16 Q4486.41 3585.31 4480.84 3585.31 Q4466.88 3585.31 4458.7 3577.18 Q4450.57 3569.06 4450.57 3555.2 Q4450.57 3540.88 4458.28 3532.5 Q4466.04 3524.06 4479.17 3524.06 Q4490.94 3524.06 4497.76 3531.66 Q4504.64 3539.21 4504.64 3552.24 M4495.05 3549.42 Q4494.95 3541.56 4490.63 3536.87 Q4486.36 3532.18 4479.27 3532.18 Q4471.25 3532.18 4466.41 3536.71 Q4461.62 3541.25 4460.89 3549.48 L4495.05 3549.42 Z" fill="#000000" fill-rule="nonzero" fill-opacity="1" /><path clip-path="url(#clip130)" d="M4529.85 3508.9 L4529.85 3525.46 L4549.58 3525.46 L4549.58 3532.91 L4529.85 3532.91 L4529.85 3564.58 Q4529.85 3571.71 4531.77 3573.75 Q4533.75 3575.78 4539.74 3575.78 L4549.58 3575.78 L4549.58 3583.8 L4539.74 3583.8 Q4528.65 3583.8 4524.43 3579.68 Q4520.21 3575.52 4520.21 3564.58 L4520.21 3532.91 L4513.18 3532.91 L4513.18 3525.46 L4520.21 3525.46 L4520.21 3508.9 L4529.85 3508.9 Z" fill="#000000" fill-rule="nonzero" fill-opacity="1" /><path clip-path="url(#clip130)" d="M4584.79 3532.18 Q4577.08 3532.18 4572.61 3538.23 Q4568.13 3544.21 4568.13 3554.68 Q4568.13 3565.15 4572.55 3571.19 Q4577.03 3577.18 4584.79 3577.18 Q4592.45 3577.18 4596.93 3571.14 Q4601.41 3565.1 4601.41 3554.68 Q4601.41 3544.32 4596.93 3538.28 Q4592.45 3532.18 4584.79 3532.18 M4584.79 3524.06 Q4597.29 3524.06 4604.43 3532.18 Q4611.56 3540.31 4611.56 3554.68 Q4611.56 3569.01 4604.43 3577.18 Q4597.29 3585.31 4584.79 3585.31 Q4572.24 3585.31 4565.11 3577.18 Q4558.02 3569.01 4558.02 3554.68 Q4558.02 3540.31 4565.11 3532.18 Q4572.24 3524.06 4584.79 3524.06 Z" fill="#000000" fill-rule="nonzero" fill-opacity="1" /><path clip-path="url(#clip130)" d="M4636.72 3575.05 L4636.72 3605.99 L4627.08 3605.99 L4627.08 3525.46 L4636.72 3525.46 L4636.72 3534.32 Q4639.74 3529.11 4644.32 3526.61 Q4648.96 3524.06 4655.37 3524.06 Q4665.99 3524.06 4672.6 3532.5 Q4679.27 3540.93 4679.27 3554.68 Q4679.27 3568.43 4672.6 3576.87 Q4665.99 3585.31 4655.37 3585.31 Q4648.96 3585.31 4644.32 3582.81 Q4639.74 3580.26 4636.72 3575.05 M4669.32 3554.68 Q4669.32 3544.11 4664.95 3538.12 Q4660.63 3532.08 4653.02 3532.08 Q4645.42 3532.08 4641.04 3538.12 Q4636.72 3544.11 4636.72 3554.68 Q4636.72 3565.26 4641.04 3571.3 Q4645.42 3577.29 4653.02 3577.29 Q4660.63 3577.29 4664.95 3571.3 Q4669.32 3565.26 4669.32 3554.68 Z" fill="#000000" fill-rule="nonzero" fill-opacity="1" /><path clip-path="url(#clip130)" d="M4704.64 3508.9 L4704.64 3525.46 L4724.38 3525.46 L4724.38 3532.91 L4704.64 3532.91 L4704.64 3564.58 Q4704.64 3571.71 4706.56 3573.75 Q4708.54 3575.78 4714.53 3575.78 L4724.38 3575.78 L4724.38 3583.8 L4714.53 3583.8 Q4703.44 3583.8 4699.22 3579.68 Q4695 3575.52 4695 3564.58 L4695 3532.91 L4687.97 3532.91 L4687.97 3525.46 L4695 3525.46 L4695 3508.9 L4704.64 3508.9 Z" fill="#000000" fill-rule="nonzero" fill-opacity="1" /><path clip-path="url(#clip130)" d="M4774.17 3527.18 L4774.17 3536.25 Q4770.1 3534.16 4765.73 3533.12 Q4761.35 3532.08 4756.67 3532.08 Q4749.53 3532.08 4745.94 3534.27 Q4742.4 3536.45 4742.4 3540.83 Q4742.4 3544.16 4744.95 3546.09 Q4747.5 3547.96 4755.21 3549.68 L4758.49 3550.41 Q4768.7 3552.6 4772.97 3556.61 Q4777.29 3560.57 4777.29 3567.7 Q4777.29 3575.83 4770.83 3580.57 Q4764.43 3585.31 4753.18 3585.31 Q4748.49 3585.31 4743.39 3584.37 Q4738.33 3583.49 4732.71 3581.66 L4732.71 3571.77 Q4738.02 3574.53 4743.18 3575.93 Q4748.33 3577.29 4753.39 3577.29 Q4760.16 3577.29 4763.8 3575 Q4767.45 3572.65 4767.45 3568.43 Q4767.45 3564.53 4764.79 3562.44 Q4762.19 3560.36 4753.28 3558.43 L4749.95 3557.65 Q4741.04 3555.78 4737.08 3551.92 Q4733.13 3548.02 4733.13 3541.25 Q4733.13 3533.02 4738.96 3528.54 Q4744.79 3524.06 4755.52 3524.06 Q4760.83 3524.06 4765.52 3524.84 Q4770.21 3525.62 4774.17 3527.18 Z" fill="#000000" fill-rule="nonzero" fill-opacity="1" /><path clip-path="url(#clip130)" d="M5683.39 3527.18 L5683.39 3536.25 Q5679.32 3534.16 5674.95 3533.12 Q5670.57 3532.08 5665.89 3532.08 Q5658.75 3532.08 5655.16 3534.27 Q5651.61 3536.45 5651.61 3540.83 Q5651.61 3544.16 5654.17 3546.09 Q5656.72 3547.96 5664.43 3549.68 L5667.71 3550.41 Q5677.92 3552.6 5682.19 3556.61 Q5686.51 3560.57 5686.51 3567.7 Q5686.51 3575.83 5680.05 3580.57 Q5673.65 3585.31 5662.4 3585.31 Q5657.71 3585.31 5652.6 3584.37 Q5647.55 3583.49 5641.93 3581.66 L5641.93 3571.77 Q5647.24 3574.53 5652.4 3575.93 Q5657.55 3577.29 5662.6 3577.29 Q5669.37 3577.29 5673.02 3575 Q5676.67 3572.65 5676.67 3568.43 Q5676.67 3564.53 5674.01 3562.44 Q5671.41 3560.36 5662.5 3558.43 L5659.17 3557.65 Q5650.26 3555.78 5646.3 3551.92 Q5642.34 3548.02 5642.34 3541.25 Q5642.34 3533.02 5648.18 3528.54 Q5654.01 3524.06 5664.74 3524.06 Q5670.05 3524.06 5674.74 3524.84 Q5679.43 3525.62 5683.39 3527.18 Z" fill="#000000" fill-rule="nonzero" fill-opacity="1" /><path clip-path="url(#clip130)" d="M5750.26 3548.59 L5750.26 3583.8 L5740.68 3583.8 L5740.68 3548.9 Q5740.68 3540.62 5737.45 3536.51 Q5734.22 3532.39 5727.76 3532.39 Q5720 3532.39 5715.52 3537.34 Q5711.04 3542.29 5711.04 3550.83 L5711.04 3583.8 L5701.41 3583.8 L5701.41 3502.76 L5711.04 3502.76 L5711.04 3534.53 Q5714.48 3529.27 5719.11 3526.66 Q5723.8 3524.06 5729.9 3524.06 Q5739.95 3524.06 5745.1 3530.31 Q5750.26 3536.51 5750.26 3548.59 Z" fill="#000000" fill-rule="nonzero" fill-opacity="1" /><path clip-path="url(#clip130)" d="M5798.91 3502.76 L5798.91 3510.73 L5789.74 3510.73 Q5784.58 3510.73 5782.55 3512.81 Q5780.57 3514.89 5780.57 3520.31 L5780.57 3525.46 L5796.35 3525.46 L5796.35 3532.91 L5780.57 3532.91 L5780.57 3583.8 L5770.94 3583.8 L5770.94 3532.91 L5761.77 3532.91 L5761.77 3525.46 L5770.94 3525.46 L5770.94 3521.4 Q5770.94 3511.66 5775.47 3507.24 Q5780 3502.76 5789.84 3502.76 L5798.91 3502.76 Z" fill="#000000" fill-rule="nonzero" fill-opacity="1" /><path clip-path="url(#clip130)" d="M5806.93 3502.76 L5816.51 3502.76 L5816.51 3583.8 L5806.93 3583.8 L5806.93 3502.76 Z" fill="#000000" fill-rule="nonzero" fill-opacity="1" /><path clip-path="url(#clip130)" d="M5863.07 3554.48 Q5851.46 3554.48 5846.98 3557.13 Q5842.5 3559.79 5842.5 3566.19 Q5842.5 3571.3 5845.83 3574.32 Q5849.22 3577.29 5855 3577.29 Q5862.97 3577.29 5867.76 3571.66 Q5872.6 3565.99 5872.6 3556.61 L5872.6 3554.48 L5863.07 3554.48 M5882.19 3550.52 L5882.19 3583.8 L5872.6 3583.8 L5872.6 3574.94 Q5869.32 3580.26 5864.43 3582.81 Q5859.53 3585.31 5852.45 3585.31 Q5843.49 3585.31 5838.18 3580.31 Q5832.92 3575.26 5832.92 3566.82 Q5832.92 3556.98 5839.48 3551.98 Q5846.09 3546.98 5859.17 3546.98 L5872.6 3546.98 L5872.6 3546.04 Q5872.6 3539.42 5868.23 3535.83 Q5863.9 3532.18 5856.04 3532.18 Q5851.04 3532.18 5846.3 3533.38 Q5841.56 3534.58 5837.19 3536.98 L5837.19 3528.12 Q5842.45 3526.09 5847.39 3525.1 Q5852.34 3524.06 5857.03 3524.06 Q5869.69 3524.06 5875.94 3530.62 Q5882.19 3537.18 5882.19 3550.52 Z" fill="#000000" fill-rule="nonzero" fill-opacity="1" /><path clip-path="url(#clip130)" d="M5940.31 3553.95 Q5940.31 3543.54 5935.99 3537.81 Q5931.72 3532.08 5923.96 3532.08 Q5916.25 3532.08 5911.93 3537.81 Q5907.65 3543.54 5907.65 3553.95 Q5907.65 3564.32 5911.93 3570.05 Q5916.25 3575.78 5923.96 3575.78 Q5931.72 3575.78 5935.99 3570.05 Q5940.31 3564.32 5940.31 3553.95 M5949.89 3576.56 Q5949.89 3591.45 5943.28 3598.69 Q5936.66 3605.99 5923.02 3605.99 Q5917.97 3605.99 5913.49 3605.2 Q5909.01 3604.47 5904.79 3602.91 L5904.79 3593.59 Q5909.01 3595.88 5913.12 3596.97 Q5917.24 3598.07 5921.51 3598.07 Q5930.94 3598.07 5935.62 3593.12 Q5940.31 3588.22 5940.31 3578.28 L5940.31 3573.54 Q5937.34 3578.69 5932.71 3581.25 Q5928.07 3583.8 5921.61 3583.8 Q5910.88 3583.8 5904.32 3575.62 Q5897.76 3567.44 5897.76 3553.95 Q5897.76 3540.41 5904.32 3532.24 Q5910.88 3524.06 5921.61 3524.06 Q5928.07 3524.06 5932.71 3526.61 Q5937.34 3529.16 5940.31 3534.32 L5940.31 3525.46 L5949.89 3525.46 L5949.89 3576.56 Z" fill="#000000" fill-rule="nonzero" fill-opacity="1" /><path clip-path="url(#clip130)" d="M6006.82 3527.18 L6006.82 3536.25 Q6002.76 3534.16 5998.38 3533.12 Q5994.01 3532.08 5989.32 3532.08 Q5982.19 3532.08 5978.59 3534.27 Q5975.05 3536.45 5975.05 3540.83 Q5975.05 3544.16 5977.6 3546.09 Q5980.15 3547.96 5987.86 3549.68 L5991.14 3550.41 Q6001.35 3552.6 6005.62 3556.61 Q6009.95 3560.57 6009.95 3567.7 Q6009.95 3575.83 6003.49 3580.57 Q5997.08 3585.31 5985.83 3585.31 Q5981.14 3585.31 5976.04 3584.37 Q5970.99 3583.49 5965.36 3581.66 L5965.36 3571.77 Q5970.68 3574.53 5975.83 3575.93 Q5980.99 3577.29 5986.04 3577.29 Q5992.81 3577.29 5996.46 3575 Q6000.1 3572.65 6000.1 3568.43 Q6000.1 3564.53 5997.45 3562.44 Q5994.84 3560.36 5985.94 3558.43 L5982.6 3557.65 Q5973.7 3555.78 5969.74 3551.92 Q5965.78 3548.02 5965.78 3541.25 Q5965.78 3533.02 5971.61 3528.54 Q5977.45 3524.06 5988.18 3524.06 Q5993.49 3524.06 5998.18 3524.84 Q6002.86 3525.62 6006.82 3527.18 Z" fill="#000000" fill-rule="nonzero" fill-opacity="1" /><polyline clip-path="url(#clip130)" style="stroke:#000000; stroke-linecap:round; stroke-linejoin:round; stroke-width:4; stroke-opacity:1; fill:none" points="315.689,3435.4 315.689,47.2441 "/>
<polyline clip-path="url(#clip130)" style="stroke:#000000; stroke-linecap:round; stroke-linejoin:round; stroke-width:4; stroke-opacity:1; fill:none" points="315.689,3425.09 334.587,3425.09 "/>
<polyline clip-path="url(#clip130)" style="stroke:#000000; stroke-linecap:round; stroke-linejoin:round; stroke-width:4; stroke-opacity:1; fill:none" points="315.689,2825.49 334.587,2825.49 "/>
<polyline clip-path="url(#clip130)" style="stroke:#000000; stroke-linecap:round; stroke-linejoin:round; stroke-width:4; stroke-opacity:1; fill:none" points="315.689,2225.89 334.587,2225.89 "/>
<polyline clip-path="url(#clip130)" style="stroke:#000000; stroke-linecap:round; stroke-linejoin:round; stroke-width:4; stroke-opacity:1; fill:none" points="315.689,1626.29 334.587,1626.29 "/>
<polyline clip-path="url(#clip130)" style="stroke:#000000; stroke-linecap:round; stroke-linejoin:round; stroke-width:4; stroke-opacity:1; fill:none" points="315.689,1026.7 334.587,1026.7 "/>
<polyline clip-path="url(#clip130)" style="stroke:#000000; stroke-linecap:round; stroke-linejoin:round; stroke-width:4; stroke-opacity:1; fill:none" points="315.689,427.097 334.587,427.097 "/>
<path clip-path="url(#clip130)" d="M192.814 3393.14 Q184.689 3393.14 180.575 3401.16 Q176.512 3409.13 176.512 3425.17 Q176.512 3441.16 180.575 3449.18 Q184.689 3457.15 192.814 3457.15 Q200.991 3457.15 205.054 3449.18 Q209.168 3441.16 209.168 3425.17 Q209.168 3409.13 205.054 3401.16 Q200.991 3393.14 192.814 3393.14 M192.814 3384.81 Q205.887 3384.81 212.762 3395.17 Q219.689 3405.48 219.689 3425.17 Q219.689 3444.8 212.762 3455.17 Q205.887 3465.48 192.814 3465.48 Q179.741 3465.48 172.814 3455.17 Q165.939 3444.8 165.939 3425.17 Q165.939 3405.48 172.814 3395.17 Q179.741 3384.81 192.814 3384.81 Z" fill="#000000" fill-rule="nonzero" fill-opacity="1" /><path clip-path="url(#clip130)" d="M102.554 2786.61 L143.856 2786.61 L143.856 2795.47 L112.19 2795.47 L112.19 2814.53 Q114.481 2813.75 116.773 2813.38 Q119.065 2812.97 121.356 2812.97 Q134.377 2812.97 141.981 2820.1 Q149.585 2827.24 149.585 2839.42 Q149.585 2851.98 141.773 2858.96 Q133.96 2865.88 119.742 2865.88 Q114.846 2865.88 109.742 2865.05 Q104.69 2864.22 99.273 2862.55 L99.273 2851.98 Q103.96 2854.53 108.96 2855.78 Q113.96 2857.03 119.533 2857.03 Q128.544 2857.03 133.804 2852.29 Q139.064 2847.55 139.064 2839.42 Q139.064 2831.3 133.804 2826.56 Q128.544 2821.82 119.533 2821.82 Q115.315 2821.82 111.096 2822.76 Q106.929 2823.7 102.554 2825.67 L102.554 2786.61 Z" fill="#000000" fill-rule="nonzero" fill-opacity="1" /><path clip-path="url(#clip130)" d="M192.814 2793.54 Q184.689 2793.54 180.575 2801.56 Q176.512 2809.53 176.512 2825.57 Q176.512 2841.56 180.575 2849.58 Q184.689 2857.55 192.814 2857.55 Q200.991 2857.55 205.054 2849.58 Q209.168 2841.56 209.168 2825.57 Q209.168 2809.53 205.054 2801.56 Q200.991 2793.54 192.814 2793.54 M192.814 2785.21 Q205.887 2785.21 212.762 2795.57 Q219.689 2805.88 219.689 2825.57 Q219.689 2845.21 212.762 2855.57 Q205.887 2865.88 192.814 2865.88 Q179.741 2865.88 172.814 2855.57 Q165.939 2845.21 165.939 2825.57 Q165.939 2805.88 172.814 2795.57 Q179.741 2785.21 192.814 2785.21 Z" fill="#000000" fill-rule="nonzero" fill-opacity="1" /><path clip-path="url(#clip130)" d="M36.4088 2255.92 L53.5962 2255.92 L53.5962 2196.6 L34.8984 2200.35 L34.8984 2190.76 L53.492 2187.01 L64.0128 2187.01 L64.0128 2255.92 L81.2002 2255.92 L81.2002 2264.77 L36.4088 2264.77 L36.4088 2255.92 Z" fill="#000000" fill-rule="nonzero" fill-opacity="1" /><path clip-path="url(#clip130)" d="M124.95 2193.94 Q116.825 2193.94 112.71 2201.96 Q108.648 2209.93 108.648 2225.97 Q108.648 2241.96 112.71 2249.98 Q116.825 2257.95 124.95 2257.95 Q133.127 2257.95 137.189 2249.98 Q141.304 2241.96 141.304 2225.97 Q141.304 2209.93 137.189 2201.96 Q133.127 2193.94 124.95 2193.94 M124.95 2185.61 Q138.023 2185.61 144.898 2195.97 Q151.825 2206.28 151.825 2225.97 Q151.825 2245.61 144.898 2255.97 Q138.023 2266.28 124.95 2266.28 Q111.877 2266.28 104.95 2255.97 Q98.0751 2245.61 98.0751 2225.97 Q98.0751 2206.28 104.95 2195.97 Q111.877 2185.61 124.95 2185.61 Z" fill="#000000" fill-rule="nonzero" fill-opacity="1" /><path clip-path="url(#clip130)" d="M192.814 2193.94 Q184.689 2193.94 180.575 2201.96 Q176.512 2209.93 176.512 2225.97 Q176.512 2241.96 180.575 2249.98 Q184.689 2257.95 192.814 2257.95 Q200.991 2257.95 205.054 2249.98 Q209.168 2241.96 209.168 2225.97 Q209.168 2209.93 205.054 2201.96 Q200.991 2193.94 192.814 2193.94 M192.814 2185.61 Q205.887 2185.61 212.762 2195.97 Q219.689 2206.28 219.689 2225.97 Q219.689 2245.61 212.762 2255.97 Q205.887 2266.28 192.814 2266.28 Q179.741 2266.28 172.814 2255.97 Q165.939 2245.61 165.939 2225.97 Q165.939 2206.28 172.814 2195.97 Q179.741 2185.61 192.814 2185.61 Z" fill="#000000" fill-rule="nonzero" fill-opacity="1" /><path clip-path="url(#clip130)" d="M36.4088 1656.32 L53.5962 1656.32 L53.5962 1597 L34.8984 1600.75 L34.8984 1591.16 L53.492 1587.41 L64.0128 1587.41 L64.0128 1656.32 L81.2002 1656.32 L81.2002 1665.17 L36.4088 1665.17 L36.4088 1656.32 Z" fill="#000000" fill-rule="nonzero" fill-opacity="1" /><path clip-path="url(#clip130)" d="M102.554 1587.41 L143.856 1587.41 L143.856 1596.27 L112.19 1596.27 L112.19 1615.33 Q114.481 1614.55 116.773 1614.19 Q119.065 1613.77 121.356 1613.77 Q134.377 1613.77 141.981 1620.9 Q149.585 1628.04 149.585 1640.23 Q149.585 1652.78 141.773 1659.76 Q133.96 1666.69 119.742 1666.69 Q114.846 1666.69 109.742 1665.85 Q104.69 1665.02 99.273 1663.35 L99.273 1652.78 Q103.96 1655.33 108.96 1656.58 Q113.96 1657.83 119.533 1657.83 Q128.544 1657.83 133.804 1653.09 Q139.064 1648.35 139.064 1640.23 Q139.064 1632.1 133.804 1627.36 Q128.544 1622.62 119.533 1622.62 Q115.315 1622.62 111.096 1623.56 Q106.929 1624.5 102.554 1626.48 L102.554 1587.41 Z" fill="#000000" fill-rule="nonzero" fill-opacity="1" /><path clip-path="url(#clip130)" d="M192.814 1594.34 Q184.689 1594.34 180.575 1602.36 Q176.512 1610.33 176.512 1626.37 Q176.512 1642.36 180.575 1650.38 Q184.689 1658.35 192.814 1658.35 Q200.991 1658.35 205.054 1650.38 Q209.168 1642.36 209.168 1626.37 Q209.168 1610.33 205.054 1602.36 Q200.991 1594.34 192.814 1594.34 M192.814 1586.01 Q205.887 1586.01 212.762 1596.37 Q219.689 1606.69 219.689 1626.37 Q219.689 1646.01 212.762 1656.37 Q205.887 1666.69 192.814 1666.69 Q179.741 1666.69 172.814 1656.37 Q165.939 1646.01 165.939 1626.37 Q165.939 1606.69 172.814 1596.37 Q179.741 1586.01 192.814 1586.01 Z" fill="#000000" fill-rule="nonzero" fill-opacity="1" /><path clip-path="url(#clip130)" d="M43.6483 1056.72 L80.3669 1056.72 L80.3669 1065.58 L30.9921 1065.58 L30.9921 1056.72 Q36.9817 1050.52 47.2941 1040.11 Q57.6586 1029.64 60.3149 1026.62 Q65.3669 1020.94 67.3461 1017.03 Q69.3773 1013.08 69.3773 1009.27 Q69.3773 1003.08 65.0024 999.17 Q60.6795 995.264 53.7003 995.264 Q48.7524 995.264 43.2316 996.983 Q37.7629 998.701 31.513 1002.19 L31.513 991.566 Q37.8671 989.014 43.3879 987.712 Q48.9087 986.41 53.492 986.41 Q65.5753 986.41 72.7627 992.451 Q79.9502 998.493 79.9502 1008.6 Q79.9502 1013.39 78.1273 1017.71 Q76.3565 1021.98 71.6169 1027.82 Q70.3148 1029.33 63.3357 1036.57 Q56.3566 1043.75 43.6483 1056.72 Z" fill="#000000" fill-rule="nonzero" fill-opacity="1" /><path clip-path="url(#clip130)" d="M124.95 994.743 Q116.825 994.743 112.71 1002.76 Q108.648 1010.73 108.648 1026.77 Q108.648 1042.76 112.71 1050.78 Q116.825 1058.75 124.95 1058.75 Q133.127 1058.75 137.189 1050.78 Q141.304 1042.76 141.304 1026.77 Q141.304 1010.73 137.189 1002.76 Q133.127 994.743 124.95 994.743 M124.95 986.41 Q138.023 986.41 144.898 996.774 Q151.825 1007.09 151.825 1026.77 Q151.825 1046.41 144.898 1056.77 Q138.023 1067.09 124.95 1067.09 Q111.877 1067.09 104.95 1056.77 Q98.0751 1046.41 98.0751 1026.77 Q98.0751 1007.09 104.95 996.774 Q111.877 986.41 124.95 986.41 Z" fill="#000000" fill-rule="nonzero" fill-opacity="1" /><path clip-path="url(#clip130)" d="M192.814 994.743 Q184.689 994.743 180.575 1002.76 Q176.512 1010.73 176.512 1026.77 Q176.512 1042.76 180.575 1050.78 Q184.689 1058.75 192.814 1058.75 Q200.991 1058.75 205.054 1050.78 Q209.168 1042.76 209.168 1026.77 Q209.168 1010.73 205.054 1002.76 Q200.991 994.743 192.814 994.743 M192.814 986.41 Q205.887 986.41 212.762 996.774 Q219.689 1007.09 219.689 1026.77 Q219.689 1046.41 212.762 1056.77 Q205.887 1067.09 192.814 1067.09 Q179.741 1067.09 172.814 1056.77 Q165.939 1046.41 165.939 1026.77 Q165.939 1007.09 172.814 996.774 Q179.741 986.41 192.814 986.41 Z" fill="#000000" fill-rule="nonzero" fill-opacity="1" /><path clip-path="url(#clip130)" d="M43.6483 457.123 L80.3669 457.123 L80.3669 465.977 L30.9921 465.977 L30.9921 457.123 Q36.9817 450.925 47.2941 440.509 Q57.6586 430.04 60.3149 427.019 Q65.3669 421.342 67.3461 417.436 Q69.3773 413.478 69.3773 409.675 Q69.3773 403.478 65.0024 399.571 Q60.6795 395.665 53.7003 395.665 Q48.7524 395.665 43.2316 397.384 Q37.7629 399.103 31.513 402.592 L31.513 391.967 Q37.8671 389.415 43.3879 388.113 Q48.9087 386.811 53.492 386.811 Q65.5753 386.811 72.7627 392.853 Q79.9502 398.894 79.9502 408.998 Q79.9502 413.79 78.1273 418.113 Q76.3565 422.384 71.6169 428.217 Q70.3148 429.727 63.3357 436.967 Q56.3566 444.154 43.6483 457.123 Z" fill="#000000" fill-rule="nonzero" fill-opacity="1" /><path clip-path="url(#clip130)" d="M102.554 388.217 L143.856 388.217 L143.856 397.071 L112.19 397.071 L112.19 416.134 Q114.481 415.353 116.773 414.988 Q119.065 414.571 121.356 414.571 Q134.377 414.571 141.981 421.707 Q149.585 428.842 149.585 441.029 Q149.585 453.581 141.773 460.561 Q133.96 467.488 119.742 467.488 Q114.846 467.488 109.742 466.654 Q104.69 465.821 99.273 464.154 L99.273 453.581 Q103.96 456.134 108.96 457.384 Q113.96 458.634 119.533 458.634 Q128.544 458.634 133.804 453.894 Q139.064 449.154 139.064 441.029 Q139.064 432.904 133.804 428.165 Q128.544 423.425 119.533 423.425 Q115.315 423.425 111.096 424.363 Q106.929 425.3 102.554 427.28 L102.554 388.217 Z" fill="#000000" fill-rule="nonzero" fill-opacity="1" /><path clip-path="url(#clip130)" d="M192.814 395.144 Q184.689 395.144 180.575 403.165 Q176.512 411.134 176.512 427.175 Q176.512 443.165 180.575 451.186 Q184.689 459.154 192.814 459.154 Q200.991 459.154 205.054 451.186 Q209.168 443.165 209.168 427.175 Q209.168 411.134 205.054 403.165 Q200.991 395.144 192.814 395.144 M192.814 386.811 Q205.887 386.811 212.762 397.176 Q219.689 407.488 219.689 427.175 Q219.689 446.811 212.762 457.175 Q205.887 467.488 192.814 467.488 Q179.741 467.488 172.814 457.175 Q165.939 446.811 165.939 427.175 Q165.939 407.488 172.814 397.176 Q179.741 386.811 192.814 386.811 Z" fill="#000000" fill-rule="nonzero" fill-opacity="1" /><path clip-path="url(#clip132)" d="M919.252 1816.97 L932.822 1814.45 L947.811 1811.93 L964.133 1809.41 L981.641 1806.89 L1000.13 1804.37 L1019.34 1801.85 L1038.96 1799.32 L1058.64 1796.8 L1078.02 1794.28 L1096.74 1791.76 L1114.44 1789.24 L1130.82 1786.72 L1145.62 1784.2 L1158.66 1781.68 L1169.8 1779.16 L1179.02 1776.64 L1186.32 1774.11 L1191.79 1771.59 L1195.55 1769.07 L1197.72 1766.55 L1198.47 1764.03 L1197.92 1761.51 L1196.2 1758.99 L1193.4 1756.47 L1189.58 1753.95 L1184.77 1751.43 L1178.99 1748.9 L1172.27 1746.38 L1164.61 1743.86 L1156.07 1741.34 L1146.71 1738.82 L1136.63 1736.3 L1125.96 1733.78 L1114.88 1731.26 L1103.55 1728.74 L1092.19 1726.22 L1080.99 1723.69 L1070.14 1721.17 L1059.79 1718.65 L1050.08 1716.13 L1041.1 1713.61 L1032.9 1711.09 L1025.5 1708.57 L1018.87 1706.05 L1012.99 1703.53 L1007.78 1701.01 L1003.17 1698.48 L999.078 1695.96 L995.425 1693.44 L992.124 1690.92 L989.094 1688.4 L986.252 1685.88 L983.522 1683.36 L980.828 1680.84 L978.1 1678.32 L975.274 1675.8 L972.297 1673.27 L969.129 1670.75 L965.746 1668.23 L962.143 1665.71 L958.338 1663.19 L954.363 1660.67 L950.273 1658.15 L946.129 1655.63 L942.002 1653.11 L937.962 1650.59 L934.072 1648.06 L930.378 1645.54 L926.913 1643.02 L923.685 1640.5 L920.683 1637.98 L917.874 1635.46 L915.211 1632.94 L912.637 1630.42 L910.09 1627.9 L907.511 1625.38 L904.85 1622.85 L902.07 1620.33 L899.15 1617.81 L896.086 1615.29 L892.891 1612.77 L889.593 1610.25 L886.228 1607.73 L882.841 1605.21 L879.477 1602.69 L876.179 1600.17 L872.986 1597.64 L869.93 1595.12 L867.035 1592.6 L864.316 1590.08 L861.782 1587.56 L859.436 1585.04 L857.279 1582.52 L855.306 1580 L853.511 1577.48 L851.89 1574.96 L850.435 1572.43 L849.141 1569.91 L847.999 1567.39 L847.003 1564.87 L846.144 1562.35 L845.413 1559.83 L844.8 1557.31 L844.294 1554.79 L843.883 1552.27 L843.558 1549.75 L843.307 1547.22 L843.121 1544.7 L842.992 1542.18 L842.915 1539.66 L842.886 1537.14 L842.903 1534.62 L842.969 1532.1 L843.087 1529.58 L843.264 1527.06 L843.508 1524.54 L843.829 1522.01 L844.237 1519.49 L844.743 1516.97 L845.356 1514.45 L846.083 1511.93 L846.926 1509.41 L847.884 1506.89 L848.946 1504.37 L850.099 1501.85 L851.319 1499.33 L852.575 1496.8 L853.833 1494.28 L855.051 1491.76 L856.186 1489.24 L857.194 1486.72 L858.033 1484.2 L858.668 1481.68 L859.071 1479.16 L859.224 1476.64 L859.12 1474.12 L858.763 1471.59 L826.254 1471.59 L825.897 1474.12 L825.793 1476.64 L825.946 1479.16 L826.349 1481.68 L826.984 1484.2 L827.824 1486.72 L828.831 1489.24 L829.966 1491.76 L831.184 1494.28 L832.442 1496.8 L833.698 1499.33 L834.918 1501.85 L836.071 1504.37 L837.133 1506.89 L838.091 1509.41 L838.934 1511.93 L839.661 1514.45 L840.274 1516.97 L840.78 1519.49 L841.188 1522.01 L841.509 1524.54 L841.753 1527.06 L841.93 1529.58 L842.048 1532.1 L842.114 1534.62 L842.131 1537.14 L842.102 1539.66 L842.025 1542.18 L841.896 1544.7 L841.71 1547.22 L841.459 1549.75 L841.134 1552.27 L840.723 1554.79 L840.217 1557.31 L839.604 1559.83 L838.873 1562.35 L838.014 1564.87 L837.018 1567.39 L835.876 1569.91 L834.582 1572.43 L833.127 1574.96 L831.506 1577.48 L829.712 1580 L827.738 1582.52 L825.581 1585.04 L823.235 1587.56 L820.702 1590.08 L817.982 1592.6 L815.087 1595.12 L812.031 1597.64 L808.838 1600.17 L805.54 1602.69 L802.176 1605.21 L798.789 1607.73 L795.424 1610.25 L792.126 1612.77 L788.931 1615.29 L785.868 1617.81 L782.947 1620.33 L780.167 1622.85 L777.506 1625.38 L774.927 1627.9 L772.38 1630.42 L769.806 1632.94 L767.143 1635.46 L764.334 1637.98 L761.332 1640.5 L758.104 1643.02 L754.639 1645.54 L750.946 1648.06 L747.055 1650.59 L743.015 1653.11 L738.888 1655.63 L734.745 1658.15 L730.654 1660.67 L726.679 1663.19 L722.874 1665.71 L719.271 1668.23 L715.888 1670.75 L712.72 1673.27 L709.743 1675.8 L706.917 1678.32 L704.189 1680.84 L701.495 1683.36 L698.765 1685.88 L695.923 1688.4 L692.893 1690.92 L689.592 1693.44 L685.939 1695.96 L681.85 1698.48 L677.24 1701.01 L672.03 1703.53 L666.143 1706.05 L659.52 1708.57 L652.116 1711.09 L643.916 1713.61 L634.935 1716.13 L625.226 1718.65 L614.881 1721.17 L604.027 1723.69 L592.827 1726.22 L581.466 1728.74 L570.142 1731.26 L559.052 1733.78 L548.385 1736.3 L538.303 1738.82 L528.942 1741.34 L520.402 1743.86 L512.75 1746.38 L506.026 1748.9 L500.251 1751.43 L495.442 1753.95 L491.617 1756.47 L488.814 1758.99 L487.095 1761.51 L486.549 1764.03 L487.296 1766.55 L489.472 1769.07 L493.224 1771.59 L498.694 1774.11 L505.999 1776.64 L515.214 1779.16 L526.362 1781.68 L539.395 1784.2 L554.197 1786.72 L570.577 1789.24 L588.279 1791.76 L606.995 1794.28 L626.377 1796.8 L646.06 1799.32 L665.678 1801.85 L684.887 1804.37 L703.376 1806.89 L720.884 1809.41 L737.206 1811.93 L752.195 1814.45 L765.765 1816.97 L919.252 1816.97  Z" fill="#414286" fill-rule="evenodd" fill-opacity="1"/>
<polyline clip-path="url(#clip132)" style="stroke:#000000; stroke-linecap:round; stroke-linejoin:round; stroke-width:4; stroke-opacity:1; fill:none" points="919.252,1816.97 932.822,1814.45 947.811,1811.93 964.133,1809.41 981.641,1806.89 1000.13,1804.37 1019.34,1801.85 1038.96,1799.32 1058.64,1796.8 1078.02,1794.28 1096.74,1791.76 1114.44,1789.24 1130.82,1786.72 1145.62,1784.2 1158.66,1781.68 1169.8,1779.16 1179.02,1776.64 1186.32,1774.11 1191.79,1771.59 1195.55,1769.07 1197.72,1766.55 1198.47,1764.03 1197.92,1761.51 1196.2,1758.99 1193.4,1756.47 1189.58,1753.95 1184.77,1751.43 1178.99,1748.9 1172.27,1746.38 1164.61,1743.86 1156.07,1741.34 1146.71,1738.82 1136.63,1736.3 1125.96,1733.78 1114.88,1731.26 1103.55,1728.74 1092.19,1726.22 1080.99,1723.69 1070.14,1721.17 1059.79,1718.65 1050.08,1716.13 1041.1,1713.61 1032.9,1711.09 1025.5,1708.57 1018.87,1706.05 1012.99,1703.53 1007.78,1701.01 1003.17,1698.48 999.078,1695.96 995.425,1693.44 992.124,1690.92 989.094,1688.4 986.252,1685.88 983.522,1683.36 980.828,1680.84 978.1,1678.32 975.274,1675.8 972.297,1673.27 969.129,1670.75 965.746,1668.23 962.143,1665.71 958.338,1663.19 954.363,1660.67 950.273,1658.15 946.129,1655.63 942.002,1653.11 937.962,1650.59 934.072,1648.06 930.378,1645.54 926.913,1643.02 923.685,1640.5 920.683,1637.98 917.874,1635.46 915.211,1632.94 912.637,1630.42 910.09,1627.9 907.511,1625.38 904.85,1622.85 902.07,1620.33 899.15,1617.81 896.086,1615.29 892.891,1612.77 889.593,1610.25 886.228,1607.73 882.841,1605.21 879.477,1602.69 876.179,1600.17 872.986,1597.64 869.93,1595.12 867.035,1592.6 864.316,1590.08 861.782,1587.56 859.436,1585.04 857.279,1582.52 855.306,1580 853.511,1577.48 851.89,1574.96 850.435,1572.43 849.141,1569.91 847.999,1567.39 847.003,1564.87 846.144,1562.35 845.413,1559.83 844.8,1557.31 844.294,1554.79 843.883,1552.27 843.558,1549.75 843.307,1547.22 843.121,1544.7 842.992,1542.18 842.915,1539.66 842.886,1537.14 842.903,1534.62 842.969,1532.1 843.087,1529.58 843.264,1527.06 843.508,1524.54 843.829,1522.01 844.237,1519.49 844.743,1516.97 845.356,1514.45 846.083,1511.93 846.926,1509.41 847.884,1506.89 848.946,1504.37 850.099,1501.85 851.319,1499.33 852.575,1496.8 853.833,1494.28 855.051,1491.76 856.186,1489.24 857.194,1486.72 858.033,1484.2 858.668,1481.68 859.071,1479.16 859.224,1476.64 859.12,1474.12 858.763,1471.59 826.254,1471.59 825.897,1474.12 825.793,1476.64 825.946,1479.16 826.349,1481.68 826.984,1484.2 827.824,1486.72 828.831,1489.24 829.966,1491.76 831.184,1494.28 832.442,1496.8 833.698,1499.33 834.918,1501.85 836.071,1504.37 837.133,1506.89 838.091,1509.41 838.934,1511.93 839.661,1514.45 840.274,1516.97 840.78,1519.49 841.188,1522.01 841.509,1524.54 841.753,1527.06 841.93,1529.58 842.048,1532.1 842.114,1534.62 842.131,1537.14 842.102,1539.66 842.025,1542.18 841.896,1544.7 841.71,1547.22 841.459,1549.75 841.134,1552.27 840.723,1554.79 840.217,1557.31 839.604,1559.83 838.873,1562.35 838.014,1564.87 837.018,1567.39 835.876,1569.91 834.582,1572.43 833.127,1574.96 831.506,1577.48 829.712,1580 827.738,1582.52 825.581,1585.04 823.235,1587.56 820.702,1590.08 817.982,1592.6 815.087,1595.12 812.031,1597.64 808.838,1600.17 805.54,1602.69 802.176,1605.21 798.789,1607.73 795.424,1610.25 792.126,1612.77 788.931,1615.29 785.868,1617.81 782.947,1620.33 780.167,1622.85 777.506,1625.38 774.927,1627.9 772.38,1630.42 769.806,1632.94 767.143,1635.46 764.334,1637.98 761.332,1640.5 758.104,1643.02 754.639,1645.54 750.946,1648.06 747.055,1650.59 743.015,1653.11 738.888,1655.63 734.745,1658.15 730.654,1660.67 726.679,1663.19 722.874,1665.71 719.271,1668.23 715.888,1670.75 712.72,1673.27 709.743,1675.8 706.917,1678.32 704.189,1680.84 701.495,1683.36 698.765,1685.88 695.923,1688.4 692.893,1690.92 689.592,1693.44 685.939,1695.96 681.85,1698.48 677.24,1701.01 672.03,1703.53 666.143,1706.05 659.52,1708.57 652.116,1711.09 643.916,1713.61 634.935,1716.13 625.226,1718.65 614.881,1721.17 604.027,1723.69 592.827,1726.22 581.466,1728.74 570.142,1731.26 559.052,1733.78 548.385,1736.3 538.303,1738.82 528.942,1741.34 520.402,1743.86 512.75,1746.38 506.026,1748.9 500.251,1751.43 495.442,1753.95 491.617,1756.47 488.814,1758.99 487.095,1761.51 486.549,1764.03 487.296,1766.55 489.472,1769.07 493.224,1771.59 498.694,1774.11 505.999,1776.64 515.214,1779.16 526.362,1781.68 539.395,1784.2 554.197,1786.72 570.577,1789.24 588.279,1791.76 606.995,1794.28 626.377,1796.8 646.06,1799.32 665.678,1801.85 684.887,1804.37 703.376,1806.89 720.884,1809.41 737.206,1811.93 752.195,1814.45 765.765,1816.97 919.252,1816.97 "/>
<path clip-path="url(#clip132)" d="M2293.8 3267.76 L2308.37 3265.84 L2322.71 3263.92 L2336.68 3262.01 L2350.14 3260.09 L2362.97 3258.17 L2375.05 3256.25 L2386.27 3254.33 L2396.56 3252.41 L2405.86 3250.49 L2414.1 3248.57 L2421.29 3246.65 L2427.4 3244.74 L2432.48 3242.82 L2436.54 3240.9 L2439.66 3238.98 L2441.91 3237.06 L2443.37 3235.14 L2444.14 3233.22 L2444.32 3231.3 L2444.02 3229.39 L2443.34 3227.47 L2442.38 3225.55 L2441.22 3223.63 L2439.96 3221.71 L2438.65 3219.79 L2437.36 3217.87 L2436.11 3215.95 L2434.94 3214.04 L2433.86 3212.12 L2432.85 3210.2 L2431.89 3208.28 L2430.97 3206.36 L2430.05 3204.44 L2429.08 3202.52 L2428.01 3200.6 L2426.82 3198.68 L2425.45 3196.77 L2423.87 3194.85 L2422.04 3192.93 L2419.96 3191.01 L2417.59 3189.09 L2414.93 3187.17 L2411.99 3185.25 L2408.77 3183.33 L2405.29 3181.42 L2401.56 3179.5 L2397.62 3177.58 L2393.48 3175.66 L2389.19 3173.74 L2384.76 3171.82 L2380.22 3169.9 L2375.6 3167.98 L2370.91 3166.06 L2366.19 3164.15 L2361.44 3162.23 L2356.67 3160.31 L2351.9 3158.39 L2347.13 3156.47 L2342.37 3154.55 L2337.62 3152.63 L2332.88 3150.71 L2328.17 3148.8 L2323.48 3146.88 L2318.82 3144.96 L2314.21 3143.04 L2309.65 3141.12 L2305.16 3139.2 L2300.77 3137.28 L2296.48 3135.36 L2292.32 3133.45 L2288.31 3131.53 L2284.47 3129.61 L2280.83 3127.69 L2277.39 3125.77 L2274.19 3123.85 L2271.23 3121.93 L2268.51 3120.01 L2266.04 3118.09 L2263.82 3116.18 L2261.84 3114.26 L2260.07 3112.34 L2258.51 3110.42 L2257.11 3108.5 L2255.84 3106.58 L2254.66 3104.66 L2253.53 3102.74 L2252.4 3100.83 L2251.21 3098.91 L2249.93 3096.99 L2248.49 3095.07 L2246.85 3093.15 L2244.96 3091.23 L2242.79 3089.31 L2240.3 3087.39 L2237.46 3085.47 L2234.27 3083.56 L2230.71 3081.64 L2226.78 3079.72 L2222.49 3077.8 L2217.86 3075.88 L2212.92 3073.96 L2207.69 3072.04 L2202.22 3070.12 L2196.55 3068.21 L2190.72 3066.29 L2184.79 3064.37 L2178.79 3062.45 L2172.79 3060.53 L2166.83 3058.61 L2160.96 3056.69 L2155.2 3054.77 L2021.53 3054.77 L2015.78 3056.69 L2009.9 3058.61 L2003.94 3060.53 L1997.94 3062.45 L1991.95 3064.37 L1986.01 3066.29 L1980.18 3068.21 L1974.51 3070.12 L1969.04 3072.04 L1963.81 3073.96 L1958.87 3075.88 L1954.24 3077.8 L1949.95 3079.72 L1946.02 3081.64 L1942.46 3083.56 L1939.27 3085.47 L1936.43 3087.39 L1933.94 3089.31 L1931.77 3091.23 L1929.89 3093.15 L1928.24 3095.07 L1926.8 3096.99 L1925.52 3098.91 L1924.33 3100.83 L1923.2 3102.74 L1922.07 3104.66 L1920.89 3106.58 L1919.62 3108.5 L1918.22 3110.42 L1916.66 3112.34 L1914.89 3114.26 L1912.91 3116.18 L1910.69 3118.09 L1908.22 3120.01 L1905.5 3121.93 L1902.54 3123.85 L1899.34 3125.77 L1895.9 3127.69 L1892.26 3129.61 L1888.42 3131.53 L1884.41 3133.45 L1880.25 3135.36 L1875.96 3137.28 L1871.57 3139.2 L1867.08 3141.12 L1862.52 3143.04 L1857.91 3144.96 L1853.25 3146.88 L1848.56 3148.8 L1843.85 3150.71 L1839.11 3152.63 L1834.36 3154.55 L1829.6 3156.47 L1824.83 3158.39 L1820.06 3160.31 L1815.29 3162.23 L1810.54 3164.15 L1805.82 3166.06 L1801.14 3167.98 L1796.51 3169.9 L1791.97 3171.82 L1787.54 3173.74 L1783.25 3175.66 L1779.11 3177.58 L1775.17 3179.5 L1771.45 3181.42 L1767.96 3183.33 L1764.74 3185.25 L1761.8 3187.17 L1759.14 3189.09 L1756.78 3191.01 L1754.69 3192.93 L1752.86 3194.85 L1751.28 3196.77 L1749.91 3198.68 L1748.72 3200.6 L1747.65 3202.52 L1746.68 3204.44 L1745.76 3206.36 L1744.84 3208.28 L1743.89 3210.2 L1742.88 3212.12 L1741.79 3214.04 L1740.62 3215.95 L1739.38 3217.87 L1738.08 3219.79 L1736.77 3221.71 L1735.51 3223.63 L1734.35 3225.55 L1733.39 3227.47 L1732.71 3229.39 L1732.41 3231.3 L1732.59 3233.22 L1733.36 3235.14 L1734.82 3237.06 L1737.07 3238.98 L1740.19 3240.9 L1744.25 3242.82 L1749.33 3244.74 L1755.44 3246.65 L1762.63 3248.57 L1770.88 3250.49 L1780.17 3252.41 L1790.46 3254.33 L1801.68 3256.25 L1813.76 3258.17 L1826.59 3260.09 L1840.05 3262.01 L1854.02 3263.92 L1868.36 3265.84 L1882.93 3267.76 L2293.8 3267.76  Z" fill="#2a778e" fill-rule="evenodd" fill-opacity="1"/>
<polyline clip-path="url(#clip132)" style="stroke:#000000; stroke-linecap:round; stroke-linejoin:round; stroke-width:4; stroke-opacity:1; fill:none" points="2293.8,3267.76 2308.37,3265.84 2322.71,3263.92 2336.68,3262.01 2350.14,3260.09 2362.97,3258.17 2375.05,3256.25 2386.27,3254.33 2396.56,3252.41 2405.86,3250.49 2414.1,3248.57 2421.29,3246.65 2427.4,3244.74 2432.48,3242.82 2436.54,3240.9 2439.66,3238.98 2441.91,3237.06 2443.37,3235.14 2444.14,3233.22 2444.32,3231.3 2444.02,3229.39 2443.34,3227.47 2442.38,3225.55 2441.22,3223.63 2439.96,3221.71 2438.65,3219.79 2437.36,3217.87 2436.11,3215.95 2434.94,3214.04 2433.86,3212.12 2432.85,3210.2 2431.89,3208.28 2430.97,3206.36 2430.05,3204.44 2429.08,3202.52 2428.01,3200.6 2426.82,3198.68 2425.45,3196.77 2423.87,3194.85 2422.04,3192.93 2419.96,3191.01 2417.59,3189.09 2414.93,3187.17 2411.99,3185.25 2408.77,3183.33 2405.29,3181.42 2401.56,3179.5 2397.62,3177.58 2393.48,3175.66 2389.19,3173.74 2384.76,3171.82 2380.22,3169.9 2375.6,3167.98 2370.91,3166.06 2366.19,3164.15 2361.44,3162.23 2356.67,3160.31 2351.9,3158.39 2347.13,3156.47 2342.37,3154.55 2337.62,3152.63 2332.88,3150.71 2328.17,3148.8 2323.48,3146.88 2318.82,3144.96 2314.21,3143.04 2309.65,3141.12 2305.16,3139.2 2300.77,3137.28 2296.48,3135.36 2292.32,3133.45 2288.31,3131.53 2284.47,3129.61 2280.83,3127.69 2277.39,3125.77 2274.19,3123.85 2271.23,3121.93 2268.51,3120.01 2266.04,3118.09 2263.82,3116.18 2261.84,3114.26 2260.07,3112.34 2258.51,3110.42 2257.11,3108.5 2255.84,3106.58 2254.66,3104.66 2253.53,3102.74 2252.4,3100.83 2251.21,3098.91 2249.93,3096.99 2248.49,3095.07 2246.85,3093.15 2244.96,3091.23 2242.79,3089.31 2240.3,3087.39 2237.46,3085.47 2234.27,3083.56 2230.71,3081.64 2226.78,3079.72 2222.49,3077.8 2217.86,3075.88 2212.92,3073.96 2207.69,3072.04 2202.22,3070.12 2196.55,3068.21 2190.72,3066.29 2184.79,3064.37 2178.79,3062.45 2172.79,3060.53 2166.83,3058.61 2160.96,3056.69 2155.2,3054.77 2021.53,3054.77 2015.78,3056.69 2009.9,3058.61 2003.94,3060.53 1997.94,3062.45 1991.95,3064.37 1986.01,3066.29 1980.18,3068.21 1974.51,3070.12 1969.04,3072.04 1963.81,3073.96 1958.87,3075.88 1954.24,3077.8 1949.95,3079.72 1946.02,3081.64 1942.46,3083.56 1939.27,3085.47 1936.43,3087.39 1933.94,3089.31 1931.77,3091.23 1929.89,3093.15 1928.24,3095.07 1926.8,3096.99 1925.52,3098.91 1924.33,3100.83 1923.2,3102.74 1922.07,3104.66 1920.89,3106.58 1919.62,3108.5 1918.22,3110.42 1916.66,3112.34 1914.89,3114.26 1912.91,3116.18 1910.69,3118.09 1908.22,3120.01 1905.5,3121.93 1902.54,3123.85 1899.34,3125.77 1895.9,3127.69 1892.26,3129.61 1888.42,3131.53 1884.41,3133.45 1880.25,3135.36 1875.96,3137.28 1871.57,3139.2 1867.08,3141.12 1862.52,3143.04 1857.91,3144.96 1853.25,3146.88 1848.56,3148.8 1843.85,3150.71 1839.11,3152.63 1834.36,3154.55 1829.6,3156.47 1824.83,3158.39 1820.06,3160.31 1815.29,3162.23 1810.54,3164.15 1805.82,3166.06 1801.14,3167.98 1796.51,3169.9 1791.97,3171.82 1787.54,3173.74 1783.25,3175.66 1779.11,3177.58 1775.17,3179.5 1771.45,3181.42 1767.96,3183.33 1764.74,3185.25 1761.8,3187.17 1759.14,3189.09 1756.78,3191.01 1754.69,3192.93 1752.86,3194.85 1751.28,3196.77 1749.91,3198.68 1748.72,3200.6 1747.65,3202.52 1746.68,3204.44 1745.76,3206.36 1744.84,3208.28 1743.89,3210.2 1742.88,3212.12 1741.79,3214.04 1740.62,3215.95 1739.38,3217.87 1738.08,3219.79 1736.77,3221.71 1735.51,3223.63 1734.35,3225.55 1733.39,3227.47 1732.71,3229.39 1732.41,3231.3 1732.59,3233.22 1733.36,3235.14 1734.82,3237.06 1737.07,3238.98 1740.19,3240.9 1744.25,3242.82 1749.33,3244.74 1755.44,3246.65 1762.63,3248.57 1770.88,3250.49 1780.17,3252.41 1790.46,3254.33 1801.68,3256.25 1813.76,3258.17 1826.59,3260.09 1840.05,3262.01 1854.02,3263.92 1868.36,3265.84 1882.93,3267.76 2293.8,3267.76 "/>
<path clip-path="url(#clip132)" d="M3540.87 3328.77 L3550.42 3326.94 L3559.22 3325.11 L3567.21 3323.28 L3574.33 3321.45 L3580.54 3319.62 L3585.83 3317.79 L3590.2 3315.96 L3593.69 3314.13 L3596.35 3312.3 L3598.25 3310.47 L3599.48 3308.64 L3600.14 3306.81 L3600.35 3304.98 L3600.23 3303.15 L3599.91 3301.32 L3599.5 3299.49 L3599.14 3297.66 L3598.95 3295.84 L3599.03 3294.01 L3599.48 3292.18 L3600.37 3290.35 L3601.79 3288.52 L3603.76 3286.69 L3606.33 3284.86 L3609.49 3283.03 L3613.25 3281.2 L3617.57 3279.37 L3622.41 3277.54 L3627.7 3275.71 L3633.36 3273.88 L3639.31 3272.05 L3645.42 3270.22 L3651.6 3268.39 L3657.71 3266.56 L3663.64 3264.73 L3669.25 3262.9 L3674.42 3261.07 L3679.02 3259.24 L3682.96 3257.41 L3686.11 3255.58 L3688.41 3253.75 L3689.78 3251.92 L3690.18 3250.09 L3689.58 3248.26 L3687.98 3246.43 L3685.4 3244.61 L3681.9 3242.78 L3677.54 3240.95 L3672.42 3239.12 L3666.65 3237.29 L3660.36 3235.46 L3653.7 3233.63 L3646.8 3231.8 L3639.82 3229.97 L3632.92 3228.14 L3626.22 3226.31 L3619.88 3224.48 L3614 3222.65 L3608.67 3220.82 L3603.99 3218.99 L3599.99 3217.16 L3596.7 3215.33 L3594.12 3213.5 L3592.24 3211.67 L3591 3209.84 L3590.33 3208.01 L3590.15 3206.18 L3590.37 3204.35 L3590.86 3202.52 L3591.51 3200.69 L3592.21 3198.86 L3592.82 3197.03 L3593.24 3195.2 L3593.37 3193.38 L3593.1 3191.55 L3592.35 3189.72 L3591.05 3187.89 L3589.16 3186.06 L3586.63 3184.23 L3583.44 3182.4 L3579.59 3180.57 L3575.1 3178.74 L3569.98 3176.91 L3564.27 3175.08 L3558.03 3173.25 L3551.31 3171.42 L3544.18 3169.59 L3536.7 3167.76 L3528.96 3165.93 L3521.04 3164.1 L3513 3162.27 L3504.93 3160.44 L3496.91 3158.61 L3488.99 3156.78 L3481.24 3154.95 L3473.72 3153.12 L3466.46 3151.29 L3459.5 3149.46 L3452.87 3147.63 L3446.58 3145.8 L3440.64 3143.97 L3435.03 3142.15 L3429.75 3140.32 L3424.78 3138.49 L3420.08 3136.66 L3415.64 3134.83 L3411.42 3133 L3407.37 3131.17 L3403.49 3129.34 L3399.72 3127.51 L3396.05 3125.68 L3272.39 3125.68 L3268.72 3127.51 L3264.96 3129.34 L3261.07 3131.17 L3257.03 3133 L3252.8 3134.83 L3248.36 3136.66 L3243.67 3138.49 L3238.69 3140.32 L3233.41 3142.15 L3227.81 3143.97 L3221.86 3145.8 L3215.57 3147.63 L3208.94 3149.46 L3201.99 3151.29 L3194.73 3153.12 L3187.2 3154.95 L3179.45 3156.78 L3171.54 3158.61 L3163.51 3160.44 L3155.44 3162.27 L3147.41 3164.1 L3139.48 3165.93 L3131.74 3167.76 L3124.27 3169.59 L3117.14 3171.42 L3110.41 3173.25 L3104.17 3175.08 L3098.47 3176.91 L3093.35 3178.74 L3088.85 3180.57 L3085 3182.4 L3081.82 3184.23 L3079.29 3186.06 L3077.39 3187.89 L3076.1 3189.72 L3075.35 3191.55 L3075.08 3193.38 L3075.2 3195.2 L3075.62 3197.03 L3076.24 3198.86 L3076.93 3200.69 L3077.59 3202.52 L3078.08 3204.35 L3078.29 3206.18 L3078.11 3208.01 L3077.45 3209.84 L3076.21 3211.67 L3074.32 3213.5 L3071.75 3215.33 L3068.46 3217.16 L3064.46 3218.99 L3059.77 3220.82 L3054.45 3222.65 L3048.57 3224.48 L3042.22 3226.31 L3035.53 3228.14 L3028.62 3229.97 L3021.65 3231.8 L3014.75 3233.63 L3008.08 3235.46 L3001.79 3237.29 L2996.02 3239.12 L2990.9 3240.95 L2986.54 3242.78 L2983.04 3244.61 L2980.47 3246.43 L2978.86 3248.26 L2978.26 3250.09 L2978.66 3251.92 L2980.03 3253.75 L2982.33 3255.58 L2985.49 3257.41 L2989.42 3259.24 L2994.03 3261.07 L2999.2 3262.9 L3004.81 3264.73 L3010.73 3266.56 L3016.85 3268.39 L3023.02 3270.22 L3029.14 3272.05 L3035.08 3273.88 L3040.74 3275.71 L3046.03 3277.54 L3050.87 3279.37 L3055.19 3281.2 L3058.95 3283.03 L3062.12 3284.86 L3064.68 3286.69 L3066.66 3288.52 L3068.07 3290.35 L3068.97 3292.18 L3069.42 3294.01 L3069.49 3295.84 L3069.3 3297.66 L3068.94 3299.49 L3068.54 3301.32 L3068.21 3303.15 L3068.09 3304.98 L3068.3 3306.81 L3068.96 3308.64 L3070.19 3310.47 L3072.09 3312.3 L3074.75 3314.13 L3078.25 3315.96 L3082.62 3317.79 L3087.91 3319.62 L3094.11 3321.45 L3101.23 3323.28 L3109.22 3325.11 L3118.03 3326.94 L3127.58 3328.77 L3540.87 3328.77  Z" fill="#21a784" fill-rule="evenodd" fill-opacity="1"/>
<polyline clip-path="url(#clip132)" style="stroke:#000000; stroke-linecap:round; stroke-linejoin:round; stroke-width:4; stroke-opacity:1; fill:none" points="3540.87,3328.77 3550.42,3326.94 3559.22,3325.11 3567.21,3323.28 3574.33,3321.45 3580.54,3319.62 3585.83,3317.79 3590.2,3315.96 3593.69,3314.13 3596.35,3312.3 3598.25,3310.47 3599.48,3308.64 3600.14,3306.81 3600.35,3304.98 3600.23,3303.15 3599.91,3301.32 3599.5,3299.49 3599.14,3297.66 3598.95,3295.84 3599.03,3294.01 3599.48,3292.18 3600.37,3290.35 3601.79,3288.52 3603.76,3286.69 3606.33,3284.86 3609.49,3283.03 3613.25,3281.2 3617.57,3279.37 3622.41,3277.54 3627.7,3275.71 3633.36,3273.88 3639.31,3272.05 3645.42,3270.22 3651.6,3268.39 3657.71,3266.56 3663.64,3264.73 3669.25,3262.9 3674.42,3261.07 3679.02,3259.24 3682.96,3257.41 3686.11,3255.58 3688.41,3253.75 3689.78,3251.92 3690.18,3250.09 3689.58,3248.26 3687.98,3246.43 3685.4,3244.61 3681.9,3242.78 3677.54,3240.95 3672.42,3239.12 3666.65,3237.29 3660.36,3235.46 3653.7,3233.63 3646.8,3231.8 3639.82,3229.97 3632.92,3228.14 3626.22,3226.31 3619.88,3224.48 3614,3222.65 3608.67,3220.82 3603.99,3218.99 3599.99,3217.16 3596.7,3215.33 3594.12,3213.5 3592.24,3211.67 3591,3209.84 3590.33,3208.01 3590.15,3206.18 3590.37,3204.35 3590.86,3202.52 3591.51,3200.69 3592.21,3198.86 3592.82,3197.03 3593.24,3195.2 3593.37,3193.38 3593.1,3191.55 3592.35,3189.72 3591.05,3187.89 3589.16,3186.06 3586.63,3184.23 3583.44,3182.4 3579.59,3180.57 3575.1,3178.74 3569.98,3176.91 3564.27,3175.08 3558.03,3173.25 3551.31,3171.42 3544.18,3169.59 3536.7,3167.76 3528.96,3165.93 3521.04,3164.1 3513,3162.27 3504.93,3160.44 3496.91,3158.61 3488.99,3156.78 3481.24,3154.95 3473.72,3153.12 3466.46,3151.29 3459.5,3149.46 3452.87,3147.63 3446.58,3145.8 3440.64,3143.97 3435.03,3142.15 3429.75,3140.32 3424.78,3138.49 3420.08,3136.66 3415.64,3134.83 3411.42,3133 3407.37,3131.17 3403.49,3129.34 3399.72,3127.51 3396.05,3125.68 3272.39,3125.68 3268.72,3127.51 3264.96,3129.34 3261.07,3131.17 3257.03,3133 3252.8,3134.83 3248.36,3136.66 3243.67,3138.49 3238.69,3140.32 3233.41,3142.15 3227.81,3143.97 3221.86,3145.8 3215.57,3147.63 3208.94,3149.46 3201.99,3151.29 3194.73,3153.12 3187.2,3154.95 3179.45,3156.78 3171.54,3158.61 3163.51,3160.44 3155.44,3162.27 3147.41,3164.1 3139.48,3165.93 3131.74,3167.76 3124.27,3169.59 3117.14,3171.42 3110.41,3173.25 3104.17,3175.08 3098.47,3176.91 3093.35,3178.74 3088.85,3180.57 3085,3182.4 3081.82,3184.23 3079.29,3186.06 3077.39,3187.89 3076.1,3189.72 3075.35,3191.55 3075.08,3193.38 3075.2,3195.2 3075.62,3197.03 3076.24,3198.86 3076.93,3200.69 3077.59,3202.52 3078.08,3204.35 3078.29,3206.18 3078.11,3208.01 3077.45,3209.84 3076.21,3211.67 3074.32,3213.5 3071.75,3215.33 3068.46,3217.16 3064.46,3218.99 3059.77,3220.82 3054.45,3222.65 3048.57,3224.48 3042.22,3226.31 3035.53,3228.14 3028.62,3229.97 3021.65,3231.8 3014.75,3233.63 3008.08,3235.46 3001.79,3237.29 2996.02,3239.12 2990.9,3240.95 2986.54,3242.78 2983.04,3244.61 2980.47,3246.43 2978.86,3248.26 2978.26,3250.09 2978.66,3251.92 2980.03,3253.75 2982.33,3255.58 2985.49,3257.41 2989.42,3259.24 2994.03,3261.07 2999.2,3262.9 3004.81,3264.73 3010.73,3266.56 3016.85,3268.39 3023.02,3270.22 3029.14,3272.05 3035.08,3273.88 3040.74,3275.71 3046.03,3277.54 3050.87,3279.37 3055.19,3281.2 3058.95,3283.03 3062.12,3284.86 3064.68,3286.69 3066.66,3288.52 3068.07,3290.35 3068.97,3292.18 3069.42,3294.01 3069.49,3295.84 3069.3,3297.66 3068.94,3299.49 3068.54,3301.32 3068.21,3303.15 3068.09,3304.98 3068.3,3306.81 3068.96,3308.64 3070.19,3310.47 3072.09,3312.3 3074.75,3314.13 3078.25,3315.96 3082.62,3317.79 3087.91,3319.62 3094.11,3321.45 3101.23,3323.28 3109.22,3325.11 3118.03,3326.94 3127.58,3328.77 3540.87,3328.77 "/>
<path clip-path="url(#clip132)" d="M4794.15 3339.51 L4805.18 3337.86 L4815.68 3336.21 L4825.58 3334.56 L4834.8 3332.9 L4843.31 3331.25 L4851.05 3329.6 L4858.02 3327.95 L4864.2 3326.3 L4869.59 3324.65 L4874.22 3323 L4878.12 3321.35 L4881.3 3319.7 L4883.83 3318.05 L4885.73 3316.4 L4887.05 3314.75 L4887.83 3313.1 L4888.11 3311.45 L4887.93 3309.8 L4887.32 3308.15 L4886.29 3306.5 L4884.87 3304.85 L4883.08 3303.2 L4880.92 3301.55 L4878.41 3299.9 L4875.55 3298.25 L4872.35 3296.59 L4868.83 3294.94 L4864.99 3293.29 L4860.86 3291.64 L4856.47 3289.99 L4851.85 3288.34 L4847.05 3286.69 L4842.11 3285.04 L4837.1 3283.39 L4832.09 3281.74 L4827.14 3280.09 L4822.35 3278.44 L4817.8 3276.79 L4813.58 3275.14 L4809.78 3273.49 L4806.5 3271.84 L4803.81 3270.19 L4801.8 3268.54 L4800.55 3266.89 L4800.12 3265.24 L4800.57 3263.59 L4801.93 3261.94 L4804.22 3260.29 L4807.44 3258.63 L4811.58 3256.98 L4816.61 3255.33 L4822.46 3253.68 L4829.07 3252.03 L4836.33 3250.38 L4844.13 3248.73 L4852.36 3247.08 L4860.87 3245.43 L4869.52 3243.78 L4878.17 3242.13 L4886.66 3240.48 L4894.85 3238.83 L4902.6 3237.18 L4909.78 3235.53 L4916.26 3233.88 L4921.95 3232.23 L4926.76 3230.58 L4930.62 3228.93 L4933.47 3227.28 L4935.29 3225.63 L4936.04 3223.98 L4935.73 3222.32 L4934.38 3220.67 L4932 3219.02 L4928.65 3217.37 L4924.37 3215.72 L4919.21 3214.07 L4913.26 3212.42 L4906.57 3210.77 L4899.23 3209.12 L4891.32 3207.47 L4882.91 3205.82 L4874.1 3204.17 L4864.95 3202.52 L4855.55 3200.87 L4845.97 3199.22 L4836.29 3197.57 L4826.56 3195.92 L4816.84 3194.27 L4807.19 3192.62 L4797.65 3190.97 L4788.26 3189.32 L4779.05 3187.67 L4770.03 3186.01 L4761.23 3184.36 L4752.64 3182.71 L4744.28 3181.06 L4736.15 3179.41 L4728.23 3177.76 L4720.52 3176.11 L4713.01 3174.46 L4705.7 3172.81 L4698.56 3171.16 L4691.61 3169.51 L4684.82 3167.86 L4678.2 3166.21 L4671.75 3164.56 L4665.47 3162.91 L4494.69 3162.91 L4488.41 3164.56 L4481.96 3166.21 L4475.34 3167.86 L4468.55 3169.51 L4461.59 3171.16 L4454.46 3172.81 L4447.15 3174.46 L4439.64 3176.11 L4431.93 3177.76 L4424.01 3179.41 L4415.87 3181.06 L4407.52 3182.71 L4398.93 3184.36 L4390.13 3186.01 L4381.11 3187.67 L4371.9 3189.32 L4362.51 3190.97 L4352.97 3192.62 L4343.32 3194.27 L4333.6 3195.92 L4323.87 3197.57 L4314.19 3199.22 L4304.61 3200.87 L4295.21 3202.52 L4286.06 3204.17 L4277.24 3205.82 L4268.84 3207.47 L4260.93 3209.12 L4253.59 3210.77 L4246.9 3212.42 L4240.94 3214.07 L4235.79 3215.72 L4231.51 3217.37 L4228.16 3219.02 L4225.78 3220.67 L4224.43 3222.32 L4224.12 3223.98 L4224.87 3225.63 L4226.68 3227.28 L4229.54 3228.93 L4233.39 3230.58 L4238.21 3232.23 L4243.9 3233.88 L4250.38 3235.53 L4257.56 3237.18 L4265.31 3238.83 L4273.5 3240.48 L4281.99 3242.13 L4290.63 3243.78 L4299.29 3245.43 L4307.8 3247.08 L4316.03 3248.73 L4323.83 3250.38 L4331.09 3252.03 L4337.69 3253.68 L4343.55 3255.33 L4348.57 3256.98 L4352.72 3258.63 L4355.94 3260.29 L4358.23 3261.94 L4359.59 3263.59 L4360.04 3265.24 L4359.61 3266.89 L4358.36 3268.54 L4356.35 3270.19 L4353.66 3271.84 L4350.37 3273.49 L4346.58 3275.14 L4342.35 3276.79 L4337.8 3278.44 L4333.01 3280.09 L4328.07 3281.74 L4323.06 3283.39 L4318.05 3285.04 L4313.11 3286.69 L4308.31 3288.34 L4303.69 3289.99 L4299.3 3291.64 L4295.17 3293.29 L4291.33 3294.94 L4287.81 3296.59 L4284.61 3298.25 L4281.75 3299.9 L4279.23 3301.55 L4277.08 3303.2 L4275.28 3304.85 L4273.87 3306.5 L4272.84 3308.15 L4272.23 3309.8 L4272.05 3311.45 L4272.33 3313.1 L4273.11 3314.75 L4274.43 3316.4 L4276.33 3318.05 L4278.86 3319.7 L4282.04 3321.35 L4285.93 3323 L4290.57 3324.65 L4295.96 3326.3 L4302.14 3327.95 L4309.11 3329.6 L4316.85 3331.25 L4325.36 3332.9 L4334.58 3334.56 L4344.48 3336.21 L4354.98 3337.86 L4366.01 3339.51 L4794.15 3339.51  Z" fill="#77d052" fill-rule="evenodd" fill-opacity="1"/>
<polyline clip-path="url(#clip132)" style="stroke:#000000; stroke-linecap:round; stroke-linejoin:round; stroke-width:4; stroke-opacity:1; fill:none" points="4794.15,3339.51 4805.18,3337.86 4815.68,3336.21 4825.58,3334.56 4834.8,3332.9 4843.31,3331.25 4851.05,3329.6 4858.02,3327.95 4864.2,3326.3 4869.59,3324.65 4874.22,3323 4878.12,3321.35 4881.3,3319.7 4883.83,3318.05 4885.73,3316.4 4887.05,3314.75 4887.83,3313.1 4888.11,3311.45 4887.93,3309.8 4887.32,3308.15 4886.29,3306.5 4884.87,3304.85 4883.08,3303.2 4880.92,3301.55 4878.41,3299.9 4875.55,3298.25 4872.35,3296.59 4868.83,3294.94 4864.99,3293.29 4860.86,3291.64 4856.47,3289.99 4851.85,3288.34 4847.05,3286.69 4842.11,3285.04 4837.1,3283.39 4832.09,3281.74 4827.14,3280.09 4822.35,3278.44 4817.8,3276.79 4813.58,3275.14 4809.78,3273.49 4806.5,3271.84 4803.81,3270.19 4801.8,3268.54 4800.55,3266.89 4800.12,3265.24 4800.57,3263.59 4801.93,3261.94 4804.22,3260.29 4807.44,3258.63 4811.58,3256.98 4816.61,3255.33 4822.46,3253.68 4829.07,3252.03 4836.33,3250.38 4844.13,3248.73 4852.36,3247.08 4860.87,3245.43 4869.52,3243.78 4878.17,3242.13 4886.66,3240.48 4894.85,3238.83 4902.6,3237.18 4909.78,3235.53 4916.26,3233.88 4921.95,3232.23 4926.76,3230.58 4930.62,3228.93 4933.47,3227.28 4935.29,3225.63 4936.04,3223.98 4935.73,3222.32 4934.38,3220.67 4932,3219.02 4928.65,3217.37 4924.37,3215.72 4919.21,3214.07 4913.26,3212.42 4906.57,3210.77 4899.23,3209.12 4891.32,3207.47 4882.91,3205.82 4874.1,3204.17 4864.95,3202.52 4855.55,3200.87 4845.97,3199.22 4836.29,3197.57 4826.56,3195.92 4816.84,3194.27 4807.19,3192.62 4797.65,3190.97 4788.26,3189.32 4779.05,3187.67 4770.03,3186.01 4761.23,3184.36 4752.64,3182.71 4744.28,3181.06 4736.15,3179.41 4728.23,3177.76 4720.52,3176.11 4713.01,3174.46 4705.7,3172.81 4698.56,3171.16 4691.61,3169.51 4684.82,3167.86 4678.2,3166.21 4671.75,3164.56 4665.47,3162.91 4494.69,3162.91 4488.41,3164.56 4481.96,3166.21 4475.34,3167.86 4468.55,3169.51 4461.59,3171.16 4454.46,3172.81 4447.15,3174.46 4439.64,3176.11 4431.93,3177.76 4424.01,3179.41 4415.87,3181.06 4407.52,3182.71 4398.93,3184.36 4390.13,3186.01 4381.11,3187.67 4371.9,3189.32 4362.51,3190.97 4352.97,3192.62 4343.32,3194.27 4333.6,3195.92 4323.87,3197.57 4314.19,3199.22 4304.61,3200.87 4295.21,3202.52 4286.06,3204.17 4277.24,3205.82 4268.84,3207.47 4260.93,3209.12 4253.59,3210.77 4246.9,3212.42 4240.94,3214.07 4235.79,3215.72 4231.51,3217.37 4228.16,3219.02 4225.78,3220.67 4224.43,3222.32 4224.12,3223.98 4224.87,3225.63 4226.68,3227.28 4229.54,3228.93 4233.39,3230.58 4238.21,3232.23 4243.9,3233.88 4250.38,3235.53 4257.56,3237.18 4265.31,3238.83 4273.5,3240.48 4281.99,3242.13 4290.63,3243.78 4299.29,3245.43 4307.8,3247.08 4316.03,3248.73 4323.83,3250.38 4331.09,3252.03 4337.69,3253.68 4343.55,3255.33 4348.57,3256.98 4352.72,3258.63 4355.94,3260.29 4358.23,3261.94 4359.59,3263.59 4360.04,3265.24 4359.61,3266.89 4358.36,3268.54 4356.35,3270.19 4353.66,3271.84 4350.37,3273.49 4346.58,3275.14 4342.35,3276.79 4337.8,3278.44 4333.01,3280.09 4328.07,3281.74 4323.06,3283.39 4318.05,3285.04 4313.11,3286.69 4308.31,3288.34 4303.69,3289.99 4299.3,3291.64 4295.17,3293.29 4291.33,3294.94 4287.81,3296.59 4284.61,3298.25 4281.75,3299.9 4279.23,3301.55 4277.08,3303.2 4275.28,3304.85 4273.87,3306.5 4272.84,3308.15 4272.23,3309.8 4272.05,3311.45 4272.33,3313.1 4273.11,3314.75 4274.43,3316.4 4276.33,3318.05 4278.86,3319.7 4282.04,3321.35 4285.93,3323 4290.57,3324.65 4295.96,3326.3 4302.14,3327.95 4309.11,3329.6 4316.85,3331.25 4325.36,3332.9 4334.58,3334.56 4344.48,3336.21 4354.98,3337.86 4366.01,3339.51 4794.15,3339.51 "/>
<path clip-path="url(#clip132)" d="M6060.01 2294 L6069.29 2271.83 L6077.69 2249.65 L6085.12 2227.48 L6091.51 2205.3 L6096.79 2183.13 L6100.94 2160.96 L6103.92 2138.78 L6105.73 2116.61 L6106.41 2094.44 L6105.99 2072.26 L6104.52 2050.09 L6102.09 2027.91 L6098.78 2005.74 L6094.68 1983.57 L6089.92 1961.39 L6084.61 1939.22 L6078.87 1917.04 L6072.81 1894.87 L6066.55 1872.7 L6060.22 1850.52 L6053.91 1828.35 L6047.72 1806.18 L6041.75 1784 L6036.08 1761.83 L6030.75 1739.65 L6025.84 1717.48 L6021.38 1695.31 L6017.4 1673.13 L6013.91 1650.96 L6010.92 1628.78 L6008.43 1606.61 L6006.42 1584.44 L6004.88 1562.26 L6003.76 1540.09 L6003.04 1517.91 L6002.68 1495.74 L6002.63 1473.57 L6002.86 1451.39 L6003.31 1429.22 L6003.95 1407.05 L6004.74 1384.87 L6005.63 1362.7 L6006.59 1340.52 L6007.58 1318.35 L6008.58 1296.18 L6009.57 1274 L6010.53 1251.83 L6011.45 1229.65 L6012.33 1207.48 L6013.17 1185.31 L6013.98 1163.13 L6014.78 1140.96 L6015.58 1118.79 L6016.42 1096.61 L6017.32 1074.44 L6018.34 1052.26 L6019.5 1030.09 L6020.86 1007.92 L6022.47 985.742 L6024.36 963.568 L6026.6 941.394 L6029.22 919.22 L6032.28 897.047 L6035.81 874.873 L6039.86 852.699 L6044.43 830.525 L6049.56 808.351 L6055.25 786.177 L6061.5 764.003 L6068.27 741.83 L6075.56 719.656 L6083.29 697.482 L6091.42 675.308 L6099.86 653.134 L6108.51 630.96 L6117.28 608.786 L6126.03 586.613 L6134.63 564.439 L6142.95 542.265 L6150.84 520.091 L6158.15 497.917 L6164.72 475.743 L6170.42 453.569 L6175.11 431.395 L6178.65 409.222 L6180.95 387.048 L6181.9 364.874 L6181.43 342.7 L6179.49 320.526 L6176.05 298.352 L6171.12 276.178 L6164.72 254.005 L6156.9 231.831 L6147.72 209.657 L6137.3 187.483 L6125.73 165.309 L6113.16 143.135 L5538.71 143.135 L5526.14 165.309 L5514.58 187.483 L5504.15 209.657 L5494.98 231.831 L5487.15 254.005 L5480.75 276.178 L5475.82 298.352 L5472.38 320.526 L5470.45 342.7 L5469.98 364.874 L5470.93 387.048 L5473.22 409.222 L5476.77 431.395 L5481.45 453.569 L5487.15 475.743 L5493.73 497.917 L5501.03 520.091 L5508.92 542.265 L5517.24 564.439 L5525.85 586.613 L5534.6 608.786 L5543.36 630.96 L5552.02 653.134 L5560.45 675.308 L5568.58 697.482 L5576.32 719.656 L5583.6 741.83 L5590.38 764.003 L5596.62 786.177 L5602.31 808.351 L5607.44 830.525 L5612.02 852.699 L5616.06 874.873 L5619.59 897.047 L5622.65 919.22 L5625.28 941.394 L5627.51 963.568 L5629.41 985.742 L5631.01 1007.92 L5632.37 1030.09 L5633.53 1052.26 L5634.55 1074.44 L5635.46 1096.61 L5636.29 1118.79 L5637.1 1140.96 L5637.89 1163.13 L5638.7 1185.31 L5639.54 1207.48 L5640.42 1229.65 L5641.34 1251.83 L5642.3 1274 L5643.29 1296.18 L5644.29 1318.35 L5645.29 1340.52 L5646.24 1362.7 L5647.13 1384.87 L5647.92 1407.05 L5648.56 1429.22 L5649.02 1451.39 L5649.24 1473.57 L5649.2 1495.74 L5648.83 1517.91 L5648.11 1540.09 L5647 1562.26 L5645.45 1584.44 L5643.44 1606.61 L5640.95 1628.78 L5637.96 1650.96 L5634.48 1673.13 L5630.49 1695.31 L5626.03 1717.48 L5621.12 1739.65 L5615.8 1761.83 L5610.12 1784 L5604.15 1806.18 L5597.96 1828.35 L5591.66 1850.52 L5585.32 1872.7 L5579.07 1894.87 L5573.01 1917.04 L5567.26 1939.22 L5561.95 1961.39 L5557.19 1983.57 L5553.1 2005.74 L5549.78 2027.91 L5547.35 2050.09 L5545.89 2072.26 L5545.46 2094.44 L5546.14 2116.61 L5547.96 2138.78 L5550.94 2160.96 L5555.08 2183.13 L5560.36 2205.3 L5566.75 2227.48 L5574.18 2249.65 L5582.58 2271.83 L5591.86 2294 L6060.01 2294  Z" fill="#fae622" fill-rule="evenodd" fill-opacity="1"/>
<polyline clip-path="url(#clip132)" style="stroke:#000000; stroke-linecap:round; stroke-linejoin:round; stroke-width:4; stroke-opacity:1; fill:none" points="6060.01,2294 6069.29,2271.83 6077.69,2249.65 6085.12,2227.48 6091.51,2205.3 6096.79,2183.13 6100.94,2160.96 6103.92,2138.78 6105.73,2116.61 6106.41,2094.44 6105.99,2072.26 6104.52,2050.09 6102.09,2027.91 6098.78,2005.74 6094.68,1983.57 6089.92,1961.39 6084.61,1939.22 6078.87,1917.04 6072.81,1894.87 6066.55,1872.7 6060.22,1850.52 6053.91,1828.35 6047.72,1806.18 6041.75,1784 6036.08,1761.83 6030.75,1739.65 6025.84,1717.48 6021.38,1695.31 6017.4,1673.13 6013.91,1650.96 6010.92,1628.78 6008.43,1606.61 6006.42,1584.44 6004.88,1562.26 6003.76,1540.09 6003.04,1517.91 6002.68,1495.74 6002.63,1473.57 6002.86,1451.39 6003.31,1429.22 6003.95,1407.05 6004.74,1384.87 6005.63,1362.7 6006.59,1340.52 6007.58,1318.35 6008.58,1296.18 6009.57,1274 6010.53,1251.83 6011.45,1229.65 6012.33,1207.48 6013.17,1185.31 6013.98,1163.13 6014.78,1140.96 6015.58,1118.79 6016.42,1096.61 6017.32,1074.44 6018.34,1052.26 6019.5,1030.09 6020.86,1007.92 6022.47,985.742 6024.36,963.568 6026.6,941.394 6029.22,919.22 6032.28,897.047 6035.81,874.873 6039.86,852.699 6044.43,830.525 6049.56,808.351 6055.25,786.177 6061.5,764.003 6068.27,741.83 6075.56,719.656 6083.29,697.482 6091.42,675.308 6099.86,653.134 6108.51,630.96 6117.28,608.786 6126.03,586.613 6134.63,564.439 6142.95,542.265 6150.84,520.091 6158.15,497.917 6164.72,475.743 6170.42,453.569 6175.11,431.395 6178.65,409.222 6180.95,387.048 6181.9,364.874 6181.43,342.7 6179.49,320.526 6176.05,298.352 6171.12,276.178 6164.72,254.005 6156.9,231.831 6147.72,209.657 6137.3,187.483 6125.73,165.309 6113.16,143.135 5538.71,143.135 5526.14,165.309 5514.58,187.483 5504.15,209.657 5494.98,231.831 5487.15,254.005 5480.75,276.178 5475.82,298.352 5472.38,320.526 5470.45,342.7 5469.98,364.874 5470.93,387.048 5473.22,409.222 5476.77,431.395 5481.45,453.569 5487.15,475.743 5493.73,497.917 5501.03,520.091 5508.92,542.265 5517.24,564.439 5525.85,586.613 5534.6,608.786 5543.36,630.96 5552.02,653.134 5560.45,675.308 5568.58,697.482 5576.32,719.656 5583.6,741.83 5590.38,764.003 5596.62,786.177 5602.31,808.351 5607.44,830.525 5612.02,852.699 5616.06,874.873 5619.59,897.047 5622.65,919.22 5625.28,941.394 5627.51,963.568 5629.41,985.742 5631.01,1007.92 5632.37,1030.09 5633.53,1052.26 5634.55,1074.44 5635.46,1096.61 5636.29,1118.79 5637.1,1140.96 5637.89,1163.13 5638.7,1185.31 5639.54,1207.48 5640.42,1229.65 5641.34,1251.83 5642.3,1274 5643.29,1296.18 5644.29,1318.35 5645.29,1340.52 5646.24,1362.7 5647.13,1384.87 5647.92,1407.05 5648.56,1429.22 5649.02,1451.39 5649.24,1473.57 5649.2,1495.74 5648.83,1517.91 5648.11,1540.09 5647,1562.26 5645.45,1584.44 5643.44,1606.61 5640.95,1628.78 5637.96,1650.96 5634.48,1673.13 5630.49,1695.31 5626.03,1717.48 5621.12,1739.65 5615.8,1761.83 5610.12,1784 5604.15,1806.18 5597.96,1828.35 5591.66,1850.52 5585.32,1872.7 5579.07,1894.87 5573.01,1917.04 5567.26,1939.22 5561.95,1961.39 5557.19,1983.57 5553.1,2005.74 5549.78,2027.91 5547.35,2050.09 5545.89,2072.26 5545.46,2094.44 5546.14,2116.61 5547.96,2138.78 5550.94,2160.96 5555.08,2183.13 5560.36,2205.3 5566.75,2227.48 5574.18,2249.65 5582.58,2271.83 5591.86,2294 6060.01,2294 "/>
</svg>
