<?xml version="1.0" encoding="utf-8"?>
<svg xmlns="http://www.w3.org/2000/svg" xmlns:xlink="http://www.w3.org/1999/xlink" width="1600" height="900" viewBox="0 0 6400 3600">
<defs>
  <clipPath id="clip210">
    <rect x="0" y="0" width="6400" height="3600"/>
  </clipPath>
</defs>
<path clip-path="url(#clip210)" d="M0 3600 L6400 3600 L6400 0 L0 0  Z" fill="#ffffff" fill-rule="evenodd" fill-opacity="1"/>
<defs>
  <clipPath id="clip211">
    <rect x="1280" y="0" width="4481" height="3600"/>
  </clipPath>
</defs>
<path clip-path="url(#clip210)" d="M315.689 3435.4 L6352.76 3435.4 L6352.76 47.2441 L315.689 47.2441  Z" fill="#ffffff" fill-rule="evenodd" fill-opacity="1"/>
<defs>
  <clipPath id="clip212">
    <rect x="315" y="47" width="6038" height="3389"/>
  </clipPath>
</defs>
<polyline clip-path="url(#clip212)" style="stroke:#222255; stroke-linecap:round; stroke-linejoin:round; stroke-width:2; stroke-opacity:0.05; fill:none" points="344.166,3435.4 344.166,47.2441 "/>
<polyline clip-path="url(#clip212)" style="stroke:#222255; stroke-linecap:round; stroke-linejoin:round; stroke-width:2; stroke-opacity:0.05; fill:none" points="593.337,3435.4 593.337,47.2441 "/>
<polyline clip-path="url(#clip212)" style="stroke:#222255; stroke-linecap:round; stroke-linejoin:round; stroke-width:2; stroke-opacity:0.05; fill:none" points="1091.68,3435.4 1091.68,47.2441 "/>
<polyline clip-path="url(#clip212)" style="stroke:#222255; stroke-linecap:round; stroke-linejoin:round; stroke-width:2; stroke-opacity:0.05; fill:none" points="1340.85,3435.4 1340.85,47.2441 "/>
<polyline clip-path="url(#clip212)" style="stroke:#222255; stroke-linecap:round; stroke-linejoin:round; stroke-width:2; stroke-opacity:0.05; fill:none" points="1590.02,3435.4 1590.02,47.2441 "/>
<polyline clip-path="url(#clip212)" style="stroke:#222255; stroke-linecap:round; stroke-linejoin:round; stroke-width:2; stroke-opacity:0.05; fill:none" points="1839.19,3435.4 1839.19,47.2441 "/>
<polyline clip-path="url(#clip212)" style="stroke:#222255; stroke-linecap:round; stroke-linejoin:round; stroke-width:2; stroke-opacity:0.05; fill:none" points="2337.54,3435.4 2337.54,47.2441 "/>
<polyline clip-path="url(#clip212)" style="stroke:#222255; stroke-linecap:round; stroke-linejoin:round; stroke-width:2; stroke-opacity:0.05; fill:none" points="2586.71,3435.4 2586.71,47.2441 "/>
<polyline clip-path="url(#clip212)" style="stroke:#222255; stroke-linecap:round; stroke-linejoin:round; stroke-width:2; stroke-opacity:0.05; fill:none" points="2835.88,3435.4 2835.88,47.2441 "/>
<polyline clip-path="url(#clip212)" style="stroke:#222255; stroke-linecap:round; stroke-linejoin:round; stroke-width:2; stroke-opacity:0.05; fill:none" points="3085.05,3435.4 3085.05,47.2441 "/>
<polyline clip-path="url(#clip212)" style="stroke:#222255; stroke-linecap:round; stroke-linejoin:round; stroke-width:2; stroke-opacity:0.05; fill:none" points="3583.39,3435.4 3583.39,47.2441 "/>
<polyline clip-path="url(#clip212)" style="stroke:#222255; stroke-linecap:round; stroke-linejoin:round; stroke-width:2; stroke-opacity:0.05; fill:none" points="3832.57,3435.4 3832.57,47.2441 "/>
<polyline clip-path="url(#clip212)" style="stroke:#222255; stroke-linecap:round; stroke-linejoin:round; stroke-width:2; stroke-opacity:0.05; fill:none" points="4081.74,3435.4 4081.74,47.2441 "/>
<polyline clip-path="url(#clip212)" style="stroke:#222255; stroke-linecap:round; stroke-linejoin:round; stroke-width:2; stroke-opacity:0.05; fill:none" points="4330.91,3435.4 4330.91,47.2441 "/>
<polyline clip-path="url(#clip212)" style="stroke:#222255; stroke-linecap:round; stroke-linejoin:round; stroke-width:2; stroke-opacity:0.05; fill:none" points="4829.25,3435.4 4829.25,47.2441 "/>
<polyline clip-path="url(#clip212)" style="stroke:#222255; stroke-linecap:round; stroke-linejoin:round; stroke-width:2; stroke-opacity:0.05; fill:none" points="5078.42,3435.4 5078.42,47.2441 "/>
<polyline clip-path="url(#clip212)" style="stroke:#222255; stroke-linecap:round; stroke-linejoin:round; stroke-width:2; stroke-opacity:0.05; fill:none" points="5327.59,3435.4 5327.59,47.2441 "/>
<polyline clip-path="url(#clip212)" style="stroke:#222255; stroke-linecap:round; stroke-linejoin:round; stroke-width:2; stroke-opacity:0.05; fill:none" points="5576.76,3435.4 5576.76,47.2441 "/>
<polyline clip-path="url(#clip212)" style="stroke:#222255; stroke-linecap:round; stroke-linejoin:round; stroke-width:2; stroke-opacity:0.05; fill:none" points="6075.11,3435.4 6075.11,47.2441 "/>
<polyline clip-path="url(#clip212)" style="stroke:#222255; stroke-linecap:round; stroke-linejoin:round; stroke-width:2; stroke-opacity:0.05; fill:none" points="6324.28,3435.4 6324.28,47.2441 "/>
<polyline clip-path="url(#clip212)" style="stroke:#222255; stroke-linecap:round; stroke-linejoin:round; stroke-width:2; stroke-opacity:0.05; fill:none" points="315.689,3292.24 6352.76,3292.24 "/>
<polyline clip-path="url(#clip212)" style="stroke:#222255; stroke-linecap:round; stroke-linejoin:round; stroke-width:2; stroke-opacity:0.05; fill:none" points="315.689,3172.29 6352.76,3172.29 "/>
<polyline clip-path="url(#clip212)" style="stroke:#222255; stroke-linecap:round; stroke-linejoin:round; stroke-width:2; stroke-opacity:0.05; fill:none" points="315.689,3052.35 6352.76,3052.35 "/>
<polyline clip-path="url(#clip212)" style="stroke:#222255; stroke-linecap:round; stroke-linejoin:round; stroke-width:2; stroke-opacity:0.05; fill:none" points="315.689,2932.41 6352.76,2932.41 "/>
<polyline clip-path="url(#clip212)" style="stroke:#222255; stroke-linecap:round; stroke-linejoin:round; stroke-width:2; stroke-opacity:0.05; fill:none" points="315.689,2692.52 6352.76,2692.52 "/>
<polyline clip-path="url(#clip212)" style="stroke:#222255; stroke-linecap:round; stroke-linejoin:round; stroke-width:2; stroke-opacity:0.05; fill:none" points="315.689,2572.57 6352.76,2572.57 "/>
<polyline clip-path="url(#clip212)" style="stroke:#222255; stroke-linecap:round; stroke-linejoin:round; stroke-width:2; stroke-opacity:0.05; fill:none" points="315.689,2452.63 6352.76,2452.63 "/>
<polyline clip-path="url(#clip212)" style="stroke:#222255; stroke-linecap:round; stroke-linejoin:round; stroke-width:2; stroke-opacity:0.05; fill:none" points="315.689,2332.69 6352.76,2332.69 "/>
<polyline clip-path="url(#clip212)" style="stroke:#222255; stroke-linecap:round; stroke-linejoin:round; stroke-width:2; stroke-opacity:0.05; fill:none" points="315.689,2092.8 6352.76,2092.8 "/>
<polyline clip-path="url(#clip212)" style="stroke:#222255; stroke-linecap:round; stroke-linejoin:round; stroke-width:2; stroke-opacity:0.05; fill:none" points="315.689,1972.86 6352.76,1972.86 "/>
<polyline clip-path="url(#clip212)" style="stroke:#222255; stroke-linecap:round; stroke-linejoin:round; stroke-width:2; stroke-opacity:0.05; fill:none" points="315.689,1852.91 6352.76,1852.91 "/>
<polyline clip-path="url(#clip212)" style="stroke:#222255; stroke-linecap:round; stroke-linejoin:round; stroke-width:2; stroke-opacity:0.05; fill:none" points="315.689,1732.97 6352.76,1732.97 "/>
<polyline clip-path="url(#clip212)" style="stroke:#222255; stroke-linecap:round; stroke-linejoin:round; stroke-width:2; stroke-opacity:0.05; fill:none" points="315.689,1493.08 6352.76,1493.08 "/>
<polyline clip-path="url(#clip212)" style="stroke:#222255; stroke-linecap:round; stroke-linejoin:round; stroke-width:2; stroke-opacity:0.05; fill:none" points="315.689,1373.14 6352.76,1373.14 "/>
<polyline clip-path="url(#clip212)" style="stroke:#222255; stroke-linecap:round; stroke-linejoin:round; stroke-width:2; stroke-opacity:0.05; fill:none" points="315.689,1253.19 6352.76,1253.19 "/>
<polyline clip-path="url(#clip212)" style="stroke:#222255; stroke-linecap:round; stroke-linejoin:round; stroke-width:2; stroke-opacity:0.05; fill:none" points="315.689,1133.25 6352.76,1133.25 "/>
<polyline clip-path="url(#clip212)" style="stroke:#222255; stroke-linecap:round; stroke-linejoin:round; stroke-width:2; stroke-opacity:0.05; fill:none" points="315.689,893.361 6352.76,893.361 "/>
<polyline clip-path="url(#clip212)" style="stroke:#222255; stroke-linecap:round; stroke-linejoin:round; stroke-width:2; stroke-opacity:0.05; fill:none" points="315.689,773.417 6352.76,773.417 "/>
<polyline clip-path="url(#clip212)" style="stroke:#222255; stroke-linecap:round; stroke-linejoin:round; stroke-width:2; stroke-opacity:0.05; fill:none" points="315.689,653.473 6352.76,653.473 "/>
<polyline clip-path="url(#clip212)" style="stroke:#222255; stroke-linecap:round; stroke-linejoin:round; stroke-width:2; stroke-opacity:0.05; fill:none" points="315.689,533.529 6352.76,533.529 "/>
<polyline clip-path="url(#clip212)" style="stroke:#222255; stroke-linecap:round; stroke-linejoin:round; stroke-width:2; stroke-opacity:0.05; fill:none" points="315.689,293.641 6352.76,293.641 "/>
<polyline clip-path="url(#clip212)" style="stroke:#222255; stroke-linecap:round; stroke-linejoin:round; stroke-width:2; stroke-opacity:0.05; fill:none" points="315.689,173.698 6352.76,173.698 "/>
<polyline clip-path="url(#clip212)" style="stroke:#222255; stroke-linecap:round; stroke-linejoin:round; stroke-width:2; stroke-opacity:0.05; fill:none" points="315.689,53.7538 6352.76,53.7538 "/>
<polyline clip-path="url(#clip212)" style="stroke:#222255; stroke-linecap:round; stroke-linejoin:round; stroke-width:2; stroke-opacity:0.1; fill:none" points="842.509,3435.4 842.509,47.2441 "/>
<polyline clip-path="url(#clip212)" style="stroke:#222255; stroke-linecap:round; stroke-linejoin:round; stroke-width:2; stroke-opacity:0.1; fill:none" points="2088.37,3435.4 2088.37,47.2441 "/>
<polyline clip-path="url(#clip212)" style="stroke:#222255; stroke-linecap:round; stroke-linejoin:round; stroke-width:2; stroke-opacity:0.1; fill:none" points="3334.22,3435.4 3334.22,47.2441 "/>
<polyline clip-path="url(#clip212)" style="stroke:#222255; stroke-linecap:round; stroke-linejoin:round; stroke-width:2; stroke-opacity:0.1; fill:none" points="4580.08,3435.4 4580.08,47.2441 "/>
<polyline clip-path="url(#clip212)" style="stroke:#222255; stroke-linecap:round; stroke-linejoin:round; stroke-width:2; stroke-opacity:0.1; fill:none" points="5825.94,3435.4 5825.94,47.2441 "/>
<polyline clip-path="url(#clip212)" style="stroke:#222255; stroke-linecap:round; stroke-linejoin:round; stroke-width:2; stroke-opacity:0.1; fill:none" points="315.689,3412.18 6352.76,3412.18 "/>
<polyline clip-path="url(#clip212)" style="stroke:#222255; stroke-linecap:round; stroke-linejoin:round; stroke-width:2; stroke-opacity:0.1; fill:none" points="315.689,2812.46 6352.76,2812.46 "/>
<polyline clip-path="url(#clip212)" style="stroke:#222255; stroke-linecap:round; stroke-linejoin:round; stroke-width:2; stroke-opacity:0.1; fill:none" points="315.689,2212.74 6352.76,2212.74 "/>
<polyline clip-path="url(#clip212)" style="stroke:#222255; stroke-linecap:round; stroke-linejoin:round; stroke-width:2; stroke-opacity:0.1; fill:none" points="315.689,1613.02 6352.76,1613.02 "/>
<polyline clip-path="url(#clip212)" style="stroke:#222255; stroke-linecap:round; stroke-linejoin:round; stroke-width:2; stroke-opacity:0.1; fill:none" points="315.689,1013.3 6352.76,1013.3 "/>
<polyline clip-path="url(#clip212)" style="stroke:#222255; stroke-linecap:round; stroke-linejoin:round; stroke-width:2; stroke-opacity:0.1; fill:none" points="315.689,413.585 6352.76,413.585 "/>
<polyline clip-path="url(#clip210)" style="stroke:#222255; stroke-linecap:round; stroke-linejoin:round; stroke-width:4; stroke-opacity:0; fill:none" points="842.509,3435.4 842.509,3416.5 "/>
<polyline clip-path="url(#clip210)" style="stroke:#222255; stroke-linecap:round; stroke-linejoin:round; stroke-width:4; stroke-opacity:0; fill:none" points="2088.37,3435.4 2088.37,3416.5 "/>
<polyline clip-path="url(#clip210)" style="stroke:#222255; stroke-linecap:round; stroke-linejoin:round; stroke-width:4; stroke-opacity:0; fill:none" points="3334.22,3435.4 3334.22,3416.5 "/>
<polyline clip-path="url(#clip210)" style="stroke:#222255; stroke-linecap:round; stroke-linejoin:round; stroke-width:4; stroke-opacity:0; fill:none" points="4580.08,3435.4 4580.08,3416.5 "/>
<polyline clip-path="url(#clip210)" style="stroke:#222255; stroke-linecap:round; stroke-linejoin:round; stroke-width:4; stroke-opacity:0; fill:none" points="5825.94,3435.4 5825.94,3416.5 "/>
<polyline clip-path="url(#clip210)" style="stroke:#222255; stroke-linecap:round; stroke-linejoin:round; stroke-width:4; stroke-opacity:0; fill:none" points="344.166,3435.4 344.166,3425.95 "/>
<polyline clip-path="url(#clip210)" style="stroke:#222255; stroke-linecap:round; stroke-linejoin:round; stroke-width:4; stroke-opacity:0; fill:none" points="593.337,3435.4 593.337,3425.95 "/>
<polyline clip-path="url(#clip210)" style="stroke:#222255; stroke-linecap:round; stroke-linejoin:round; stroke-width:4; stroke-opacity:0; fill:none" points="1091.68,3435.4 1091.68,3425.95 "/>
<polyline clip-path="url(#clip210)" style="stroke:#222255; stroke-linecap:round; stroke-linejoin:round; stroke-width:4; stroke-opacity:0; fill:none" points="1340.85,3435.4 1340.85,3425.95 "/>
<polyline clip-path="url(#clip210)" style="stroke:#222255; stroke-linecap:round; stroke-linejoin:round; stroke-width:4; stroke-opacity:0; fill:none" points="1590.02,3435.4 1590.02,3425.95 "/>
<polyline clip-path="url(#clip210)" style="stroke:#222255; stroke-linecap:round; stroke-linejoin:round; stroke-width:4; stroke-opacity:0; fill:none" points="1839.19,3435.4 1839.19,3425.95 "/>
<polyline clip-path="url(#clip210)" style="stroke:#222255; stroke-linecap:round; stroke-linejoin:round; stroke-width:4; stroke-opacity:0; fill:none" points="2337.54,3435.4 2337.54,3425.95 "/>
<polyline clip-path="url(#clip210)" style="stroke:#222255; stroke-linecap:round; stroke-linejoin:round; stroke-width:4; stroke-opacity:0; fill:none" points="2586.71,3435.4 2586.71,3425.95 "/>
<polyline clip-path="url(#clip210)" style="stroke:#222255; stroke-linecap:round; stroke-linejoin:round; stroke-width:4; stroke-opacity:0; fill:none" points="2835.88,3435.4 2835.88,3425.95 "/>
<polyline clip-path="url(#clip210)" style="stroke:#222255; stroke-linecap:round; stroke-linejoin:round; stroke-width:4; stroke-opacity:0; fill:none" points="3085.05,3435.4 3085.05,3425.95 "/>
<polyline clip-path="url(#clip210)" style="stroke:#222255; stroke-linecap:round; stroke-linejoin:round; stroke-width:4; stroke-opacity:0; fill:none" points="3583.39,3435.4 3583.39,3425.95 "/>
<polyline clip-path="url(#clip210)" style="stroke:#222255; stroke-linecap:round; stroke-linejoin:round; stroke-width:4; stroke-opacity:0; fill:none" points="3832.57,3435.4 3832.57,3425.95 "/>
<polyline clip-path="url(#clip210)" style="stroke:#222255; stroke-linecap:round; stroke-linejoin:round; stroke-width:4; stroke-opacity:0; fill:none" points="4081.74,3435.4 4081.74,3425.95 "/>
<polyline clip-path="url(#clip210)" style="stroke:#222255; stroke-linecap:round; stroke-linejoin:round; stroke-width:4; stroke-opacity:0; fill:none" points="4330.91,3435.4 4330.91,3425.95 "/>
<polyline clip-path="url(#clip210)" style="stroke:#222255; stroke-linecap:round; stroke-linejoin:round; stroke-width:4; stroke-opacity:0; fill:none" points="4829.25,3435.4 4829.25,3425.95 "/>
<polyline clip-path="url(#clip210)" style="stroke:#222255; stroke-linecap:round; stroke-linejoin:round; stroke-width:4; stroke-opacity:0; fill:none" points="5078.42,3435.4 5078.42,3425.95 "/>
<polyline clip-path="url(#clip210)" style="stroke:#222255; stroke-linecap:round; stroke-linejoin:round; stroke-width:4; stroke-opacity:0; fill:none" points="5327.59,3435.4 5327.59,3425.95 "/>
<polyline clip-path="url(#clip210)" style="stroke:#222255; stroke-linecap:round; stroke-linejoin:round; stroke-width:4; stroke-opacity:0; fill:none" points="5576.76,3435.4 5576.76,3425.95 "/>
<polyline clip-path="url(#clip210)" style="stroke:#222255; stroke-linecap:round; stroke-linejoin:round; stroke-width:4; stroke-opacity:0; fill:none" points="6075.11,3435.4 6075.11,3425.95 "/>
<polyline clip-path="url(#clip210)" style="stroke:#222255; stroke-linecap:round; stroke-linejoin:round; stroke-width:4; stroke-opacity:0; fill:none" points="6324.28,3435.4 6324.28,3425.95 "/>
<path clip-path="url(#clip210)" d="M617.354 3554.48 Q605.739 3554.48 601.26 3557.13 Q596.781 3559.79 596.781 3566.19 Q596.781 3571.3 600.114 3574.32 Q603.499 3577.29 609.281 3577.29 Q617.249 3577.29 622.041 3571.66 Q626.885 3565.99 626.885 3556.61 L626.885 3554.48 L617.354 3554.48 M636.468 3550.52 L636.468 3583.8 L626.885 3583.8 L626.885 3574.94 Q623.603 3580.26 618.708 3582.81 Q613.812 3585.31 606.729 3585.31 Q597.77 3585.31 592.458 3580.31 Q587.197 3575.26 587.197 3566.82 Q587.197 3556.98 593.76 3551.98 Q600.374 3546.98 613.447 3546.98 L626.885 3546.98 L626.885 3546.04 Q626.885 3539.42 622.51 3535.83 Q618.187 3532.18 610.322 3532.18 Q605.322 3532.18 600.583 3533.38 Q595.843 3534.58 591.468 3536.98 L591.468 3528.12 Q596.729 3526.09 601.677 3525.1 Q606.624 3524.06 611.312 3524.06 Q623.968 3524.06 630.218 3530.62 Q636.468 3537.18 636.468 3550.52 Z" fill="#000000" fill-rule="nonzero" fill-opacity="1" /><path clip-path="url(#clip210)" d="M690.009 3534.42 Q688.395 3533.49 686.468 3533.07 Q684.593 3532.6 682.301 3532.6 Q674.176 3532.6 669.801 3537.91 Q665.478 3543.17 665.478 3553.07 L665.478 3583.8 L655.843 3583.8 L655.843 3525.46 L665.478 3525.46 L665.478 3534.53 Q668.499 3529.21 673.343 3526.66 Q678.187 3524.06 685.114 3524.06 Q686.103 3524.06 687.301 3524.21 Q688.499 3524.32 689.957 3524.58 L690.009 3534.42 Z" fill="#000000" fill-rule="nonzero" fill-opacity="1" /><path clip-path="url(#clip210)" d="M736.572 3553.95 Q736.572 3543.54 732.249 3537.81 Q727.978 3532.08 720.218 3532.08 Q712.509 3532.08 708.186 3537.81 Q703.916 3543.54 703.916 3553.95 Q703.916 3564.32 708.186 3570.05 Q712.509 3575.78 720.218 3575.78 Q727.978 3575.78 732.249 3570.05 Q736.572 3564.32 736.572 3553.95 M746.155 3576.56 Q746.155 3591.45 739.54 3598.69 Q732.926 3605.99 719.28 3605.99 Q714.228 3605.99 709.749 3605.2 Q705.27 3604.47 701.051 3602.91 L701.051 3593.59 Q705.27 3595.88 709.384 3596.97 Q713.499 3598.07 717.77 3598.07 Q727.197 3598.07 731.884 3593.12 Q736.572 3588.22 736.572 3578.28 L736.572 3573.54 Q733.603 3578.69 728.967 3581.25 Q724.332 3583.8 717.874 3583.8 Q707.145 3583.8 700.582 3575.62 Q694.02 3567.44 694.02 3553.95 Q694.02 3540.41 700.582 3532.24 Q707.145 3524.06 717.874 3524.06 Q724.332 3524.06 728.967 3526.61 Q733.603 3529.16 736.572 3534.32 L736.572 3525.46 L746.155 3525.46 L746.155 3576.56 Z" fill="#000000" fill-rule="nonzero" fill-opacity="1" /><path clip-path="url(#clip210)" d="M775.165 3575.05 L775.165 3605.99 L765.53 3605.99 L765.53 3525.46 L775.165 3525.46 L775.165 3534.32 Q778.186 3529.11 782.769 3526.61 Q787.405 3524.06 793.811 3524.06 Q804.436 3524.06 811.05 3532.5 Q817.717 3540.93 817.717 3554.68 Q817.717 3568.43 811.05 3576.87 Q804.436 3585.31 793.811 3585.31 Q787.405 3585.31 782.769 3582.81 Q778.186 3580.26 775.165 3575.05 M807.769 3554.68 Q807.769 3544.11 803.394 3538.12 Q799.071 3532.08 791.467 3532.08 Q783.863 3532.08 779.488 3538.12 Q775.165 3544.11 775.165 3554.68 Q775.165 3565.26 779.488 3571.3 Q783.863 3577.29 791.467 3577.29 Q799.071 3577.29 803.394 3571.3 Q807.769 3565.26 807.769 3554.68 Z" fill="#000000" fill-rule="nonzero" fill-opacity="1" /><path clip-path="url(#clip210)" d="M860.113 3554.48 Q848.498 3554.48 844.019 3557.13 Q839.54 3559.79 839.54 3566.19 Q839.54 3571.3 842.873 3574.32 Q846.259 3577.29 852.04 3577.29 Q860.008 3577.29 864.8 3571.66 Q869.644 3565.99 869.644 3556.61 L869.644 3554.48 L860.113 3554.48 M879.227 3550.52 L879.227 3583.8 L869.644 3583.8 L869.644 3574.94 Q866.363 3580.26 861.467 3582.81 Q856.571 3585.31 849.488 3585.31 Q840.529 3585.31 835.217 3580.31 Q829.957 3575.26 829.957 3566.82 Q829.957 3556.98 836.519 3551.98 Q843.134 3546.98 856.206 3546.98 L869.644 3546.98 L869.644 3546.04 Q869.644 3539.42 865.269 3535.83 Q860.946 3532.18 853.081 3532.18 Q848.081 3532.18 843.342 3533.38 Q838.602 3534.58 834.227 3536.98 L834.227 3528.12 Q839.488 3526.09 844.436 3525.1 Q849.384 3524.06 854.071 3524.06 Q866.727 3524.06 872.977 3530.62 Q879.227 3537.18 879.227 3550.52 Z" fill="#000000" fill-rule="nonzero" fill-opacity="1" /><path clip-path="url(#clip210)" d="M932.768 3534.42 Q931.154 3533.49 929.227 3533.07 Q927.352 3532.6 925.06 3532.6 Q916.935 3532.6 912.56 3537.91 Q908.237 3543.17 908.237 3553.07 L908.237 3583.8 L898.602 3583.8 L898.602 3525.46 L908.237 3525.46 L908.237 3534.53 Q911.258 3529.21 916.102 3526.66 Q920.946 3524.06 927.873 3524.06 Q928.862 3524.06 930.06 3524.21 Q931.258 3524.32 932.716 3524.58 L932.768 3534.42 Z" fill="#000000" fill-rule="nonzero" fill-opacity="1" /><path clip-path="url(#clip210)" d="M980.008 3527.18 L980.008 3536.25 Q975.945 3534.16 971.57 3533.12 Q967.195 3532.08 962.508 3532.08 Q955.373 3532.08 951.779 3534.27 Q948.237 3536.45 948.237 3540.83 Q948.237 3544.16 950.789 3546.09 Q953.341 3547.96 961.05 3549.68 L964.331 3550.41 Q974.539 3552.6 978.81 3556.61 Q983.133 3560.57 983.133 3567.7 Q983.133 3575.83 976.674 3580.57 Q970.268 3585.31 959.018 3585.31 Q954.331 3585.31 949.227 3584.37 Q944.175 3583.49 938.55 3581.66 L938.55 3571.77 Q943.862 3574.53 949.018 3575.93 Q954.175 3577.29 959.227 3577.29 Q965.997 3577.29 969.643 3575 Q973.289 3572.65 973.289 3568.43 Q973.289 3564.53 970.633 3562.44 Q968.029 3560.36 959.123 3558.43 L955.789 3557.65 Q946.883 3555.78 942.925 3551.92 Q938.966 3548.02 938.966 3541.25 Q938.966 3533.02 944.8 3528.54 Q950.633 3524.06 961.362 3524.06 Q966.675 3524.06 971.362 3524.84 Q976.049 3525.62 980.008 3527.18 Z" fill="#000000" fill-rule="nonzero" fill-opacity="1" /><path clip-path="url(#clip210)" d="M1048.29 3552.24 L1048.29 3556.92 L1004.23 3556.92 Q1004.85 3566.82 1010.16 3572.03 Q1015.53 3577.18 1025.06 3577.18 Q1030.58 3577.18 1035.74 3575.83 Q1040.94 3574.48 1046.05 3571.77 L1046.05 3580.83 Q1040.89 3583.02 1035.48 3584.16 Q1030.06 3585.31 1024.49 3585.31 Q1010.53 3585.31 1002.35 3577.18 Q994.226 3569.06 994.226 3555.2 Q994.226 3540.88 1001.93 3532.5 Q1009.7 3524.06 1022.82 3524.06 Q1034.59 3524.06 1041.41 3531.66 Q1048.29 3539.21 1048.29 3552.24 M1038.71 3549.42 Q1038.6 3541.56 1034.28 3536.87 Q1030.01 3532.18 1022.92 3532.18 Q1014.9 3532.18 1010.06 3536.71 Q1005.27 3541.25 1004.54 3549.48 L1038.71 3549.42 Z" fill="#000000" fill-rule="nonzero" fill-opacity="1" /><path clip-path="url(#clip210)" d="M1097.82 3534.42 Q1096.21 3533.49 1094.28 3533.07 Q1092.4 3532.6 1090.11 3532.6 Q1081.99 3532.6 1077.61 3537.91 Q1073.29 3543.17 1073.29 3553.07 L1073.29 3583.8 L1063.65 3583.8 L1063.65 3525.46 L1073.29 3525.46 L1073.29 3534.53 Q1076.31 3529.21 1081.15 3526.66 Q1086 3524.06 1092.92 3524.06 Q1093.91 3524.06 1095.11 3524.21 Q1096.31 3524.32 1097.77 3524.58 L1097.82 3534.42 Z" fill="#000000" fill-rule="nonzero" fill-opacity="1" /><path clip-path="url(#clip210)" d="M1925.48 3534.32 L1925.48 3502.76 L1935.06 3502.76 L1935.06 3583.8 L1925.48 3583.8 L1925.48 3575.05 Q1922.45 3580.26 1917.82 3582.81 Q1913.24 3585.31 1906.78 3585.31 Q1896.21 3585.31 1889.54 3576.87 Q1882.92 3568.43 1882.92 3554.68 Q1882.92 3540.93 1889.54 3532.5 Q1896.21 3524.06 1906.78 3524.06 Q1913.24 3524.06 1917.82 3526.61 Q1922.45 3529.11 1925.48 3534.32 M1892.82 3554.68 Q1892.82 3565.26 1897.14 3571.3 Q1901.52 3577.29 1909.12 3577.29 Q1916.73 3577.29 1921.1 3571.3 Q1925.48 3565.26 1925.48 3554.68 Q1925.48 3544.11 1921.1 3538.12 Q1916.73 3532.08 1909.12 3532.08 Q1901.52 3532.08 1897.14 3538.12 Q1892.82 3544.11 1892.82 3554.68 Z" fill="#000000" fill-rule="nonzero" fill-opacity="1" /><path clip-path="url(#clip210)" d="M1977.4 3532.18 Q1969.69 3532.18 1965.22 3538.23 Q1960.74 3544.21 1960.74 3554.68 Q1960.74 3565.15 1965.16 3571.19 Q1969.64 3577.18 1977.4 3577.18 Q1985.06 3577.18 1989.54 3571.14 Q1994.02 3565.1 1994.02 3554.68 Q1994.02 3544.32 1989.54 3538.28 Q1985.06 3532.18 1977.4 3532.18 M1977.4 3524.06 Q1989.9 3524.06 1997.04 3532.18 Q2004.17 3540.31 2004.17 3554.68 Q2004.17 3569.01 1997.04 3577.18 Q1989.9 3585.31 1977.4 3585.31 Q1964.85 3585.31 1957.72 3577.18 Q1950.63 3569.01 1950.63 3554.68 Q1950.63 3540.31 1957.72 3532.18 Q1964.85 3524.06 1977.4 3524.06 Z" fill="#000000" fill-rule="nonzero" fill-opacity="1" /><path clip-path="url(#clip210)" d="M2062.04 3527.7 L2062.04 3536.66 Q2057.98 3534.42 2053.86 3533.33 Q2049.8 3532.18 2045.63 3532.18 Q2036.31 3532.18 2031.15 3538.12 Q2026 3544.01 2026 3554.68 Q2026 3565.36 2031.15 3571.3 Q2036.31 3577.18 2045.63 3577.18 Q2049.8 3577.18 2053.86 3576.09 Q2057.98 3574.94 2062.04 3572.7 L2062.04 3581.56 Q2058.03 3583.43 2053.7 3584.37 Q2049.43 3585.31 2044.59 3585.31 Q2031.41 3585.31 2023.65 3577.03 Q2015.89 3568.75 2015.89 3554.68 Q2015.89 3540.41 2023.7 3532.24 Q2031.57 3524.06 2045.21 3524.06 Q2049.64 3524.06 2053.86 3525 Q2058.08 3525.88 2062.04 3527.7 Z" fill="#000000" fill-rule="nonzero" fill-opacity="1" /><path clip-path="url(#clip210)" d="M2101.31 3532.18 Q2093.6 3532.18 2089.12 3538.23 Q2084.64 3544.21 2084.64 3554.68 Q2084.64 3565.15 2089.07 3571.19 Q2093.55 3577.18 2101.31 3577.18 Q2108.96 3577.18 2113.44 3571.14 Q2117.92 3565.1 2117.92 3554.68 Q2117.92 3544.32 2113.44 3538.28 Q2108.96 3532.18 2101.31 3532.18 M2101.31 3524.06 Q2113.81 3524.06 2120.94 3532.18 Q2128.08 3540.31 2128.08 3554.68 Q2128.08 3569.01 2120.94 3577.18 Q2113.81 3585.31 2101.31 3585.31 Q2088.76 3585.31 2081.62 3577.18 Q2074.54 3569.01 2074.54 3554.68 Q2074.54 3540.31 2081.62 3532.18 Q2088.76 3524.06 2101.31 3524.06 Z" fill="#000000" fill-rule="nonzero" fill-opacity="1" /><path clip-path="url(#clip210)" d="M2153.23 3575.05 L2153.23 3605.99 L2143.6 3605.99 L2143.6 3525.46 L2153.23 3525.46 L2153.23 3534.32 Q2156.26 3529.11 2160.84 3526.61 Q2165.47 3524.06 2171.88 3524.06 Q2182.51 3524.06 2189.12 3532.5 Q2195.79 3540.93 2195.79 3554.68 Q2195.79 3568.43 2189.12 3576.87 Q2182.51 3585.31 2171.88 3585.31 Q2165.47 3585.31 2160.84 3582.81 Q2156.26 3580.26 2153.23 3575.05 M2185.84 3554.68 Q2185.84 3544.11 2181.46 3538.12 Q2177.14 3532.08 2169.54 3532.08 Q2161.93 3532.08 2157.56 3538.12 Q2153.23 3544.11 2153.23 3554.68 Q2153.23 3565.26 2157.56 3571.3 Q2161.93 3577.29 2169.54 3577.29 Q2177.14 3577.29 2181.46 3571.3 Q2185.84 3565.26 2185.84 3554.68 Z" fill="#000000" fill-rule="nonzero" fill-opacity="1" /><path clip-path="url(#clip210)" d="M2221.15 3508.9 L2221.15 3525.46 L2240.89 3525.46 L2240.89 3532.91 L2221.15 3532.91 L2221.15 3564.58 Q2221.15 3571.71 2223.08 3573.75 Q2225.06 3575.78 2231.05 3575.78 L2240.89 3575.78 L2240.89 3583.8 L2231.05 3583.8 Q2219.95 3583.8 2215.73 3579.68 Q2211.52 3575.52 2211.52 3564.58 L2211.52 3532.91 L2204.48 3532.91 L2204.48 3525.46 L2211.52 3525.46 L2211.52 3508.9 L2221.15 3508.9 Z" fill="#000000" fill-rule="nonzero" fill-opacity="1" /><path clip-path="url(#clip210)" d="M2290.68 3527.18 L2290.68 3536.25 Q2286.62 3534.16 2282.24 3533.12 Q2277.87 3532.08 2273.18 3532.08 Q2266.05 3532.08 2262.45 3534.27 Q2258.91 3536.45 2258.91 3540.83 Q2258.91 3544.16 2261.46 3546.09 Q2264.02 3547.96 2271.72 3549.68 L2275.01 3550.41 Q2285.21 3552.6 2289.48 3556.61 Q2293.81 3560.57 2293.81 3567.7 Q2293.81 3575.83 2287.35 3580.57 Q2280.94 3585.31 2269.69 3585.31 Q2265.01 3585.31 2259.9 3584.37 Q2254.85 3583.49 2249.22 3581.66 L2249.22 3571.77 Q2254.54 3574.53 2259.69 3575.93 Q2264.85 3577.29 2269.9 3577.29 Q2276.67 3577.29 2280.32 3575 Q2283.96 3572.65 2283.96 3568.43 Q2283.96 3564.53 2281.31 3562.44 Q2278.7 3560.36 2269.8 3558.43 L2266.46 3557.65 Q2257.56 3555.78 2253.6 3551.92 Q2249.64 3548.02 2249.64 3541.25 Q2249.64 3533.02 2255.47 3528.54 Q2261.31 3524.06 2272.04 3524.06 Q2277.35 3524.06 2282.04 3524.84 Q2286.72 3525.62 2290.68 3527.18 Z" fill="#000000" fill-rule="nonzero" fill-opacity="1" /><path clip-path="url(#clip210)" d="M3206.02 3553.95 Q3206.02 3543.54 3201.7 3537.81 Q3197.43 3532.08 3189.67 3532.08 Q3181.96 3532.08 3177.63 3537.81 Q3173.36 3543.54 3173.36 3553.95 Q3173.36 3564.32 3177.63 3570.05 Q3181.96 3575.78 3189.67 3575.78 Q3197.43 3575.78 3201.7 3570.05 Q3206.02 3564.32 3206.02 3553.95 M3215.6 3576.56 Q3215.6 3591.45 3208.99 3598.69 Q3202.37 3605.99 3188.73 3605.99 Q3183.68 3605.99 3179.2 3605.2 Q3174.72 3604.47 3170.5 3602.91 L3170.5 3593.59 Q3174.72 3595.88 3178.83 3596.97 Q3182.95 3598.07 3187.22 3598.07 Q3196.65 3598.07 3201.33 3593.12 Q3206.02 3588.22 3206.02 3578.28 L3206.02 3573.54 Q3203.05 3578.69 3198.42 3581.25 Q3193.78 3583.8 3187.32 3583.8 Q3176.59 3583.8 3170.03 3575.62 Q3163.47 3567.44 3163.47 3553.95 Q3163.47 3540.41 3170.03 3532.24 Q3176.59 3524.06 3187.32 3524.06 Q3193.78 3524.06 3198.42 3526.61 Q3203.05 3529.16 3206.02 3534.32 L3206.02 3525.46 L3215.6 3525.46 L3215.6 3576.56 Z" fill="#000000" fill-rule="nonzero" fill-opacity="1" /><path clip-path="url(#clip210)" d="M3285.24 3552.24 L3285.24 3556.92 L3241.18 3556.92 Q3241.8 3566.82 3247.11 3572.03 Q3252.48 3577.18 3262.01 3577.18 Q3267.53 3577.18 3272.69 3575.83 Q3277.89 3574.48 3283 3571.77 L3283 3580.83 Q3277.84 3583.02 3272.43 3584.16 Q3267.01 3585.31 3261.44 3585.31 Q3247.48 3585.31 3239.3 3577.18 Q3231.18 3569.06 3231.18 3555.2 Q3231.18 3540.88 3238.88 3532.5 Q3246.64 3524.06 3259.77 3524.06 Q3271.54 3524.06 3278.36 3531.66 Q3285.24 3539.21 3285.24 3552.24 M3275.66 3549.42 Q3275.55 3541.56 3271.23 3536.87 Q3266.96 3532.18 3259.87 3532.18 Q3251.85 3532.18 3247.01 3536.71 Q3242.22 3541.25 3241.49 3549.48 L3275.66 3549.42 Z" fill="#000000" fill-rule="nonzero" fill-opacity="1" /><path clip-path="url(#clip210)" d="M3310.45 3508.9 L3310.45 3525.46 L3330.19 3525.46 L3330.19 3532.91 L3310.45 3532.91 L3310.45 3564.58 Q3310.45 3571.71 3312.37 3573.75 Q3314.35 3575.78 3320.34 3575.78 L3330.19 3575.78 L3330.19 3583.8 L3320.34 3583.8 Q3309.25 3583.8 3305.03 3579.68 Q3300.81 3575.52 3300.81 3564.58 L3300.81 3532.91 L3293.78 3532.91 L3293.78 3525.46 L3300.81 3525.46 L3300.81 3508.9 L3310.45 3508.9 Z" fill="#000000" fill-rule="nonzero" fill-opacity="1" /><path clip-path="url(#clip210)" d="M3365.39 3532.18 Q3357.69 3532.18 3353.21 3538.23 Q3348.73 3544.21 3348.73 3554.68 Q3348.73 3565.15 3353.15 3571.19 Q3357.63 3577.18 3365.39 3577.18 Q3373.05 3577.18 3377.53 3571.14 Q3382.01 3565.1 3382.01 3554.68 Q3382.01 3544.32 3377.53 3538.28 Q3373.05 3532.18 3365.39 3532.18 M3365.39 3524.06 Q3377.89 3524.06 3385.03 3532.18 Q3392.16 3540.31 3392.16 3554.68 Q3392.16 3569.01 3385.03 3577.18 Q3377.89 3585.31 3365.39 3585.31 Q3352.84 3585.31 3345.71 3577.18 Q3338.62 3569.01 3338.62 3554.68 Q3338.62 3540.31 3345.71 3532.18 Q3352.84 3524.06 3365.39 3524.06 Z" fill="#000000" fill-rule="nonzero" fill-opacity="1" /><path clip-path="url(#clip210)" d="M3417.32 3575.05 L3417.32 3605.99 L3407.69 3605.99 L3407.69 3525.46 L3417.32 3525.46 L3417.32 3534.32 Q3420.34 3529.11 3424.93 3526.61 Q3429.56 3524.06 3435.97 3524.06 Q3446.59 3524.06 3453.21 3532.5 Q3459.87 3540.93 3459.87 3554.68 Q3459.87 3568.43 3453.21 3576.87 Q3446.59 3585.31 3435.97 3585.31 Q3429.56 3585.31 3424.93 3582.81 Q3420.34 3580.26 3417.32 3575.05 M3449.92 3554.68 Q3449.92 3544.11 3445.55 3538.12 Q3441.23 3532.08 3433.62 3532.08 Q3426.02 3532.08 3421.64 3538.12 Q3417.32 3544.11 3417.32 3554.68 Q3417.32 3565.26 3421.64 3571.3 Q3426.02 3577.29 3433.62 3577.29 Q3441.23 3577.29 3445.55 3571.3 Q3449.92 3565.26 3449.92 3554.68 Z" fill="#000000" fill-rule="nonzero" fill-opacity="1" /><path clip-path="url(#clip210)" d="M3485.24 3508.9 L3485.24 3525.46 L3504.98 3525.46 L3504.98 3532.91 L3485.24 3532.91 L3485.24 3564.58 Q3485.24 3571.71 3487.16 3573.75 Q3489.14 3575.78 3495.13 3575.78 L3504.98 3575.78 L3504.98 3583.8 L3495.13 3583.8 Q3484.04 3583.8 3479.82 3579.68 Q3475.6 3575.52 3475.6 3564.58 L3475.6 3532.91 L3468.57 3532.91 L3468.57 3525.46 L3475.6 3525.46 L3475.6 3508.9 L3485.24 3508.9 Z" fill="#000000" fill-rule="nonzero" fill-opacity="1" /><path clip-path="url(#clip210)" d="M4425.42 3553.95 Q4425.42 3543.54 4421.1 3537.81 Q4416.83 3532.08 4409.06 3532.08 Q4401.36 3532.08 4397.03 3537.81 Q4392.76 3543.54 4392.76 3553.95 Q4392.76 3564.32 4397.03 3570.05 Q4401.36 3575.78 4409.06 3575.78 Q4416.83 3575.78 4421.1 3570.05 Q4425.42 3564.32 4425.42 3553.95 M4435 3576.56 Q4435 3591.45 4428.39 3598.69 Q4421.77 3605.99 4408.13 3605.99 Q4403.08 3605.99 4398.6 3605.2 Q4394.12 3604.47 4389.9 3602.91 L4389.9 3593.59 Q4394.12 3595.88 4398.23 3596.97 Q4402.35 3598.07 4406.62 3598.07 Q4416.04 3598.07 4420.73 3593.12 Q4425.42 3588.22 4425.42 3578.28 L4425.42 3573.54 Q4422.45 3578.69 4417.81 3581.25 Q4413.18 3583.8 4406.72 3583.8 Q4395.99 3583.8 4389.43 3575.62 Q4382.87 3567.44 4382.87 3553.95 Q4382.87 3540.41 4389.43 3532.24 Q4395.99 3524.06 4406.72 3524.06 Q4413.18 3524.06 4417.81 3526.61 Q4422.45 3529.16 4425.42 3534.32 L4425.42 3525.46 L4435 3525.46 L4435 3576.56 Z" fill="#000000" fill-rule="nonzero" fill-opacity="1" /><path clip-path="url(#clip210)" d="M4504.64 3552.24 L4504.64 3556.92 L4460.57 3556.92 Q4461.2 3566.82 4466.51 3572.03 Q4471.88 3577.18 4481.41 3577.18 Q4486.93 3577.18 4492.09 3575.83 Q4497.29 3574.48 4502.4 3571.77 L4502.4 3580.83 Q4497.24 3583.02 4491.82 3584.16 Q4486.41 3585.31 4480.84 3585.31 Q4466.88 3585.31 4458.7 3577.18 Q4450.57 3569.06 4450.57 3555.2 Q4450.57 3540.88 4458.28 3532.5 Q4466.04 3524.06 4479.17 3524.06 Q4490.94 3524.06 4497.76 3531.66 Q4504.64 3539.21 4504.64 3552.24 M4495.05 3549.42 Q4494.95 3541.56 4490.63 3536.87 Q4486.36 3532.18 4479.27 3532.18 Q4471.25 3532.18 4466.41 3536.71 Q4461.62 3541.25 4460.89 3549.48 L4495.05 3549.42 Z" fill="#000000" fill-rule="nonzero" fill-opacity="1" /><path clip-path="url(#clip210)" d="M4529.85 3508.9 L4529.85 3525.46 L4549.58 3525.46 L4549.58 3532.91 L4529.85 3532.91 L4529.85 3564.58 Q4529.85 3571.71 4531.77 3573.75 Q4533.75 3575.78 4539.74 3575.78 L4549.58 3575.78 L4549.58 3583.8 L4539.74 3583.8 Q4528.65 3583.8 4524.43 3579.68 Q4520.21 3575.52 4520.21 3564.58 L4520.21 3532.91 L4513.18 3532.91 L4513.18 3525.46 L4520.21 3525.46 L4520.21 3508.9 L4529.85 3508.9 Z" fill="#000000" fill-rule="nonzero" fill-opacity="1" /><path clip-path="url(#clip210)" d="M4584.79 3532.18 Q4577.08 3532.18 4572.61 3538.23 Q4568.13 3544.21 4568.13 3554.68 Q4568.13 3565.15 4572.55 3571.19 Q4577.03 3577.18 4584.79 3577.18 Q4592.45 3577.18 4596.93 3571.14 Q4601.41 3565.1 4601.41 3554.68 Q4601.41 3544.32 4596.93 3538.28 Q4592.45 3532.18 4584.79 3532.18 M4584.79 3524.06 Q4597.29 3524.06 4604.43 3532.18 Q4611.56 3540.31 4611.56 3554.68 Q4611.56 3569.01 4604.43 3577.18 Q4597.29 3585.31 4584.79 3585.31 Q4572.24 3585.31 4565.11 3577.18 Q4558.02 3569.01 4558.02 3554.68 Q4558.02 3540.31 4565.11 3532.18 Q4572.24 3524.06 4584.79 3524.06 Z" fill="#000000" fill-rule="nonzero" fill-opacity="1" /><path clip-path="url(#clip210)" d="M4636.72 3575.05 L4636.72 3605.99 L4627.08 3605.99 L4627.08 3525.46 L4636.72 3525.46 L4636.72 3534.32 Q4639.74 3529.11 4644.32 3526.61 Q4648.96 3524.06 4655.37 3524.06 Q4665.99 3524.06 4672.6 3532.5 Q4679.27 3540.93 4679.27 3554.68 Q4679.27 3568.43 4672.6 3576.87 Q4665.99 3585.31 4655.37 3585.31 Q4648.96 3585.31 4644.32 3582.81 Q4639.74 3580.26 4636.72 3575.05 M4669.32 3554.68 Q4669.32 3544.11 4664.95 3538.12 Q4660.63 3532.08 4653.02 3532.08 Q4645.42 3532.08 4641.04 3538.12 Q4636.72 3544.11 4636.72 3554.68 Q4636.72 3565.26 4641.04 3571.3 Q4645.42 3577.29 4653.02 3577.29 Q4660.63 3577.29 4664.95 3571.3 Q4669.32 3565.26 4669.32 3554.68 Z" fill="#000000" fill-rule="nonzero" fill-opacity="1" /><path clip-path="url(#clip210)" d="M4704.64 3508.9 L4704.64 3525.46 L4724.38 3525.46 L4724.38 3532.91 L4704.64 3532.91 L4704.64 3564.58 Q4704.64 3571.71 4706.56 3573.75 Q4708.54 3575.78 4714.53 3575.78 L4724.38 3575.78 L4724.38 3583.8 L4714.53 3583.8 Q4703.44 3583.8 4699.22 3579.68 Q4695 3575.52 4695 3564.58 L4695 3532.91 L4687.97 3532.91 L4687.97 3525.46 L4695 3525.46 L4695 3508.9 L4704.64 3508.9 Z" fill="#000000" fill-rule="nonzero" fill-opacity="1" /><path clip-path="url(#clip210)" d="M4774.17 3527.18 L4774.17 3536.25 Q4770.1 3534.16 4765.73 3533.12 Q4761.35 3532.08 4756.67 3532.08 Q4749.53 3532.08 4745.94 3534.27 Q4742.4 3536.45 4742.4 3540.83 Q4742.4 3544.16 4744.95 3546.09 Q4747.5 3547.96 4755.21 3549.68 L4758.49 3550.41 Q4768.7 3552.6 4772.97 3556.61 Q4777.29 3560.57 4777.29 3567.7 Q4777.29 3575.83 4770.83 3580.57 Q4764.43 3585.31 4753.18 3585.31 Q4748.49 3585.31 4743.39 3584.37 Q4738.33 3583.49 4732.71 3581.66 L4732.71 3571.77 Q4738.02 3574.53 4743.18 3575.93 Q4748.33 3577.29 4753.39 3577.29 Q4760.16 3577.29 4763.8 3575 Q4767.45 3572.65 4767.45 3568.43 Q4767.45 3564.53 4764.79 3562.44 Q4762.19 3560.36 4753.28 3558.43 L4749.95 3557.65 Q4741.04 3555.78 4737.08 3551.92 Q4733.13 3548.02 4733.13 3541.25 Q4733.13 3533.02 4738.96 3528.54 Q4744.79 3524.06 4755.52 3524.06 Q4760.83 3524.06 4765.52 3524.84 Q4770.21 3525.62 4774.17 3527.18 Z" fill="#000000" fill-rule="nonzero" fill-opacity="1" /><path clip-path="url(#clip210)" d="M5683.39 3527.18 L5683.39 3536.25 Q5679.32 3534.16 5674.95 3533.12 Q5670.57 3532.08 5665.89 3532.08 Q5658.75 3532.08 5655.16 3534.27 Q5651.61 3536.45 5651.61 3540.83 Q5651.61 3544.16 5654.17 3546.09 Q5656.72 3547.96 5664.43 3549.68 L5667.71 3550.41 Q5677.92 3552.6 5682.19 3556.61 Q5686.51 3560.57 5686.51 3567.7 Q5686.51 3575.83 5680.05 3580.57 Q5673.65 3585.31 5662.4 3585.31 Q5657.71 3585.31 5652.6 3584.37 Q5647.55 3583.49 5641.93 3581.66 L5641.93 3571.77 Q5647.24 3574.53 5652.4 3575.93 Q5657.55 3577.29 5662.6 3577.29 Q5669.37 3577.29 5673.02 3575 Q5676.67 3572.65 5676.67 3568.43 Q5676.67 3564.53 5674.01 3562.44 Q5671.41 3560.36 5662.5 3558.43 L5659.17 3557.65 Q5650.26 3555.78 5646.3 3551.92 Q5642.34 3548.02 5642.34 3541.25 Q5642.34 3533.02 5648.18 3528.54 Q5654.01 3524.06 5664.74 3524.06 Q5670.05 3524.06 5674.74 3524.84 Q5679.43 3525.62 5683.39 3527.18 Z" fill="#000000" fill-rule="nonzero" fill-opacity="1" /><path clip-path="url(#clip210)" d="M5750.26 3548.59 L5750.26 3583.8 L5740.68 3583.8 L5740.68 3548.9 Q5740.68 3540.62 5737.45 3536.51 Q5734.22 3532.39 5727.76 3532.39 Q5720 3532.39 5715.52 3537.34 Q5711.04 3542.29 5711.04 3550.83 L5711.04 3583.8 L5701.41 3583.8 L5701.41 3502.76 L5711.04 3502.76 L5711.04 3534.53 Q5714.48 3529.27 5719.11 3526.66 Q5723.8 3524.06 5729.9 3524.06 Q5739.95 3524.06 5745.1 3530.31 Q5750.26 3536.51 5750.26 3548.59 Z" fill="#000000" fill-rule="nonzero" fill-opacity="1" /><path clip-path="url(#clip210)" d="M5798.91 3502.76 L5798.91 3510.73 L5789.74 3510.73 Q5784.58 3510.73 5782.55 3512.81 Q5780.57 3514.89 5780.57 3520.31 L5780.57 3525.46 L5796.35 3525.46 L5796.35 3532.91 L5780.57 3532.91 L5780.57 3583.8 L5770.94 3583.8 L5770.94 3532.91 L5761.77 3532.91 L5761.77 3525.46 L5770.94 3525.46 L5770.94 3521.4 Q5770.94 3511.66 5775.47 3507.24 Q5780 3502.76 5789.84 3502.76 L5798.91 3502.76 Z" fill="#000000" fill-rule="nonzero" fill-opacity="1" /><path clip-path="url(#clip210)" d="M5806.93 3502.76 L5816.51 3502.76 L5816.51 3583.8 L5806.93 3583.8 L5806.93 3502.76 Z" fill="#000000" fill-rule="nonzero" fill-opacity="1" /><path clip-path="url(#clip210)" d="M5863.07 3554.48 Q5851.46 3554.48 5846.98 3557.13 Q5842.5 3559.79 5842.5 3566.19 Q5842.5 3571.3 5845.83 3574.32 Q5849.22 3577.29 5855 3577.29 Q5862.97 3577.29 5867.76 3571.66 Q5872.6 3565.99 5872.6 3556.61 L5872.6 3554.48 L5863.07 3554.48 M5882.19 3550.52 L5882.19 3583.8 L5872.6 3583.8 L5872.6 3574.94 Q5869.32 3580.26 5864.43 3582.81 Q5859.53 3585.31 5852.45 3585.31 Q5843.49 3585.31 5838.18 3580.31 Q5832.92 3575.26 5832.92 3566.82 Q5832.92 3556.98 5839.48 3551.98 Q5846.09 3546.98 5859.17 3546.98 L5872.6 3546.98 L5872.6 3546.04 Q5872.6 3539.42 5868.23 3535.83 Q5863.9 3532.18 5856.04 3532.18 Q5851.04 3532.18 5846.3 3533.38 Q5841.56 3534.58 5837.19 3536.98 L5837.19 3528.12 Q5842.45 3526.09 5847.39 3525.1 Q5852.34 3524.06 5857.03 3524.06 Q5869.69 3524.06 5875.94 3530.62 Q5882.19 3537.18 5882.19 3550.52 Z" fill="#000000" fill-rule="nonzero" fill-opacity="1" /><path clip-path="url(#clip210)" d="M5940.31 3553.95 Q5940.31 3543.54 5935.99 3537.81 Q5931.72 3532.08 5923.96 3532.08 Q5916.25 3532.08 5911.93 3537.81 Q5907.65 3543.54 5907.65 3553.95 Q5907.65 3564.32 5911.93 3570.05 Q5916.25 3575.78 5923.96 3575.78 Q5931.72 3575.78 5935.99 3570.05 Q5940.31 3564.32 5940.31 3553.95 M5949.89 3576.56 Q5949.89 3591.45 5943.28 3598.69 Q5936.66 3605.99 5923.02 3605.99 Q5917.97 3605.99 5913.49 3605.2 Q5909.01 3604.47 5904.79 3602.91 L5904.79 3593.59 Q5909.01 3595.88 5913.12 3596.97 Q5917.24 3598.07 5921.51 3598.07 Q5930.94 3598.07 5935.62 3593.12 Q5940.31 3588.22 5940.31 3578.28 L5940.31 3573.54 Q5937.34 3578.69 5932.71 3581.25 Q5928.07 3583.8 5921.61 3583.8 Q5910.88 3583.8 5904.32 3575.62 Q5897.76 3567.44 5897.76 3553.95 Q5897.76 3540.41 5904.32 3532.24 Q5910.88 3524.06 5921.61 3524.06 Q5928.07 3524.06 5932.71 3526.61 Q5937.34 3529.16 5940.31 3534.32 L5940.31 3525.46 L5949.89 3525.46 L5949.89 3576.56 Z" fill="#000000" fill-rule="nonzero" fill-opacity="1" /><path clip-path="url(#clip210)" d="M6006.82 3527.18 L6006.82 3536.25 Q6002.76 3534.16 5998.38 3533.12 Q5994.01 3532.08 5989.32 3532.08 Q5982.19 3532.08 5978.59 3534.27 Q5975.05 3536.45 5975.05 3540.83 Q5975.05 3544.16 5977.6 3546.09 Q5980.15 3547.96 5987.86 3549.68 L5991.14 3550.41 Q6001.35 3552.6 6005.62 3556.61 Q6009.95 3560.57 6009.95 3567.7 Q6009.95 3575.83 6003.49 3580.57 Q5997.08 3585.31 5985.83 3585.31 Q5981.14 3585.31 5976.04 3584.37 Q5970.99 3583.49 5965.36 3581.66 L5965.36 3571.77 Q5970.68 3574.53 5975.83 3575.93 Q5980.99 3577.29 5986.04 3577.29 Q5992.81 3577.29 5996.46 3575 Q6000.1 3572.65 6000.1 3568.43 Q6000.1 3564.53 5997.45 3562.44 Q5994.84 3560.36 5985.94 3558.43 L5982.6 3557.65 Q5973.7 3555.78 5969.74 3551.92 Q5965.78 3548.02 5965.78 3541.25 Q5965.78 3533.02 5971.61 3528.54 Q5977.45 3524.06 5988.18 3524.06 Q5993.49 3524.06 5998.18 3524.84 Q6002.86 3525.62 6006.82 3527.18 Z" fill="#000000" fill-rule="nonzero" fill-opacity="1" /><polyline clip-path="url(#clip210)" style="stroke:#222255; stroke-linecap:round; stroke-linejoin:round; stroke-width:4; stroke-opacity:0; fill:none" points="315.689,3412.18 334.587,3412.18 "/>
<polyline clip-path="url(#clip210)" style="stroke:#222255; stroke-linecap:round; stroke-linejoin:round; stroke-width:4; stroke-opacity:0; fill:none" points="315.689,2812.46 334.587,2812.46 "/>
<polyline clip-path="url(#clip210)" style="stroke:#222255; stroke-linecap:round; stroke-linejoin:round; stroke-width:4; stroke-opacity:0; fill:none" points="315.689,2212.74 334.587,2212.74 "/>
<polyline clip-path="url(#clip210)" style="stroke:#222255; stroke-linecap:round; stroke-linejoin:round; stroke-width:4; stroke-opacity:0; fill:none" points="315.689,1613.02 334.587,1613.02 "/>
<polyline clip-path="url(#clip210)" style="stroke:#222255; stroke-linecap:round; stroke-linejoin:round; stroke-width:4; stroke-opacity:0; fill:none" points="315.689,1013.3 334.587,1013.3 "/>
<polyline clip-path="url(#clip210)" style="stroke:#222255; stroke-linecap:round; stroke-linejoin:round; stroke-width:4; stroke-opacity:0; fill:none" points="315.689,413.585 334.587,413.585 "/>
<polyline clip-path="url(#clip210)" style="stroke:#222255; stroke-linecap:round; stroke-linejoin:round; stroke-width:4; stroke-opacity:0; fill:none" points="315.689,3292.24 325.138,3292.24 "/>
<polyline clip-path="url(#clip210)" style="stroke:#222255; stroke-linecap:round; stroke-linejoin:round; stroke-width:4; stroke-opacity:0; fill:none" points="315.689,3172.29 325.138,3172.29 "/>
<polyline clip-path="url(#clip210)" style="stroke:#222255; stroke-linecap:round; stroke-linejoin:round; stroke-width:4; stroke-opacity:0; fill:none" points="315.689,3052.35 325.138,3052.35 "/>
<polyline clip-path="url(#clip210)" style="stroke:#222255; stroke-linecap:round; stroke-linejoin:round; stroke-width:4; stroke-opacity:0; fill:none" points="315.689,2932.41 325.138,2932.41 "/>
<polyline clip-path="url(#clip210)" style="stroke:#222255; stroke-linecap:round; stroke-linejoin:round; stroke-width:4; stroke-opacity:0; fill:none" points="315.689,2692.52 325.138,2692.52 "/>
<polyline clip-path="url(#clip210)" style="stroke:#222255; stroke-linecap:round; stroke-linejoin:round; stroke-width:4; stroke-opacity:0; fill:none" points="315.689,2572.57 325.138,2572.57 "/>
<polyline clip-path="url(#clip210)" style="stroke:#222255; stroke-linecap:round; stroke-linejoin:round; stroke-width:4; stroke-opacity:0; fill:none" points="315.689,2452.63 325.138,2452.63 "/>
<polyline clip-path="url(#clip210)" style="stroke:#222255; stroke-linecap:round; stroke-linejoin:round; stroke-width:4; stroke-opacity:0; fill:none" points="315.689,2332.69 325.138,2332.69 "/>
<polyline clip-path="url(#clip210)" style="stroke:#222255; stroke-linecap:round; stroke-linejoin:round; stroke-width:4; stroke-opacity:0; fill:none" points="315.689,2092.8 325.138,2092.8 "/>
<polyline clip-path="url(#clip210)" style="stroke:#222255; stroke-linecap:round; stroke-linejoin:round; stroke-width:4; stroke-opacity:0; fill:none" points="315.689,1972.86 325.138,1972.86 "/>
<polyline clip-path="url(#clip210)" style="stroke:#222255; stroke-linecap:round; stroke-linejoin:round; stroke-width:4; stroke-opacity:0; fill:none" points="315.689,1852.91 325.138,1852.91 "/>
<polyline clip-path="url(#clip210)" style="stroke:#222255; stroke-linecap:round; stroke-linejoin:round; stroke-width:4; stroke-opacity:0; fill:none" points="315.689,1732.97 325.138,1732.97 "/>
<polyline clip-path="url(#clip210)" style="stroke:#222255; stroke-linecap:round; stroke-linejoin:round; stroke-width:4; stroke-opacity:0; fill:none" points="315.689,1493.08 325.138,1493.08 "/>
<polyline clip-path="url(#clip210)" style="stroke:#222255; stroke-linecap:round; stroke-linejoin:round; stroke-width:4; stroke-opacity:0; fill:none" points="315.689,1373.14 325.138,1373.14 "/>
<polyline clip-path="url(#clip210)" style="stroke:#222255; stroke-linecap:round; stroke-linejoin:round; stroke-width:4; stroke-opacity:0; fill:none" points="315.689,1253.19 325.138,1253.19 "/>
<polyline clip-path="url(#clip210)" style="stroke:#222255; stroke-linecap:round; stroke-linejoin:round; stroke-width:4; stroke-opacity:0; fill:none" points="315.689,1133.25 325.138,1133.25 "/>
<polyline clip-path="url(#clip210)" style="stroke:#222255; stroke-linecap:round; stroke-linejoin:round; stroke-width:4; stroke-opacity:0; fill:none" points="315.689,893.361 325.138,893.361 "/>
<polyline clip-path="url(#clip210)" style="stroke:#222255; stroke-linecap:round; stroke-linejoin:round; stroke-width:4; stroke-opacity:0; fill:none" points="315.689,773.417 325.138,773.417 "/>
<polyline clip-path="url(#clip210)" style="stroke:#222255; stroke-linecap:round; stroke-linejoin:round; stroke-width:4; stroke-opacity:0; fill:none" points="315.689,653.473 325.138,653.473 "/>
<polyline clip-path="url(#clip210)" style="stroke:#222255; stroke-linecap:round; stroke-linejoin:round; stroke-width:4; stroke-opacity:0; fill:none" points="315.689,533.529 325.138,533.529 "/>
<polyline clip-path="url(#clip210)" style="stroke:#222255; stroke-linecap:round; stroke-linejoin:round; stroke-width:4; stroke-opacity:0; fill:none" points="315.689,293.641 325.138,293.641 "/>
<polyline clip-path="url(#clip210)" style="stroke:#222255; stroke-linecap:round; stroke-linejoin:round; stroke-width:4; stroke-opacity:0; fill:none" points="315.689,173.698 325.138,173.698 "/>
<polyline clip-path="url(#clip210)" style="stroke:#222255; stroke-linecap:round; stroke-linejoin:round; stroke-width:4; stroke-opacity:0; fill:none" points="315.689,53.7538 325.138,53.7538 "/>
<path clip-path="url(#clip210)" d="M192.814 3380.23 Q184.689 3380.23 180.575 3388.25 Q176.512 3396.22 176.512 3412.26 Q176.512 3428.25 180.575 3436.27 Q184.689 3444.24 192.814 3444.24 Q200.991 3444.24 205.054 3436.27 Q209.168 3428.25 209.168 3412.26 Q209.168 3396.22 205.054 3388.25 Q200.991 3380.23 192.814 3380.23 M192.814 3371.9 Q205.887 3371.9 212.762 3382.26 Q219.689 3392.57 219.689 3412.26 Q219.689 3431.89 212.762 3442.26 Q205.887 3452.57 192.814 3452.57 Q179.741 3452.57 172.814 3442.26 Q165.939 3431.89 165.939 3412.26 Q165.939 3392.57 172.814 3382.26 Q179.741 3371.9 192.814 3371.9 Z" fill="#000000" fill-rule="nonzero" fill-opacity="1" /><path clip-path="url(#clip210)" d="M102.554 2773.58 L143.856 2773.58 L143.856 2782.44 L112.19 2782.44 L112.19 2801.5 Q114.481 2800.72 116.773 2800.35 Q119.065 2799.94 121.356 2799.94 Q134.377 2799.94 141.981 2807.07 Q149.585 2814.21 149.585 2826.39 Q149.585 2838.95 141.773 2845.93 Q133.96 2852.85 119.742 2852.85 Q114.846 2852.85 109.742 2852.02 Q104.69 2851.19 99.273 2849.52 L99.273 2838.95 Q103.96 2841.5 108.96 2842.75 Q113.96 2844 119.533 2844 Q128.544 2844 133.804 2839.26 Q139.064 2834.52 139.064 2826.39 Q139.064 2818.27 133.804 2813.53 Q128.544 2808.79 119.533 2808.79 Q115.315 2808.79 111.096 2809.73 Q106.929 2810.67 102.554 2812.64 L102.554 2773.58 Z" fill="#000000" fill-rule="nonzero" fill-opacity="1" /><path clip-path="url(#clip210)" d="M192.814 2780.51 Q184.689 2780.51 180.575 2788.53 Q176.512 2796.5 176.512 2812.54 Q176.512 2828.53 180.575 2836.55 Q184.689 2844.52 192.814 2844.52 Q200.991 2844.52 205.054 2836.55 Q209.168 2828.53 209.168 2812.54 Q209.168 2796.5 205.054 2788.53 Q200.991 2780.51 192.814 2780.51 M192.814 2772.18 Q205.887 2772.18 212.762 2782.54 Q219.689 2792.85 219.689 2812.54 Q219.689 2832.18 212.762 2842.54 Q205.887 2852.85 192.814 2852.85 Q179.741 2852.85 172.814 2842.54 Q165.939 2832.18 165.939 2812.54 Q165.939 2792.85 172.814 2782.54 Q179.741 2772.18 192.814 2772.18 Z" fill="#000000" fill-rule="nonzero" fill-opacity="1" /><path clip-path="url(#clip210)" d="M36.4088 2242.77 L53.5962 2242.77 L53.5962 2183.45 L34.8984 2187.2 L34.8984 2177.61 L53.492 2173.86 L64.0128 2173.86 L64.0128 2242.77 L81.2002 2242.77 L81.2002 2251.62 L36.4088 2251.62 L36.4088 2242.77 Z" fill="#000000" fill-rule="nonzero" fill-opacity="1" /><path clip-path="url(#clip210)" d="M124.95 2180.79 Q116.825 2180.79 112.71 2188.81 Q108.648 2196.78 108.648 2212.82 Q108.648 2228.81 112.71 2236.83 Q116.825 2244.8 124.95 2244.8 Q133.127 2244.8 137.189 2236.83 Q141.304 2228.81 141.304 2212.82 Q141.304 2196.78 137.189 2188.81 Q133.127 2180.79 124.95 2180.79 M124.95 2172.46 Q138.023 2172.46 144.898 2182.82 Q151.825 2193.13 151.825 2212.82 Q151.825 2232.46 144.898 2242.82 Q138.023 2253.13 124.95 2253.13 Q111.877 2253.13 104.95 2242.82 Q98.0751 2232.46 98.0751 2212.82 Q98.0751 2193.13 104.95 2182.82 Q111.877 2172.46 124.95 2172.46 Z" fill="#000000" fill-rule="nonzero" fill-opacity="1" /><path clip-path="url(#clip210)" d="M192.814 2180.79 Q184.689 2180.79 180.575 2188.81 Q176.512 2196.78 176.512 2212.82 Q176.512 2228.81 180.575 2236.83 Q184.689 2244.8 192.814 2244.8 Q200.991 2244.8 205.054 2236.83 Q209.168 2228.81 209.168 2212.82 Q209.168 2196.78 205.054 2188.81 Q200.991 2180.79 192.814 2180.79 M192.814 2172.46 Q205.887 2172.46 212.762 2182.82 Q219.689 2193.13 219.689 2212.82 Q219.689 2232.46 212.762 2242.82 Q205.887 2253.13 192.814 2253.13 Q179.741 2253.13 172.814 2242.82 Q165.939 2232.46 165.939 2212.82 Q165.939 2193.13 172.814 2182.82 Q179.741 2172.46 192.814 2172.46 Z" fill="#000000" fill-rule="nonzero" fill-opacity="1" /><path clip-path="url(#clip210)" d="M36.4088 1643.05 L53.5962 1643.05 L53.5962 1583.73 L34.8984 1587.48 L34.8984 1577.89 L53.492 1574.14 L64.0128 1574.14 L64.0128 1643.05 L81.2002 1643.05 L81.2002 1651.9 L36.4088 1651.9 L36.4088 1643.05 Z" fill="#000000" fill-rule="nonzero" fill-opacity="1" /><path clip-path="url(#clip210)" d="M102.554 1574.14 L143.856 1574.14 L143.856 1583 L112.19 1583 L112.19 1602.06 Q114.481 1601.28 116.773 1600.91 Q119.065 1600.5 121.356 1600.5 Q134.377 1600.5 141.981 1607.63 Q149.585 1614.77 149.585 1626.96 Q149.585 1639.51 141.773 1646.49 Q133.96 1653.41 119.742 1653.41 Q114.846 1653.41 109.742 1652.58 Q104.69 1651.75 99.273 1650.08 L99.273 1639.51 Q103.96 1642.06 108.96 1643.31 Q113.96 1644.56 119.533 1644.56 Q128.544 1644.56 133.804 1639.82 Q139.064 1635.08 139.064 1626.96 Q139.064 1618.83 133.804 1614.09 Q128.544 1609.35 119.533 1609.35 Q115.315 1609.35 111.096 1610.29 Q106.929 1611.23 102.554 1613.21 L102.554 1574.14 Z" fill="#000000" fill-rule="nonzero" fill-opacity="1" /><path clip-path="url(#clip210)" d="M192.814 1581.07 Q184.689 1581.07 180.575 1589.09 Q176.512 1597.06 176.512 1613.1 Q176.512 1629.09 180.575 1637.11 Q184.689 1645.08 192.814 1645.08 Q200.991 1645.08 205.054 1637.11 Q209.168 1629.09 209.168 1613.1 Q209.168 1597.06 205.054 1589.09 Q200.991 1581.07 192.814 1581.07 M192.814 1572.74 Q205.887 1572.74 212.762 1583.1 Q219.689 1593.41 219.689 1613.1 Q219.689 1632.74 212.762 1643.1 Q205.887 1653.41 192.814 1653.41 Q179.741 1653.41 172.814 1643.1 Q165.939 1632.74 165.939 1613.1 Q165.939 1593.41 172.814 1583.1 Q179.741 1572.74 192.814 1572.74 Z" fill="#000000" fill-rule="nonzero" fill-opacity="1" /><path clip-path="url(#clip210)" d="M43.6483 1043.33 L80.3669 1043.33 L80.3669 1052.18 L30.9921 1052.18 L30.9921 1043.33 Q36.9817 1037.13 47.2941 1026.72 Q57.6586 1016.25 60.3149 1013.23 Q65.3669 1007.55 67.3461 1003.64 Q69.3773 999.685 69.3773 995.883 Q69.3773 989.685 65.0024 985.779 Q60.6795 981.872 53.7003 981.872 Q48.7524 981.872 43.2316 983.591 Q37.7629 985.31 31.513 988.799 L31.513 978.175 Q37.8671 975.622 43.3879 974.32 Q48.9087 973.018 53.492 973.018 Q65.5753 973.018 72.7627 979.06 Q79.9502 985.102 79.9502 995.206 Q79.9502 999.997 78.1273 1004.32 Q76.3565 1008.59 71.6169 1014.42 Q70.3148 1015.93 63.3357 1023.17 Q56.3566 1030.36 43.6483 1043.33 Z" fill="#000000" fill-rule="nonzero" fill-opacity="1" /><path clip-path="url(#clip210)" d="M124.95 981.352 Q116.825 981.352 112.71 989.372 Q108.648 997.341 108.648 1013.38 Q108.648 1029.37 112.71 1037.39 Q116.825 1045.36 124.95 1045.36 Q133.127 1045.36 137.189 1037.39 Q141.304 1029.37 141.304 1013.38 Q141.304 997.341 137.189 989.372 Q133.127 981.352 124.95 981.352 M124.95 973.018 Q138.023 973.018 144.898 983.383 Q151.825 993.695 151.825 1013.38 Q151.825 1033.02 144.898 1043.38 Q138.023 1053.69 124.95 1053.69 Q111.877 1053.69 104.95 1043.38 Q98.0751 1033.02 98.0751 1013.38 Q98.0751 993.695 104.95 983.383 Q111.877 973.018 124.95 973.018 Z" fill="#000000" fill-rule="nonzero" fill-opacity="1" /><path clip-path="url(#clip210)" d="M192.814 981.352 Q184.689 981.352 180.575 989.372 Q176.512 997.341 176.512 1013.38 Q176.512 1029.37 180.575 1037.39 Q184.689 1045.36 192.814 1045.36 Q200.991 1045.36 205.054 1037.39 Q209.168 1029.37 209.168 1013.38 Q209.168 997.341 205.054 989.372 Q200.991 981.352 192.814 981.352 M192.814 973.018 Q205.887 973.018 212.762 983.383 Q219.689 993.695 219.689 1013.38 Q219.689 1033.02 212.762 1043.38 Q205.887 1053.69 192.814 1053.69 Q179.741 1053.69 172.814 1043.38 Q165.939 1033.02 165.939 1013.38 Q165.939 993.695 172.814 983.383 Q179.741 973.018 192.814 973.018 Z" fill="#000000" fill-rule="nonzero" fill-opacity="1" /><path clip-path="url(#clip210)" d="M43.6483 443.611 L80.3669 443.611 L80.3669 452.465 L30.9921 452.465 L30.9921 443.611 Q36.9817 437.413 47.2941 426.997 Q57.6586 416.528 60.3149 413.507 Q65.3669 407.83 67.3461 403.924 Q69.3773 399.966 69.3773 396.164 Q69.3773 389.966 65.0024 386.059 Q60.6795 382.153 53.7003 382.153 Q48.7524 382.153 43.2316 383.872 Q37.7629 385.591 31.513 389.08 L31.513 378.455 Q37.8671 375.903 43.3879 374.601 Q48.9087 373.299 53.492 373.299 Q65.5753 373.299 72.7627 379.341 Q79.9502 385.382 79.9502 395.486 Q79.9502 400.278 78.1273 404.601 Q76.3565 408.872 71.6169 414.705 Q70.3148 416.215 63.3357 423.455 Q56.3566 430.643 43.6483 443.611 Z" fill="#000000" fill-rule="nonzero" fill-opacity="1" /><path clip-path="url(#clip210)" d="M102.554 374.705 L143.856 374.705 L143.856 383.559 L112.19 383.559 L112.19 402.622 Q114.481 401.841 116.773 401.476 Q119.065 401.059 121.356 401.059 Q134.377 401.059 141.981 408.195 Q149.585 415.33 149.585 427.518 Q149.585 440.07 141.773 447.049 Q133.96 453.976 119.742 453.976 Q114.846 453.976 109.742 453.142 Q104.69 452.309 99.273 450.642 L99.273 440.07 Q103.96 442.622 108.96 443.872 Q113.96 445.122 119.533 445.122 Q128.544 445.122 133.804 440.382 Q139.064 435.642 139.064 427.518 Q139.064 419.393 133.804 414.653 Q128.544 409.913 119.533 409.913 Q115.315 409.913 111.096 410.851 Q106.929 411.788 102.554 413.768 L102.554 374.705 Z" fill="#000000" fill-rule="nonzero" fill-opacity="1" /><path clip-path="url(#clip210)" d="M192.814 381.632 Q184.689 381.632 180.575 389.653 Q176.512 397.622 176.512 413.663 Q176.512 429.653 180.575 437.674 Q184.689 445.642 192.814 445.642 Q200.991 445.642 205.054 437.674 Q209.168 429.653 209.168 413.663 Q209.168 397.622 205.054 389.653 Q200.991 381.632 192.814 381.632 M192.814 373.299 Q205.887 373.299 212.762 383.664 Q219.689 393.976 219.689 413.663 Q219.689 433.299 212.762 443.663 Q205.887 453.976 192.814 453.976 Q179.741 453.976 172.814 443.663 Q165.939 433.299 165.939 413.663 Q165.939 393.976 172.814 383.664 Q179.741 373.299 192.814 373.299 Z" fill="#000000" fill-rule="nonzero" fill-opacity="1" /><path clip-path="url(#clip212)" d="M893.097 1791.29 L907.367 1789.13 L924.64 1786.96 L945.083 1784.79 L968.637 1782.63 L994.952 1780.46 L1023.35 1778.29 L1052.87 1776.12 L1082.29 1773.96 L1110.34 1771.79 L1135.78 1769.62 L1157.57 1767.46 L1174.97 1765.29 L1187.56 1763.12 L1195.31 1760.96 L1198.47 1758.79 L1197.57 1756.62 L1193.3 1754.46 L1186.46 1752.29 L1177.81 1750.12 L1168 1747.95 L1157.45 1745.79 L1146.33 1743.62 L1134.51 1741.45 L1121.65 1739.29 L1107.37 1737.12 L1091.33 1734.95 L1073.46 1732.79 L1054.03 1730.62 L1033.67 1728.45 L1013.3 1726.28 L993.995 1724.12 L976.757 1721.95 L962.354 1719.78 L951.19 1717.62 L943.258 1715.45 L938.186 1713.28 L935.341 1711.12 L933.962 1708.95 L933.287 1706.78 L932.656 1704.62 L931.57 1702.45 L929.714 1700.28 L926.954 1698.11 L923.318 1695.95 L918.955 1693.78 L914.107 1691.61 L909.055 1689.45 L904.086 1687.28 L899.446 1685.11 L895.317 1682.95 L891.794 1680.78 L888.888 1678.61 L886.529 1676.45 L884.591 1674.28 L882.91 1672.11 L881.308 1669.94 L879.623 1667.78 L877.724 1665.61 L875.536 1663.44 L873.047 1661.28 L870.318 1659.11 L867.477 1656.94 L864.693 1654.78 L862.155 1652.61 L860.032 1650.44 L858.447 1648.27 L857.448 1646.11 L857.008 1643.94 L857.03 1641.77 L857.368 1639.61 L857.856 1637.44 L858.334 1635.27 L858.672 1633.11 L858.786 1630.94 L858.647 1628.77 L858.286 1626.61 L857.786 1624.44 L857.273 1622.27 L856.898 1620.1 L856.809 1617.94 L857.126 1615.77 L857.91 1613.6 L859.143 1611.44 L860.724 1609.27 L862.481 1607.1 L864.194 1604.94 L865.636 1602.77 L866.606 1600.6 L866.966 1598.43 L866.65 1596.27 L865.673 1594.1 L864.116 1591.93 L862.107 1589.77 L859.801 1587.6 L857.361 1585.43 L854.944 1583.27 L852.692 1581.1 L850.722 1578.93 L849.131 1576.77 L847.985 1574.6 L847.327 1572.43 L847.167 1570.26 L847.492 1568.1 L848.257 1565.93 L849.389 1563.76 L850.791 1561.6 L852.346 1559.43 L853.924 1557.26 L855.396 1555.1 L856.642 1552.93 L857.561 1550.76 L858.082 1548.6 L858.166 1546.43 L857.807 1544.26 L857.033 1542.09 L855.905 1539.93 L854.513 1537.76 L852.967 1535.59 L851.389 1533.43 L849.906 1531.26 L848.631 1529.09 L847.659 1526.93 L847.057 1524.76 L846.855 1522.59 L847.045 1520.42 L847.578 1518.26 L848.369 1516.09 L849.3 1513.92 L850.236 1511.76 L851.038 1509.59 L851.584 1507.42 L851.786 1505.26 L851.607 1503.09 L851.062 1500.92 L850.213 1498.76 L849.158 1496.59 L848.005 1494.42 L846.862 1492.25 L845.811 1490.09 L844.91 1487.92 L844.183 1485.75 L843.632 1483.59 L843.242 1481.42 L842.988 1479.25 L842.85 1477.09 L842.811 1474.92 L842.867 1472.75 L843.024 1470.59 L843.3 1468.42 L843.716 1466.25 L844.294 1464.08 L845.048 1461.92 L845.974 1459.75 L847.04 1457.58 L848.186 1455.42 L849.324 1453.25 L850.347 1451.08 L851.145 1448.92 L851.625 1446.75 L833.392 1446.75 L833.872 1448.92 L834.67 1451.08 L835.693 1453.25 L836.831 1455.42 L837.977 1457.58 L839.043 1459.75 L839.969 1461.92 L840.723 1464.08 L841.301 1466.25 L841.717 1468.42 L841.993 1470.59 L842.15 1472.75 L842.206 1474.92 L842.167 1477.09 L842.029 1479.25 L841.775 1481.42 L841.385 1483.59 L840.834 1485.75 L840.107 1487.92 L839.206 1490.09 L838.155 1492.25 L837.012 1494.42 L835.859 1496.59 L834.804 1498.76 L833.955 1500.92 L833.41 1503.09 L833.231 1505.26 L833.433 1507.42 L833.979 1509.59 L834.781 1511.76 L835.717 1513.92 L836.648 1516.09 L837.439 1518.26 L837.973 1520.42 L838.162 1522.59 L837.96 1524.76 L837.358 1526.93 L836.386 1529.09 L835.111 1531.26 L833.628 1533.43 L832.05 1535.59 L830.504 1537.76 L829.112 1539.93 L827.984 1542.09 L827.211 1544.26 L826.851 1546.43 L826.935 1548.6 L827.456 1550.76 L828.375 1552.93 L829.621 1555.1 L831.093 1557.26 L832.671 1559.43 L834.226 1561.6 L835.628 1563.76 L836.76 1565.93 L837.525 1568.1 L837.85 1570.26 L837.691 1572.43 L837.032 1574.6 L835.886 1576.77 L834.295 1578.93 L832.326 1581.1 L830.073 1583.27 L827.656 1585.43 L825.216 1587.6 L822.91 1589.77 L820.901 1591.93 L819.344 1594.1 L818.367 1596.27 L818.051 1598.43 L818.411 1600.6 L819.381 1602.77 L820.823 1604.94 L822.536 1607.1 L824.293 1609.27 L825.875 1611.44 L827.107 1613.6 L827.891 1615.77 L828.208 1617.94 L828.119 1620.1 L827.744 1622.27 L827.231 1624.44 L826.731 1626.61 L826.37 1628.77 L826.232 1630.94 L826.345 1633.11 L826.683 1635.27 L827.161 1637.44 L827.649 1639.61 L827.987 1641.77 L828.009 1643.94 L827.569 1646.11 L826.57 1648.27 L824.985 1650.44 L822.862 1652.61 L820.324 1654.78 L817.541 1656.94 L814.699 1659.11 L811.97 1661.28 L809.481 1663.44 L807.293 1665.61 L805.394 1667.78 L803.709 1669.94 L802.108 1672.11 L800.426 1674.28 L798.488 1676.45 L796.129 1678.61 L793.223 1680.78 L789.701 1682.95 L785.571 1685.11 L780.932 1687.28 L775.962 1689.45 L770.911 1691.61 L766.062 1693.78 L761.699 1695.95 L758.063 1698.11 L755.303 1700.28 L753.447 1702.45 L752.361 1704.62 L751.73 1706.78 L751.055 1708.95 L749.676 1711.12 L746.831 1713.28 L741.759 1715.45 L733.827 1717.62 L722.663 1719.78 L708.26 1721.95 L691.022 1724.12 L671.715 1726.28 L651.349 1728.45 L630.986 1730.62 L611.553 1732.79 L593.685 1734.95 L577.649 1737.12 L563.364 1739.29 L550.512 1741.45 L538.687 1743.62 L527.562 1745.79 L517.018 1747.95 L507.208 1750.12 L498.559 1752.29 L491.717 1754.46 L487.451 1756.62 L486.549 1758.79 L489.711 1760.96 L497.456 1763.12 L510.051 1765.29 L527.444 1767.46 L549.234 1769.62 L574.675 1771.79 L602.726 1773.96 L632.152 1776.12 L661.664 1778.29 L690.066 1780.46 L716.381 1782.63 L739.935 1784.79 L760.377 1786.96 L777.65 1789.13 L791.92 1791.29 L893.097 1791.29  Z" fill="#414286" fill-rule="evenodd" fill-opacity="1"/>
<polyline clip-path="url(#clip212)" style="stroke:#000000; stroke-linecap:round; stroke-linejoin:round; stroke-width:4.8; stroke-opacity:1; fill:none" points="893.097,1791.29 907.367,1789.13 924.64,1786.96 945.083,1784.79 968.637,1782.63 994.952,1780.46 1023.35,1778.29 1052.87,1776.12 1082.29,1773.96 1110.34,1771.79 1135.78,1769.62 1157.57,1767.46 1174.97,1765.29 1187.56,1763.12 1195.31,1760.96 1198.47,1758.79 1197.57,1756.62 1193.3,1754.46 1186.46,1752.29 1177.81,1750.12 1168,1747.95 1157.45,1745.79 1146.33,1743.62 1134.51,1741.45 1121.65,1739.29 1107.37,1737.12 1091.33,1734.95 1073.46,1732.79 1054.03,1730.62 1033.67,1728.45 1013.3,1726.28 993.995,1724.12 976.757,1721.95 962.354,1719.78 951.19,1717.62 943.258,1715.45 938.186,1713.28 935.341,1711.12 933.962,1708.95 933.287,1706.78 932.656,1704.62 931.57,1702.45 929.714,1700.28 926.954,1698.11 923.318,1695.95 918.955,1693.78 914.107,1691.61 909.055,1689.45 904.086,1687.28 899.446,1685.11 895.317,1682.95 891.794,1680.78 888.888,1678.61 886.529,1676.45 884.591,1674.28 882.91,1672.11 881.308,1669.94 879.623,1667.78 877.724,1665.61 875.536,1663.44 873.047,1661.28 870.318,1659.11 867.477,1656.94 864.693,1654.78 862.155,1652.61 860.032,1650.44 858.447,1648.27 857.448,1646.11 857.008,1643.94 857.03,1641.77 857.368,1639.61 857.856,1637.44 858.334,1635.27 858.672,1633.11 858.786,1630.94 858.647,1628.77 858.286,1626.61 857.786,1624.44 857.273,1622.27 856.898,1620.1 856.809,1617.94 857.126,1615.77 857.91,1613.6 859.143,1611.44 860.724,1609.27 862.481,1607.1 864.194,1604.94 865.636,1602.77 866.606,1600.6 866.966,1598.43 866.65,1596.27 865.673,1594.1 864.116,1591.93 862.107,1589.77 859.801,1587.6 857.361,1585.43 854.944,1583.27 852.692,1581.1 850.722,1578.93 849.131,1576.77 847.985,1574.6 847.327,1572.43 847.167,1570.26 847.492,1568.1 848.257,1565.93 849.389,1563.76 850.791,1561.6 852.346,1559.43 853.924,1557.26 855.396,1555.1 856.642,1552.93 857.561,1550.76 858.082,1548.6 858.166,1546.43 857.807,1544.26 857.033,1542.09 855.905,1539.93 854.513,1537.76 852.967,1535.59 851.389,1533.43 849.906,1531.26 848.631,1529.09 847.659,1526.93 847.057,1524.76 846.855,1522.59 847.045,1520.42 847.578,1518.26 848.369,1516.09 849.3,1513.92 850.236,1511.76 851.038,1509.59 851.584,1507.42 851.786,1505.26 851.607,1503.09 851.062,1500.92 850.213,1498.76 849.158,1496.59 848.005,1494.42 846.862,1492.25 845.811,1490.09 844.91,1487.92 844.183,1485.75 843.632,1483.59 843.242,1481.42 842.988,1479.25 842.85,1477.09 842.811,1474.92 842.867,1472.75 843.024,1470.59 843.3,1468.42 843.716,1466.25 844.294,1464.08 845.048,1461.92 845.974,1459.75 847.04,1457.58 848.186,1455.42 849.324,1453.25 850.347,1451.08 851.145,1448.92 851.625,1446.75 833.392,1446.75 833.872,1448.92 834.67,1451.08 835.693,1453.25 836.831,1455.42 837.977,1457.58 839.043,1459.75 839.969,1461.92 840.723,1464.08 841.301,1466.25 841.717,1468.42 841.993,1470.59 842.15,1472.75 842.206,1474.92 842.167,1477.09 842.029,1479.25 841.775,1481.42 841.385,1483.59 840.834,1485.75 840.107,1487.92 839.206,1490.09 838.155,1492.25 837.012,1494.42 835.859,1496.59 834.804,1498.76 833.955,1500.92 833.41,1503.09 833.231,1505.26 833.433,1507.42 833.979,1509.59 834.781,1511.76 835.717,1513.92 836.648,1516.09 837.439,1518.26 837.973,1520.42 838.162,1522.59 837.96,1524.76 837.358,1526.93 836.386,1529.09 835.111,1531.26 833.628,1533.43 832.05,1535.59 830.504,1537.76 829.112,1539.93 827.984,1542.09 827.211,1544.26 826.851,1546.43 826.935,1548.6 827.456,1550.76 828.375,1552.93 829.621,1555.1 831.093,1557.26 832.671,1559.43 834.226,1561.6 835.628,1563.76 836.76,1565.93 837.525,1568.1 837.85,1570.26 837.691,1572.43 837.032,1574.6 835.886,1576.77 834.295,1578.93 832.326,1581.1 830.073,1583.27 827.656,1585.43 825.216,1587.6 822.91,1589.77 820.901,1591.93 819.344,1594.1 818.367,1596.27 818.051,1598.43 818.411,1600.6 819.381,1602.77 820.823,1604.94 822.536,1607.1 824.293,1609.27 825.875,1611.44 827.107,1613.6 827.891,1615.77 828.208,1617.94 828.119,1620.1 827.744,1622.27 827.231,1624.44 826.731,1626.61 826.37,1628.77 826.232,1630.94 826.345,1633.11 826.683,1635.27 827.161,1637.44 827.649,1639.61 827.987,1641.77 828.009,1643.94 827.569,1646.11 826.57,1648.27 824.985,1650.44 822.862,1652.61 820.324,1654.78 817.541,1656.94 814.699,1659.11 811.97,1661.28 809.481,1663.44 807.293,1665.61 805.394,1667.78 803.709,1669.94 802.108,1672.11 800.426,1674.28 798.488,1676.45 796.129,1678.61 793.223,1680.78 789.701,1682.95 785.571,1685.11 780.932,1687.28 775.962,1689.45 770.911,1691.61 766.062,1693.78 761.699,1695.95 758.063,1698.11 755.303,1700.28 753.447,1702.45 752.361,1704.62 751.73,1706.78 751.055,1708.95 749.676,1711.12 746.831,1713.28 741.759,1715.45 733.827,1717.62 722.663,1719.78 708.26,1721.95 691.022,1724.12 671.715,1726.28 651.349,1728.45 630.986,1730.62 611.553,1732.79 593.685,1734.95 577.649,1737.12 563.364,1739.29 550.512,1741.45 538.687,1743.62 527.562,1745.79 517.018,1747.95 507.208,1750.12 498.559,1752.29 491.717,1754.46 487.451,1756.62 486.549,1758.79 489.711,1760.96 497.456,1763.12 510.051,1765.29 527.444,1767.46 549.234,1769.62 574.675,1771.79 602.726,1773.96 632.152,1776.12 661.664,1778.29 690.066,1780.46 716.381,1782.63 739.935,1784.79 760.377,1786.96 777.65,1789.13 791.92,1791.29 893.097,1791.29 "/>
<path clip-path="url(#clip212)" d="M2147.05 3254.19 L2151.12 3251.69 L2155 3249.19 L2158.65 3246.69 L2162.05 3244.18 L2165.2 3241.68 L2168.1 3239.18 L2170.78 3236.68 L2173.27 3234.18 L2175.63 3231.67 L2177.92 3229.17 L2180.23 3226.67 L2182.63 3224.17 L2185.2 3221.67 L2188.03 3219.17 L2191.18 3216.66 L2194.71 3214.16 L2198.68 3211.66 L2203.12 3209.16 L2208.03 3206.66 L2213.42 3204.15 L2219.28 3201.65 L2225.57 3199.15 L2232.26 3196.65 L2239.29 3194.15 L2246.62 3191.64 L2254.2 3189.14 L2261.98 3186.64 L2269.94 3184.14 L2278.03 3181.64 L2286.25 3179.14 L2294.57 3176.63 L2303.01 3174.13 L2311.56 3171.63 L2320.22 3169.13 L2328.99 3166.63 L2337.86 3164.12 L2346.81 3161.62 L2355.79 3159.12 L2364.76 3156.62 L2373.64 3154.12 L2382.35 3151.62 L2390.79 3149.11 L2398.85 3146.61 L2406.42 3144.11 L2413.4 3141.61 L2419.7 3139.11 L2425.25 3136.6 L2430 3134.1 L2433.94 3131.6 L2437.06 3129.1 L2439.43 3126.6 L2441.09 3124.09 L2442.16 3121.59 L2442.74 3119.09 L2442.95 3116.59 L2442.91 3114.09 L2442.75 3111.59 L2442.56 3109.08 L2442.42 3106.58 L2442.4 3104.08 L2442.52 3101.58 L2442.77 3099.08 L2443.14 3096.57 L2443.55 3094.07 L2443.95 3091.57 L2444.24 3089.07 L2444.32 3086.57 L2444.12 3084.07 L2443.53 3081.56 L2442.48 3079.06 L2440.92 3076.56 L2438.8 3074.06 L2436.1 3071.56 L2432.82 3069.05 L2428.97 3066.55 L2424.58 3064.05 L2419.7 3061.55 L2414.38 3059.05 L2408.67 3056.55 L2402.61 3054.04 L2396.27 3051.54 L2389.7 3049.04 L2382.92 3046.54 L2375.98 3044.04 L2368.89 3041.53 L2361.69 3039.03 L2354.38 3036.53 L2346.96 3034.03 L2339.44 3031.53 L2331.81 3029.02 L2324.07 3026.52 L2316.19 3024.02 L2308.18 3021.52 L2300.02 3019.02 L2291.7 3016.52 L2283.21 3014.01 L2274.56 3011.51 L2265.74 3009.01 L2256.78 3006.51 L2247.68 3004.01 L2238.49 3001.5 L2229.22 2999 L2219.95 2996.5 L2210.71 2994 L2201.58 2991.5 L2192.61 2989 L2183.88 2986.49 L2175.46 2983.99 L2167.41 2981.49 L2159.79 2978.99 L2152.65 2976.49 L2146.04 2973.98 L2139.97 2971.48 L2134.47 2968.98 L2129.54 2966.48 L2125.16 2963.98 L2121.3 2961.48 L2117.94 2958.97 L2115.02 2956.47 L2112.5 2953.97 L2110.32 2951.47 L2108.44 2948.97 L2106.79 2946.46 L2069.94 2946.46 L2068.29 2948.97 L2066.41 2951.47 L2064.23 2953.97 L2061.71 2956.47 L2058.79 2958.97 L2055.43 2961.48 L2051.57 2963.98 L2047.19 2966.48 L2042.26 2968.98 L2036.76 2971.48 L2030.69 2973.98 L2024.08 2976.49 L2016.94 2978.99 L2009.32 2981.49 L2001.27 2983.99 L1992.85 2986.49 L1984.12 2989 L1975.15 2991.5 L1966.02 2994 L1956.78 2996.5 L1947.51 2999 L1938.25 3001.5 L1929.05 3004.01 L1919.95 3006.51 L1910.99 3009.01 L1902.17 3011.51 L1893.52 3014.01 L1885.03 3016.52 L1876.71 3019.02 L1868.55 3021.52 L1860.54 3024.02 L1852.67 3026.52 L1844.92 3029.02 L1837.29 3031.53 L1829.77 3034.03 L1822.35 3036.53 L1815.04 3039.03 L1807.84 3041.53 L1800.76 3044.04 L1793.81 3046.54 L1787.04 3049.04 L1780.46 3051.54 L1774.12 3054.04 L1768.06 3056.55 L1762.35 3059.05 L1757.03 3061.55 L1752.15 3064.05 L1747.76 3066.55 L1743.92 3069.05 L1740.63 3071.56 L1737.93 3074.06 L1735.81 3076.56 L1734.25 3079.06 L1733.2 3081.56 L1732.61 3084.07 L1732.41 3086.57 L1732.49 3089.07 L1732.78 3091.57 L1733.18 3094.07 L1733.6 3096.57 L1733.96 3099.08 L1734.21 3101.58 L1734.33 3104.08 L1734.31 3106.58 L1734.17 3109.08 L1733.98 3111.59 L1733.82 3114.09 L1733.78 3116.59 L1733.99 3119.09 L1734.57 3121.59 L1735.64 3124.09 L1737.31 3126.6 L1739.67 3129.1 L1742.79 3131.6 L1746.73 3134.1 L1751.48 3136.6 L1757.03 3139.11 L1763.33 3141.61 L1770.31 3144.11 L1777.88 3146.61 L1785.94 3149.11 L1794.38 3151.62 L1803.09 3154.12 L1811.97 3156.62 L1820.94 3159.12 L1829.92 3161.62 L1838.87 3164.12 L1847.74 3166.63 L1856.51 3169.13 L1865.17 3171.63 L1873.72 3174.13 L1882.16 3176.63 L1890.48 3179.14 L1898.7 3181.64 L1906.79 3184.14 L1914.75 3186.64 L1922.53 3189.14 L1930.11 3191.64 L1937.44 3194.15 L1944.47 3196.65 L1951.16 3199.15 L1957.45 3201.65 L1963.31 3204.15 L1968.7 3206.66 L1973.61 3209.16 L1978.05 3211.66 L1982.02 3214.16 L1985.55 3216.66 L1988.7 3219.17 L1991.53 3221.67 L1994.1 3224.17 L1996.5 3226.67 L1998.81 3229.17 L2001.1 3231.67 L2003.46 3234.18 L2005.95 3236.68 L2008.63 3239.18 L2011.53 3241.68 L2014.68 3244.18 L2018.08 3246.69 L2021.73 3249.19 L2025.61 3251.69 L2029.68 3254.19 L2147.05 3254.19  Z" fill="#2a778e" fill-rule="evenodd" fill-opacity="1"/>
<polyline clip-path="url(#clip212)" style="stroke:#000000; stroke-linecap:round; stroke-linejoin:round; stroke-width:4.8; stroke-opacity:1; fill:none" points="2147.05,3254.19 2151.12,3251.69 2155,3249.19 2158.65,3246.69 2162.05,3244.18 2165.2,3241.68 2168.1,3239.18 2170.78,3236.68 2173.27,3234.18 2175.63,3231.67 2177.92,3229.17 2180.23,3226.67 2182.63,3224.17 2185.2,3221.67 2188.03,3219.17 2191.18,3216.66 2194.71,3214.16 2198.68,3211.66 2203.12,3209.16 2208.03,3206.66 2213.42,3204.15 2219.28,3201.65 2225.57,3199.15 2232.26,3196.65 2239.29,3194.15 2246.62,3191.64 2254.2,3189.14 2261.98,3186.64 2269.94,3184.14 2278.03,3181.64 2286.25,3179.14 2294.57,3176.63 2303.01,3174.13 2311.56,3171.63 2320.22,3169.13 2328.99,3166.63 2337.86,3164.12 2346.81,3161.62 2355.79,3159.12 2364.76,3156.62 2373.64,3154.12 2382.35,3151.62 2390.79,3149.11 2398.85,3146.61 2406.42,3144.11 2413.4,3141.61 2419.7,3139.11 2425.25,3136.6 2430,3134.1 2433.94,3131.6 2437.06,3129.1 2439.43,3126.6 2441.09,3124.09 2442.16,3121.59 2442.74,3119.09 2442.95,3116.59 2442.91,3114.09 2442.75,3111.59 2442.56,3109.08 2442.42,3106.58 2442.4,3104.08 2442.52,3101.58 2442.77,3099.08 2443.14,3096.57 2443.55,3094.07 2443.95,3091.57 2444.24,3089.07 2444.32,3086.57 2444.12,3084.07 2443.53,3081.56 2442.48,3079.06 2440.92,3076.56 2438.8,3074.06 2436.1,3071.56 2432.82,3069.05 2428.97,3066.55 2424.58,3064.05 2419.7,3061.55 2414.38,3059.05 2408.67,3056.55 2402.61,3054.04 2396.27,3051.54 2389.7,3049.04 2382.92,3046.54 2375.98,3044.04 2368.89,3041.53 2361.69,3039.03 2354.38,3036.53 2346.96,3034.03 2339.44,3031.53 2331.81,3029.02 2324.07,3026.52 2316.19,3024.02 2308.18,3021.52 2300.02,3019.02 2291.7,3016.52 2283.21,3014.01 2274.56,3011.51 2265.74,3009.01 2256.78,3006.51 2247.68,3004.01 2238.49,3001.5 2229.22,2999 2219.95,2996.5 2210.71,2994 2201.58,2991.5 2192.61,2989 2183.88,2986.49 2175.46,2983.99 2167.41,2981.49 2159.79,2978.99 2152.65,2976.49 2146.04,2973.98 2139.97,2971.48 2134.47,2968.98 2129.54,2966.48 2125.16,2963.98 2121.3,2961.48 2117.94,2958.97 2115.02,2956.47 2112.5,2953.97 2110.32,2951.47 2108.44,2948.97 2106.79,2946.46 2069.94,2946.46 2068.29,2948.97 2066.41,2951.47 2064.23,2953.97 2061.71,2956.47 2058.79,2958.97 2055.43,2961.48 2051.57,2963.98 2047.19,2966.48 2042.26,2968.98 2036.76,2971.48 2030.69,2973.98 2024.08,2976.49 2016.94,2978.99 2009.32,2981.49 2001.27,2983.99 1992.85,2986.49 1984.12,2989 1975.15,2991.5 1966.02,2994 1956.78,2996.5 1947.51,2999 1938.25,3001.5 1929.05,3004.01 1919.95,3006.51 1910.99,3009.01 1902.17,3011.51 1893.52,3014.01 1885.03,3016.52 1876.71,3019.02 1868.55,3021.52 1860.54,3024.02 1852.67,3026.52 1844.92,3029.02 1837.29,3031.53 1829.77,3034.03 1822.35,3036.53 1815.04,3039.03 1807.84,3041.53 1800.76,3044.04 1793.81,3046.54 1787.04,3049.04 1780.46,3051.54 1774.12,3054.04 1768.06,3056.55 1762.35,3059.05 1757.03,3061.55 1752.15,3064.05 1747.76,3066.55 1743.92,3069.05 1740.63,3071.56 1737.93,3074.06 1735.81,3076.56 1734.25,3079.06 1733.2,3081.56 1732.61,3084.07 1732.41,3086.57 1732.49,3089.07 1732.78,3091.57 1733.18,3094.07 1733.6,3096.57 1733.96,3099.08 1734.21,3101.58 1734.33,3104.08 1734.31,3106.58 1734.17,3109.08 1733.98,3111.59 1733.82,3114.09 1733.78,3116.59 1733.99,3119.09 1734.57,3121.59 1735.64,3124.09 1737.31,3126.6 1739.67,3129.1 1742.79,3131.6 1746.73,3134.1 1751.48,3136.6 1757.03,3139.11 1763.33,3141.61 1770.31,3144.11 1777.88,3146.61 1785.94,3149.11 1794.38,3151.62 1803.09,3154.12 1811.97,3156.62 1820.94,3159.12 1829.92,3161.62 1838.87,3164.12 1847.74,3166.63 1856.51,3169.13 1865.17,3171.63 1873.72,3174.13 1882.16,3176.63 1890.48,3179.14 1898.7,3181.64 1906.79,3184.14 1914.75,3186.64 1922.53,3189.14 1930.11,3191.64 1937.44,3194.15 1944.47,3196.65 1951.16,3199.15 1957.45,3201.65 1963.31,3204.15 1968.7,3206.66 1973.61,3209.16 1978.05,3211.66 1982.02,3214.16 1985.55,3216.66 1988.7,3219.17 1991.53,3221.67 1994.1,3224.17 1996.5,3226.67 1998.81,3229.17 2001.1,3231.67 2003.46,3234.18 2005.95,3236.68 2008.63,3239.18 2011.53,3241.68 2014.68,3244.18 2018.08,3246.69 2021.73,3249.19 2025.61,3251.69 2029.68,3254.19 2147.05,3254.19 "/>
<path clip-path="url(#clip212)" d="M3396.9 3315.51 L3399.74 3313.81 L3402.26 3312.11 L3404.43 3310.41 L3406.22 3308.71 L3407.62 3307.01 L3408.62 3305.31 L3409.22 3303.6 L3409.42 3301.9 L3409.25 3300.2 L3408.72 3298.5 L3407.85 3296.8 L3406.69 3295.1 L3405.26 3293.4 L3403.6 3291.69 L3401.75 3289.99 L3399.77 3288.29 L3397.69 3286.59 L3395.56 3284.89 L3393.43 3283.19 L3391.36 3281.48 L3389.39 3279.78 L3387.57 3278.08 L3385.94 3276.38 L3384.56 3274.68 L3383.46 3272.98 L3382.67 3271.28 L3382.24 3269.57 L3382.17 3267.87 L3382.5 3266.17 L3383.22 3264.47 L3384.34 3262.77 L3385.86 3261.07 L3387.75 3259.36 L3390 3257.66 L3392.58 3255.96 L3395.46 3254.26 L3398.6 3252.56 L3401.98 3250.86 L3405.55 3249.16 L3409.28 3247.45 L3413.15 3245.75 L3417.13 3244.05 L3421.19 3242.35 L3425.34 3240.65 L3429.56 3238.95 L3433.85 3237.24 L3438.24 3235.54 L3442.72 3233.84 L3447.34 3232.14 L3452.11 3230.44 L3457.07 3228.74 L3462.25 3227.04 L3467.67 3225.33 L3473.39 3223.63 L3479.41 3221.93 L3485.76 3220.23 L3492.45 3218.53 L3499.49 3216.83 L3506.86 3215.12 L3514.55 3213.42 L3522.53 3211.72 L3530.75 3210.02 L3539.17 3208.32 L3547.73 3206.62 L3556.35 3204.92 L3564.98 3203.21 L3573.53 3201.51 L3581.94 3199.81 L3590.15 3198.11 L3598.1 3196.41 L3605.74 3194.71 L3613.03 3193.01 L3619.96 3191.3 L3626.5 3189.6 L3632.65 3187.9 L3638.42 3186.2 L3643.81 3184.5 L3648.85 3182.8 L3653.55 3181.09 L3657.94 3179.39 L3662.01 3177.69 L3665.8 3175.99 L3669.31 3174.29 L3672.54 3172.59 L3675.5 3170.89 L3678.18 3169.18 L3680.6 3167.48 L3682.74 3165.78 L3684.61 3164.08 L3686.2 3162.38 L3687.53 3160.68 L3688.59 3158.97 L3689.39 3157.27 L3689.92 3155.57 L3690.18 3153.87 L3690.15 3152.17 L3689.8 3150.47 L3689.1 3148.77 L3687.98 3147.06 L3686.4 3145.36 L3684.26 3143.66 L3681.49 3141.96 L3677.99 3140.26 L3673.69 3138.56 L3668.48 3136.85 L3662.31 3135.15 L3655.12 3133.45 L3646.87 3131.75 L3637.55 3130.05 L3627.18 3128.35 L3615.82 3126.65 L3603.52 3124.94 L3590.39 3123.24 L3576.57 3121.54 L3562.18 3119.84 L3547.38 3118.14 L3532.35 3116.44 L3517.24 3114.73 L3502.22 3113.03 L3166.23 3113.03 L3151.21 3114.73 L3136.1 3116.44 L3121.06 3118.14 L3106.27 3119.84 L3091.88 3121.54 L3078.05 3123.24 L3064.93 3124.94 L3052.63 3126.65 L3041.26 3128.35 L3030.89 3130.05 L3021.58 3131.75 L3013.32 3133.45 L3006.13 3135.15 L2999.96 3136.85 L2994.76 3138.56 L2990.45 3140.26 L2986.96 3141.96 L2984.19 3143.66 L2982.05 3145.36 L2980.46 3147.06 L2979.35 3148.77 L2978.64 3150.47 L2978.3 3152.17 L2978.26 3153.87 L2978.52 3155.57 L2979.05 3157.27 L2979.85 3158.97 L2980.91 3160.68 L2982.24 3162.38 L2983.84 3164.08 L2985.71 3165.78 L2987.85 3167.48 L2990.26 3169.18 L2992.95 3170.89 L2995.91 3172.59 L2999.14 3174.29 L3002.65 3175.99 L3006.43 3177.69 L3010.51 3179.39 L3014.89 3181.09 L3019.59 3182.8 L3024.63 3184.5 L3030.03 3186.2 L3035.79 3187.9 L3041.95 3189.6 L3048.49 3191.3 L3055.41 3193.01 L3062.71 3194.71 L3070.35 3196.41 L3078.3 3198.11 L3086.51 3199.81 L3094.92 3201.51 L3103.47 3203.21 L3112.09 3204.92 L3120.72 3206.62 L3129.27 3208.32 L3137.69 3210.02 L3145.91 3211.72 L3153.89 3213.42 L3161.58 3215.12 L3168.96 3216.83 L3175.99 3218.53 L3182.69 3220.23 L3189.04 3221.93 L3195.06 3223.63 L3200.77 3225.33 L3206.2 3227.04 L3211.38 3228.74 L3216.33 3230.44 L3221.11 3232.14 L3225.72 3233.84 L3230.21 3235.54 L3234.59 3237.24 L3238.89 3238.95 L3243.11 3240.65 L3247.25 3242.35 L3251.32 3244.05 L3255.29 3245.75 L3259.16 3247.45 L3262.9 3249.16 L3266.47 3250.86 L3269.84 3252.56 L3272.99 3254.26 L3275.87 3255.96 L3278.45 3257.66 L3280.7 3259.36 L3282.59 3261.07 L3284.1 3262.77 L3285.22 3264.47 L3285.95 3266.17 L3286.27 3267.87 L3286.21 3269.57 L3285.77 3271.28 L3284.99 3272.98 L3283.89 3274.68 L3282.5 3276.38 L3280.88 3278.08 L3279.06 3279.78 L3277.08 3281.48 L3275.01 3283.19 L3272.89 3284.89 L3270.76 3286.59 L3268.68 3288.29 L3266.69 3289.99 L3264.85 3291.69 L3263.19 3293.4 L3261.76 3295.1 L3260.59 3296.8 L3259.73 3298.5 L3259.2 3300.2 L3259.02 3301.9 L3259.23 3303.6 L3259.83 3305.31 L3260.83 3307.01 L3262.23 3308.71 L3264.02 3310.41 L3266.19 3312.11 L3268.71 3313.81 L3271.55 3315.51 L3396.9 3315.51  Z" fill="#21a784" fill-rule="evenodd" fill-opacity="1"/>
<polyline clip-path="url(#clip212)" style="stroke:#000000; stroke-linecap:round; stroke-linejoin:round; stroke-width:4.8; stroke-opacity:1; fill:none" points="3396.9,3315.51 3399.74,3313.81 3402.26,3312.11 3404.43,3310.41 3406.22,3308.71 3407.62,3307.01 3408.62,3305.31 3409.22,3303.6 3409.42,3301.9 3409.25,3300.2 3408.72,3298.5 3407.85,3296.8 3406.69,3295.1 3405.26,3293.4 3403.6,3291.69 3401.75,3289.99 3399.77,3288.29 3397.69,3286.59 3395.56,3284.89 3393.43,3283.19 3391.36,3281.48 3389.39,3279.78 3387.57,3278.08 3385.94,3276.38 3384.56,3274.68 3383.46,3272.98 3382.67,3271.28 3382.24,3269.57 3382.17,3267.87 3382.5,3266.17 3383.22,3264.47 3384.34,3262.77 3385.86,3261.07 3387.75,3259.36 3390,3257.66 3392.58,3255.96 3395.46,3254.26 3398.6,3252.56 3401.98,3250.86 3405.55,3249.16 3409.28,3247.45 3413.15,3245.75 3417.13,3244.05 3421.19,3242.35 3425.34,3240.65 3429.56,3238.95 3433.85,3237.24 3438.24,3235.54 3442.72,3233.84 3447.34,3232.14 3452.11,3230.44 3457.07,3228.74 3462.25,3227.04 3467.67,3225.33 3473.39,3223.63 3479.41,3221.93 3485.76,3220.23 3492.45,3218.53 3499.49,3216.83 3506.86,3215.12 3514.55,3213.42 3522.53,3211.72 3530.75,3210.02 3539.17,3208.32 3547.73,3206.62 3556.35,3204.92 3564.98,3203.21 3573.53,3201.51 3581.94,3199.81 3590.15,3198.11 3598.1,3196.41 3605.74,3194.71 3613.03,3193.01 3619.96,3191.3 3626.5,3189.6 3632.65,3187.9 3638.42,3186.2 3643.81,3184.5 3648.85,3182.8 3653.55,3181.09 3657.94,3179.39 3662.01,3177.69 3665.8,3175.99 3669.31,3174.29 3672.54,3172.59 3675.5,3170.89 3678.18,3169.18 3680.6,3167.48 3682.74,3165.78 3684.61,3164.08 3686.2,3162.38 3687.53,3160.68 3688.59,3158.97 3689.39,3157.27 3689.92,3155.57 3690.18,3153.87 3690.15,3152.17 3689.8,3150.47 3689.1,3148.77 3687.98,3147.06 3686.4,3145.36 3684.26,3143.66 3681.49,3141.96 3677.99,3140.26 3673.69,3138.56 3668.48,3136.85 3662.31,3135.15 3655.12,3133.45 3646.87,3131.75 3637.55,3130.05 3627.18,3128.35 3615.82,3126.65 3603.52,3124.94 3590.39,3123.24 3576.57,3121.54 3562.18,3119.84 3547.38,3118.14 3532.35,3116.44 3517.24,3114.73 3502.22,3113.03 3166.23,3113.03 3151.21,3114.73 3136.1,3116.44 3121.06,3118.14 3106.27,3119.84 3091.88,3121.54 3078.05,3123.24 3064.93,3124.94 3052.63,3126.65 3041.26,3128.35 3030.89,3130.05 3021.58,3131.75 3013.32,3133.45 3006.13,3135.15 2999.96,3136.85 2994.76,3138.56 2990.45,3140.26 2986.96,3141.96 2984.19,3143.66 2982.05,3145.36 2980.46,3147.06 2979.35,3148.77 2978.64,3150.47 2978.3,3152.17 2978.26,3153.87 2978.52,3155.57 2979.05,3157.27 2979.85,3158.97 2980.91,3160.68 2982.24,3162.38 2983.84,3164.08 2985.71,3165.78 2987.85,3167.48 2990.26,3169.18 2992.95,3170.89 2995.91,3172.59 2999.14,3174.29 3002.65,3175.99 3006.43,3177.69 3010.51,3179.39 3014.89,3181.09 3019.59,3182.8 3024.63,3184.5 3030.03,3186.2 3035.79,3187.9 3041.95,3189.6 3048.49,3191.3 3055.41,3193.01 3062.71,3194.71 3070.35,3196.41 3078.3,3198.11 3086.51,3199.81 3094.92,3201.51 3103.47,3203.21 3112.09,3204.92 3120.72,3206.62 3129.27,3208.32 3137.69,3210.02 3145.91,3211.72 3153.89,3213.42 3161.58,3215.12 3168.96,3216.83 3175.99,3218.53 3182.69,3220.23 3189.04,3221.93 3195.06,3223.63 3200.77,3225.33 3206.2,3227.04 3211.38,3228.74 3216.33,3230.44 3221.11,3232.14 3225.72,3233.84 3230.21,3235.54 3234.59,3237.24 3238.89,3238.95 3243.11,3240.65 3247.25,3242.35 3251.32,3244.05 3255.29,3245.75 3259.16,3247.45 3262.9,3249.16 3266.47,3250.86 3269.84,3252.56 3272.99,3254.26 3275.87,3255.96 3278.45,3257.66 3280.7,3259.36 3282.59,3261.07 3284.1,3262.77 3285.22,3264.47 3285.95,3266.17 3286.27,3267.87 3286.21,3269.57 3285.77,3271.28 3284.99,3272.98 3283.89,3274.68 3282.5,3276.38 3280.88,3278.08 3279.06,3279.78 3277.08,3281.48 3275.01,3283.19 3272.89,3284.89 3270.76,3286.59 3268.68,3288.29 3266.69,3289.99 3264.85,3291.69 3263.19,3293.4 3261.76,3295.1 3260.59,3296.8 3259.73,3298.5 3259.2,3300.2 3259.02,3301.9 3259.23,3303.6 3259.83,3305.31 3260.83,3307.01 3262.23,3308.71 3264.02,3310.41 3266.19,3312.11 3268.71,3313.81 3271.55,3315.51 3396.9,3315.51 "/>
<path clip-path="url(#clip212)" d="M4692.3 3339.51 L4701.53 3337.79 L4710.71 3336.07 L4719.72 3334.36 L4728.47 3332.64 L4736.82 3330.93 L4744.66 3329.21 L4751.9 3327.49 L4758.44 3325.78 L4764.21 3324.06 L4769.14 3322.35 L4773.19 3320.63 L4776.35 3318.91 L4778.6 3317.2 L4779.99 3315.48 L4780.55 3313.76 L4780.35 3312.05 L4779.48 3310.33 L4778.03 3308.62 L4776.12 3306.9 L4773.87 3305.18 L4771.4 3303.47 L4768.85 3301.75 L4766.34 3300.04 L4763.98 3298.32 L4761.9 3296.6 L4760.2 3294.89 L4758.95 3293.17 L4758.23 3291.45 L4758.11 3289.74 L4758.63 3288.02 L4759.81 3286.31 L4761.66 3284.59 L4764.19 3282.87 L4767.38 3281.16 L4771.21 3279.44 L4775.64 3277.73 L4780.63 3276.01 L4786.13 3274.29 L4792.09 3272.58 L4798.45 3270.86 L4805.15 3269.14 L4812.12 3267.43 L4819.31 3265.71 L4826.64 3264 L4834.05 3262.28 L4841.48 3260.56 L4848.86 3258.85 L4856.14 3257.13 L4863.26 3255.42 L4870.15 3253.7 L4876.76 3251.98 L4883.05 3250.27 L4888.96 3248.55 L4894.46 3246.83 L4899.51 3245.12 L4904.08 3243.4 L4908.17 3241.69 L4911.75 3239.97 L4914.83 3238.25 L4917.42 3236.54 L4919.55 3234.82 L4921.24 3233.11 L4922.53 3231.39 L4923.49 3229.67 L4924.15 3227.96 L4924.59 3226.24 L4924.88 3224.52 L4925.06 3222.81 L4925.21 3221.09 L4925.38 3219.38 L4925.62 3217.66 L4925.97 3215.94 L4926.45 3214.23 L4927.08 3212.51 L4927.87 3210.8 L4928.79 3209.08 L4929.84 3207.36 L4930.95 3205.65 L4932.1 3203.93 L4933.22 3202.21 L4934.25 3200.5 L4935.11 3198.78 L4935.73 3197.07 L4936.04 3195.35 L4935.96 3193.63 L4935.42 3191.92 L4934.36 3190.2 L4932.7 3188.48 L4930.39 3186.77 L4927.38 3185.05 L4923.63 3183.34 L4919.1 3181.62 L4913.78 3179.9 L4907.64 3178.19 L4900.68 3176.47 L4892.92 3174.76 L4884.36 3173.04 L4875.04 3171.32 L4865 3169.61 L4854.28 3167.89 L4842.96 3166.17 L4831.1 3164.46 L4818.78 3162.74 L4806.09 3161.03 L4793.13 3159.31 L4780 3157.59 L4766.79 3155.88 L4753.61 3154.16 L4740.56 3152.45 L4727.74 3150.73 L4715.24 3149.01 L4444.92 3149.01 L4432.42 3150.73 L4419.6 3152.45 L4406.55 3154.16 L4393.37 3155.88 L4380.16 3157.59 L4367.03 3159.31 L4354.07 3161.03 L4341.38 3162.74 L4329.06 3164.46 L4317.2 3166.17 L4305.88 3167.89 L4295.16 3169.61 L4285.12 3171.32 L4275.8 3173.04 L4267.24 3174.76 L4259.48 3176.47 L4252.52 3178.19 L4246.38 3179.9 L4241.06 3181.62 L4236.53 3183.34 L4232.78 3185.05 L4229.77 3186.77 L4227.46 3188.48 L4225.8 3190.2 L4224.74 3191.92 L4224.2 3193.63 L4224.12 3195.35 L4224.43 3197.07 L4225.05 3198.78 L4225.91 3200.5 L4226.94 3202.21 L4228.06 3203.93 L4229.2 3205.65 L4230.32 3207.36 L4231.36 3209.08 L4232.29 3210.8 L4233.08 3212.51 L4233.71 3214.23 L4234.19 3215.94 L4234.54 3217.66 L4234.78 3219.38 L4234.95 3221.09 L4235.1 3222.81 L4235.28 3224.52 L4235.56 3226.24 L4236.01 3227.96 L4236.67 3229.67 L4237.63 3231.39 L4238.92 3233.11 L4240.61 3234.82 L4242.74 3236.54 L4245.33 3238.25 L4248.41 3239.97 L4251.99 3241.69 L4256.07 3243.4 L4260.65 3245.12 L4265.7 3246.83 L4271.2 3248.55 L4277.11 3250.27 L4283.4 3251.98 L4290.01 3253.7 L4296.9 3255.42 L4304.02 3257.13 L4311.29 3258.85 L4318.68 3260.56 L4326.11 3262.28 L4333.52 3264 L4340.85 3265.71 L4348.04 3267.43 L4355.01 3269.14 L4361.71 3270.86 L4368.07 3272.58 L4374.03 3274.29 L4379.53 3276.01 L4384.52 3277.73 L4388.95 3279.44 L4392.78 3281.16 L4395.97 3282.87 L4398.5 3284.59 L4400.35 3286.31 L4401.53 3288.02 L4402.04 3289.74 L4401.92 3291.45 L4401.21 3293.17 L4399.96 3294.89 L4398.26 3296.6 L4396.17 3298.32 L4393.82 3300.04 L4391.31 3301.75 L4388.76 3303.47 L4386.29 3305.18 L4384.04 3306.9 L4382.13 3308.62 L4380.68 3310.33 L4379.81 3312.05 L4379.61 3313.76 L4380.17 3315.48 L4381.56 3317.2 L4383.81 3318.91 L4386.97 3320.63 L4391.02 3322.35 L4395.95 3324.06 L4401.72 3325.78 L4408.26 3327.49 L4415.5 3329.21 L4423.34 3330.93 L4431.69 3332.64 L4440.43 3334.36 L4449.45 3336.07 L4458.63 3337.79 L4467.86 3339.51 L4692.3 3339.51  Z" fill="#77d052" fill-rule="evenodd" fill-opacity="1"/>
<polyline clip-path="url(#clip212)" style="stroke:#000000; stroke-linecap:round; stroke-linejoin:round; stroke-width:4.8; stroke-opacity:1; fill:none" points="4692.3,3339.51 4701.53,3337.79 4710.71,3336.07 4719.72,3334.36 4728.47,3332.64 4736.82,3330.93 4744.66,3329.21 4751.9,3327.49 4758.44,3325.78 4764.21,3324.06 4769.14,3322.35 4773.19,3320.63 4776.35,3318.91 4778.6,3317.2 4779.99,3315.48 4780.55,3313.76 4780.35,3312.05 4779.48,3310.33 4778.03,3308.62 4776.12,3306.9 4773.87,3305.18 4771.4,3303.47 4768.85,3301.75 4766.34,3300.04 4763.98,3298.32 4761.9,3296.6 4760.2,3294.89 4758.95,3293.17 4758.23,3291.45 4758.11,3289.74 4758.63,3288.02 4759.81,3286.31 4761.66,3284.59 4764.19,3282.87 4767.38,3281.16 4771.21,3279.44 4775.64,3277.73 4780.63,3276.01 4786.13,3274.29 4792.09,3272.58 4798.45,3270.86 4805.15,3269.14 4812.12,3267.43 4819.31,3265.71 4826.64,3264 4834.05,3262.28 4841.48,3260.56 4848.86,3258.85 4856.14,3257.13 4863.26,3255.42 4870.15,3253.7 4876.76,3251.98 4883.05,3250.27 4888.96,3248.55 4894.46,3246.83 4899.51,3245.12 4904.08,3243.4 4908.17,3241.69 4911.75,3239.97 4914.83,3238.25 4917.42,3236.54 4919.55,3234.82 4921.24,3233.11 4922.53,3231.39 4923.49,3229.67 4924.15,3227.96 4924.59,3226.24 4924.88,3224.52 4925.06,3222.81 4925.21,3221.09 4925.38,3219.38 4925.62,3217.66 4925.97,3215.94 4926.45,3214.23 4927.08,3212.51 4927.87,3210.8 4928.79,3209.08 4929.84,3207.36 4930.95,3205.65 4932.1,3203.93 4933.22,3202.21 4934.25,3200.5 4935.11,3198.78 4935.73,3197.07 4936.04,3195.35 4935.96,3193.63 4935.42,3191.92 4934.36,3190.2 4932.7,3188.48 4930.39,3186.77 4927.38,3185.05 4923.63,3183.34 4919.1,3181.62 4913.78,3179.9 4907.64,3178.19 4900.68,3176.47 4892.92,3174.76 4884.36,3173.04 4875.04,3171.32 4865,3169.61 4854.28,3167.89 4842.96,3166.17 4831.1,3164.46 4818.78,3162.74 4806.09,3161.03 4793.13,3159.31 4780,3157.59 4766.79,3155.88 4753.61,3154.16 4740.56,3152.45 4727.74,3150.73 4715.24,3149.01 4444.92,3149.01 4432.42,3150.73 4419.6,3152.45 4406.55,3154.16 4393.37,3155.88 4380.16,3157.59 4367.03,3159.31 4354.07,3161.03 4341.38,3162.74 4329.06,3164.46 4317.2,3166.17 4305.88,3167.89 4295.16,3169.61 4285.12,3171.32 4275.8,3173.04 4267.24,3174.76 4259.48,3176.47 4252.52,3178.19 4246.38,3179.9 4241.06,3181.62 4236.53,3183.34 4232.78,3185.05 4229.77,3186.77 4227.46,3188.48 4225.8,3190.2 4224.74,3191.92 4224.2,3193.63 4224.12,3195.35 4224.43,3197.07 4225.05,3198.78 4225.91,3200.5 4226.94,3202.21 4228.06,3203.93 4229.2,3205.65 4230.32,3207.36 4231.36,3209.08 4232.29,3210.8 4233.08,3212.51 4233.71,3214.23 4234.19,3215.94 4234.54,3217.66 4234.78,3219.38 4234.95,3221.09 4235.1,3222.81 4235.28,3224.52 4235.56,3226.24 4236.01,3227.96 4236.67,3229.67 4237.63,3231.39 4238.92,3233.11 4240.61,3234.82 4242.74,3236.54 4245.33,3238.25 4248.41,3239.97 4251.99,3241.69 4256.07,3243.4 4260.65,3245.12 4265.7,3246.83 4271.2,3248.55 4277.11,3250.27 4283.4,3251.98 4290.01,3253.7 4296.9,3255.42 4304.02,3257.13 4311.29,3258.85 4318.68,3260.56 4326.11,3262.28 4333.52,3264 4340.85,3265.71 4348.04,3267.43 4355.01,3269.14 4361.71,3270.86 4368.07,3272.58 4374.03,3274.29 4379.53,3276.01 4384.52,3277.73 4388.95,3279.44 4392.78,3281.16 4395.97,3282.87 4398.5,3284.59 4400.35,3286.31 4401.53,3288.02 4402.04,3289.74 4401.92,3291.45 4401.21,3293.17 4399.96,3294.89 4398.26,3296.6 4396.17,3298.32 4393.82,3300.04 4391.31,3301.75 4388.76,3303.47 4386.29,3305.18 4384.04,3306.9 4382.13,3308.62 4380.68,3310.33 4379.81,3312.05 4379.61,3313.76 4380.17,3315.48 4381.56,3317.2 4383.81,3318.91 4386.97,3320.63 4391.02,3322.35 4395.95,3324.06 4401.72,3325.78 4408.26,3327.49 4415.5,3329.21 4423.34,3330.93 4431.69,3332.64 4440.43,3334.36 4449.45,3336.07 4458.63,3337.79 4467.86,3339.51 4692.3,3339.51 "/>
<path clip-path="url(#clip212)" d="M5855.61 2351.25 L5856.52 2332.7 L5857.29 2314.14 L5857.91 2295.59 L5858.4 2277.03 L5858.78 2258.48 L5859.04 2239.92 L5859.23 2221.37 L5859.34 2202.81 L5859.41 2184.25 L5859.45 2165.7 L5859.49 2147.14 L5859.54 2128.59 L5859.62 2110.03 L5859.74 2091.48 L5859.93 2072.92 L5860.18 2054.36 L5860.51 2035.81 L5860.93 2017.25 L5861.43 1998.7 L5862.02 1980.14 L5862.71 1961.59 L5863.48 1943.03 L5864.33 1924.48 L5865.26 1905.92 L5866.26 1887.36 L5867.32 1868.81 L5868.43 1850.25 L5869.57 1831.7 L5870.75 1813.14 L5871.94 1794.59 L5873.13 1776.03 L5874.32 1757.47 L5875.5 1738.92 L5876.65 1720.36 L5877.79 1701.81 L5878.89 1683.25 L5879.96 1664.7 L5881.01 1646.14 L5882.04 1627.59 L5883.06 1609.03 L5884.09 1590.47 L5885.13 1571.92 L5886.2 1553.36 L5887.33 1534.81 L5888.53 1516.25 L5889.81 1497.7 L5891.19 1479.14 L5892.68 1460.58 L5894.3 1442.03 L5896.04 1423.47 L5897.9 1404.92 L5899.87 1386.36 L5901.95 1367.81 L5904.1 1349.25 L5906.31 1330.7 L5908.55 1312.14 L5910.79 1293.58 L5912.98 1275.03 L5915.11 1256.47 L5917.13 1237.92 L5919.01 1219.36 L5920.75 1200.81 L5922.31 1182.25 L5923.69 1163.69 L5924.89 1145.14 L5925.91 1126.58 L5926.78 1108.03 L5927.53 1089.47 L5928.2 1070.92 L5928.83 1052.36 L5929.48 1033.81 L5930.22 1015.25 L5931.12 996.694 L5932.27 978.138 L5933.73 959.583 L5935.6 941.027 L5937.95 922.472 L5940.88 903.916 L5944.44 885.36 L5948.73 866.805 L5953.78 848.249 L5959.64 829.693 L5966.35 811.138 L5973.92 792.582 L5982.34 774.027 L5991.59 755.471 L6001.62 736.915 L6012.36 718.36 L6023.74 699.804 L6035.64 681.248 L6047.95 662.693 L6060.54 644.137 L6073.27 625.582 L6085.97 607.026 L6098.51 588.47 L6110.71 569.915 L6122.41 551.359 L6133.47 532.803 L6143.72 514.248 L6153.02 495.692 L6161.24 477.137 L6168.24 458.581 L6173.9 440.025 L6178.12 421.47 L6180.81 402.914 L6181.9 384.358 L6181.31 365.803 L6179.02 347.247 L6175 328.692 L6169.27 310.136 L6161.85 291.58 L6152.8 273.025 L6142.21 254.469 L6130.18 235.913 L6116.85 217.358 L6102.39 198.802 L6086.97 180.246 L6070.8 161.691 L6054.07 143.135 L5597.8 143.135 L5581.08 161.691 L5564.9 180.246 L5549.48 198.802 L5535.02 217.358 L5521.69 235.913 L5509.67 254.469 L5499.07 273.025 L5490.02 291.58 L5482.6 310.136 L5476.87 328.692 L5472.85 347.247 L5470.56 365.803 L5469.98 384.358 L5471.06 402.914 L5473.75 421.47 L5477.97 440.025 L5483.64 458.581 L5490.63 477.137 L5498.85 495.692 L5508.15 514.248 L5518.41 532.803 L5529.46 551.359 L5541.17 569.915 L5553.37 588.47 L5565.9 607.026 L5578.61 625.582 L5591.33 644.137 L5603.92 662.693 L5616.23 681.248 L5628.14 699.804 L5639.51 718.36 L5650.26 736.915 L5660.28 755.471 L5669.53 774.027 L5677.95 792.582 L5685.52 811.138 L5692.23 829.693 L5698.1 848.249 L5703.15 866.805 L5707.43 885.36 L5711 903.916 L5713.92 922.472 L5716.28 941.027 L5718.14 959.583 L5719.61 978.138 L5720.75 996.694 L5721.65 1015.25 L5722.39 1033.81 L5723.04 1052.36 L5723.67 1070.92 L5724.34 1089.47 L5725.09 1108.03 L5725.96 1126.58 L5726.99 1145.14 L5728.18 1163.69 L5729.56 1182.25 L5731.13 1200.81 L5732.86 1219.36 L5734.75 1237.92 L5736.77 1256.47 L5738.89 1275.03 L5741.09 1293.58 L5743.32 1312.14 L5745.56 1330.7 L5747.77 1349.25 L5749.92 1367.81 L5752 1386.36 L5753.97 1404.92 L5755.83 1423.47 L5757.57 1442.03 L5759.19 1460.58 L5760.68 1479.14 L5762.06 1497.7 L5763.35 1516.25 L5764.54 1534.81 L5765.67 1553.36 L5766.75 1571.92 L5767.79 1590.47 L5768.81 1609.03 L5769.83 1627.59 L5770.86 1646.14 L5771.91 1664.7 L5772.99 1683.25 L5774.09 1701.81 L5775.22 1720.36 L5776.37 1738.92 L5777.55 1757.47 L5778.74 1776.03 L5779.94 1794.59 L5781.13 1813.14 L5782.3 1831.7 L5783.45 1850.25 L5784.55 1868.81 L5785.61 1887.36 L5786.61 1905.92 L5787.54 1924.48 L5788.39 1943.03 L5789.17 1961.59 L5789.85 1980.14 L5790.44 1998.7 L5790.95 2017.25 L5791.36 2035.81 L5791.69 2054.36 L5791.95 2072.92 L5792.13 2091.48 L5792.26 2110.03 L5792.33 2128.59 L5792.38 2147.14 L5792.42 2165.7 L5792.46 2184.25 L5792.53 2202.81 L5792.65 2221.37 L5792.83 2239.92 L5793.1 2258.48 L5793.47 2277.03 L5793.96 2295.59 L5794.58 2314.14 L5795.35 2332.7 L5796.26 2351.25 L5855.61 2351.25  Z" fill="#fae622" fill-rule="evenodd" fill-opacity="1"/>
<polyline clip-path="url(#clip212)" style="stroke:#000000; stroke-linecap:round; stroke-linejoin:round; stroke-width:4.8; stroke-opacity:1; fill:none" points="5855.61,2351.25 5856.52,2332.7 5857.29,2314.14 5857.91,2295.59 5858.4,2277.03 5858.78,2258.48 5859.04,2239.92 5859.23,2221.37 5859.34,2202.81 5859.41,2184.25 5859.45,2165.7 5859.49,2147.14 5859.54,2128.59 5859.62,2110.03 5859.74,2091.48 5859.93,2072.92 5860.18,2054.36 5860.51,2035.81 5860.93,2017.25 5861.43,1998.7 5862.02,1980.14 5862.71,1961.59 5863.48,1943.03 5864.33,1924.48 5865.26,1905.92 5866.26,1887.36 5867.32,1868.81 5868.43,1850.25 5869.57,1831.7 5870.75,1813.14 5871.94,1794.59 5873.13,1776.03 5874.32,1757.47 5875.5,1738.92 5876.65,1720.36 5877.79,1701.81 5878.89,1683.25 5879.96,1664.7 5881.01,1646.14 5882.04,1627.59 5883.06,1609.03 5884.09,1590.47 5885.13,1571.92 5886.2,1553.36 5887.33,1534.81 5888.53,1516.25 5889.81,1497.7 5891.19,1479.14 5892.68,1460.58 5894.3,1442.03 5896.04,1423.47 5897.9,1404.92 5899.87,1386.36 5901.95,1367.81 5904.1,1349.25 5906.31,1330.7 5908.55,1312.14 5910.79,1293.58 5912.98,1275.03 5915.11,1256.47 5917.13,1237.92 5919.01,1219.36 5920.75,1200.81 5922.31,1182.25 5923.69,1163.69 5924.89,1145.14 5925.91,1126.58 5926.78,1108.03 5927.53,1089.47 5928.2,1070.92 5928.83,1052.36 5929.48,1033.81 5930.22,1015.25 5931.12,996.694 5932.27,978.138 5933.73,959.583 5935.6,941.027 5937.95,922.472 5940.88,903.916 5944.44,885.36 5948.73,866.805 5953.78,848.249 5959.64,829.693 5966.35,811.138 5973.92,792.582 5982.34,774.027 5991.59,755.471 6001.62,736.915 6012.36,718.36 6023.74,699.804 6035.64,681.248 6047.95,662.693 6060.54,644.137 6073.27,625.582 6085.97,607.026 6098.51,588.47 6110.71,569.915 6122.41,551.359 6133.47,532.803 6143.72,514.248 6153.02,495.692 6161.24,477.137 6168.24,458.581 6173.9,440.025 6178.12,421.47 6180.81,402.914 6181.9,384.358 6181.31,365.803 6179.02,347.247 6175,328.692 6169.27,310.136 6161.85,291.58 6152.8,273.025 6142.21,254.469 6130.18,235.913 6116.85,217.358 6102.39,198.802 6086.97,180.246 6070.8,161.691 6054.07,143.135 5597.8,143.135 5581.08,161.691 5564.9,180.246 5549.48,198.802 5535.02,217.358 5521.69,235.913 5509.67,254.469 5499.07,273.025 5490.02,291.58 5482.6,310.136 5476.87,328.692 5472.85,347.247 5470.56,365.803 5469.98,384.358 5471.06,402.914 5473.75,421.47 5477.97,440.025 5483.64,458.581 5490.63,477.137 5498.85,495.692 5508.15,514.248 5518.41,532.803 5529.46,551.359 5541.17,569.915 5553.37,588.47 5565.9,607.026 5578.61,625.582 5591.33,644.137 5603.92,662.693 5616.23,681.248 5628.14,699.804 5639.51,718.36 5650.26,736.915 5660.28,755.471 5669.53,774.027 5677.95,792.582 5685.52,811.138 5692.23,829.693 5698.1,848.249 5703.15,866.805 5707.43,885.36 5711,903.916 5713.92,922.472 5716.28,941.027 5718.14,959.583 5719.61,978.138 5720.75,996.694 5721.65,1015.25 5722.39,1033.81 5723.04,1052.36 5723.67,1070.92 5724.34,1089.47 5725.09,1108.03 5725.96,1126.58 5726.99,1145.14 5728.18,1163.69 5729.56,1182.25 5731.13,1200.81 5732.86,1219.36 5734.75,1237.92 5736.77,1256.47 5738.89,1275.03 5741.09,1293.58 5743.32,1312.14 5745.56,1330.7 5747.77,1349.25 5749.92,1367.81 5752,1386.36 5753.97,1404.92 5755.83,1423.47 5757.57,1442.03 5759.19,1460.58 5760.68,1479.14 5762.06,1497.7 5763.35,1516.25 5764.54,1534.81 5765.67,1553.36 5766.75,1571.92 5767.79,1590.47 5768.81,1609.03 5769.83,1627.59 5770.86,1646.14 5771.91,1664.7 5772.99,1683.25 5774.09,1701.81 5775.22,1720.36 5776.37,1738.92 5777.55,1757.47 5778.74,1776.03 5779.94,1794.59 5781.13,1813.14 5782.3,1831.7 5783.45,1850.25 5784.55,1868.81 5785.61,1887.36 5786.61,1905.92 5787.54,1924.48 5788.39,1943.03 5789.17,1961.59 5789.85,1980.14 5790.44,1998.7 5790.95,2017.25 5791.36,2035.81 5791.69,2054.36 5791.95,2072.92 5792.13,2091.48 5792.26,2110.03 5792.33,2128.59 5792.38,2147.14 5792.42,2165.7 5792.46,2184.25 5792.53,2202.81 5792.65,2221.37 5792.83,2239.92 5793.1,2258.48 5793.47,2277.03 5793.96,2295.59 5794.58,2314.14 5795.35,2332.7 5796.26,2351.25 5855.61,2351.25 "/>
</svg>
